<svg width="600" height="500" viewBox="0 0 600 500" fill="none" xmlns="http://www.w3.org/2000/svg">
<path d="M105.3 15.6V38.3H40.5V64.6H100V85.6H40.5V115.7H106.7V138.4H13.5V15.6H105.3ZM174.7 138.3V126H174.2C171.1 131.2 167.1 134.9 162.2 137.2C157.3 139.5 152.2 140.6 147.1 140.6C140.6 140.6 135.2 139.7 131 138C126.8 136.3 123.5 133.8 121.1 130.7C118.7 127.6 117 123.7 116 119.2C115 114.7 114.5 109.7 114.5 104.2V49.5H139V99.7C139 107 140.1 112.5 142.4 116.1C144.7 119.7 148.8 121.5 154.6 121.5C161.2 121.5 166.1 119.5 169 115.6C172 111.6 173.5 105.1 173.5 96.1V49.5H197.9V138.4H174.7V138.3ZM232.4 49.5V66H232.7C233.8 63.2 235.4 60.7 237.3 58.4C239.2 56.1 241.5 54 244 52.4C246.5 50.7 249.2 49.5 252.1 48.5C255 47.6 257.9 47.1 261 47.1C262.6 47.1 264.4 47.4 266.3 48V70.7C265.2 70.5 263.8 70.3 262.2 70.1C260.6 69.9 259.1 69.8 257.6 69.8C253.1 69.8 249.4 70.5 246.3 72C243.2 73.5 240.7 75.5 238.8 78.1C236.9 80.7 235.6 83.7 234.8 87.1C234 90.5 233.6 94.3 233.6 98.3V138.3H209.2V49.5H232.4ZM271.3 76.8C271.6 71.1 273.1 66.3 275.6 62.5C278.1 58.7 281.3 55.7 285.2 53.4C289.1 51.1 293.5 49.5 298.3 48.5C303.2 47.5 308.1 47 313 47C317.5 47 322 47.3 326.6 47.9C331.2 48.5 335.4 49.8 339.1 51.6C342.9 53.4 346 56 348.4 59.2C350.8 62.5 352 66.8 352 72.2V118.4C352 122.4 352.2 126.2 352.7 129.9C353.2 133.6 354 136.3 355.1 138.1H330.4C329.9 136.7 329.6 135.3 329.3 133.9C329 132.5 328.8 131 328.7 129.5C324.8 133.5 320.2 136.3 315 137.9C309.7 139.5 304.3 140.3 298.8 140.3C294.6 140.3 290.6 139.8 286.9 138.8C283.2 137.8 280 136.2 277.3 134C274.6 131.8 272.4 129.1 270.9 125.8C269.4 122.5 268.6 118.5 268.6 113.9C268.6 108.9 269.5 104.7 271.3 101.4C273.1 98.1 275.4 95.5 278.2 93.6C281 91.7 284.2 90.2 287.8 89.2C291.4 88.2 295 87.5 298.7 86.9C302.4 86.3 306 85.9 309.5 85.5C313.1 85.2 316.2 84.6 319 84C321.7 83.3 323.9 82.3 325.5 81C327.1 79.7 327.8 77.8 327.7 75.2C327.7 72.6 327.3 70.5 326.4 68.9C325.5 67.4 324.4 66.1 323 65.3C321.6 64.4 319.9 63.9 318 63.6C316.1 63.3 314.1 63.2 311.9 63.2C307.1 63.2 303.3 64.2 300.6 66.3C297.9 68.4 296.2 71.8 295.8 76.6H271.3V76.8ZM327.7 94.8C326.7 95.7 325.4 96.4 323.8 96.9C322.3 97.4 320.6 97.8 318.8 98.2C317 98.5 315.2 98.8 313.2 99.1C311.2 99.3 309.3 99.6 307.4 100C305.6 100.3 303.8 100.8 302 101.4C300.2 102 298.7 102.7 297.4 103.7C296.1 104.7 295 105.9 294.2 107.4C293.4 108.9 293 110.8 293 113.1C293 115.3 293.4 117.1 294.2 118.6C295 120.1 296.1 121.3 297.5 122.1C298.9 122.9 300.5 123.6 302.3 123.9C304.1 124.2 306 124.4 308 124.4C312.8 124.4 316.5 123.6 319.2 122C321.8 120.4 323.8 118.5 325 116.2C326.3 114 327 111.7 327.3 109.4C327.6 107.1 327.7 105.3 327.7 103.9V94.8ZM384.3 116.2C385.4 118.1 386.8 119.6 388.5 120.8C390.2 122 392.2 122.9 394.4 123.5C396.6 124.1 399 124.4 401.4 124.4C403.1 124.4 404.9 124.2 406.8 123.8C408.7 123.4 410.4 122.8 412 121.9C413.5 121 414.8 119.9 415.9 118.5C416.9 117.1 417.4 115.3 417.4 113.1C417.4 109.4 415 106.7 410.1 104.9C405.2 103.1 398.4 101.2 389.7 99.4C386.1 98.6 382.7 97.7 379.3 96.6C375.9 95.5 372.9 94.1 370.3 92.3C367.7 90.5 365.5 88.3 363.9 85.6C362.3 82.9 361.5 79.6 361.5 75.7C361.5 70 362.6 65.3 364.8 61.6C367 57.9 370 55 373.7 52.9C377.4 50.8 381.5 49.3 386.1 48.4C390.7 47.5 395.4 47.1 400.2 47.1C405 47.1 409.7 47.6 414.2 48.5C418.7 49.4 422.8 51 426.3 53.1C429.9 55.3 432.8 58.2 435.2 61.8C437.5 65.4 439 70 439.4 75.5H416.2C415.9 70.8 414.1 67.6 410.9 66C407.7 64.3 403.9 63.5 399.6 63.5C398.2 63.5 396.7 63.6 395.1 63.8C393.5 64 392 64.3 390.7 64.9C389.4 65.5 388.3 66.3 387.4 67.4C386.5 68.5 386 70 386 71.8C386 74 386.8 75.8 388.4 77.1C390 78.5 392.1 79.6 394.7 80.4C397.3 81.3 400.2 82 403.6 82.7C406.9 83.4 410.3 84.1 413.7 84.9C417.3 85.7 420.7 86.7 424.1 87.8C427.5 88.9 430.5 90.5 433.1 92.4C435.7 94.3 437.8 96.6 439.5 99.4C441.1 102.2 441.9 105.7 441.9 109.8C441.9 115.6 440.7 120.5 438.4 124.5C436 128.5 433 131.6 429.2 134C425.4 136.4 421.1 138.1 416.2 139.1C411.3 140.1 406.4 140.6 401.3 140.6C396.1 140.6 391.1 140.1 386.2 139.1C381.3 138.1 376.9 136.4 373.1 133.9C369.3 131.5 366.1 128.3 363.6 124.4C361.1 120.4 359.8 115.5 359.6 109.5H382.8C382.6 112.1 383.2 114.4 384.3 116.2ZM450 35.7V15.6H474.4V35.7H450ZM474.4 49.5V138.4H450V49.5H474.4ZM485.8 76.8C486.1 71.1 487.6 66.3 490.1 62.5C492.6 58.7 495.8 55.7 499.7 53.4C503.6 51.1 508 49.5 512.8 48.5C517.7 47.5 522.6 47 527.5 47C532 47 536.5 47.3 541.1 47.9C545.7 48.5 549.9 49.8 553.6 51.6C557.4 53.4 560.5 56 562.9 59.2C565.3 62.5 566.5 66.8 566.5 72.2V118.4C566.5 122.4 566.7 126.2 567.2 129.9C567.7 133.6 568.5 136.3 569.6 138.1H544.9C544.4 136.7 544.1 135.3 543.8 133.9C543.5 132.5 543.3 131 543.2 129.5C539.3 133.5 534.7 136.3 529.5 137.9C524.2 139.5 518.8 140.3 513.3 140.3C509.1 140.3 505.1 139.8 501.4 138.8C497.7 137.8 494.5 136.2 491.8 134C489.1 131.8 486.9 129.1 485.4 125.8C483.9 122.5 483.1 118.5 483.1 113.9C483.1 108.9 484 104.7 485.8 101.4C487.6 98.1 489.9 95.5 492.7 93.6C495.5 91.7 498.7 90.2 502.3 89.2C505.9 88.2 509.5 87.5 513.2 86.9C516.9 86.3 520.5 85.9 524 85.5C527.6 85.2 530.7 84.6 533.5 84C536.2 83.3 538.4 82.3 540 81C541.6 79.7 542.3 77.8 542.2 75.2C542.2 72.6 541.8 70.5 540.9 68.9C540 67.4 538.9 66.1 537.5 65.3C536.1 64.4 534.4 63.9 532.5 63.6C530.6 63.3 528.6 63.2 526.4 63.2C521.6 63.2 517.8 64.2 515.1 66.3C512.4 68.4 510.7 71.8 510.3 76.6H485.8V76.8ZM542.1 94.8C541.1 95.7 539.8 96.4 538.2 96.9C536.7 97.4 535 97.8 533.2 98.2C531.4 98.5 529.6 98.8 527.6 99.1C525.6 99.3 523.7 99.6 521.8 100C520 100.3 518.2 100.8 516.4 101.4C514.6 102 513.1 102.7 511.8 103.7C510.5 104.7 509.4 105.9 508.6 107.4C507.8 108.9 507.4 110.8 507.4 113.1C507.4 115.3 507.8 117.1 508.6 118.6C509.4 120.1 510.5 121.3 511.9 122.1C513.3 123 514.9 123.6 516.7 123.9C518.5 124.2 520.4 124.4 522.4 124.4C527.2 124.4 530.9 123.6 533.6 122C536.2 120.4 538.2 118.5 539.4 116.2C540.7 114 541.4 111.7 541.7 109.4C542 107.1 542.1 105.3 542.1 103.9V94.8ZM13.5 185.2V162.5H114V185.2H77.3V285.2H50.3V185.2H13.5ZM102 223.7C102.3 218 103.8 213.2 106.3 209.4C108.8 205.6 112 202.6 115.9 200.3C119.8 198 124.2 196.4 129 195.4C133.9 194.4 138.8 193.9 143.7 193.9C148.2 193.9 152.7 194.2 157.3 194.8C161.9 195.4 166.1 196.7 169.8 198.5C173.6 200.3 176.7 202.9 179.1 206.1C181.5 209.4 182.7 213.7 182.7 219.1V265.3C182.7 269.3 182.9 273.1 183.4 276.8C183.9 280.5 184.7 283.2 185.8 285H161.1C160.6 283.6 160.3 282.2 160 280.8C159.7 279.4 159.5 277.9 159.4 276.4C155.5 280.4 150.9 283.2 145.7 284.8C140.4 286.4 135 287.2 129.5 287.2C125.3 287.2 121.3 286.7 117.6 285.7C113.9 284.7 110.7 283.1 108 280.9C105.3 278.7 103.1 276 101.6 272.7C100.1 269.4 99.3 265.4 99.3 260.8C99.3 255.8 100.2 251.6 102 248.3C103.8 245 106.1 242.4 108.9 240.5C111.7 238.6 114.9 237.1 118.5 236.1C122.1 235.1 125.7 234.4 129.4 233.8C133.1 233.2 136.7 232.8 140.2 232.4C143.8 232.1 146.9 231.5 149.7 230.9C152.4 230.2 154.6 229.2 156.2 227.9C157.8 226.6 158.5 224.7 158.4 222.1C158.4 219.5 158 217.4 157.1 215.8C156.2 214.3 155.1 213 153.7 212.2C152.3 211.3 150.6 210.8 148.7 210.5C146.8 210.2 144.8 210.1 142.6 210.1C137.8 210.1 134 211.1 131.3 213.2C128.6 215.3 126.9 218.7 126.5 223.5H102V223.7ZM158.4 241.7C157.4 242.6 156.1 243.3 154.5 243.8C153 244.3 151.3 244.7 149.5 245.1C147.7 245.4 145.9 245.7 143.9 246C141.9 246.2 140 246.5 138.1 246.9C136.3 247.2 134.5 247.7 132.7 248.3C130.9 248.9 129.4 249.6 128.1 250.6C126.8 251.6 125.7 252.8 124.9 254.3C124.1 255.8 123.7 257.7 123.7 260C123.7 262.2 124.1 264 124.9 265.5C125.7 267 126.8 268.2 128.2 269C129.6 269.8 131.2 270.5 133 270.8C134.8 271.1 136.7 271.3 138.7 271.3C143.5 271.3 147.2 270.5 149.9 268.9C152.5 267.3 154.5 265.4 155.7 263.1C157 260.9 157.7 258.6 158 256.3C158.3 254 158.4 252.2 158.4 250.8V241.7ZM219.2 162.5V285.2H194.8V162.5H219.2ZM258.5 263.9C262.2 267.5 267.4 269.2 274.3 269.2C279.2 269.2 283.5 268 287 265.5C290.6 263 292.7 260.4 293.5 257.7H315C311.6 268.4 306.3 276 299.2 280.6C292.1 285.2 283.5 287.5 273.4 287.5C266.4 287.5 260.1 286.4 254.5 284.1C248.9 281.9 244.1 278.7 240.2 274.6C236.3 270.5 233.3 265.6 231.2 259.8C229.1 254.1 228 247.8 228 240.9C228 234.3 229.1 228.1 231.3 222.3C233.5 216.6 236.6 211.6 240.6 207.4C244.6 203.2 249.4 199.9 254.9 197.5C260.4 195.1 266.6 193.9 273.4 193.9C281 193.9 287.6 195.4 293.2 198.3C298.8 201.2 303.4 205.1 307 210.1C310.6 215 313.2 220.6 314.8 226.9C316.4 233.2 317 239.8 316.5 246.7H252.4C252.8 254.6 254.8 260.4 258.5 263.9ZM286.1 217.2C283.2 214 278.7 212.4 272.8 212.4C268.9 212.4 265.7 213.1 263.1 214.4C260.5 215.7 258.5 217.4 256.9 219.3C255.4 221.3 254.3 223.3 253.6 225.5C253 227.7 252.6 229.6 252.5 231.3H292.2C291 225.1 289 220.4 286.1 217.2ZM349.1 196.4V208.8H349.6C352.7 203.6 356.7 199.9 361.6 197.5C366.5 195.2 371.6 194 376.7 194C383.2 194 388.6 194.9 392.8 196.7C397 198.5 400.3 200.9 402.7 204.1C405.1 207.3 406.8 211.1 407.8 215.6C408.8 220.1 409.3 225.1 409.3 230.6V285.3H384.9V235C384.9 227.7 383.8 222.2 381.5 218.6C379.2 215 375.1 213.2 369.3 213.2C362.7 213.2 357.8 215.2 354.9 219.1C351.9 223.1 350.4 229.6 350.4 238.6V285.2H326V196.3H349.1V196.4ZM471.4 196.4V212.7H453.5V256.7C453.5 260.8 454.2 263.6 455.6 264.9C457 266.3 459.7 267 463.8 267C465.2 267 466.5 266.9 467.8 266.8C469.1 266.7 470.3 266.5 471.4 266.3V285.2C469.3 285.5 467 285.8 464.5 285.9C462 286 459.5 286.1 457.1 286.1C453.3 286.1 449.7 285.8 446.4 285.3C443 284.8 440 283.8 437.5 282.3C434.9 280.8 432.9 278.7 431.4 275.9C429.9 273.1 429.2 269.5 429.2 265.1V212.7H414.4V196.4H429.2V169.8H453.6V196.4H471.4ZM501.8 263.1C502.9 265 504.3 266.5 506 267.7C507.7 268.9 509.7 269.8 511.9 270.4C514.1 271 516.5 271.3 518.9 271.3C520.6 271.3 522.4 271.1 524.3 270.7C526.2 270.3 527.9 269.7 529.5 268.8C531 267.9 532.3 266.8 533.4 265.4C534.4 264 534.9 262.2 534.9 260C534.9 256.3 532.5 253.6 527.6 251.8C522.7 250 515.9 248.1 507.2 246.3C503.6 245.5 500.2 244.6 496.8 243.5C493.4 242.4 490.4 241 487.8 239.2C485.2 237.4 483 235.2 481.4 232.5C479.8 229.8 479 226.5 479 222.6C479 216.9 480.1 212.2 482.3 208.5C484.5 204.8 487.5 201.9 491.2 199.8C494.9 197.7 499 196.2 503.6 195.3C508.2 194.4 512.9 194 517.7 194C522.5 194 527.2 194.5 531.7 195.4C536.2 196.3 540.3 197.9 543.8 200C547.4 202.2 550.3 205.1 552.7 208.7C555 212.3 556.5 216.9 556.9 222.4H533.7C533.4 217.7 531.6 214.5 528.4 212.9C525.2 211.2 521.4 210.4 517.1 210.4C515.7 210.4 514.2 210.5 512.6 210.7C511 210.9 509.5 211.2 508.2 211.8C506.9 212.4 505.8 213.2 504.9 214.3C504 215.4 503.5 216.9 503.5 218.7C503.5 220.9 504.3 222.7 505.9 224C507.5 225.4 509.6 226.5 512.2 227.3C514.8 228.2 517.7 228.9 521.1 229.6C524.4 230.3 527.8 231 531.2 231.8C534.8 232.6 538.2 233.6 541.6 234.7C545 235.8 548 237.4 550.6 239.3C553.2 241.2 555.3 243.5 557 246.3C558.6 249.1 559.4 252.6 559.4 256.7C559.4 262.5 558.2 267.4 555.9 271.4C553.5 275.4 550.5 278.5 546.7 280.9C542.9 283.3 538.6 285 533.7 286C528.8 287 523.9 287.5 518.8 287.5C513.6 287.5 508.6 287 503.7 286C498.8 285 494.4 283.3 490.6 280.8C486.8 278.4 483.6 275.2 481.1 271.3C478.6 267.3 477.3 262.4 477.1 256.4H500.3C500.1 259 500.7 261.2 501.8 263.1ZM82.6 309.4L128.5 432.1H100.5L91.2 404.8H45.3L35.7 432.1H8.5L54.9 309.4H82.6ZM84.1 384.7L68.6 339.7H68.3L52.3 384.7H84.1ZM212.9 438.6C211.9 443.2 209.8 447.5 206.6 451.4C203.4 455.4 198.8 458.7 192.7 461.5C186.6 464.3 178.5 465.6 168.3 465.6C163.9 465.6 159.5 465.1 155 464C150.5 462.9 146.3 461.2 142.6 458.9C138.9 456.6 135.8 453.7 133.3 450C130.8 446.4 129.4 442.1 129.1 437H153.3C154.4 441.6 156.7 444.8 160 446.5C163.3 448.3 167.2 449.2 171.5 449.2C178.4 449.2 183.4 447.1 186.5 443C189.7 438.9 191.2 433.7 191.1 427.4V415.7H190.8C188.2 420.4 184.4 423.9 179.5 426.1C174.6 428.3 169.5 429.4 164.1 429.4C157.5 429.4 151.7 428.2 146.9 425.9C142.1 423.6 138.1 420.3 135 416.3C131.9 412.2 129.6 407.5 128.2 402C126.8 396.6 126 390.8 126 384.7C126 379 126.8 373.4 128.5 368.1C130.2 362.8 132.6 358.1 135.8 354C139 349.9 143 346.7 147.7 344.3C152.4 341.9 157.9 340.7 164.1 340.7C169.9 340.7 175.1 341.8 179.5 344C183.9 346.2 187.6 349.8 190.6 355H190.9V343.1H214.1V426.3C214.4 430 213.9 434.1 212.9 438.6ZM179.5 409.1C182.1 407.7 184.3 405.9 186 403.6C187.7 401.3 189 398.7 189.9 395.8C190.8 392.9 191.2 389.8 191.2 386.6C191.2 382.9 190.9 379.5 190.2 376.2C189.5 372.9 188.4 370 186.8 367.5C185.2 365 183.1 363 180.4 361.5C177.8 360 174.4 359.3 170.4 359.3C167 359.3 164 360 161.5 361.4C159 362.8 157 364.6 155.3 367C153.6 369.4 152.4 372 151.7 375.1C151 378.1 150.6 381.3 150.6 384.6C150.6 387.8 150.9 391 151.5 394.1C152.1 397.3 153.2 400.1 154.8 402.6C156.3 405.1 158.4 407.2 160.9 408.8C163.4 410.4 166.6 411.2 170.4 411.2C173.8 411.1 176.9 410.5 179.5 409.1ZM253.7 410.8C257.4 414.4 262.6 416.1 269.5 416.1C274.4 416.1 278.7 414.9 282.2 412.4C285.8 409.9 287.9 407.3 288.7 404.6H310.2C306.8 415.3 301.5 422.9 294.4 427.5C287.3 432.1 278.7 434.4 268.6 434.4C261.6 434.4 255.3 433.3 249.7 431C244.1 428.8 239.3 425.6 235.4 421.5C231.5 417.4 228.5 412.5 226.4 406.7C224.3 401 223.2 394.7 223.2 387.8C223.2 381.2 224.3 375 226.5 369.2C228.7 363.5 231.8 358.5 235.8 354.3C239.8 350.1 244.6 346.8 250.1 344.4C255.7 342 261.8 340.8 268.6 340.8C276.2 340.8 282.8 342.3 288.4 345.2C294 348.1 298.6 352.1 302.2 357C305.8 361.9 308.4 367.5 310 373.8C311.6 380.1 312.2 386.7 311.7 393.6H247.6C248 401.5 250 407.3 253.7 410.8ZM281.3 364.1C278.4 360.9 273.9 359.3 268 359.3C264.1 359.3 260.9 360 258.3 361.3C255.7 362.6 253.7 364.3 252.1 366.2C250.6 368.2 249.5 370.2 248.8 372.4C248.2 374.6 247.8 376.5 247.7 378.2H287.4C286.2 372 284.2 367.3 281.3 364.1ZM344.2 343.3V355.7H344.7C347.8 350.5 351.8 346.8 356.7 344.4C361.6 342.1 366.7 340.9 371.8 340.9C378.3 340.9 383.7 341.8 387.9 343.6C392.1 345.4 395.4 347.8 397.8 351C400.2 354.2 401.9 358 402.9 362.5C403.9 367 404.4 372 404.4 377.5V432.1H380V381.9C380 374.6 378.9 369.1 376.6 365.5C374.3 361.9 370.2 360.1 364.4 360.1C357.8 360.1 352.9 362.1 350 366C347 370 345.5 376.5 345.5 385.5V432.1H321V343.2H344.2V343.3ZM458.5 359.2C454.6 359.2 451.3 360.1 448.7 361.9C446.1 363.7 443.9 366 442.3 368.8C440.6 371.6 439.5 374.7 438.8 378.1C438.1 381.5 437.8 384.8 437.8 388.2C437.8 391.4 438.1 394.7 438.8 398C439.5 401.3 440.6 404.3 442.2 407C443.7 409.7 445.8 411.9 448.5 413.6C451.1 415.3 454.3 416.2 458.1 416.2C463.9 416.2 468.4 414.6 471.6 411.3C474.7 408 476.7 403.7 477.5 398.2H501C499.4 410 494.8 419 487.3 425.2C479.7 431.4 470.1 434.5 458.3 434.5C451.7 434.5 445.6 433.4 440 431.1C434.4 428.9 429.7 425.7 425.8 421.7C421.9 417.7 418.9 412.9 416.7 407.4C414.5 401.8 413.4 395.7 413.4 389.1C413.4 382.2 414.4 375.8 416.4 369.9C418.4 364 421.4 358.9 425.3 354.6C429.2 350.3 434 347 439.6 344.5C445.2 342.1 451.6 340.9 458.9 340.9C464.2 340.9 469.2 341.6 474.1 343C479 344.4 483.3 346.5 487.2 349.3C491 352.1 494.2 355.6 496.6 359.8C499 364 500.4 368.9 500.7 374.7H476.8C474.9 364.3 468.9 359.2 458.5 359.2ZM543.4 458.6C538.7 461.7 532.2 463.2 523.8 463.2C521.3 463.2 518.8 463.1 516.3 462.9C513.8 462.7 511.3 462.5 508.8 462.3V442.2C511.1 442.4 513.4 442.7 515.8 442.9C518.2 443.1 520.6 443.2 523 443.1C526.2 442.8 528.6 441.5 530.1 439.3C531.6 437.1 532.4 434.7 532.4 432.1C532.4 430.2 532.1 428.3 531.4 426.6L500.3 343.3H526.3L546.4 404.1H546.7L566.1 343.3H591.4L554.3 443.1C551.7 450.3 548.1 455.5 543.4 458.6Z" stroke="#B5B5B5" stroke-miterlimit="10" stroke-linejoin="round"/>
</svg>
