<svg width="30" height="30" viewBox="0 0 30 30" fill="none" xmlns="http://www.w3.org/2000/svg">
<g clip-path="url(#clip0)">
<path d="M23.0571 14.914C26.8916 14.914 30 11.8056 30 7.97118C30 4.13674 26.8916 1.02832 23.0571 1.02832C19.2227 1.02832 16.1143 4.13674 16.1143 7.97118C16.1143 11.8056 19.2227 14.914 23.0571 14.914Z" fill="#FF0000"/>
<path d="M6.94286 14.914C10.7773 14.914 13.8857 11.8056 13.8857 7.97118C13.8857 4.13674 10.7773 1.02832 6.94286 1.02832C3.10842 1.02832 0 4.13674 0 7.97118C0 11.8056 3.10842 14.914 6.94286 14.914Z" fill="#FF0000"/>
<path d="M22.6286 18H7.45714V28.9714H22.6286V18Z" fill="#FF0000"/>
<path d="M5.22858 25.4571L0.600006 27.5999V19.2856L5.22858 21.4285V25.4571Z" fill="#FF0000"/>
</g>
<defs>
<clipPath id="clip0">
<rect width="30" height="30" fill="white"/>
</clipPath>
</defs>
</svg>
