<svg width="100" height="100" viewBox="0 0 100 100" fill="none" xmlns="http://www.w3.org/2000/svg">
<g clip-path="url(#clip0)">
<path d="M77.0994 18.1002C77.0994 25.0002 71.4994 30.6002 64.5994 30.6002C57.6994 30.6002 52.0994 25.0002 52.0994 18.1002C52.0994 11.2002 57.6994 5.7002 64.5994 5.7002C71.4994 5.7002 77.0994 11.3002 77.0994 18.1002ZM35.3994 5.7002C28.4994 5.7002 22.8994 11.3002 22.8994 18.2002C22.8994 25.1002 28.4994 30.7002 35.3994 30.7002C42.2994 30.7002 47.8994 25.0002 47.8994 18.1002C47.8994 11.2002 42.2994 5.7002 35.3994 5.7002ZM63.6994 36.2002H36.2994V55.9002H63.6994V36.2002ZM32.3994 42.4002L23.8994 38.5002V53.5002L32.3994 49.6002V42.4002ZM57.4994 60.9002L49.9994 68.4002L42.4994 60.9002C31.9994 61.9002 23.7994 70.7002 23.7994 81.4002V100H76.0994V81.3002C76.1994 70.6002 67.9994 61.8002 57.4994 60.9002Z" fill="white"/>
</g>
<defs>
<clipPath id="clip0">
<rect width="100" height="100" fill="white"/>
</clipPath>
</defs>
</svg>
