<svg width="72" height="125" viewBox="0 0 72 125" fill="none" xmlns="http://www.w3.org/2000/svg">
<path d="M71.8452 16.4369C71.8452 25.5832 64.4221 33.0064 55.2757 33.0064C46.1294 33.0064 38.7063 25.5832 38.7063 16.4369C38.7063 7.29056 46.1294 0 55.2757 0C64.4221 0 71.8452 7.42312 71.8452 16.4369ZM16.5695 0C7.42312 0 0 7.42312 0 16.5695C0 25.7158 7.42312 33.1389 16.5695 33.1389C25.7158 33.1389 33.1389 25.5832 33.1389 16.4369C33.1389 7.29056 25.7158 0 16.5695 0ZM54.0827 40.4295H17.7625V66.5429H54.0827V40.4295ZM12.5928 48.6479L1.32556 43.4783V63.3616L12.5928 58.1919V48.6479ZM45.8643 73.1707L35.9226 83.1124L25.9809 73.1707C12.0626 74.4963 1.193 86.1612 1.193 100.345V125H70.5196V100.212C70.6522 86.0286 59.7826 74.3637 45.8643 73.1707Z" fill="black"/>
</svg>
