<svg width="140" height="51" viewBox="0 0 140 51" fill="none" xmlns="http://www.w3.org/2000/svg">
<path d="M33.6494 48.9746V50.8403H0.892029L21.0918 40.8301H33.6494V46.5348H24.6079L19.6925 48.9746H33.6494ZM56.2889 0V33.6184V40.7942L36.0174 50.8403V9.93843L56.2889 0ZM43.2649 38.7132L38.3854 41.153V46.786L43.2649 44.3462V38.7132ZM43.2649 28.9183L38.3854 31.3581V36.8834L43.2649 34.4436V28.9183ZM43.2649 19.1952L38.3854 21.6349V27.2679L43.2649 24.8281V19.1952ZM43.2649 9.36436L38.3854 11.7682V17.4012L43.2649 14.9973V9.36436Z" fill="black"/>
<path d="M67.2944 0V2.22448H60.9439V4.80776H66.7921V6.85285H60.9798V9.79491H67.4738V12.0194H58.3606V0H67.2944ZM74.1114 12.0194V10.7995H74.0755C73.7885 11.3018 73.3938 11.6606 72.8915 11.8759C72.4251 12.0912 71.9228 12.1988 71.4205 12.1988C70.7747 12.1988 70.2724 12.127 69.8418 11.9476C69.4472 11.7682 69.1243 11.553 68.8731 11.2301C68.622 10.9072 68.4784 10.5484 68.3708 10.1178C68.2632 9.68727 68.2273 9.18497 68.2273 8.64679V3.30085H70.6312V8.21624C70.6312 8.93382 70.7388 9.472 70.9541 9.83079C71.1694 10.1896 71.564 10.369 72.1381 10.369C72.7839 10.369 73.2503 10.1896 73.5374 9.79491C73.8244 9.40025 73.9679 8.75443 73.9679 7.89334V3.30085H76.3718V12.0194H74.1114ZM79.7803 3.30085V4.91539H79.8161C79.9238 4.62836 80.0673 4.41309 80.2826 4.16194C80.462 3.94666 80.6772 3.7314 80.9284 3.58788C81.1795 3.40849 81.4307 3.30085 81.7177 3.19321C82.0048 3.12145 82.2918 3.0497 82.5788 3.0497C82.7223 3.0497 82.9017 3.08558 83.117 3.12145V5.34594C83.0094 5.31006 82.8658 5.31006 82.7223 5.27418C82.5788 5.27418 82.3994 5.2383 82.2559 5.2383C81.8254 5.2383 81.4307 5.31006 81.1437 5.45358C80.8566 5.59709 80.6055 5.81236 80.4261 6.06352C80.2467 6.31467 80.1032 6.6017 80.0314 6.96049C79.9597 7.28339 79.9238 7.67806 79.9238 8.03685V11.9476H77.5199V3.30085H79.7803ZM83.5834 5.99176C83.6193 5.4177 83.7628 4.95128 84.014 4.59249C84.2651 4.2337 84.588 3.91079 84.9468 3.69552C85.3415 3.48024 85.772 3.30085 86.2385 3.22909C86.7049 3.15733 87.2072 3.08557 87.6736 3.08557C88.1042 3.08557 88.5706 3.12145 89.0011 3.19321C89.4675 3.26497 89.8622 3.37261 90.221 3.552C90.5798 3.73139 90.9027 3.98255 91.118 4.30546C91.3332 4.62837 91.4768 5.05891 91.4768 5.56121V10.0819C91.4768 10.4766 91.5126 10.8354 91.5485 11.1942C91.5844 11.553 91.6562 11.84 91.7997 12.0194H89.3599C89.324 11.8759 89.2882 11.7324 89.2523 11.6247C89.2164 11.4812 89.2164 11.3377 89.1805 11.1942C88.7858 11.5889 88.3553 11.8759 87.8171 12.0194C87.3148 12.1629 86.7766 12.2705 86.2385 12.2705C85.8079 12.2705 85.4491 12.2347 85.0903 12.127C84.7315 12.0194 84.4086 11.8759 84.1575 11.6606C83.8704 11.4453 83.6911 11.1942 83.5117 10.8354C83.3682 10.5125 83.2964 10.1178 83.2964 9.68728C83.2964 9.18497 83.3682 8.7903 83.5475 8.46739C83.7269 8.14448 83.9422 7.89334 84.2292 7.71394C84.5163 7.53455 84.8033 7.39103 85.1621 7.2834C85.5209 7.17576 85.8797 7.104 86.2385 7.06812C86.5972 6.99637 86.956 6.96049 87.3148 6.92461C87.6736 6.88873 87.9606 6.85285 88.2477 6.78109C88.5347 6.70933 88.7141 6.6017 88.8935 6.49406C89.037 6.35054 89.1088 6.17115 89.1088 5.92C89.1088 5.66885 89.0729 5.45358 88.9652 5.31006C88.8935 5.16655 88.7858 5.02303 88.6423 4.95128C88.4988 4.87952 88.3553 4.80776 88.14 4.77188C87.9606 4.736 87.7454 4.736 87.5301 4.736C87.0637 4.736 86.7049 4.84364 86.4179 5.02303C86.1308 5.23831 85.9873 5.56122 85.9514 6.02764H83.5834V5.99176ZM89.1088 7.74982C89.0011 7.85745 88.8935 7.89334 88.7141 7.96509C88.5706 8.00097 88.3912 8.07273 88.2118 8.10861C88.0324 8.14448 87.853 8.18037 87.6736 8.18037C87.4942 8.18037 87.2789 8.21625 87.0995 8.25212C86.9202 8.288 86.7408 8.32388 86.5614 8.39564C86.382 8.46739 86.2384 8.53916 86.0949 8.61091C85.9514 8.71855 85.8797 8.82619 85.772 8.9697C85.7003 9.11322 85.6644 9.29261 85.6644 9.50788C85.6644 9.72316 85.7003 9.90255 85.772 10.0461C85.8438 10.1896 85.9514 10.2972 86.0949 10.4049C86.2384 10.4766 86.382 10.5484 86.5614 10.5842C86.7408 10.6201 86.9202 10.6201 87.0995 10.6201C87.566 10.6201 87.9248 10.5484 88.1759 10.369C88.4271 10.2255 88.6423 10.0102 88.75 9.79491C88.8576 9.57964 88.9652 9.36436 88.9652 9.11321C89.0011 8.89794 89.0011 8.71855 89.0011 8.57503V7.74982H89.1088ZM94.6341 9.86667C94.7417 10.0461 94.8852 10.1896 95.0646 10.3331C95.244 10.4407 95.4234 10.5484 95.6387 10.5842C95.854 10.656 96.0692 10.656 96.3204 10.656C96.4998 10.656 96.6792 10.6201 96.8586 10.5842C97.038 10.5484 97.2174 10.4766 97.3609 10.4049C97.5044 10.3331 97.6479 10.2255 97.7555 10.0819C97.8632 9.93843 97.8991 9.75903 97.8991 9.54376C97.8991 9.18497 97.6479 8.89794 97.1815 8.71855C96.7151 8.53916 96.0334 8.35976 95.1723 8.18037C94.8135 8.10861 94.4906 8.00097 94.1677 7.89334C93.8448 7.7857 93.5577 7.64219 93.2707 7.46279C93.0195 7.2834 92.8043 7.06812 92.6608 6.81697C92.5172 6.56582 92.4096 6.24291 92.4096 5.84825C92.4096 5.27418 92.5172 4.84364 92.7325 4.48485C92.9478 4.12606 93.2348 3.83903 93.5936 3.62376C93.9524 3.40848 94.3471 3.26497 94.8135 3.19321C95.2799 3.12145 95.7105 3.0497 96.1769 3.0497C96.6433 3.0497 97.1097 3.08557 97.5403 3.19321C97.9708 3.30085 98.3655 3.44436 98.7243 3.65964C99.0831 3.87491 99.3701 4.16194 99.5854 4.52073C99.8006 4.87951 99.9442 5.31006 100.016 5.84825H97.7555C97.7197 5.38182 97.5403 5.05891 97.2174 4.91539C96.8945 4.736 96.5357 4.66424 96.1051 4.66424C95.9616 4.66424 95.8181 4.66424 95.6746 4.70012C95.5311 4.70012 95.3875 4.736 95.244 4.80776C95.1005 4.87951 94.9929 4.95127 94.9211 5.05891C94.8135 5.16654 94.7776 5.31006 94.7776 5.48946C94.7776 5.70473 94.8494 5.88412 95.0288 6.02764C95.1723 6.17115 95.3875 6.27879 95.6387 6.35055C95.8898 6.4223 96.1769 6.49406 96.4998 6.56582C96.8227 6.63758 97.1456 6.70933 97.5044 6.78109C97.8632 6.85285 98.1861 6.96049 98.509 7.06812C98.8319 7.17576 99.1189 7.31927 99.406 7.49867C99.6571 7.67806 99.8724 7.92922 100.016 8.18037C100.159 8.4674 100.267 8.7903 100.267 9.18497C100.267 9.75903 100.159 10.2255 99.9083 10.6201C99.693 11.0148 99.3701 11.3018 99.0113 11.553C98.6525 11.8041 98.222 11.9476 97.7555 12.0553C97.2891 12.1629 96.7868 12.1988 96.2845 12.1988C95.7822 12.1988 95.2799 12.1629 94.8135 12.0553C94.3471 11.9476 93.9165 11.7682 93.5218 11.553C93.1631 11.3018 92.8401 11.0148 92.589 10.6201C92.3378 10.2255 92.2302 9.75903 92.1943 9.14909H94.4547C94.4906 9.43612 94.5265 9.6514 94.6341 9.86667ZM101.092 1.97333V0H103.496V1.97333H101.092ZM103.496 3.30085V12.0194H101.092V3.30085H103.496ZM104.608 5.99176C104.644 5.4177 104.788 4.95128 105.039 4.59249C105.29 4.2337 105.613 3.91079 105.972 3.69552C106.366 3.48024 106.797 3.30085 107.263 3.22909C107.73 3.12146 108.232 3.08557 108.699 3.08557C109.129 3.08557 109.596 3.12145 110.026 3.19321C110.493 3.26497 110.887 3.37261 111.246 3.552C111.605 3.73139 111.928 3.98255 112.143 4.30546C112.358 4.62837 112.502 5.05891 112.502 5.56121V10.0819C112.502 10.4766 112.538 10.8354 112.573 11.1942C112.609 11.553 112.681 11.84 112.825 12.0194H110.385C110.349 11.8759 110.313 11.7324 110.277 11.6247C110.241 11.4812 110.241 11.3377 110.205 11.1942C109.811 11.5889 109.38 11.8759 108.842 12.0194C108.34 12.1629 107.802 12.2705 107.263 12.2705C106.833 12.2705 106.474 12.2347 106.115 12.127C105.757 12.0194 105.434 11.8759 105.182 11.6606C104.895 11.4453 104.716 11.1942 104.537 10.8354C104.393 10.5125 104.321 10.1178 104.321 9.68728C104.321 9.18497 104.393 8.7903 104.573 8.46739C104.752 8.14448 104.967 7.89334 105.254 7.71394C105.541 7.53455 105.828 7.39103 106.187 7.2834C106.546 7.17576 106.905 7.104 107.263 7.06812C107.622 6.99637 107.981 6.96049 108.34 6.92461C108.699 6.88873 108.986 6.85285 109.273 6.78109C109.56 6.70933 109.739 6.6017 109.918 6.49406C110.062 6.35054 110.134 6.17115 110.134 5.92C110.134 5.66885 110.098 5.45358 109.99 5.31006C109.918 5.16655 109.811 5.02303 109.667 4.95128C109.524 4.87952 109.38 4.80776 109.165 4.77188C108.986 4.736 108.77 4.736 108.555 4.736C108.089 4.736 107.73 4.84364 107.443 5.02303C107.156 5.23831 107.012 5.56122 106.976 6.02764H104.608V5.99176ZM110.098 7.74982C109.99 7.85745 109.883 7.89334 109.703 7.96509C109.56 8.00097 109.38 8.07273 109.201 8.10861C109.021 8.14448 108.842 8.18037 108.663 8.18037C108.483 8.18037 108.268 8.21625 108.089 8.25212C107.909 8.288 107.73 8.32388 107.55 8.39564C107.371 8.46739 107.228 8.53916 107.084 8.61091C106.941 8.71855 106.869 8.82619 106.761 8.9697C106.689 9.11322 106.653 9.29261 106.653 9.50788C106.653 9.72316 106.689 9.90255 106.761 10.0461C106.833 10.1896 106.941 10.2972 107.084 10.4049C107.228 10.4766 107.371 10.5484 107.55 10.5842C107.73 10.6201 107.909 10.6201 108.089 10.6201C108.555 10.6201 108.914 10.5484 109.165 10.369C109.416 10.2255 109.631 10.0102 109.739 9.79491C109.847 9.57964 109.954 9.36436 109.954 9.11321C109.99 8.89794 109.99 8.71855 109.99 8.57503V7.74982H110.098ZM66.7563 14.3874V16.6119H60.9439V19.3745H65.9669V21.4196H60.9439V26.3709H58.2889V14.3515H66.7563V14.3874ZM67.8326 16.3607V14.3874H70.2365V16.3607H67.8326ZM70.2006 17.6882V26.4068H67.7967V17.6882H70.2006ZM73.6809 14.3874V26.4068H71.277V14.3874H73.6809ZM77.0894 17.6882V18.8722H77.1252C77.4481 18.4058 77.8069 18.0829 78.2734 17.8318C78.7039 17.5806 79.2421 17.473 79.7803 17.473C80.3185 17.473 80.8208 17.5806 81.2872 17.7959C81.7536 18.0112 82.0765 18.3699 82.3277 18.9081C82.5788 18.5135 82.9376 18.1906 83.3682 17.9035C83.7987 17.6165 84.3369 17.473 84.9468 17.473C85.4132 17.473 85.8438 17.5447 86.2385 17.6524C86.6331 17.76 86.956 17.9394 87.2431 18.1906C87.5301 18.4417 87.7454 18.7646 87.8889 19.1593C88.0324 19.5539 88.14 20.0204 88.14 20.5944V26.4068H85.7361V21.4555C85.7361 21.1685 85.7362 20.8815 85.7003 20.6303C85.6644 20.3792 85.6285 20.1639 85.5209 19.9486C85.4132 19.7692 85.2697 19.5898 85.0903 19.4822C84.9109 19.3746 84.6239 19.3028 84.301 19.3028C83.9781 19.3028 83.6911 19.3746 83.4758 19.4822C83.2605 19.6257 83.117 19.7692 82.9735 19.9845C82.8658 20.1998 82.7941 20.415 82.7223 20.7021C82.6864 20.9532 82.6506 21.2403 82.6506 21.4914V26.335H80.2467V21.4555C80.2467 21.2044 80.2467 20.9532 80.2467 20.7021C80.2467 20.4509 80.1749 20.1998 80.1032 20.0204C80.0314 19.8051 79.8879 19.6257 79.6726 19.5181C79.4932 19.3746 79.1703 19.3387 78.8115 19.3387C78.7039 19.3387 78.5604 19.3745 78.381 19.4104C78.2016 19.4463 78.0222 19.5539 77.8428 19.6975C77.6634 19.841 77.5199 20.0562 77.4123 20.3074C77.3046 20.5585 77.2329 20.9173 77.2329 21.3479V26.4068H74.829V17.6882H77.0894ZM63.7424 28.7748C64.4959 28.7748 65.1417 28.8824 65.6799 29.0977C66.2181 29.313 66.6486 29.6 66.9715 29.9588C67.2944 30.3176 67.5456 30.7123 67.6891 31.1787C67.8326 31.6451 67.9044 32.1115 67.9044 32.6138C67.9044 33.0803 67.8326 33.5826 67.6891 34.049C67.5456 34.5154 67.2944 34.9101 66.9715 35.2689C66.6486 35.6277 66.2181 35.9147 65.6799 36.13C65.1417 36.3452 64.4959 36.4529 63.7424 36.4529H60.9798V40.7583H58.3247V28.7748H63.7424ZM63.0249 34.4436C63.3119 34.4436 63.6348 34.4078 63.886 34.3719C64.173 34.336 64.4241 34.2284 64.6394 34.1207C64.8547 33.9772 65.0341 33.7978 65.1417 33.5826C65.2852 33.3314 65.3211 33.0444 65.3211 32.6497C65.3211 32.255 65.2494 31.968 65.1417 31.7169C64.9982 31.4657 64.8547 31.2863 64.6394 31.1787C64.4241 31.0352 64.173 30.9634 63.886 30.9275C63.5989 30.8916 63.3119 30.8558 63.0249 30.8558H60.9798V34.4436H63.0249ZM70.8823 32.0757V33.6902H70.9182C71.0258 33.4032 71.1694 33.1879 71.3846 32.9367C71.564 32.7215 71.7793 32.5062 72.0305 32.3627C72.2816 32.1833 72.5327 32.0756 72.8198 31.968C73.1068 31.8963 73.3938 31.8245 73.6809 31.8245C73.8244 31.8245 74.0038 31.8604 74.2191 31.8963V34.1207C74.1114 34.0849 73.9679 34.0849 73.8244 34.049C73.6809 34.049 73.5015 34.0131 73.358 34.0131C72.9274 34.0131 72.5328 34.0849 72.2457 34.2284C71.9587 34.3719 71.7075 34.5872 71.5281 34.8383C71.3488 35.0895 71.2052 35.3765 71.1335 35.7353C71.0617 36.0582 71.0258 36.4529 71.0258 36.8116V40.7224H68.622V32.0039H70.8823V32.0757ZM74.6855 34.5513C74.9008 33.9772 75.1878 33.5108 75.5824 33.1161C75.9771 32.7215 76.4435 32.3986 76.9817 32.1833C77.5199 31.968 78.1657 31.8604 78.8474 31.8604C79.5291 31.8604 80.1391 31.968 80.7131 32.1833C81.2513 32.3986 81.7536 32.7215 82.1483 33.1161C82.5429 33.5108 82.83 34.0131 83.0452 34.5513C83.2605 35.1253 83.3682 35.7353 83.3682 36.4529C83.3682 37.1704 83.2605 37.7804 83.0452 38.3544C82.83 38.9285 82.5429 39.3949 82.1483 39.7896C81.7536 40.1843 81.2872 40.5072 80.7131 40.7224C80.1749 40.9377 79.5291 41.0454 78.8474 41.0454C78.1657 41.0454 77.5558 40.9377 76.9817 40.7224C76.4435 40.5072 75.9771 40.2201 75.5824 39.7896C75.1878 39.3949 74.9008 38.9285 74.6855 38.3544C74.4702 37.7804 74.3626 37.1704 74.3626 36.4529C74.3626 35.7353 74.4702 35.1253 74.6855 34.5513ZM76.8741 37.4575C76.9458 37.7804 77.0535 38.1033 77.2329 38.3544C77.4123 38.6056 77.6275 38.8209 77.8787 39.0003C78.1657 39.1438 78.4886 39.2514 78.8833 39.2514C79.278 39.2514 79.6368 39.1796 79.8879 39.0003C80.1749 38.8567 80.3902 38.6415 80.5337 38.3544C80.7131 38.1033 80.8207 37.7804 80.8925 37.4575C80.9643 37.1346 81.0002 36.7758 81.0002 36.4529C81.0002 36.13 80.9643 35.7712 80.8925 35.4124C80.8207 35.0895 80.7131 34.7666 80.5337 34.5154C80.3543 34.2643 80.1391 34.049 79.8879 33.8696C79.6009 33.6902 79.278 33.6184 78.8833 33.6184C78.4886 33.6184 78.1298 33.6902 77.8787 33.8696C77.5917 34.049 77.3764 34.2284 77.2329 34.5154C77.0535 34.7666 76.9458 35.0536 76.8741 35.4124C76.8023 35.7353 76.7664 36.0941 76.7664 36.4529C76.7664 36.8116 76.8023 37.1346 76.8741 37.4575ZM90.6515 39.6819C90.3645 40.1484 90.0057 40.5072 89.5393 40.6866C89.0729 40.9018 88.5706 41.0095 87.9965 41.0095C87.3507 41.0095 86.7766 40.866 86.2743 40.6148C85.772 40.3637 85.3774 40.0049 85.0544 39.5743C84.7315 39.1438 84.4804 38.6415 84.3369 38.0674C84.1575 37.4933 84.0857 36.9193 84.0857 36.3093C84.0857 35.7353 84.1575 35.1612 84.3369 34.623C84.5163 34.0849 84.7315 33.5826 85.0544 33.1879C85.3774 32.7573 85.772 32.4344 86.2743 32.1833C86.7408 31.9321 87.3148 31.7886 87.9606 31.7886C88.4629 31.7886 88.9652 31.8962 89.4317 32.1115C89.8981 32.3268 90.2569 32.6497 90.5439 33.0803H90.5798V28.7748H92.9837V40.7942H90.7233L90.6515 39.6819ZM90.5439 35.3765C90.4722 35.0536 90.3645 34.7666 90.1851 34.5154C90.0057 34.2643 89.8263 34.049 89.5393 33.9055C89.2881 33.7619 88.9652 33.6543 88.5706 33.6543C88.1759 33.6543 87.853 33.7261 87.566 33.9055C87.2789 34.049 87.0637 34.2643 86.9202 34.5154C86.7408 34.7666 86.6331 35.0536 86.5614 35.4124C86.4896 35.7353 86.4537 36.0941 86.4537 36.4529C86.4537 36.7758 86.4896 37.1346 86.5614 37.4575C86.6331 37.7804 86.7766 38.1033 86.956 38.3544C87.1354 38.6056 87.3507 38.8209 87.6018 39.0003C87.853 39.1796 88.1759 39.2514 88.5706 39.2514C88.9652 39.2514 89.2881 39.1796 89.5393 39.0003C89.7905 38.8567 90.0057 38.6415 90.1851 38.3544C90.3286 38.1033 90.4722 37.7804 90.508 37.4575C90.5798 37.1346 90.6157 36.7758 90.6157 36.417C90.6515 36.0582 90.6157 35.6994 90.5439 35.3765ZM99.98 40.7942V39.5743H99.9442C99.6571 40.0766 99.2625 40.4354 98.7602 40.6507C98.2937 40.866 97.7914 40.9736 97.2891 40.9736C96.6433 40.9736 96.141 40.9018 95.7105 40.7224C95.3158 40.543 94.9929 40.3278 94.7417 40.0049C94.4906 39.6819 94.3471 39.3232 94.2394 38.8926C94.1318 38.4621 94.0959 37.9598 94.0959 37.4216V32.0757H96.4998V37.0269C96.4998 37.7445 96.6074 38.2827 96.8227 38.6415C97.038 39.0003 97.4326 39.1796 98.0067 39.1796C98.6525 39.1796 99.1189 39.0003 99.406 38.6056C99.693 38.2109 99.8365 37.5651 99.8365 36.704V32.1474H102.24V40.866H99.98V40.7942ZM107.586 33.6543C107.192 33.6543 106.869 33.7261 106.618 33.9055C106.366 34.0849 106.151 34.3001 105.972 34.5872C105.792 34.8742 105.685 35.1612 105.613 35.4841C105.541 35.807 105.505 36.13 105.505 36.4529C105.505 36.7758 105.541 37.0987 105.613 37.4216C105.685 37.7445 105.792 38.0315 105.936 38.3186C106.079 38.5697 106.295 38.785 106.546 38.9644C106.797 39.1438 107.12 39.2155 107.479 39.2155C108.053 39.2155 108.483 39.072 108.806 38.7491C109.129 38.4262 109.309 37.9957 109.38 37.4575H111.677C111.533 38.6056 111.067 39.5026 110.313 40.1125C109.56 40.7224 108.627 41.0095 107.479 41.0095C106.833 41.0095 106.223 40.9018 105.685 40.6866C105.147 40.4713 104.68 40.1484 104.285 39.7537C103.891 39.359 103.604 38.8926 103.389 38.3544C103.173 37.8163 103.066 37.2063 103.066 36.5605C103.066 35.8788 103.173 35.2689 103.353 34.6948C103.532 34.1207 103.855 33.6184 104.214 33.1879C104.608 32.7573 105.075 32.4344 105.613 32.2192C106.151 31.968 106.797 31.8604 107.515 31.8604C108.017 31.8604 108.519 31.9321 109.021 32.0757C109.488 32.2192 109.918 32.3986 110.313 32.6856C110.672 32.9726 110.995 33.2955 111.246 33.7261C111.497 34.1207 111.605 34.623 111.641 35.1971H109.309C109.201 34.1566 108.591 33.6543 107.586 33.6543ZM117.453 32.0757V33.6902H115.695V37.9957C115.695 38.3903 115.767 38.6773 115.91 38.8209C116.054 38.9644 116.305 39.0361 116.735 39.0361C116.879 39.0361 116.987 39.0361 117.13 39.0361C117.238 39.0361 117.381 39.0003 117.489 39.0003V40.866C117.274 40.9018 117.058 40.9377 116.807 40.9377C116.556 40.9377 116.305 40.9377 116.09 40.9377C115.731 40.9377 115.372 40.9018 115.049 40.866C114.726 40.8301 114.439 40.7224 114.188 40.5789C113.937 40.4354 113.722 40.2201 113.578 39.969C113.435 39.682 113.363 39.359 113.363 38.8926V33.7619H111.928V32.1474H113.363V29.4924H115.767V32.1115H117.453V32.0757ZM118.565 30.7481V28.7748H120.969V30.7481H118.565ZM120.969 32.0757V40.7942H118.565V32.0757H120.969ZM122.189 34.5513C122.404 33.9772 122.691 33.5108 123.086 33.1161C123.481 32.7215 123.947 32.3986 124.485 32.1833C125.023 31.968 125.669 31.8604 126.351 31.8604C127.033 31.8604 127.643 31.968 128.217 32.1833C128.755 32.3986 129.257 32.7215 129.652 33.1161C130.046 33.5108 130.334 34.0131 130.549 34.5513C130.764 35.1253 130.872 35.7353 130.872 36.4529C130.872 37.1704 130.764 37.7804 130.549 38.3544C130.334 38.9285 130.046 39.3949 129.652 39.7896C129.257 40.1843 128.791 40.5072 128.217 40.7224C127.678 40.9377 127.033 41.0454 126.351 41.0454C125.669 41.0454 125.059 40.9377 124.485 40.7224C123.947 40.5072 123.481 40.2201 123.086 39.7896C122.691 39.3949 122.404 38.9285 122.189 38.3544C121.974 37.7804 121.866 37.1704 121.866 36.4529C121.866 35.7353 121.974 35.1253 122.189 34.5513ZM124.342 37.4575C124.413 37.7804 124.521 38.1033 124.701 38.3544C124.88 38.6056 125.095 38.8209 125.346 39.0003C125.633 39.1438 125.956 39.2514 126.351 39.2514C126.746 39.2514 127.104 39.1796 127.356 39.0003C127.643 38.8567 127.858 38.6415 128.001 38.3544C128.181 38.1033 128.288 37.7804 128.36 37.4575C128.432 37.1346 128.468 36.7758 128.468 36.4529C128.468 36.13 128.432 35.7712 128.36 35.4124C128.288 35.0895 128.181 34.7666 128.001 34.5154C127.822 34.2643 127.607 34.049 127.356 33.8696C127.069 33.6902 126.746 33.6184 126.351 33.6184C125.956 33.6184 125.597 33.6902 125.346 33.8696C125.059 34.049 124.844 34.2284 124.701 34.5154C124.521 34.7666 124.413 35.0536 124.342 35.4124C124.27 35.7353 124.234 36.0941 124.234 36.4529C124.234 36.8116 124.27 37.1346 124.342 37.4575ZM134.029 32.0757V33.2955H134.065C134.352 32.7932 134.747 32.4344 135.249 32.1833C135.715 31.968 136.218 31.8245 136.72 31.8245C137.366 31.8245 137.868 31.8963 138.299 32.0757C138.693 32.255 139.016 32.5062 139.267 32.7932C139.518 33.1161 139.662 33.4749 139.77 33.9055C139.877 34.336 139.913 34.8383 139.913 35.3765V40.7224H137.509V35.807C137.509 35.0895 137.402 34.5513 137.186 34.1925C136.971 33.8337 136.576 33.6543 136.002 33.6543C135.357 33.6543 134.89 33.8337 134.603 34.2284C134.316 34.623 134.173 35.2689 134.173 36.13V40.6866H131.769V31.968H134.029V32.0757Z" fill="black"/>
</svg>
