<svg width="25" height="25" viewBox="0 0 25 25" fill="none" xmlns="http://www.w3.org/2000/svg">
<circle cx="12.5" cy="12.5" r="12" stroke="white"/>
<path d="M24.5 12.5001C24.5 12.9745 24.2519 13.4826 23.6813 14.0015C23.1105 14.5205 22.2568 15.0109 21.1593 15.433C18.9678 16.2758 15.9065 16.8078 12.5 16.8078C9.09354 16.8078 6.03216 16.2758 3.84065 15.433C2.74324 15.0109 1.88945 14.5205 1.3187 14.0015C0.748086 13.4826 0.5 12.9745 0.5 12.5001C0.5 12.0256 0.748086 11.5175 1.3187 10.9986C1.88945 10.4796 2.74324 9.98928 3.84065 9.5672C6.03216 8.72431 9.09354 8.19238 12.5 8.19238C15.9065 8.19238 18.9678 8.72431 21.1593 9.5672C22.2568 9.98928 23.1105 10.4796 23.6813 10.9986C24.2519 11.5175 24.5 12.0256 24.5 12.5001Z" stroke="white"/>
<circle cx="12.5" cy="12.5001" r="4.80769" fill="white"/>
</svg>
