<svg width="50" height="50" viewBox="0 0 50 50" fill="none" xmlns="http://www.w3.org/2000/svg">
<path d="M25 1C38.2 1 49 11.8 49 25C49 38.2 38.2 49 25 49C11.8 49 1 38.2 1 25C1 11.8 11.8 1 25 1ZM25 0C11.2 0 0 11.2 0 25C0 38.8 11.2 50 25 50C38.8 50 50 38.8 50 25C50 11.2 38.8 0 25 0Z" fill="white"/>
<path d="M25 16C36.1 16 45.5 22.7 48.4 25C45.5 27.3 36 34 25 34C14 34 4.5 27.3 1.6 25C4.5 22.7 13.9 16 25 16ZM25 15C11.2 15 0 25 0 25C0 25 11.2 35 25 35C38.8 35 50 25 50 25C50 25 38.8 15 25 15Z" fill="white"/>
<path d="M25 35C30.5228 35 35 30.5228 35 25C35 19.4772 30.5228 15 25 15C19.4772 15 15 19.4772 15 25C15 30.5228 19.4772 35 25 35Z" fill="white"/>
</svg>
