<svg width="25" height="25" viewBox="0 0 25 25" fill="none" xmlns="http://www.w3.org/2000/svg">
<path d="M23.5816 25C24.3794 25 25 24.3794 25 23.5816V1.41844C25 0.620566 24.3794 0 23.5816 0H1.41844C0.620568 0 0 0.620566 0 1.41844V23.5816C0 24.3794 0.620568 25 1.41844 25H23.5816Z" fill="black"/>
<path d="M17.1972 25V15.3368H20.4774L20.9206 11.6134H17.1972V9.21982C17.1972 8.15599 17.4632 7.35811 19.0589 7.35811H21.0093V3.98932C20.6547 3.90067 19.5022 3.81201 18.0838 3.81201C15.2469 3.81201 13.2079 5.58507 13.2079 8.77656V11.5248H9.92773V15.2482H13.2079V24.9113L17.1972 25Z" fill="white"/>
</svg>
