<svg width="29" height="29" viewBox="0 0 29 29" fill="none" xmlns="http://www.w3.org/2000/svg">
<path d="M26.6 28.9002C27.5 28.9002 28.2 28.2002 28.2 27.3002V2.30019C28.2 1.40019 27.5 0.700195 26.6 0.700195H1.6C0.7 0.700195 0 1.40019 0 2.30019V27.3002C0 28.2002 0.7 28.9002 1.6 28.9002H26.6Z" fill="#FF0000"/>
<path d="M19.3992 28.9V18H23.0992L23.5992 13.8H19.3992V11.1C19.3992 9.90001 19.6992 9 21.4992 9H23.6992V5.2C23.2992 5.1 21.9992 5 20.3992 5C17.1992 5 14.8992 7.00001 14.8992 10.6V13.7H11.1992V17.9H14.8992V28.8L19.3992 28.9Z" fill="white"/>
</svg>
