<svg width="29" height="29" viewBox="0 0 29 29" fill="none" xmlns="http://www.w3.org/2000/svg">
<path d="M26.6 28.9002C27.5 28.9002 28.2 28.2002 28.2 27.3002V2.30019C28.2 1.40019 27.5 0.700195 26.6 0.700195H1.6C0.7 0.700195 0 1.40019 0 2.30019V27.3002C0 28.2002 0.7 28.9002 1.6 28.9002H26.6Z" fill="#FF0000"/>
<path d="M19.4002 28.9V18H23.1002L23.6002 13.8H19.4002V11.1C19.4002 9.90001 19.7002 9 21.5002 9H23.7002V5.2C23.3002 5.1 22.0002 5 20.4002 5C17.2002 5 14.9002 7.00001 14.9002 10.6V13.7H11.2002V17.9H14.9002V28.8L19.4002 28.9Z" fill="white"/>
</svg>
