<svg width="184" height="30" viewBox="0 0 184 30" fill="none" xmlns="http://www.w3.org/2000/svg">
<path d="M181.4 29.6H161.5C160.1 29.6 159 28.5 159 27.1V2.5C159 1.1 160.1 0 161.5 0H181.4C182.8 0 183.9 1.1 183.9 2.5V27.1C183.8 28.5 182.7 29.6 181.4 29.6ZM161.5 1.4C160.9 1.4 160.4 1.9 160.4 2.5V27.1C160.4 27.7 160.9 28.2 161.5 28.2H181.4C182 28.2 182.5 27.7 182.5 27.1V2.5C182.5 1.9 182 1.4 181.4 1.4H161.5Z" fill="#FF0000"/>
<path d="M128.5 29.6H108.6C107.2 29.6 106.1 28.5 106.1 27.1V2.5C106.1 1.1 107.2 0 108.6 0H128.5C129.9 0 131 1.1 131 2.5V27.1C130.9 28.5 129.8 29.6 128.5 29.6ZM108.6 1.4C108 1.4 107.5 1.9 107.5 2.5V27.1C107.5 27.7 108 28.2 108.6 28.2H128.5C129.1 28.2 129.6 27.7 129.6 27.1V2.5C129.6 1.9 129.1 1.4 128.5 1.4H108.6Z" fill="#FF0000"/>
<path d="M75.5997 29.6H55.6997C54.2997 29.6 53.1997 28.5 53.1997 27.1V2.5C53.1997 1.1 54.2997 0 55.6997 0H75.5997C76.9997 0 78.0997 1.1 78.0997 2.5V27.1C77.9997 28.5 76.8997 29.6 75.5997 29.6ZM55.6997 1.4C55.0997 1.4 54.5997 1.9 54.5997 2.5V27.1C54.5997 27.7 55.0997 28.2 55.6997 28.2H75.5997C76.1997 28.2 76.6997 27.7 76.6997 27.1V2.5C76.6997 1.9 76.1997 1.4 75.5997 1.4H55.6997Z" fill="#FF0000"/>
<path d="M22.6998 29.6H2.7998C1.3998 29.6 0.299805 28.5 0.299805 27.1V2.5C0.299805 1.1 1.3998 0 2.7998 0H22.6998C24.0998 0 25.1998 1.1 25.1998 2.5V27.1C25.0998 28.5 23.9998 29.6 22.6998 29.6ZM2.7998 1.4C2.1998 1.4 1.69981 1.9 1.69981 2.5V27.1C1.69981 27.7 2.1998 28.2 2.7998 28.2H22.6998C23.2998 28.2 23.7998 27.7 23.7998 27.1V2.5C23.7998 1.9 23.2998 1.4 22.6998 1.4H2.7998Z" fill="#FF0000"/>
</svg>
