<svg width="28" height="225" viewBox="0 0 28 225" fill="none" xmlns="http://www.w3.org/2000/svg">
<g clip-path="url(#clip0)">
<path d="M28 172.3V153.4C28 152.1 26.9 151 25.6 151H2.29999C0.999994 151 -0.100006 152.1 -0.100006 153.4V172.3C-0.100006 173.6 0.999994 174.7 2.29999 174.7H25.7C27 174.6 28 173.6 28 172.3ZM25.7 152.3C26.3 152.3 26.7 152.8 26.7 153.3V172.2C26.7 172.8 26.2 173.2 25.7 173.2H2.29999C1.69999 173.2 1.29999 172.7 1.29999 172.2V153.3C1.29999 152.7 1.79999 152.3 2.29999 152.3H25.7ZM28 222.6V203.7C28 202.4 26.9 201.3 25.6 201.3H2.29999C0.999994 201.3 -0.100006 202.4 -0.100006 203.7V222.6C-0.100006 223.9 0.999994 225 2.29999 225H25.7C27 225 28 223.9 28 222.6ZM25.7 202.7C26.3 202.7 26.7 203.2 26.7 203.7V222.6C26.7 223.2 26.2 223.6 25.7 223.6H2.29999C1.69999 223.6 1.29999 223.1 1.29999 222.6V203.7C1.29999 203.1 1.79999 202.7 2.29999 202.7H25.7ZM28 122V103C28 101.7 26.9 100.6 25.6 100.6H2.29999C0.999994 100.6 -0.100006 101.7 -0.100006 103V122C-0.100006 123.3 0.999994 124.4 2.29999 124.4H25.7C27 124.3 28 123.3 28 122ZM25.7 102C26.3 102 26.7 102.5 26.7 103V122C26.7 122.6 26.2 123 25.7 123H2.29999C1.69999 123 1.29999 122.5 1.29999 122V103C1.29999 102.4 1.79999 102 2.29999 102H25.7ZM28 71.6V52.7C28 51.4 26.9 50.3 25.6 50.3H2.29999C0.999994 50.3 -0.100006 51.4 -0.100006 52.7V71.6C-0.100006 72.9 0.999994 74 2.29999 74H25.7C27 74 28 72.9 28 71.6ZM25.7 51.7C26.3 51.7 26.7 52.2 26.7 52.7V71.6C26.7 72.2 26.2 72.6 25.7 72.6H2.29999C1.69999 72.6 1.29999 72.1 1.29999 71.6V52.7C1.29999 52.1 1.79999 51.7 2.29999 51.7H25.7ZM28 21.3V2.4C28 1.1 27 0 25.7 0H2.29999C0.999994 0 -0.100006 1.1 -0.100006 2.4V21.3C-0.100006 22.6 0.999994 23.7 2.29999 23.7H25.7C27 23.7 28 22.6 28 21.3ZM25.7 1.4C26.3 1.4 26.7 1.9 26.7 2.4V21.3C26.7 21.9 26.2 22.3 25.7 22.3H2.29999C1.69999 22.3 1.29999 21.8 1.29999 21.3V2.4C1.29999 1.8 1.79999 1.4 2.29999 1.4H25.7Z" fill="#FF0000"/>
</g>
<defs>
<clipPath id="clip0">
<rect width="28" height="225" fill="white"/>
</clipPath>
</defs>
</svg>
