<svg width="72" height="125" viewBox="0 0 72 125" fill="none" xmlns="http://www.w3.org/2000/svg">
<path d="M71.5847 99.4536V125H0V99.4536C0 84.8361 11.2022 72.8142 25.5465 71.4481L35.7924 81.694L46.0383 71.4481C60.3825 72.8142 71.5847 84.8361 71.5847 99.4536ZM67.0765 55.3279V7.37705C67.0765 3.27869 63.7978 0 59.6995 0H11.7486C7.65028 0 4.37159 3.27869 4.37159 7.37705V55.3279C4.37159 59.4262 7.65028 62.7049 11.7486 62.7049H59.6995C63.7978 62.7049 67.0765 59.4262 67.0765 55.3279ZM29.3716 13.2514C34.4262 13.2514 38.7978 13.7978 42.7596 16.8033C47.1311 20.082 49.7268 25.2732 49.7268 31.2842C49.7268 37.2951 47.2678 42.4863 42.4863 45.765C38.2514 48.7705 34.2896 49.1803 29.235 49.1803H21.7213V13.2514H29.3716ZM27.3224 44.1257H29.6448C32.3771 44.1257 36.0656 43.8525 39.2077 41.5301C41.6667 39.6175 44.1257 36.2022 44.1257 31.2842C44.1257 26.5027 41.8033 22.8142 39.2077 20.9016C36.0656 18.5792 32.2404 18.4426 29.6448 18.4426H27.3224V44.1257Z" fill="black"/>
</svg>
