<svg width="29" height="29" viewBox="0 0 29 29" fill="none" xmlns="http://www.w3.org/2000/svg">
<path d="M9.4 14.8002C9.4 12.2002 11.5 10.1002 14.1 10.1002C16.7 10.1002 18.8 12.2002 18.8 14.8002C18.8 17.4002 16.7 19.5002 14.1 19.5002C11.5 19.5002 9.4 17.4002 9.4 14.8002ZM6.9 14.8002C6.9 18.8002 10.1 22.0002 14.1 22.0002C18.1 22.0002 21.3 18.8002 21.3 14.8002C21.3 10.8002 18.1 7.6002 14.1 7.6002C10.1 7.6002 6.9 10.8002 6.9 14.8002ZM19.9 7.30019C19.9 8.20019 20.7 9.00019 21.6 9.00019C22.5 9.00019 23.3 8.20019 23.3 7.30019C23.3 6.40019 22.5 5.6002 21.6 5.6002C20.7 5.6002 19.9 6.40019 19.9 7.30019ZM8.4 26.2002C7 26.1002 6.3 25.9002 5.8 25.7002C5.1 25.4002 4.7 25.1002 4.2 24.6002C3.7 24.1002 3.4 23.6002 3.1 23.0002C2.9 22.5002 2.7 21.8002 2.6 20.4002C2.5 18.9002 2.5 18.5002 2.5 14.7002C2.5 10.9002 2.5 10.5002 2.6 9.00019C2.7 7.60019 2.9 6.90019 3.1 6.40019C3.4 5.70019 3.7 5.30019 4.2 4.80019C4.7 4.30019 5.2 4.0002 5.8 3.7002C6.3 3.5002 7 3.3002 8.4 3.2002C9.9 3.1002 10.3 3.1002 14.1 3.1002C17.9 3.1002 18.3 3.1002 19.8 3.2002C21.2 3.3002 21.9 3.5002 22.4 3.7002C23.1 4.0002 23.5 4.30019 24 4.80019C24.5 5.30019 24.8 5.80019 25.1 6.40019C25.3 6.90019 25.5 7.60019 25.6 9.00019C25.7 10.5002 25.7 10.9002 25.7 14.7002C25.7 18.5002 25.7 18.9002 25.6 20.4002C25.5 21.8002 25.3 22.5002 25.1 23.0002C24.8 23.7002 24.5 24.1002 24 24.6002C23.5 25.1002 23 25.4002 22.4 25.7002C21.9 25.9002 21.2 26.1002 19.8 26.2002C18.3 26.3002 17.9 26.3002 14.1 26.3002C10.3 26.3002 9.9 26.3002 8.4 26.2002ZM8.3 0.800194C6.8 0.900194 5.8 1.10019 4.9 1.50019C4 1.90019 3.2 2.3002 2.4 3.1002C1.6 3.9002 1.1 4.7002 0.799999 5.6002C0.499999 6.5002 0.199998 7.50019 0.0999985 9.00019C-1.52737e-06 10.5002 0 11.0002 0 14.8002C0 18.6002 -1.52737e-06 19.1002 0.0999985 20.6002C0.199998 22.1002 0.399999 23.1002 0.799999 24.0002C1.2 24.9002 1.6 25.7002 2.4 26.5002C3.2 27.3002 4 27.8002 4.9 28.1002C5.8 28.4002 6.8 28.7002 8.3 28.8002C9.8 28.9002 10.3 28.9002 14.1 28.9002C17.9 28.9002 18.4 28.9002 19.9 28.8002C21.4 28.7002 22.4 28.5002 23.3 28.1002C24.2 27.7002 25 27.3002 25.8 26.5002C26.6 25.7002 27.1 24.9002 27.4 24.0002C27.7 23.1002 28 22.1002 28.1 20.6002C28.2 19.1002 28.2 18.6002 28.2 14.8002C28.2 11.0002 28.2 10.5002 28.1 9.00019C28 7.50019 27.8 6.5002 27.4 5.6002C27 4.7002 26.6 3.9002 25.8 3.1002C25 2.3002 24.2 1.80019 23.3 1.50019C22.4 1.20019 21.4 0.900194 19.9 0.800194C18.4 0.700194 17.9 0.700195 14.1 0.700195C10.3 0.700195 9.8 0.800194 8.3 0.800194Z" fill="#FF0000"/>
</svg>
