<svg width="25" height="25" viewBox="0 0 25 25" fill="none" xmlns="http://www.w3.org/2000/svg">
<path d="M8.33334 12.5C8.33334 10.195 10.195 8.33334 12.5 8.33334C14.805 8.33334 16.6667 10.195 16.6667 12.5C16.6667 14.805 14.805 16.6667 12.5 16.6667C10.195 16.6667 8.33334 14.805 8.33334 12.5ZM6.11702 12.5C6.11702 16.0461 8.9539 18.883 12.5 18.883C16.0461 18.883 18.883 16.0461 18.883 12.5C18.883 8.9539 16.0461 6.11702 12.5 6.11702C8.9539 6.11702 6.11702 8.9539 6.11702 12.5ZM17.6418 5.85106C17.6418 6.64894 18.3511 7.35815 19.1489 7.35815C19.9468 7.35815 20.656 6.64894 20.656 5.85106C20.656 5.05319 19.9468 4.34397 19.1489 4.34397C18.3511 4.34397 17.6418 5.05319 17.6418 5.85106ZM7.44681 22.6064C6.20567 22.5177 5.58511 22.3404 5.14184 22.1631C4.52128 21.8972 4.16666 21.6312 3.7234 21.1879C3.28014 20.7447 3.01418 20.3014 2.74823 19.7695C2.57092 19.3262 2.39362 18.7057 2.30496 17.4645C2.21631 16.1348 2.21631 15.7801 2.21631 12.4113C2.21631 9.04255 2.21631 8.68794 2.30496 7.35815C2.39362 6.11702 2.57092 5.49645 2.74823 5.05319C3.01418 4.43262 3.28014 4.07801 3.7234 3.63475C4.16666 3.19149 4.60993 2.92553 5.14184 2.65957C5.58511 2.48227 6.20567 2.30496 7.44681 2.21631C8.77659 2.12766 9.13121 2.12766 12.5 2.12766C15.8688 2.12766 16.2234 2.12766 17.5532 2.21631C18.7943 2.30496 19.4149 2.48227 19.8582 2.65957C20.4787 2.92553 20.8333 3.19149 21.2766 3.63475C21.7199 4.07801 21.9858 4.52127 22.2518 5.05319C22.4291 5.49645 22.6064 6.11702 22.695 7.35815C22.7837 8.68794 22.7837 9.04255 22.7837 12.4113C22.7837 15.7801 22.7837 16.1348 22.695 17.4645C22.6064 18.7057 22.4291 19.3262 22.2518 19.7695C21.9858 20.3901 21.7199 20.7447 21.2766 21.1879C20.8333 21.6312 20.3901 21.8972 19.8582 22.1631C19.4149 22.3404 18.7943 22.5177 17.5532 22.6064C16.2234 22.695 15.8688 22.695 12.5 22.695C9.13121 22.695 8.77659 22.695 7.44681 22.6064ZM7.35816 0.0886511C6.02837 0.177304 5.14184 0.354606 4.34397 0.709216C3.5461 1.06383 2.83688 1.41844 2.12766 2.12766C1.41844 2.83688 0.975177 3.5461 0.709219 4.34397C0.443262 5.14185 0.177304 6.02837 0.0886511 7.35815C-1.35405e-06 8.68794 0 9.13121 0 12.5C0 15.8688 -1.35405e-06 16.3121 0.0886511 17.6418C0.177304 18.9716 0.354609 19.8582 0.709219 20.656C1.06383 21.4539 1.41844 22.1631 2.12766 22.8723C2.83688 23.5816 3.5461 24.0248 4.34397 24.2908C5.14184 24.5567 6.02837 24.8227 7.35816 24.9113C8.68794 25 9.13121 25 12.5 25C15.8688 25 16.3121 25 17.6418 24.9113C18.9716 24.8227 19.8582 24.6454 20.656 24.2908C21.4539 23.9362 22.1631 23.5816 22.8723 22.8723C23.5816 22.1631 24.0248 21.4539 24.2908 20.656C24.5567 19.8582 24.8227 18.9716 24.9113 17.6418C25 16.3121 25 15.8688 25 12.5C25 9.13121 25 8.68794 24.9113 7.35815C24.8227 6.02837 24.6454 5.14185 24.2908 4.34397C23.9362 3.5461 23.5816 2.83688 22.8723 2.12766C22.1631 1.41844 21.4539 0.975173 20.656 0.709216C19.8582 0.443258 18.9716 0.177304 17.6418 0.0886511C16.3121 -1.35405e-06 15.8688 0 12.5 0C9.13121 0 8.68794 0.0886511 7.35816 0.0886511Z" fill="black"/>
</svg>
