<svg width="29" height="29" viewBox="0 0 29 29" fill="none" xmlns="http://www.w3.org/2000/svg">
<path d="M9.4 14.7999C9.4 12.1999 11.5 10.1 14.1 10.1C16.7 10.1 18.8 12.1999 18.8 14.7999C18.8 17.4 16.7 19.4999 14.1 19.4999C11.5 19.4999 9.4 17.4 9.4 14.7999ZM6.9 14.7999C6.9 18.7999 10.1 21.9999 14.1 21.9999C18.1 21.9999 21.3 18.7999 21.3 14.7999C21.3 10.7999 18.1 7.59995 14.1 7.59995C10.1 7.59995 6.9 10.7999 6.9 14.7999ZM19.9 7.29995C19.9 8.19995 20.7 8.99995 21.6 8.99995C22.5 8.99995 23.3 8.19995 23.3 7.29995C23.3 6.39995 22.5 5.59995 21.6 5.59995C20.7 5.59995 19.9 6.39995 19.9 7.29995ZM8.4 26.2C7 26.1 6.3 25.9 5.8 25.7C5.1 25.4 4.7 25.1 4.2 24.6C3.7 24.1 3.4 23.5999 3.1 22.9999C2.9 22.4999 2.7 21.7999 2.6 20.3999C2.5 18.8999 2.5 18.5 2.5 14.7C2.5 10.9 2.5 10.4999 2.6 8.99995C2.7 7.59995 2.9 6.89995 3.1 6.39995C3.4 5.69995 3.7 5.29995 4.2 4.79995C4.7 4.29995 5.2 3.99995 5.8 3.69995C6.3 3.49995 7 3.29995 8.4 3.19995C9.9 3.09995 10.3 3.09995 14.1 3.09995C17.9 3.09995 18.3 3.09995 19.8 3.19995C21.2 3.29995 21.9 3.49995 22.4 3.69995C23.1 3.99995 23.5 4.29995 24 4.79995C24.5 5.29995 24.8 5.79995 25.1 6.39995C25.3 6.89995 25.5 7.59995 25.6 8.99995C25.7 10.4999 25.7 10.9 25.7 14.7C25.7 18.5 25.7 18.8999 25.6 20.3999C25.5 21.7999 25.3 22.4999 25.1 22.9999C24.8 23.6999 24.5 24.1 24 24.6C23.5 25.1 23 25.4 22.4 25.7C21.9 25.9 21.2 26.1 19.8 26.2C18.3 26.3 17.9 26.2999 14.1 26.2999C10.3 26.2999 9.9 26.3 8.4 26.2ZM8.3 0.79995C6.8 0.89995 5.8 1.09995 4.9 1.49995C4 1.89995 3.2 2.29995 2.4 3.09995C1.6 3.89995 1.1 4.69995 0.799999 5.59995C0.499999 6.49995 0.199998 7.49995 0.0999985 8.99995C-1.52737e-06 10.4999 0 10.9999 0 14.7999C0 18.5999 -1.52737e-06 19.1 0.0999985 20.6C0.199998 22.1 0.399999 23.0999 0.799999 23.9999C1.2 24.8999 1.6 25.6999 2.4 26.4999C3.2 27.2999 4 27.8 4.9 28.1C5.8 28.4 6.8 28.6999 8.3 28.7999C9.8 28.9 10.3 28.8999 14.1 28.8999C17.9 28.8999 18.4 28.9 19.9 28.7999C21.4 28.6999 22.4 28.5 23.3 28.1C24.2 27.7 25 27.2999 25.8 26.4999C26.6 25.6999 27.1 24.8999 27.4 23.9999C27.7 23.0999 28 22.1 28.1 20.6C28.2 19.1 28.2 18.5999 28.2 14.7999C28.2 10.9999 28.2 10.4999 28.1 8.99995C28 7.49995 27.8 6.49995 27.4 5.59995C27 4.69995 26.6 3.89995 25.8 3.09995C25 2.29995 24.2 1.79995 23.3 1.49995C22.4 1.19995 21.4 0.89995 19.9 0.79995C18.4 0.69995 17.9 0.699951 14.1 0.699951C10.3 0.699951 9.8 0.79995 8.3 0.79995Z" fill="#FF0000"/>
</svg>
