<svg width="159" height="75" viewBox="0 0 159 75" fill="none" xmlns="http://www.w3.org/2000/svg">
<path d="M92.3472 13.8576V16.9253H83.5672V20.469H91.6596V23.3251H83.5672V27.3978H92.5588V30.4655H79.9177V13.8576H92.3472ZM101.762 30.5184V28.8258H101.709C101.286 29.5134 100.757 30.0424 100.069 30.3597C99.3818 30.677 98.6942 30.8357 98.0066 30.8357C97.1074 30.8357 96.367 30.7299 95.838 30.4655C95.2562 30.2539 94.8331 29.8837 94.5158 29.4605C94.1984 29.0374 93.9339 28.5085 93.8282 27.8738C93.7224 27.2391 93.6166 26.6044 93.6166 25.811V18.4062H96.9487V25.2292C96.9487 26.2342 97.1074 26.9747 97.4248 27.4507C97.7421 27.9267 98.271 28.1911 99.0644 28.1911C99.9636 28.1911 100.598 27.9267 101.021 27.3978C101.445 26.8689 101.603 25.9697 101.603 24.7532V18.4062H104.935V30.4655H101.762V30.5184ZM109.643 18.4591V20.6806H109.696C109.854 20.3103 110.066 19.9401 110.33 19.6227C110.595 19.3054 110.912 19.0409 111.229 18.8294C111.547 18.6178 111.917 18.4062 112.34 18.3004C112.71 18.1947 113.134 18.0889 113.557 18.0889C113.768 18.0889 114.033 18.1418 114.297 18.1947V21.2624C114.138 21.2095 113.98 21.2095 113.715 21.1566C113.504 21.1566 113.292 21.1037 113.081 21.1037C112.499 21.1037 111.97 21.2095 111.547 21.421C111.124 21.6326 110.806 21.8971 110.542 22.2673C110.277 22.6375 110.119 23.0078 110.013 23.4838C109.907 23.9598 109.854 24.4359 109.854 25.0177V30.4655H106.522V18.4062H109.643V18.4591ZM114.879 22.1615C114.932 21.3682 115.143 20.7335 115.461 20.2045C115.778 19.6756 116.254 19.3054 116.783 18.988C117.312 18.6707 117.894 18.4591 118.581 18.3004C119.216 18.1947 119.904 18.0889 120.591 18.0889C121.173 18.0889 121.808 18.1418 122.442 18.1947C123.077 18.3005 123.606 18.4591 124.135 18.6707C124.664 18.9352 125.087 19.2525 125.404 19.7285C125.722 20.1517 125.88 20.7335 125.88 21.4739V27.768C125.88 28.2969 125.933 28.8258 125.986 29.3548C126.039 29.8308 126.145 30.201 126.303 30.4655H122.918C122.866 30.2539 122.813 30.0952 122.76 29.8837C122.707 29.6721 122.707 29.5134 122.654 29.3019C122.125 29.8308 121.49 30.201 120.803 30.4655C120.062 30.677 119.375 30.7828 118.634 30.7828C118.052 30.7828 117.524 30.7299 117.047 30.5713C116.571 30.4126 116.095 30.201 115.725 29.9366C115.355 29.6192 115.038 29.249 114.826 28.8258C114.614 28.3498 114.509 27.8209 114.509 27.2391C114.509 26.5515 114.614 25.9697 114.879 25.5466C115.143 25.1234 115.408 24.7532 115.831 24.4888C116.201 24.2243 116.624 24.0127 117.153 23.9069C117.629 23.8012 118.158 23.6954 118.634 23.5896C119.11 23.5367 119.639 23.4309 120.115 23.378C120.591 23.3251 121.014 23.2722 121.385 23.1665C121.755 23.0607 122.072 22.9549 122.284 22.7433C122.495 22.5847 122.601 22.3202 122.601 21.95C122.601 21.5797 122.548 21.3153 122.442 21.1037C122.337 20.8921 122.178 20.7335 121.966 20.6277C121.755 20.5219 121.543 20.4161 121.279 20.4161C121.014 20.3632 120.75 20.3632 120.433 20.3632C119.798 20.3632 119.269 20.5219 118.899 20.7864C118.528 21.0508 118.317 21.5268 118.264 22.1615H114.879ZM122.548 24.6474C122.39 24.7532 122.231 24.859 122.019 24.9648C121.808 25.0177 121.596 25.0705 121.332 25.1234C121.067 25.1763 120.856 25.2292 120.591 25.2292C120.327 25.2821 120.062 25.2821 119.798 25.335C119.533 25.3879 119.322 25.4408 119.057 25.5466C118.793 25.5995 118.581 25.7053 118.423 25.8639C118.264 26.0226 118.105 26.1813 118 26.34C117.894 26.4986 117.841 26.816 117.841 27.1333C117.841 27.4507 117.894 27.6622 118 27.8738C118.105 28.0854 118.264 28.244 118.423 28.3498C118.634 28.4556 118.846 28.5614 119.057 28.6143C119.322 28.6672 119.586 28.6672 119.851 28.6672C120.485 28.6672 121.014 28.5614 121.385 28.3498C121.755 28.1383 122.019 27.8738 122.178 27.5564C122.337 27.2391 122.442 26.9218 122.495 26.6573C122.548 26.34 122.548 26.0755 122.548 25.9168V24.6474ZM130.217 27.5036C130.376 27.768 130.535 27.9796 130.799 28.1383C131.011 28.2969 131.275 28.4027 131.593 28.5085C131.91 28.5614 132.227 28.6143 132.545 28.6143C132.756 28.6143 133.021 28.5614 133.285 28.5085C133.55 28.4556 133.761 28.3498 133.973 28.244C134.184 28.1383 134.343 27.9796 134.502 27.768C134.66 27.5564 134.713 27.3449 134.713 27.0275C134.713 26.5515 134.396 26.1813 133.708 25.9168C133.021 25.6524 132.122 25.4408 130.958 25.1763C130.482 25.0705 130.006 24.9648 129.53 24.8061C129.054 24.6474 128.684 24.4888 128.313 24.2243C127.943 23.9598 127.679 23.6954 127.467 23.3251C127.256 22.9549 127.15 22.5318 127.15 22.0028C127.15 21.2095 127.308 20.5748 127.626 20.0988C127.943 19.6227 128.313 19.1996 128.842 18.9352C129.318 18.6707 129.9 18.4591 130.535 18.3533C131.169 18.2476 131.804 18.1947 132.439 18.1947C133.074 18.1947 133.708 18.2476 134.343 18.4062C134.978 18.512 135.507 18.7236 135.983 19.0409C136.459 19.3583 136.882 19.7285 137.199 20.2045C137.516 20.6806 137.728 21.3153 137.781 22.0557H134.607C134.555 21.421 134.343 20.9979 133.867 20.7864C133.444 20.5748 132.915 20.469 132.333 20.469C132.122 20.469 131.963 20.469 131.751 20.5219C131.54 20.5219 131.328 20.5748 131.169 20.6806C131.011 20.7335 130.852 20.8921 130.693 20.9979C130.588 21.1566 130.482 21.3682 130.482 21.5797C130.482 21.8971 130.588 22.1086 130.799 22.3202C131.011 22.5318 131.275 22.6375 131.646 22.7962C132.016 22.902 132.386 23.0078 132.862 23.1136C133.338 23.2194 133.761 23.3251 134.237 23.4309C134.713 23.5367 135.189 23.6954 135.665 23.8012C136.141 23.9598 136.512 24.1714 136.882 24.4359C137.252 24.7003 137.516 25.0177 137.728 25.3879C137.94 25.7581 138.045 26.2342 138.045 26.816C138.045 27.6093 137.887 28.2969 137.569 28.8258C137.252 29.3548 136.829 29.7779 136.3 30.0952C135.771 30.4126 135.189 30.677 134.555 30.7828C133.92 30.8886 133.232 30.9944 132.545 30.9944C131.857 30.9944 131.17 30.9415 130.482 30.7828C129.794 30.6242 129.213 30.4126 128.684 30.0952C128.155 29.7779 127.732 29.3548 127.414 28.8258C127.097 28.2969 126.885 27.6093 126.885 26.816H130.059C130.006 26.9746 130.059 27.292 130.217 27.5036ZM139.156 16.6079V13.8576H142.488V16.6079H139.156ZM142.435 18.4591V30.5184H139.103V18.4591H142.435ZM144.022 22.1615C144.075 21.3682 144.287 20.7335 144.604 20.2045C144.921 19.6756 145.397 19.3054 145.926 18.988C146.455 18.6707 147.037 18.4591 147.725 18.3004C148.359 18.1947 149.047 18.0889 149.734 18.0889C150.316 18.0889 150.951 18.1418 151.586 18.1947C152.22 18.3005 152.749 18.4591 153.278 18.6707C153.807 18.9352 154.23 19.2525 154.548 19.7285C154.865 20.1517 155.024 20.7335 155.024 21.4739V27.768C155.024 28.2969 155.076 28.8258 155.129 29.3548C155.182 29.8308 155.288 30.201 155.447 30.4655H152.062C152.009 30.2539 151.956 30.0952 151.903 29.8837C151.85 29.6721 151.85 29.5134 151.797 29.3019C151.268 29.8308 150.634 30.201 149.946 30.4655C149.205 30.677 148.518 30.7828 147.777 30.7828C147.196 30.7828 146.667 30.7299 146.191 30.5713C145.715 30.4126 145.239 30.201 144.868 29.9366C144.498 29.6192 144.181 29.249 143.969 28.8258C143.758 28.3498 143.652 27.8209 143.652 27.2391C143.652 26.5515 143.758 25.9697 144.022 25.5466C144.287 25.1234 144.551 24.7532 144.974 24.4888C145.344 24.2243 145.768 24.0127 146.296 23.9069C146.772 23.8012 147.301 23.6954 147.777 23.5896C148.253 23.5367 148.782 23.4309 149.258 23.378C149.734 23.3251 150.158 23.2722 150.528 23.1665C150.898 23.0607 151.215 22.9549 151.427 22.7433C151.638 22.5847 151.744 22.3202 151.744 21.95C151.744 21.5797 151.691 21.3153 151.586 21.1037C151.48 20.8921 151.321 20.7335 151.11 20.6277C150.898 20.5219 150.686 20.4161 150.422 20.4161C150.158 20.3632 149.893 20.3632 149.576 20.3632C148.941 20.3632 148.412 20.5219 148.042 20.7864C147.672 21.0508 147.46 21.5268 147.407 22.1615H144.022ZM151.638 24.6474C151.48 24.7532 151.321 24.859 151.11 24.9648C150.898 25.0177 150.686 25.0705 150.422 25.1234C150.158 25.1763 149.946 25.2292 149.681 25.2292C149.417 25.2821 149.153 25.2821 148.888 25.335C148.624 25.3879 148.412 25.4408 148.148 25.5466C147.883 25.5995 147.672 25.7053 147.513 25.8639C147.354 26.0226 147.196 26.1813 147.09 26.34C146.984 26.4986 146.931 26.816 146.931 27.1333C146.931 27.4507 146.984 27.6622 147.09 27.8738C147.196 28.0854 147.354 28.244 147.513 28.3498C147.725 28.4556 147.936 28.5614 148.148 28.6143C148.412 28.6672 148.677 28.6672 148.941 28.6672C149.576 28.6672 150.105 28.5614 150.475 28.3498C150.845 28.1383 151.11 27.8738 151.268 27.5564C151.427 27.2391 151.533 26.9218 151.586 26.6573C151.638 26.34 151.638 26.0755 151.638 25.9168V24.6474ZM79.9177 36.8653V33.7976H93.5637V36.8653H88.5919V50.4584H84.9424V36.8653H79.9177ZM91.9241 42.1016C91.977 41.3082 92.1885 40.6735 92.5059 40.1446C92.8232 39.6157 93.2992 39.2454 93.8282 38.9281C94.3571 38.6108 94.9389 38.3992 95.6265 38.2405C96.2612 38.1347 96.9488 38.029 97.6363 38.029C98.2182 38.029 98.8528 38.0818 99.4875 38.1347C100.122 38.1876 100.651 38.3992 101.18 38.6107C101.709 38.8752 102.132 39.1926 102.449 39.6686C102.767 40.0917 102.925 40.6735 102.925 41.414V47.7081C102.925 48.237 102.978 48.7659 103.031 49.2948C103.084 49.7708 103.19 50.1411 103.349 50.4055H99.9636C99.9107 50.194 99.8578 50.0353 99.8049 49.8237C99.752 49.6122 99.752 49.4535 99.6991 49.2419C99.1702 49.7708 98.5355 50.1411 97.8479 50.4055C97.1074 50.6171 96.4198 50.7229 95.6794 50.7229C95.0976 50.7229 94.5686 50.67 94.0926 50.5113C93.6166 50.3526 93.1406 50.1411 92.7703 49.8766C92.4001 49.5593 92.0828 49.189 91.8712 48.7659C91.6596 48.2899 91.5538 47.761 91.5538 47.1792C91.5538 46.4916 91.6596 45.9098 91.9241 45.4866C92.1885 45.0635 92.453 44.6933 92.8761 44.4288C93.2464 44.1643 93.6695 43.9528 94.1984 43.847C94.6744 43.7412 95.2033 43.6354 95.6794 43.5297C96.1554 43.4768 96.6843 43.371 97.1603 43.3181C97.6363 43.2652 98.0595 43.2123 98.4297 43.1065C98.8 43.0007 99.1173 42.895 99.3289 42.6834C99.5404 42.5247 99.6462 42.2603 99.6462 41.89C99.6462 41.5198 99.5933 41.2553 99.4875 41.0438C99.3818 40.8322 99.2231 40.6735 99.0115 40.5677C98.8 40.462 98.5884 40.3562 98.3239 40.3562C98.0595 40.3033 97.795 40.3033 97.4777 40.3033C96.843 40.3033 96.3141 40.4619 95.9438 40.7264C95.5736 40.9909 95.362 41.4669 95.3091 42.1016H91.9241ZM99.5404 44.5875C99.3818 44.6933 99.2231 44.7991 99.0115 44.9048C98.8 44.9577 98.5884 45.0106 98.3239 45.0635C98.0595 45.1164 97.8479 45.1693 97.5835 45.1693C97.319 45.2222 97.0545 45.2222 96.7901 45.2751C96.5256 45.328 96.3141 45.3808 96.0496 45.4866C95.7851 45.5395 95.5736 45.6453 95.4149 45.804C95.2562 45.9627 95.0976 46.1213 94.9918 46.28C94.886 46.4387 94.8331 46.756 94.8331 47.0734C94.8331 47.3907 94.886 47.6023 94.9918 47.8139C95.0976 48.0254 95.2562 48.1841 95.4149 48.2899C95.6265 48.3957 95.838 48.5014 96.0496 48.5543C96.3141 48.6072 96.5785 48.6072 96.843 48.6072C97.4777 48.6072 98.0066 48.5015 98.3768 48.2899C98.7471 48.0783 99.0115 47.8139 99.1702 47.4965C99.3289 47.1792 99.4347 46.8618 99.4875 46.5974C99.5404 46.28 99.5404 46.0155 99.5404 45.8569V44.5875ZM107.844 33.7976V50.4584H104.512V33.7976H107.844ZM113.134 47.5494C113.61 48.0254 114.35 48.2899 115.302 48.2899C115.99 48.2899 116.571 48.1312 117.047 47.8139C117.524 47.4965 117.841 47.1263 117.947 46.756H120.856C120.38 48.1841 119.692 49.2419 118.687 49.8766C117.735 50.5113 116.571 50.8287 115.196 50.8287C114.244 50.8287 113.398 50.67 112.605 50.3526C111.864 50.0353 111.177 49.6122 110.648 49.0833C110.119 48.5014 109.696 47.8667 109.431 47.0734C109.167 46.28 109.008 45.4337 109.008 44.4817C109.008 43.5825 109.167 42.7363 109.431 41.9429C109.748 41.1495 110.172 40.5148 110.701 39.933C111.229 39.3512 111.917 38.9281 112.658 38.6107C113.398 38.2934 114.244 38.1347 115.143 38.1347C116.148 38.1347 117.047 38.3463 117.841 38.7165C118.581 39.1397 119.216 39.6686 119.745 40.3033C120.221 40.9909 120.591 41.7313 120.803 42.5776C121.014 43.4239 121.12 44.323 121.014 45.2751H112.34C112.393 46.3329 112.658 47.0734 113.134 47.5494ZM116.889 41.2024C116.519 40.7793 115.884 40.5677 115.091 40.5677C114.562 40.5677 114.138 40.6735 113.768 40.8322C113.398 40.9909 113.134 41.2553 112.922 41.5198C112.71 41.7842 112.552 42.0487 112.499 42.366C112.393 42.6834 112.34 42.9478 112.34 43.1594H117.735C117.576 42.3132 117.312 41.6785 116.889 41.2024ZM125.457 38.3992V40.0917H125.51C125.933 39.4041 126.462 38.8752 127.15 38.5579C127.837 38.2405 128.525 38.0818 129.213 38.0818C130.112 38.0818 130.799 38.1876 131.381 38.4521C131.963 38.7165 132.386 39.0339 132.703 39.457C133.021 39.8801 133.285 40.4091 133.391 41.0438C133.497 41.6785 133.603 42.3131 133.603 43.1065V50.5113H130.27V43.6883C130.27 42.6834 130.112 41.9429 129.794 41.4669C129.477 40.9909 128.948 40.7264 128.155 40.7264C127.256 40.7264 126.621 40.9909 126.198 41.5198C125.775 42.0487 125.616 42.9478 125.616 44.1643V50.5113H122.284V38.4521H125.457V38.3992ZM142.065 38.3992V40.6206H139.632V46.5974C139.632 47.1792 139.738 47.5494 139.897 47.7081C140.108 47.9196 140.478 47.9725 141.007 47.9725C141.219 47.9725 141.378 47.9725 141.536 47.9725C141.695 47.9725 141.854 47.9196 142.012 47.9196V50.5113C141.748 50.5642 141.43 50.5642 141.06 50.6171C140.743 50.6171 140.373 50.6171 140.055 50.6171C139.526 50.6171 139.05 50.5642 138.574 50.5113C138.098 50.4584 137.728 50.2998 137.358 50.0882C136.988 49.8766 136.723 49.6122 136.512 49.2419C136.3 48.8717 136.194 48.3957 136.194 47.761V40.6206H134.184V38.3992H136.194V34.8026H139.526V38.3992H142.065ZM146.191 47.4436C146.349 47.7081 146.508 47.9196 146.772 48.0783C146.984 48.237 147.248 48.3428 147.566 48.4486C147.883 48.5014 148.201 48.5543 148.518 48.5543C148.729 48.5543 148.994 48.5014 149.258 48.4486C149.523 48.3957 149.734 48.2899 149.946 48.1841C150.158 48.0783 150.316 47.9196 150.475 47.7081C150.634 47.4965 150.686 47.285 150.686 46.9676C150.686 46.4916 150.369 46.1213 149.681 45.8569C148.994 45.5924 148.095 45.3809 146.931 45.1164C146.455 45.0106 145.979 44.9048 145.503 44.7462C145.027 44.5875 144.657 44.4288 144.287 44.1643C143.916 43.8999 143.652 43.6354 143.44 43.2652C143.229 42.895 143.123 42.4718 143.123 41.9429C143.123 41.1495 143.282 40.5148 143.599 40.0388C143.916 39.5628 144.287 39.1397 144.815 38.8752C145.291 38.6107 145.873 38.3992 146.508 38.2934C147.143 38.1876 147.777 38.1347 148.412 38.1347C149.047 38.1347 149.681 38.1876 150.316 38.3463C150.951 38.4521 151.48 38.6636 151.956 38.981C152.432 39.2983 152.855 39.6686 153.172 40.1446C153.49 40.6206 153.701 41.2553 153.754 41.9958H150.581C150.528 41.3611 150.316 40.938 149.84 40.7264C149.417 40.5148 148.888 40.4091 148.306 40.4091C148.095 40.4091 147.936 40.4091 147.725 40.4619C147.513 40.4619 147.301 40.5148 147.143 40.6206C146.984 40.6735 146.825 40.8322 146.667 40.938C146.561 41.0967 146.455 41.3082 146.455 41.5198C146.455 41.8371 146.561 42.0487 146.772 42.2603C146.984 42.4718 147.248 42.5776 147.619 42.7363C147.989 42.8421 148.359 42.9479 148.835 43.0536C149.311 43.1594 149.734 43.2652 150.21 43.371C150.686 43.4768 151.162 43.6354 151.638 43.7412C152.114 43.8999 152.485 44.1115 152.855 44.3759C153.225 44.6404 153.49 44.9577 153.701 45.328C153.913 45.6982 154.019 46.1742 154.019 46.756C154.019 47.5494 153.86 48.237 153.543 48.7659C153.225 49.2948 152.802 49.7179 152.273 50.0353C151.744 50.3526 151.162 50.6171 150.528 50.7229C149.893 50.8287 149.205 50.9345 148.518 50.9345C147.83 50.9345 147.143 50.8816 146.455 50.7229C145.768 50.5642 145.186 50.3526 144.657 50.0353C144.128 49.7179 143.705 49.2948 143.387 48.7659C143.07 48.237 142.859 47.5494 142.859 46.756H146.032C145.926 46.9147 146.032 47.2321 146.191 47.4436ZM89.2795 53.7377L95.5207 70.3985H91.7125L90.4431 66.6961H84.2019L82.8796 70.3985H79.1772L85.4713 53.7377H89.2795ZM89.4911 63.9457L87.3754 57.8103H87.3225L85.154 63.9457H89.4911ZM106.945 71.2976C106.787 71.9323 106.522 72.5141 106.099 73.0431C105.676 73.572 105.041 74.048 104.195 74.4182C103.349 74.7885 102.291 75 100.863 75C100.281 75 99.6462 74.9472 99.0644 74.7885C98.4297 74.6298 97.9008 74.4182 97.3719 74.1009C96.843 73.7835 96.4727 73.4133 96.1025 72.8844C95.7851 72.4084 95.5736 71.8266 95.5207 71.139H98.7999C98.9586 71.7737 99.276 72.1968 99.6991 72.4084C100.175 72.6728 100.651 72.7786 101.286 72.7786C102.238 72.7786 102.873 72.5141 103.349 71.9323C103.772 71.3505 103.983 70.6629 103.983 69.8167V68.2299H103.93C103.56 68.8646 103.084 69.3407 102.397 69.658C101.762 69.9754 101.021 70.134 100.334 70.134C99.4347 70.134 98.6413 69.9754 98.0066 69.658C97.3719 69.3407 96.843 68.9175 96.4198 68.3357C95.9967 67.8068 95.6794 67.1192 95.5207 66.3787C95.3091 65.6383 95.2033 64.8449 95.2033 64.0515C95.2033 63.2581 95.3091 62.5177 95.5207 61.7772C95.7323 61.0367 96.1025 60.402 96.5256 59.8731C96.9488 59.3442 97.4777 58.8682 98.1653 58.5508C98.8 58.2335 99.5404 58.0748 100.387 58.0748C101.18 58.0748 101.868 58.2335 102.449 58.4979C103.031 58.8153 103.56 59.2913 103.93 59.9789H103.983V58.3921H107.157V69.658C107.157 70.134 107.104 70.663 106.945 71.2976ZM102.449 67.2779C102.82 67.0663 103.084 66.8548 103.349 66.5374C103.56 66.2201 103.772 65.8498 103.878 65.4796C103.983 65.0565 104.036 64.6862 104.036 64.2102C104.036 63.7342 103.983 63.2581 103.878 62.7821C103.772 62.3061 103.613 61.9359 103.402 61.6185C103.19 61.3012 102.873 60.9838 102.555 60.8251C102.185 60.6136 101.762 60.5078 101.18 60.5078C100.704 60.5078 100.334 60.6136 99.9636 60.7723C99.6462 60.9838 99.3289 61.1954 99.1173 61.5127C98.9057 61.8301 98.7471 62.2003 98.6413 62.6235C98.5355 63.0466 98.4826 63.4697 98.4826 63.8929C98.4826 64.316 98.5355 64.7391 98.5884 65.1622C98.6942 65.5854 98.8 65.9556 99.0115 66.3259C99.2231 66.6432 99.4875 66.9605 99.8578 67.1721C100.175 67.3837 100.651 67.4895 101.127 67.4895C101.656 67.5424 102.079 67.4366 102.449 67.2779ZM112.499 67.4895C112.975 67.9655 113.715 68.2299 114.667 68.2299C115.355 68.2299 115.937 68.0713 116.413 67.7539C116.889 67.4366 117.206 67.0663 117.312 66.6961H120.221C119.745 68.1242 119.057 69.182 118.052 69.8167C117.1 70.4514 115.937 70.7687 114.562 70.7687C113.61 70.7687 112.763 70.6101 111.97 70.2927C111.229 69.9754 110.542 69.5522 110.013 69.0233C109.484 68.4415 109.061 67.8068 108.796 67.0134C108.532 66.2201 108.373 65.3738 108.373 64.4218C108.373 63.5226 108.532 62.6763 108.796 61.883C109.114 61.0896 109.537 60.4549 110.066 59.8731C110.595 59.2913 111.282 58.8682 112.023 58.5508C112.763 58.2335 113.61 58.0748 114.509 58.0748C115.514 58.0748 116.413 58.2864 117.206 58.6566C117.947 59.0797 118.581 59.6087 119.11 60.2433C119.586 60.9309 119.957 61.6714 120.168 62.5177C120.38 63.3639 120.485 64.2631 120.38 65.2151H111.705C111.705 66.273 112.023 67.0134 112.499 67.4895ZM116.254 61.1425C115.884 60.7194 115.249 60.5078 114.456 60.5078C113.927 60.5078 113.504 60.6136 113.134 60.7723C112.763 60.9309 112.499 61.1954 112.287 61.4598C112.076 61.7243 111.917 61.9888 111.864 62.3061C111.758 62.6235 111.705 62.8879 111.705 63.0995H117.1C116.889 62.2532 116.624 61.6185 116.254 61.1425ZM124.77 58.3393V60.0318H124.823C125.246 59.3442 125.775 58.8153 126.462 58.4979C127.15 58.1806 127.837 58.0219 128.525 58.0219C129.424 58.0219 130.112 58.1277 130.693 58.3921C131.275 58.6566 131.698 58.9739 132.016 59.3971C132.333 59.8202 132.598 60.3491 132.703 60.9838C132.809 61.6185 132.915 62.2532 132.915 63.0466V70.4514H129.583V63.5755C129.583 62.5706 129.424 61.8301 129.107 61.3541C128.789 60.878 128.26 60.6136 127.467 60.6136C126.568 60.6136 125.933 60.878 125.51 61.4069C125.087 61.9359 124.928 62.835 124.928 64.0515V70.3985H121.649V58.3393H124.77ZM140.32 60.5078C139.791 60.5078 139.368 60.6136 138.997 60.878C138.627 61.1425 138.363 61.407 138.098 61.8301C137.887 62.2003 137.728 62.6235 137.622 63.0995C137.516 63.5755 137.464 63.9986 137.464 64.4747C137.464 64.8978 137.516 65.3738 137.622 65.7969C137.728 66.273 137.887 66.6432 138.098 67.0134C138.31 67.3837 138.574 67.701 138.945 67.9126C139.315 68.1242 139.738 68.2828 140.267 68.2828C141.06 68.2828 141.695 68.0713 142.118 67.5952C142.541 67.1721 142.806 66.5374 142.911 65.7969H146.085C145.873 67.3837 145.239 68.6002 144.234 69.4464C143.229 70.2927 141.906 70.7158 140.267 70.7158C139.368 70.7158 138.521 70.5572 137.781 70.2398C137.04 69.9225 136.406 69.4993 135.877 68.9704C135.348 68.4415 134.925 67.7539 134.66 67.0134C134.343 66.273 134.237 65.4267 134.237 64.5275C134.237 63.5755 134.396 62.7292 134.66 61.9359C134.925 61.1425 135.348 60.4549 135.877 59.8731C136.406 59.2913 137.04 58.8153 137.834 58.4979C138.574 58.1806 139.473 58.0219 140.425 58.0219C141.166 58.0219 141.854 58.1277 142.488 58.2864C143.123 58.4979 143.758 58.7624 144.287 59.1326C144.815 59.5029 145.239 59.9789 145.556 60.5607C145.873 61.1425 146.085 61.7772 146.138 62.5706H142.911C142.541 61.1954 141.695 60.5078 140.32 60.5078ZM151.797 73.9951C151.162 74.4182 150.263 74.6298 149.153 74.6298C148.835 74.6298 148.465 74.6298 148.148 74.5769C147.83 74.5769 147.46 74.524 147.143 74.4711V71.7208C147.46 71.7737 147.777 71.7737 148.095 71.8266C148.412 71.8795 148.729 71.8795 149.1 71.8266C149.523 71.7737 149.84 71.615 150.052 71.2976C150.263 70.9803 150.369 70.663 150.369 70.2927C150.369 70.0283 150.316 69.7638 150.21 69.5522L145.979 58.2335H149.523L152.273 66.4845H152.326L154.971 58.2335H158.409L153.384 71.7737C152.961 72.8844 152.432 73.572 151.797 73.9951Z" fill="black"/>
<path d="M25.9697 2.59168L32.7927 5.97673H45.3279V13.8575H27.9796L0 0H45.3279V2.59168H25.9697ZM48.5543 56.5938V0L76.6397 13.9104V23.854V70.3985L48.5543 56.5938ZM58.6037 9.04443L51.8336 5.65938V13.4344L58.6037 16.8195V9.04443ZM58.6037 22.6375L51.8336 19.2525V26.9217L58.6037 30.3068V22.6375ZM58.6037 36.0191L51.8336 32.634V40.409L58.6037 43.7941V36.0191ZM58.6037 49.6121L51.8336 46.28V54.055L58.6037 57.3872V49.6121Z" fill="black"/>
</svg>
