<svg width="87" height="65" viewBox="0 0 87 65" fill="none" xmlns="http://www.w3.org/2000/svg">
<path d="M15.1667 0V3.29333H5.80665V7.10667H14.3867V10.14H5.80665V14.4733H15.34V17.7667H1.99332V0H15.1667ZM25.22 17.7667V15.9467H25.1333C24.7 16.7267 24.0933 17.2467 23.4 17.5933C22.7067 17.94 21.9267 18.1133 21.2333 18.1133C20.28 18.1133 19.5 18.0267 18.8933 17.7667C18.2867 17.5067 17.8533 17.16 17.5067 16.7267C17.16 16.2933 16.9 15.6867 16.8133 15.08C16.7267 14.4733 16.64 13.6933 16.64 12.9133V4.85333H20.1933V12.1333C20.1933 13.1733 20.3667 13.9533 20.7133 14.4733C21.06 14.9933 21.6667 15.2533 22.4467 15.2533C23.4 15.2533 24.0933 14.9933 24.5267 14.3867C24.96 13.78 25.1333 12.9133 25.1333 11.5267V4.85333H28.6V17.68H25.22V17.7667ZM33.54 4.85333V7.19333H33.6267C33.8 6.76 33.9733 6.41333 34.32 6.06667C34.58 5.72 34.9267 5.46 35.2733 5.2C35.62 4.94 36.0533 4.76667 36.4 4.68C36.8333 4.50667 37.2667 4.50667 37.7 4.50667C37.96 4.50667 38.22 4.50667 38.48 4.59333V7.88667C38.3067 7.88667 38.1333 7.8 37.8733 7.8C37.6133 7.8 37.44 7.8 37.18 7.8C36.5733 7.8 35.9667 7.88667 35.5333 8.14667C35.1 8.32 34.7533 8.66667 34.4933 9.01333C34.2333 9.36 34.06 9.79333 33.8867 10.3133C33.8 10.8333 33.7133 11.3533 33.7133 11.96V17.7667H30.16V4.85333H33.54ZM39.1733 8.84C39.26 7.97333 39.4333 7.36667 39.78 6.76C40.1267 6.24 40.6467 5.80667 41.1667 5.46C41.6867 5.11333 42.38 4.85333 43.0733 4.76667C43.7667 4.59333 44.46 4.59333 45.1533 4.59333C45.76 4.59333 46.4533 4.68 47.1467 4.76667C47.84 4.85333 48.4467 5.02667 48.9667 5.28667C49.4867 5.54667 49.92 5.89333 50.2667 6.41333C50.6133 6.84667 50.7867 7.54 50.7867 8.32V14.9933C50.7867 15.6 50.7867 16.12 50.8733 16.64C50.96 17.16 51.0467 17.5933 51.22 17.8533H47.6667C47.58 17.68 47.58 17.42 47.4933 17.2467C47.4933 17.0733 47.4067 16.8133 47.4067 16.64C46.8867 17.2467 46.1933 17.5933 45.4133 17.8533C44.6333 18.1133 43.8533 18.2 43.0733 18.2C42.4667 18.2 41.86 18.1133 41.34 17.94C40.82 17.7667 40.3867 17.5933 39.9533 17.2467C39.52 16.9 39.26 16.5533 39 16.0333C38.74 15.5133 38.6533 14.9933 38.6533 14.3C38.6533 13.6067 38.74 13 39 12.48C39.26 12.0467 39.6067 11.6133 39.9533 11.3533C40.3867 11.0933 40.82 10.8333 41.34 10.7467C41.86 10.5733 42.38 10.4867 42.9 10.4C43.42 10.3133 43.94 10.2267 44.46 10.2267C44.98 10.14 45.4133 10.14 45.8467 9.96667C46.28 9.88 46.54 9.70667 46.8 9.53333C47.06 9.36 47.1467 9.1 47.1467 8.66667C47.1467 8.32 47.06 7.97333 46.9733 7.8C46.8867 7.54 46.7133 7.36667 46.4533 7.28C46.4533 7.10667 46.1933 7.02 45.9333 6.93333C45.6733 6.93333 45.3267 6.93333 45.0667 6.93333C44.3733 6.93333 43.8533 7.10667 43.42 7.36667C42.9867 7.62667 42.8133 8.14667 42.7267 8.84H39.1733ZM47.32 11.44C47.1467 11.6133 46.9733 11.7 46.8 11.7867C46.54 11.8733 46.3667 11.96 46.1067 11.96C45.8467 12.0467 45.5867 12.0467 45.3267 12.0467C45.0667 12.0467 44.8067 12.1333 44.46 12.1333C44.2 12.22 43.94 12.22 43.68 12.3067C43.42 12.3933 43.16 12.48 42.9867 12.6533C42.8133 12.8267 42.64 13 42.5533 13.1733C42.4667 13.3467 42.38 13.6933 42.38 13.9533C42.38 14.3 42.4667 14.56 42.5533 14.7333C42.64 14.9067 42.8133 15.08 42.9867 15.2533C43.16 15.34 43.42 15.4267 43.68 15.5133C43.94 15.6 44.2 15.6 44.46 15.6C45.1533 15.6 45.6733 15.5133 46.1067 15.2533C46.54 14.9933 46.8 14.7333 46.9733 14.3867C47.1467 14.04 47.2333 13.78 47.32 13.4333C47.32 13.0867 47.4067 12.8267 47.4067 12.6533V11.44H47.32ZM55.4667 14.56C55.64 14.82 55.8133 15.08 56.0733 15.2533C56.3333 15.4267 56.5933 15.5133 56.94 15.6C57.2867 15.6867 57.6333 15.6867 57.98 15.6867C58.24 15.6867 58.5 15.6867 58.76 15.6C59.02 15.5133 59.28 15.4267 59.54 15.34C59.8 15.2533 59.9733 15.08 60.06 14.82C60.2333 14.6467 60.32 14.3867 60.32 14.04C60.32 13.52 59.9733 13.0867 59.28 12.8267C58.5867 12.5667 57.6333 12.3067 56.3333 12.0467C55.8133 11.96 55.2933 11.7867 54.86 11.6133C54.34 11.44 53.9067 11.2667 53.56 11.0067C53.2133 10.7467 52.8667 10.4 52.6067 10.0533C52.3467 9.70667 52.26 9.18667 52.26 8.66667C52.26 7.8 52.4333 7.19333 52.78 6.67333C53.1267 6.15333 53.56 5.72 54.08 5.46C54.6 5.11333 55.2067 4.94 55.9 4.85333C56.5933 4.76667 57.2 4.68 57.8933 4.68C58.5867 4.68 59.28 4.76667 59.8867 4.85333C60.58 5.02667 61.1 5.2 61.62 5.54667C62.14 5.89333 62.5733 6.24 62.92 6.76C63.2667 7.28 63.44 7.97333 63.5267 8.75333H60.1467C60.06 8.06 59.8 7.62667 59.3667 7.36667C58.8467 7.02 58.3267 6.93333 57.72 6.93333C57.5467 6.93333 57.2867 6.93333 57.1133 6.93333C56.8533 6.93333 56.68 7.02 56.5067 7.10667C56.3333 7.19333 56.16 7.28 55.9867 7.45333C55.8133 7.62667 55.8133 7.8 55.8133 8.06C55.8133 8.40667 55.9 8.66667 56.16 8.84C56.42 9.01333 56.68 9.18667 57.0267 9.36C57.3733 9.44667 57.8067 9.62 58.3267 9.70667C58.8467 9.79333 59.28 9.88 59.8 10.0533C60.32 10.14 60.84 10.3133 61.2733 10.4867C61.7933 10.66 62.2267 10.8333 62.5733 11.18C62.92 11.44 63.2667 11.7867 63.5267 12.22C63.7867 12.6533 63.8733 13.0867 63.8733 13.6933C63.8733 14.56 63.7 15.2533 63.3533 15.7733C63.0067 16.38 62.5733 16.8133 62.0533 17.16C61.5333 17.5067 60.84 17.7667 60.1467 17.8533C59.4533 18.0267 58.76 18.0267 57.98 18.0267C57.2 18.0267 56.5067 17.94 55.8133 17.7667C55.12 17.5933 54.4267 17.3333 53.9067 16.9867C53.3867 16.64 52.8667 16.2067 52.52 15.6C52.1733 14.9933 52 14.3 51.9133 13.4333H55.2933C55.2933 13.9533 55.38 14.3 55.4667 14.56ZM65 2.94667V0H68.5533V2.94667H65ZM68.5533 4.85333V17.68H65V4.85333H68.5533ZM70.2 8.84C70.2867 7.97333 70.46 7.36667 70.8067 6.76C71.1533 6.24 71.6733 5.80667 72.1933 5.46C72.7133 5.11333 73.4067 4.85333 74.1 4.76667C74.7933 4.59333 75.4867 4.59333 76.18 4.59333C76.7867 4.59333 77.48 4.68 78.1733 4.76667C78.8667 4.85333 79.4733 5.02667 79.9933 5.28667C80.5133 5.54667 80.9467 5.89333 81.2933 6.41333C81.64 6.84667 81.8133 7.54 81.8133 8.32V14.9933C81.8133 15.6 81.8133 16.12 81.9 16.64C81.9867 17.16 82.0733 17.5933 82.2467 17.8533H78.6933C78.6067 17.68 78.6067 17.42 78.52 17.2467C78.52 17.0733 78.4333 16.8133 78.4333 16.64C77.9133 17.2467 77.22 17.5933 76.44 17.8533C75.66 18.1133 74.88 18.2 74.1 18.2C73.4933 18.2 72.8867 18.1133 72.3667 17.94C71.8467 17.7667 71.4133 17.5933 70.98 17.2467C70.5467 16.9 70.2867 16.5533 70.0267 16.0333C69.7667 15.5133 69.68 14.9933 69.68 14.3C69.68 13.6067 69.7667 13 70.0267 12.48C70.2867 12.0467 70.6333 11.6133 70.98 11.3533C71.4133 11.0933 71.8467 10.8333 72.3667 10.7467C72.8867 10.5733 73.4067 10.4867 73.9267 10.4C74.4467 10.3133 74.9667 10.2267 75.4867 10.2267C76.0067 10.14 76.44 10.14 76.8733 9.96667C77.3067 9.88 77.5667 9.70667 77.8267 9.53333C78.0867 9.36 78.1733 9.1 78.1733 8.66667C78.1733 8.32 78.0867 7.97333 78 7.8C77.9133 7.54 77.74 7.36667 77.48 7.28C77.3067 7.19333 77.0467 7.10667 76.7867 7.02C76.5267 7.02 76.18 6.93333 75.92 6.93333C75.2267 6.93333 74.7067 7.10667 74.2733 7.36667C73.84 7.62667 73.6667 8.14667 73.58 8.84H70.2ZM78.3467 11.44C78.1733 11.6133 78 11.7 77.8267 11.7867C77.5667 11.8733 77.3933 11.96 77.1333 11.96C76.8733 12.0467 76.6133 12.0467 76.3533 12.0467C76.0933 12.0467 75.8333 12.1333 75.4867 12.1333C75.2267 12.22 74.9667 12.22 74.7067 12.3067C74.4467 12.3933 74.1867 12.48 74.0133 12.6533C73.84 12.8267 73.6667 13 73.58 13.1733C73.4933 13.3467 73.4067 13.6933 73.4067 13.9533C73.4067 14.3 73.4933 14.56 73.58 14.7333C73.6667 14.9067 73.84 15.08 74.0133 15.2533C74.1867 15.34 74.4467 15.4267 74.7067 15.5133C74.9667 15.6 75.2267 15.6 75.4867 15.6C76.18 15.6 76.7 15.5133 77.1333 15.2533C77.5667 14.9933 77.8267 14.7333 78 14.3867C78.1733 14.04 78.26 13.78 78.3467 13.4333C78.3467 13.0867 78.4333 12.8267 78.4333 12.6533V11.44H78.3467ZM1.99332 24.5267V21.2333H16.4667V24.5267H11.18V39H7.27998V24.5267H1.99332ZM14.7333 30.0733C14.82 29.2067 14.9933 28.6 15.34 27.9933C15.6867 27.4733 16.2067 27.04 16.7267 26.6933C17.2467 26.3467 17.94 26.0867 18.6333 26C19.3267 25.8267 20.02 25.8267 20.7133 25.8267C21.32 25.8267 22.0133 25.9133 22.7067 26C23.4 26.0867 24.0067 26.26 24.5267 26.52C25.0467 26.78 25.48 27.1267 25.8267 27.6467C26.1733 28.08 26.3467 28.7733 26.3467 29.5533V36.2267C26.3467 36.8333 26.3467 37.3533 26.4333 37.8733C26.52 38.3933 26.6067 38.8267 26.78 39.0867H23.2267C23.14 38.9133 23.14 38.6533 23.0533 38.48C23.0533 38.3067 22.9667 38.0467 22.9667 37.8733C22.4467 38.48 21.7533 38.8267 20.9733 39.0867C20.1933 39.3467 19.4133 39.4333 18.6333 39.4333C18.0267 39.4333 17.42 39.3467 16.9 39.1733C16.38 39 15.9467 38.8267 15.5133 38.48C15.08 38.1333 14.82 37.7867 14.56 37.2667C14.3 36.7467 14.2133 36.2267 14.2133 35.5333C14.2133 34.84 14.3 34.2333 14.56 33.7133C14.82 33.28 15.1667 32.8467 15.5133 32.5867C15.9467 32.3267 16.38 32.0667 16.9 31.98C17.42 31.8067 17.94 31.72 18.46 31.6333C18.98 31.5467 19.5 31.46 20.02 31.46C20.54 31.46 20.9733 31.3733 21.4067 31.2C21.84 31.1133 22.1 30.94 22.36 30.7667C22.62 30.5933 22.7067 30.3333 22.7067 29.9C22.7067 29.5533 22.62 29.2067 22.5333 29.0333C22.4467 28.7733 22.2733 28.6 22.0133 28.5133C21.84 28.4267 21.58 28.34 21.32 28.2533C21.06 28.2533 20.7133 28.1667 20.4533 28.1667C19.76 28.1667 19.24 28.34 18.8067 28.6C18.3733 28.86 18.2 29.38 18.1133 30.0733H14.7333ZM22.88 32.6733C22.7067 32.76 22.5333 32.9333 22.36 32.9333C22.1 33.02 21.9267 33.1067 21.6667 33.1067C21.4067 33.1933 21.1467 33.1933 20.8867 33.1933C20.6267 33.1933 20.3667 33.28 20.02 33.28C19.76 33.3667 19.5 33.3667 19.24 33.4533C18.98 33.54 18.72 33.6267 18.5467 33.8C18.3733 33.9733 18.2 34.1467 18.1133 34.32C18.0267 34.4933 17.94 34.84 17.94 35.1C17.94 35.4467 18.0267 35.7067 18.1133 35.88C18.2 36.0533 18.3733 36.2267 18.5467 36.4C18.72 36.4867 18.98 36.5733 19.24 36.66C19.5 36.7467 19.76 36.7467 20.02 36.7467C20.7133 36.7467 21.2333 36.66 21.6667 36.4C22.0133 36.14 22.36 35.88 22.5333 35.5333C22.7067 35.1867 22.7933 34.9267 22.88 34.58C22.88 34.2333 22.9667 33.9733 22.9667 33.8V32.6733H22.88ZM31.6333 21.2333V39H28.08V21.2333H31.6333ZM37.3533 35.88C37.8733 36.4 38.6533 36.66 39.6067 36.66C40.3 36.66 40.9067 36.4867 41.4267 36.14C41.9467 35.7933 42.2933 35.4467 42.38 35.0133H45.5C44.98 36.5733 44.2 37.6133 43.2467 38.3067C42.2067 39 40.9933 39.26 39.52 39.26C38.48 39.26 37.6133 39.0867 36.7467 38.74C35.9667 38.3933 35.2733 37.96 34.6667 37.3533C34.1467 36.7467 33.6267 36.0533 33.3667 35.1867C33.02 34.32 32.9333 33.4533 32.9333 32.4133C32.9333 31.46 33.1067 30.5933 33.3667 29.7267C33.7133 28.86 34.1467 28.1667 34.6667 27.56C35.2733 26.9533 35.9667 26.52 36.7467 26.1733C37.5267 25.8267 38.48 25.6533 39.4333 25.6533C40.56 25.6533 41.5133 25.8267 42.2933 26.26C43.0733 26.6933 43.7667 27.2133 44.2867 27.9933C44.8067 28.6867 45.1533 29.5533 45.4133 30.42C45.6733 31.3733 45.76 32.24 45.6733 33.28H36.4867C36.4867 34.4933 36.8333 35.36 37.3533 35.88ZM41.34 29.12C40.9067 28.6867 40.3 28.4267 39.4333 28.4267C38.9133 28.4267 38.3933 28.5133 38.0467 28.6867C37.7 28.86 37.3533 29.12 37.18 29.38C36.92 29.64 36.8333 29.9867 36.7467 30.2467C36.66 30.5933 36.5733 30.8533 36.5733 31.1133H42.2933C42.0333 30.2467 41.7733 29.5533 41.34 29.12ZM50.44 26.0867V27.9067H50.5267C50.96 27.1267 51.5667 26.6067 52.26 26.26C52.9533 25.9133 53.7333 25.74 54.4267 25.74C55.38 25.74 56.16 25.8267 56.7667 26.0867C57.3733 26.3467 57.8067 26.6933 58.1533 27.1267C58.5 27.56 58.76 28.1667 58.8467 28.7733C59.02 29.4667 59.02 30.16 59.02 30.94V38.8267H55.4667V31.5467C55.4667 30.5067 55.2933 29.7267 54.9467 29.2067C54.6 28.6867 53.9933 28.4267 53.2133 28.4267C52.26 28.4267 51.5667 28.6867 51.1333 29.2933C50.7 29.9 50.5267 30.7667 50.5267 32.1533V38.9133H46.9733V26.0867H50.44ZM68.12 26.0867V28.4267H65.52V34.7533C65.52 35.36 65.6067 35.7067 65.78 35.9667C65.9533 36.14 66.3867 36.2267 66.9933 36.2267C67.1667 36.2267 67.34 36.2267 67.6 36.2267C67.7733 36.2267 67.9467 36.2267 68.12 36.14V38.9133C67.7733 39 67.4267 39 67.08 39C66.7333 39 66.3867 39 66.04 39C65.52 39 65 39 64.48 38.9133C63.96 38.8267 63.5267 38.6533 63.18 38.48C62.8333 38.3067 62.4867 37.96 62.3133 37.5267C62.14 37.0933 61.9667 36.5733 61.9667 35.9667V28.4267H59.8V26.0867H61.9667V22.2733H65.52V26.0867H68.12ZM72.4533 35.7933C72.6267 36.0533 72.8 36.3133 73.06 36.4867C73.32 36.66 73.58 36.7467 73.9267 36.8333C74.2733 36.92 74.62 36.92 74.9667 36.92C75.2267 36.92 75.4867 36.92 75.7467 36.8333C76.0067 36.7467 76.2667 36.66 76.5267 36.5733C76.7867 36.4867 76.96 36.3133 77.0467 36.0533C77.22 35.88 77.3067 35.62 77.3067 35.2733C77.3067 34.7533 76.96 34.32 76.2667 34.06C75.5733 33.8 74.62 33.54 73.32 33.28C72.8 33.1933 72.28 33.02 71.8467 32.8467C71.3267 32.6733 70.8933 32.5 70.5467 32.24C70.2 31.98 69.8533 31.6333 69.5933 31.2867C69.3333 30.94 69.2467 30.42 69.2467 29.9C69.2467 29.0333 69.42 28.4267 69.7667 27.9067C70.1133 27.3867 70.5467 26.9533 71.0667 26.6933C71.5867 26.3467 72.1933 26.1733 72.8867 26.0867C73.58 26 74.1867 25.9133 74.88 25.9133C75.5733 25.9133 76.2667 26 76.8733 26.0867C77.5667 26.26 78.0867 26.4333 78.6067 26.78C79.1267 27.1267 79.56 27.4733 79.9067 27.9933C80.2533 28.5133 80.4267 29.2067 80.5133 29.9867H77.1333C77.0467 29.2933 76.7867 28.86 76.3533 28.6C75.92 28.34 75.3133 28.2533 74.7067 28.2533C74.5333 28.2533 74.2733 28.2533 74.1 28.2533C73.84 28.2533 73.6667 28.34 73.4933 28.4267C73.32 28.5133 73.1467 28.6 72.9733 28.7733C72.8 28.9467 72.8 29.12 72.8 29.38C72.8 29.7267 72.8867 29.9867 73.1467 30.16C73.4067 30.3333 73.6667 30.5067 74.0133 30.68C74.36 30.7667 74.7933 30.94 75.3133 31.0267C75.8333 31.1133 76.2667 31.2 76.7867 31.3733C77.3067 31.46 77.8267 31.6333 78.26 31.8067C78.78 31.98 79.2133 32.1533 79.56 32.5C79.9067 32.76 80.2533 33.1067 80.5133 33.54C80.7733 33.9733 80.86 34.4067 80.86 35.0133C80.86 35.88 80.6867 36.5733 80.34 37.0933C79.9933 37.7 79.56 38.1333 79.04 38.48C78.52 38.8267 77.8267 39.0867 77.1333 39.1733C76.44 39.3467 75.7467 39.3467 74.9667 39.3467C74.1867 39.3467 73.4933 39.26 72.8 39.0867C72.1067 38.9133 71.4133 38.6533 70.8933 38.3067C70.3733 37.96 69.8533 37.5267 69.5067 36.92C69.16 36.3133 68.9867 35.62 68.9 34.7533H72.28C72.28 35.1867 72.28 35.4467 72.4533 35.7933ZM11.96 42.4667L18.5467 60.2333H14.4733L13.1733 56.2467H6.49999L5.11332 60.2333H1.21332L7.97332 42.4667H11.96ZM12.1333 53.3L9.87999 46.8H9.79332L7.45332 53.3H12.1333ZM30.7667 61.1C30.5933 61.7933 30.3333 62.4 29.9 62.92C29.4667 63.5267 28.7733 63.96 27.9067 64.3933C27.04 64.8267 25.8267 65 24.3533 65C23.7467 65 23.0533 64.9133 22.4467 64.74C21.7533 64.5667 21.2333 64.3067 20.6267 64.0467C20.1067 63.7 19.6733 63.2667 19.3267 62.7467C18.98 62.2267 18.8067 61.62 18.72 60.84H22.1867C22.36 61.5333 22.7067 61.9667 23.14 62.2267C23.66 62.4867 24.18 62.5733 24.7867 62.5733C25.74 62.5733 26.52 62.3133 26.9533 61.7067C27.3867 61.1 27.6467 60.32 27.6467 59.4533V57.8067H27.56C27.2133 58.5 26.6067 59.02 25.9133 59.28C25.22 59.6267 24.44 59.8 23.66 59.8C22.7067 59.8 21.84 59.6267 21.1467 59.28C20.4533 58.9333 19.8467 58.5 19.4133 57.8933C18.98 57.2867 18.6333 56.5933 18.46 55.8133C18.2867 55.0333 18.1133 54.1667 18.1133 53.3C18.1133 52.4333 18.2 51.6533 18.46 50.8733C18.72 50.0933 19.0667 49.4 19.5 48.88C19.9333 48.2733 20.54 47.84 21.2333 47.4933C21.9267 47.1467 22.7067 46.9733 23.5733 46.9733C24.44 46.9733 25.1333 47.1467 25.8267 47.4067C26.4333 47.7533 27.04 48.2733 27.3867 48.9667H27.4733V47.2333H30.8533V59.28C30.94 59.8867 30.94 60.4067 30.7667 61.1ZM25.9133 56.8533C26.26 56.68 26.6067 56.42 26.8667 56.0733C27.1267 55.7267 27.3 55.38 27.3867 54.9467C27.4733 54.5133 27.56 54.08 27.56 53.6467C27.56 53.1267 27.4733 52.6067 27.3867 52.1733C27.3 51.74 27.1267 51.3067 26.8667 50.96C26.6067 50.6133 26.3467 50.2667 25.9133 50.0933C25.5667 49.92 25.0467 49.7467 24.44 49.7467C23.92 49.7467 23.4867 49.8333 23.14 50.0067C22.7933 50.18 22.4467 50.44 22.2733 50.7867C22.0133 51.1333 21.84 51.48 21.7533 51.9133C21.6667 52.3467 21.58 52.78 21.58 53.3C21.58 53.7333 21.6667 54.2533 21.7533 54.6867C21.84 55.12 22.0133 55.5533 22.1867 55.9C22.4467 56.2467 22.7067 56.5933 23.0533 56.7667C23.4 57.0267 23.8333 57.1133 24.44 57.1133C25.1333 57.1133 25.5667 57.0267 25.9133 56.8533ZM36.66 57.1133C37.18 57.6333 37.96 57.8933 38.9133 57.8933C39.6067 57.8933 40.2133 57.72 40.7333 57.3733C41.2533 57.0267 41.6 56.68 41.6867 56.2467H44.8067C44.2867 57.8067 43.5067 58.8467 42.5533 59.54C41.5133 60.2333 40.3 60.4933 38.8267 60.4933C37.7867 60.4933 36.92 60.32 36.0533 59.9733C35.2733 59.6267 34.58 59.1933 33.9733 58.5867C33.4533 57.98 32.9333 57.2867 32.6733 56.42C32.3267 55.5533 32.24 54.6867 32.24 53.6467C32.24 52.6933 32.4133 51.8267 32.6733 50.96C33.02 50.0933 33.4533 49.4 33.9733 48.7933C34.58 48.1867 35.2733 47.7533 36.0533 47.4067C36.8333 47.06 37.7867 46.8867 38.74 46.8867C39.8667 46.8867 40.82 47.06 41.6 47.4933C42.38 47.9267 43.0733 48.4467 43.5933 49.2267C44.1133 49.92 44.46 50.7867 44.72 51.6533C44.98 52.6067 45.0667 53.4733 44.98 54.5133H35.7933C35.7933 55.7267 36.14 56.5933 36.66 57.1133ZM40.6467 50.3533C40.2133 49.92 39.6067 49.66 38.74 49.66C38.22 49.66 37.7 49.7467 37.3533 49.92C37.0067 50.0933 36.66 50.3533 36.4867 50.6133C36.2267 50.8733 36.14 51.22 36.0533 51.48C35.9667 51.8267 35.88 52.0867 35.88 52.3467H41.6C41.34 51.48 41.08 50.7867 40.6467 50.3533ZM49.7467 47.32V49.14H49.8333C50.2667 48.36 50.8733 47.84 51.5667 47.4933C52.26 47.1467 53.04 46.9733 53.7333 46.9733C54.6867 46.9733 55.4667 47.06 56.0733 47.32C56.68 47.58 57.1133 47.9267 57.46 48.36C57.8067 48.7933 58.0667 49.4 58.1533 50.0067C58.3267 50.7 58.3267 51.3933 58.3267 52.1733V60.06H54.7733V52.78C54.7733 51.74 54.6 50.96 54.2533 50.44C53.9067 49.92 53.3 49.66 52.52 49.66C51.5667 49.66 50.8733 49.92 50.44 50.5267C50.0067 51.1333 49.8333 52 49.8333 53.3867V60.1467H46.28V47.32H49.7467ZM66.2133 49.66C65.6933 49.66 65.1733 49.7467 64.8267 50.0067C64.48 50.2667 64.1333 50.6133 63.8733 50.96C63.6133 51.3933 63.44 51.8267 63.3533 52.26C63.2667 52.6933 63.18 53.2133 63.18 53.7333C63.18 54.1667 63.2667 54.6867 63.3533 55.12C63.44 55.64 63.6133 56.0733 63.8733 56.42C64.1333 56.7667 64.3933 57.1133 64.74 57.3733C65.0867 57.6333 65.6067 57.72 66.1267 57.72C66.9933 57.72 67.6 57.46 68.0333 57.0267C68.4667 56.5933 68.8133 55.9 68.9 55.12H72.28C72.02 56.8533 71.4133 58.1533 70.2867 59.02C69.16 59.8867 67.7733 60.32 66.1267 60.32C65.1733 60.32 64.3067 60.1467 63.44 59.8C62.66 59.4533 61.9667 59.02 61.36 58.4133C60.84 57.8067 60.32 57.1133 60.06 56.3333C59.7133 55.5533 59.6267 54.6867 59.6267 53.6467C59.6267 52.6933 59.8 51.74 60.06 50.8733C60.32 50.0067 60.7533 49.3133 61.36 48.7067C61.88 48.1 62.5733 47.58 63.44 47.2333C64.22 46.8867 65.1733 46.7133 66.2133 46.7133C66.9933 46.7133 67.6867 46.8 68.38 46.9733C69.0733 47.1467 69.68 47.4933 70.2867 47.84C70.8067 48.2733 71.3267 48.7933 71.6733 49.3133C72.02 49.8333 72.1933 50.6133 72.28 51.48H68.8133C68.64 50.3533 67.6867 49.66 66.2133 49.66ZM78.52 63.96C77.8267 64.3933 76.8733 64.6533 75.66 64.6533C75.3133 64.6533 74.9667 64.6533 74.62 64.6533C74.2733 64.6533 73.9267 64.5667 73.58 64.5667V61.62C73.9267 61.62 74.2733 61.7067 74.62 61.7067C74.9667 61.7067 75.3133 61.7067 75.66 61.7067C76.0933 61.62 76.44 61.4467 76.7 61.1867C76.96 60.84 77.0467 60.4933 77.0467 60.1467C77.0467 59.8867 76.96 59.6267 76.8733 59.3667L72.3667 47.32H76.0933L79.04 56.0733H79.1267L81.9 47.32H85.54L80.1667 61.7067C79.7333 62.8333 79.1267 63.5267 78.52 63.96Z" fill="black"/>
</svg>
