<svg width="96" height="45" viewBox="0 0 96 45" fill="none" xmlns="http://www.w3.org/2000/svg">
<path d="M55.4088 8.31445V10.1551H50.1408V12.2813H54.9962V13.995H50.1408V16.4386H55.5357V18.2792H47.9511V8.31445H55.4088ZM61.0576 18.3109V17.2954H61.0259C60.772 17.708 60.4546 18.0253 60.0421 18.2157C59.6295 18.4061 59.217 18.5013 58.8044 18.5013C58.2649 18.5013 57.8207 18.4379 57.5033 18.2792C57.1542 18.1522 56.9003 17.9301 56.7099 17.6762C56.5195 17.4223 56.3608 17.105 56.2974 16.7242C56.2339 16.3434 56.1704 15.9625 56.1704 15.4865V11.0436H58.1697V15.1374C58.1697 15.7404 58.2649 16.1847 58.4553 16.4703C58.6458 16.7559 58.9631 16.9146 59.4391 16.9146C59.9786 16.9146 60.3594 16.7559 60.6133 16.4386C60.8672 16.1212 60.9624 15.5817 60.9624 14.8518V11.0436H62.9617V18.2792H61.0576V18.3109ZM65.7861 11.0754V12.4082H65.8178C65.913 12.1861 66.04 11.964 66.1986 11.7735C66.3573 11.5831 66.5477 11.4245 66.7381 11.2975C66.9285 11.1706 67.1507 11.0436 67.4046 10.9802C67.6267 10.9167 67.8806 10.8532 68.1345 10.8532C68.2614 10.8532 68.4201 10.885 68.5788 10.9167V12.7573C68.4835 12.7256 68.3883 12.7256 68.2297 12.6939C68.1027 12.6939 67.9758 12.6621 67.8488 12.6621C67.4998 12.6621 67.1824 12.7256 66.9285 12.8525C66.6747 12.9795 66.4843 13.1381 66.3256 13.3603C66.1669 13.5824 66.0717 13.8046 66.0082 14.0902C65.9448 14.3758 65.913 14.6614 65.913 15.0105V18.2792H63.9137V11.0436H65.7861V11.0754ZM68.9278 13.2968C68.9596 12.8208 69.0865 12.44 69.2769 12.1226C69.4673 11.8053 69.7529 11.5831 70.0703 11.3927C70.3876 11.2023 70.7367 11.0754 71.1493 10.9802C71.5301 10.9167 71.9426 10.8532 72.3552 10.8532C72.7043 10.8532 73.0851 10.885 73.4659 10.9167C73.8467 10.9802 74.1641 11.0754 74.4814 11.2023C74.7988 11.361 75.0527 11.5514 75.2431 11.837C75.4335 12.0909 75.5287 12.44 75.5287 12.8843V16.6607C75.5287 16.9781 75.5604 17.2954 75.5921 17.6128C75.6239 17.8984 75.6873 18.1205 75.7825 18.2792H73.7515C73.7198 18.1522 73.6881 18.057 73.6563 17.9301C73.6246 17.8032 73.6246 17.708 73.5928 17.581C73.2755 17.8984 72.8947 18.1205 72.4821 18.2792C72.0378 18.4061 71.6253 18.4696 71.181 18.4696C70.8319 18.4696 70.5146 18.4379 70.229 18.3427C69.9433 18.2475 69.6577 18.1205 69.4356 17.9618C69.2134 17.7714 69.023 17.5493 68.8961 17.2954C68.7692 17.0098 68.7057 16.6924 68.7057 16.3434C68.7057 15.9308 68.7692 15.5817 68.9278 15.3278C69.0865 15.074 69.2452 14.8518 69.4991 14.6932C69.7212 14.5345 69.9751 14.4075 70.2924 14.3441C70.578 14.2806 70.8954 14.2171 71.181 14.1537C71.4666 14.1219 71.784 14.0585 72.0696 14.0267C72.3552 13.995 72.6091 13.9633 72.8312 13.8998C73.0534 13.8363 73.2438 13.7728 73.3707 13.6459C73.4977 13.5507 73.5611 13.392 73.5611 13.1699C73.5611 12.9477 73.5294 12.7891 73.4659 12.6621C73.4024 12.5352 73.3072 12.44 73.1803 12.3765C73.0534 12.313 72.9264 12.2496 72.7677 12.2496C72.6091 12.2178 72.4504 12.2178 72.26 12.2178C71.8792 12.2178 71.5618 12.313 71.3397 12.4717C71.1175 12.6304 70.9906 12.916 70.9589 13.2968H68.9278ZM73.5294 14.7884C73.4342 14.8518 73.339 14.9153 73.212 14.9788C73.0851 15.0105 72.9582 15.0422 72.7995 15.074C72.6408 15.1057 72.5139 15.1374 72.3552 15.1374C72.1965 15.1692 72.0378 15.1692 71.8792 15.2009C71.7205 15.2326 71.5936 15.2644 71.4349 15.3278C71.2762 15.3596 71.1493 15.4231 71.0541 15.5183C70.9589 15.6135 70.8637 15.7087 70.8002 15.8039C70.7367 15.8991 70.705 16.0895 70.705 16.2799C70.705 16.4703 70.7367 16.5972 70.8002 16.7242C70.8637 16.8511 70.9589 16.9463 71.0541 17.0098C71.181 17.0733 71.3079 17.1367 71.4349 17.1685C71.5936 17.2002 71.7522 17.2002 71.9109 17.2002C72.2917 17.2002 72.6091 17.1367 72.8312 17.0098C73.0534 16.8829 73.212 16.7242 73.3072 16.5338C73.4024 16.3434 73.4659 16.153 73.4976 15.9943C73.5294 15.8039 73.5294 15.6452 73.5294 15.55V14.7884ZM78.1309 16.502C78.2261 16.6607 78.3213 16.7876 78.48 16.8829C78.6069 16.9781 78.7656 17.0415 78.956 17.105C79.1464 17.1367 79.3369 17.1685 79.5273 17.1685C79.6542 17.1685 79.8129 17.1367 79.9715 17.105C80.1302 17.0733 80.2572 17.0098 80.3841 16.9463C80.511 16.8829 80.6062 16.7876 80.7014 16.6607C80.7966 16.5338 80.8284 16.4068 80.8284 16.2164C80.8284 15.9308 80.638 15.7087 80.2254 15.55C79.8129 15.3913 79.2734 15.2644 78.5752 15.1057C78.2896 15.0422 78.004 14.9788 77.7184 14.8836C77.4328 14.7884 77.2106 14.6932 76.9885 14.5345C76.7663 14.3758 76.6077 14.2171 76.4807 13.995C76.3538 13.7728 76.2903 13.519 76.2903 13.2016C76.2903 12.7256 76.3855 12.3448 76.5759 12.0592C76.7663 11.7735 76.9885 11.5197 77.3058 11.361C77.5914 11.2023 77.9405 11.0754 78.3213 11.0119C78.7022 10.9484 79.083 10.9167 79.4638 10.9167C79.8446 10.9167 80.2254 10.9484 80.6062 11.0436C80.9871 11.1071 81.3044 11.2341 81.59 11.4245C81.8756 11.6149 82.1295 11.837 82.3199 12.1226C82.5103 12.4082 82.6373 12.7891 82.669 13.2333H80.7649C80.7332 12.8525 80.6062 12.5987 80.3206 12.4717C80.0668 12.3448 79.7494 12.2813 79.4003 12.2813C79.2734 12.2813 79.1782 12.2813 79.0512 12.313C78.9243 12.313 78.7974 12.3448 78.7022 12.4082C78.607 12.44 78.5117 12.5352 78.4165 12.5987C78.3531 12.6939 78.2896 12.8208 78.2896 12.9477C78.2896 13.1381 78.3531 13.2651 78.48 13.392C78.6069 13.519 78.7656 13.5824 78.9878 13.6776C79.2099 13.7411 79.4321 13.8046 79.7177 13.868C80.0033 13.9315 80.2572 13.995 80.5428 14.0585C80.8284 14.1219 81.114 14.2171 81.3996 14.2806C81.6852 14.3758 81.9074 14.5027 82.1295 14.6614C82.3517 14.8201 82.5103 15.0105 82.6373 15.2326C82.7642 15.4548 82.8277 15.7404 82.8277 16.0895C82.8277 16.5655 82.7325 16.9781 82.5421 17.2954C82.3517 17.6128 82.0978 17.8666 81.7804 18.057C81.4631 18.2475 81.114 18.4061 80.7332 18.4696C80.3524 18.5331 79.9398 18.5965 79.5273 18.5965C79.1147 18.5965 78.7022 18.5648 78.2896 18.4696C77.8771 18.3744 77.528 18.2475 77.2106 18.057C76.8933 17.8666 76.6394 17.6128 76.449 17.2954C76.2586 16.9781 76.1316 16.5655 76.1316 16.0895H78.0357C78.004 16.1847 78.0357 16.3751 78.1309 16.502ZM83.4941 9.96467V8.31445H85.4934V9.96467H83.4941ZM85.4617 11.0754V18.3109H83.4624V11.0754H85.4617ZM86.4137 13.2968C86.4454 12.8208 86.5724 12.44 86.7628 12.1226C86.9532 11.8053 87.2388 11.5831 87.5562 11.3927C87.8735 11.2023 88.2226 11.0754 88.6352 10.9802C89.016 10.9167 89.4285 10.8532 89.8411 10.8532C90.1902 10.8532 90.571 10.885 90.9518 10.9167C91.3326 10.9802 91.65 11.0754 91.9673 11.2023C92.2847 11.361 92.5385 11.5514 92.729 11.837C92.9194 12.0909 93.0146 12.44 93.0146 12.8843V16.6607C93.0146 16.9781 93.0463 17.2954 93.078 17.6128C93.1098 17.8984 93.1732 18.1205 93.2684 18.2792H91.2374C91.2057 18.1522 91.1739 18.057 91.1422 17.9301C91.1105 17.8032 91.1105 17.708 91.0787 17.581C90.7614 17.8984 90.3806 18.1205 89.968 18.2792C89.5237 18.4061 89.1112 18.4696 88.6669 18.4696C88.3178 18.4696 88.0005 18.4379 87.7148 18.3427C87.4292 18.2475 87.1436 18.1205 86.9215 17.9618C86.6993 17.7714 86.5089 17.5493 86.382 17.2954C86.255 17.0098 86.1916 16.6924 86.1916 16.3434C86.1916 15.9308 86.255 15.5817 86.4137 15.3278C86.5724 15.074 86.7311 14.8518 86.9849 14.6932C87.2071 14.5345 87.461 14.4075 87.7783 14.3441C88.0639 14.2806 88.3813 14.2171 88.6669 14.1537C88.9525 14.1219 89.2699 14.0585 89.5555 14.0267C89.8411 13.995 90.095 13.9633 90.3171 13.8998C90.5392 13.8363 90.7296 13.7728 90.8566 13.6459C90.9835 13.5507 91.047 13.392 91.047 13.1699C91.047 12.9477 91.0153 12.7891 90.9518 12.6621C90.8883 12.5352 90.7931 12.44 90.6662 12.3765C90.5392 12.313 90.4123 12.2496 90.2536 12.2496C90.095 12.2178 89.9363 12.2178 89.7459 12.2178C89.3651 12.2178 89.0477 12.313 88.8256 12.4717C88.6034 12.6304 88.4765 12.916 88.4447 13.2968H86.4137ZM90.9835 14.7884C90.8883 14.8518 90.7931 14.9153 90.6662 14.9788C90.5392 15.0105 90.4123 15.0422 90.2536 15.074C90.095 15.1057 89.968 15.1374 89.8093 15.1374C89.6507 15.1692 89.492 15.1692 89.3333 15.2009C89.1746 15.2326 89.0477 15.2644 88.889 15.3278C88.7304 15.3596 88.6034 15.4231 88.5082 15.5183C88.413 15.6135 88.3178 15.7087 88.2543 15.8039C88.1909 15.8991 88.1591 16.0895 88.1591 16.2799C88.1591 16.4703 88.1909 16.5972 88.2543 16.7242C88.3178 16.8511 88.413 16.9463 88.5082 17.0098C88.6352 17.0733 88.7621 17.1367 88.889 17.1685C89.0477 17.2002 89.2064 17.2002 89.3651 17.2002C89.7459 17.2002 90.0632 17.1367 90.2854 17.0098C90.5075 16.8829 90.6662 16.7242 90.7614 16.5338C90.8566 16.3434 90.9201 16.153 90.9518 15.9943C90.9835 15.8039 90.9835 15.6452 90.9835 15.55V14.7884ZM47.9511 22.1191V20.2785H56.1387V22.1191H53.1556V30.2749H50.9659V22.1191H47.9511ZM55.1549 25.2608C55.1867 24.7848 55.3136 24.404 55.504 24.0867C55.6944 23.7693 55.98 23.5472 56.2974 23.3568C56.6147 23.1663 56.9638 23.0394 57.3764 22.9442C57.7572 22.8807 58.1697 22.8173 58.5823 22.8173C58.9314 22.8173 59.3122 22.849 59.693 22.8807C60.0738 22.9125 60.3912 23.0394 60.7085 23.1663C61.0259 23.325 61.2797 23.5154 61.4702 23.801C61.6606 24.0549 61.7558 24.404 61.7558 24.8483V28.6247C61.7558 28.9421 61.7875 29.2594 61.8192 29.5768C61.851 29.8624 61.9144 30.0845 62.0096 30.2432H59.9786C59.9469 30.1163 59.9151 30.0211 59.8834 29.8941C59.8517 29.7672 59.8517 29.672 59.8199 29.545C59.5026 29.8624 59.1218 30.0845 58.7092 30.2432C58.2649 30.3702 57.8524 30.4336 57.4081 30.4336C57.059 30.4336 56.7417 30.4019 56.456 30.3067C56.1704 30.2115 55.8848 30.0845 55.6627 29.9259C55.4405 29.7355 55.2501 29.5133 55.1232 29.2594C54.9963 28.9738 54.9328 28.6565 54.9328 28.3074C54.9328 27.8948 54.9962 27.5457 55.1549 27.2919C55.3136 27.038 55.4723 26.8158 55.7262 26.6572C55.9483 26.4985 56.2022 26.3716 56.5195 26.3081C56.8051 26.2446 57.1225 26.1812 57.4081 26.1177C57.6937 26.086 58.0111 26.0225 58.2967 25.9907C58.5823 25.959 58.8362 25.9273 59.0583 25.8638C59.2805 25.8003 59.4709 25.7369 59.5978 25.6099C59.7247 25.5147 59.7882 25.356 59.7882 25.1339C59.7882 24.9118 59.7565 24.7531 59.693 24.6261C59.6295 24.4992 59.5343 24.404 59.4074 24.3405C59.2805 24.2771 59.1535 24.2136 58.9948 24.2136C58.8362 24.1819 58.6775 24.1819 58.4871 24.1819C58.1063 24.1819 57.7889 24.2771 57.5668 24.4357C57.3446 24.5944 57.2177 24.88 57.186 25.2608H55.1549ZM59.7247 26.7524C59.6295 26.8159 59.5343 26.8793 59.4074 26.9428C59.2805 26.9745 59.1535 27.0063 58.9948 27.038C58.8362 27.0697 58.7092 27.1015 58.5505 27.1015C58.3919 27.1332 58.2332 27.1332 58.0745 27.1649C57.9159 27.1967 57.7889 27.2284 57.6302 27.2919C57.4716 27.3236 57.3446 27.3871 57.2494 27.4823C57.1542 27.5775 57.059 27.6727 56.9955 27.7679C56.9321 27.8631 56.9003 28.0535 56.9003 28.2439C56.9003 28.4343 56.9321 28.5613 56.9955 28.6882C57.059 28.8151 57.1542 28.9104 57.2494 28.9738C57.3764 29.0373 57.5033 29.1008 57.6302 29.1325C57.7889 29.1642 57.9476 29.1642 58.1063 29.1642C58.4871 29.1642 58.8044 29.1008 59.0266 28.9738C59.2487 28.8469 59.4074 28.6882 59.5026 28.4978C59.5978 28.3074 59.6613 28.117 59.693 27.9583C59.7247 27.7679 59.7247 27.6092 59.7247 27.514V26.7524ZM64.7071 20.2785V30.2749H62.7078V20.2785H64.7071ZM67.8806 28.5295C68.1662 28.8151 68.6105 28.9738 69.1817 28.9738C69.5943 28.9738 69.9433 28.8786 70.229 28.6882C70.5146 28.4978 70.705 28.2757 70.7685 28.0535H72.5139C72.2283 28.9104 71.8157 29.545 71.2127 29.9259C70.6415 30.3067 69.9433 30.4971 69.1182 30.4971C68.547 30.4971 68.0393 30.4019 67.5632 30.2115C67.1189 30.0211 66.7064 29.7672 66.3891 29.4498C66.0717 29.1008 65.8178 28.7199 65.6591 28.2439C65.5005 27.7679 65.4053 27.2601 65.4053 26.6889C65.4053 26.1494 65.5005 25.6417 65.6591 25.1656C65.8496 24.6896 66.1034 24.3088 66.4208 23.9597C66.7381 23.6106 67.1507 23.3568 67.595 23.1663C68.0393 22.9759 68.547 22.8807 69.0865 22.8807C69.6895 22.8807 70.229 23.0077 70.705 23.2298C71.1493 23.4837 71.5301 23.801 71.8474 24.1819C72.133 24.5944 72.3552 25.0387 72.4821 25.5465C72.6091 26.0542 72.6725 26.5937 72.6091 27.1649H67.4046C67.4363 27.7996 67.595 28.2439 67.8806 28.5295ZM70.1338 24.7214C69.9116 24.4675 69.5308 24.3405 69.0548 24.3405C68.7374 24.3405 68.4835 24.404 68.2614 24.4992C68.0393 24.5944 67.8806 24.7531 67.7536 24.9118C67.6267 25.0704 67.5315 25.2291 67.4998 25.4195C67.4363 25.6099 67.4046 25.7686 67.4046 25.8955H70.6415C70.5463 25.3878 70.3876 25.007 70.1338 24.7214ZM75.2748 23.0394V24.0549H75.3065C75.5604 23.6424 75.8778 23.325 76.2903 23.1346C76.7029 22.9442 77.1154 22.849 77.528 22.849C78.0675 22.849 78.48 22.9125 78.8291 23.0711C79.1782 23.2298 79.4321 23.4202 79.6225 23.6741C79.8129 23.928 79.9716 24.2453 80.035 24.6261C80.0985 25.007 80.162 25.3878 80.162 25.8638V30.3067H78.1627V26.2129C78.1627 25.6099 78.0675 25.1656 77.877 24.88C77.6866 24.5944 77.3693 24.4357 76.8933 24.4357C76.3538 24.4357 75.973 24.5944 75.7191 24.9118C75.4652 25.2291 75.37 25.7686 75.37 26.4985V30.3067H73.3707V23.0711H75.2748V23.0394ZM85.2395 23.0394V24.3723H83.7797V27.9583C83.7797 28.3074 83.8432 28.5295 83.9384 28.6247C84.0653 28.7517 84.2875 28.7834 84.6048 28.7834C84.7318 28.7834 84.827 28.7834 84.9222 28.7834C85.0174 28.7834 85.1126 28.7517 85.2078 28.7517V30.3067C85.0491 30.3384 84.8587 30.3384 84.6366 30.3701C84.4462 30.3701 84.224 30.3701 84.0336 30.3701C83.7163 30.3701 83.4306 30.3384 83.145 30.3067C82.8594 30.2749 82.6373 30.1797 82.4151 30.0528C82.193 29.9259 82.0343 29.7672 81.9074 29.545C81.7804 29.3229 81.717 29.0373 81.717 28.6565V24.3723H80.511V23.0394H81.717V20.8814H83.7163V23.0394H85.2395ZM87.7148 28.4661C87.81 28.6247 87.9053 28.7517 88.0639 28.8469C88.1909 28.9421 88.3495 29.0056 88.54 29.069C88.7304 29.1008 88.9208 29.1325 89.1112 29.1325C89.2381 29.1325 89.3968 29.1008 89.5555 29.069C89.7141 29.0373 89.8411 28.9738 89.968 28.9103C90.095 28.8469 90.1902 28.7517 90.2854 28.6247C90.3806 28.4978 90.4123 28.3709 90.4123 28.1805C90.4123 27.8948 90.2219 27.6727 89.8093 27.514C89.3968 27.3553 88.8573 27.2284 88.1591 27.0697C87.8735 27.0063 87.5879 26.9428 87.3023 26.8476C87.0167 26.7524 86.7945 26.6572 86.5724 26.4985C86.3502 26.3398 86.1916 26.1812 86.0646 25.959C85.9377 25.7369 85.8742 25.483 85.8742 25.1656C85.8742 24.6896 85.9694 24.3088 86.1598 24.0232C86.3502 23.7376 86.5724 23.4837 86.8897 23.325C87.1754 23.1663 87.5244 23.0394 87.9053 22.9759C88.2861 22.9125 88.6669 22.8807 89.0477 22.8807C89.4285 22.8807 89.8093 22.9125 90.1902 23.0077C90.571 23.0711 90.8883 23.1981 91.1739 23.3885C91.4595 23.5789 91.7134 23.801 91.9038 24.0867C92.0942 24.3723 92.2212 24.7531 92.2529 25.1974H90.3488C90.3171 24.8166 90.1902 24.5627 89.9045 24.4357C89.6507 24.3088 89.3333 24.2453 88.9842 24.2453C88.8573 24.2453 88.7621 24.2453 88.6352 24.2771C88.5082 24.2771 88.3813 24.3088 88.2861 24.3723C88.1909 24.404 88.0957 24.4992 88.0005 24.5627C87.937 24.6579 87.8735 24.7848 87.8735 24.9118C87.8735 25.1022 87.937 25.2291 88.0639 25.3561C88.1909 25.483 88.3495 25.5465 88.5717 25.6417C88.7938 25.7051 89.016 25.7686 89.3016 25.8321C89.5872 25.8955 89.8411 25.959 90.1267 26.0225C90.4123 26.0859 90.6979 26.1812 90.9835 26.2446C91.2691 26.3398 91.4913 26.4668 91.7134 26.6254C91.9356 26.7841 92.0942 26.9745 92.2212 27.1967C92.3481 27.4188 92.4116 27.7044 92.4116 28.0535C92.4116 28.5295 92.3164 28.9421 92.126 29.2594C91.9356 29.5768 91.6817 29.8307 91.3643 30.0211C91.047 30.2115 90.6979 30.3702 90.3171 30.4336C89.9363 30.4971 89.5237 30.5606 89.1112 30.5606C88.6986 30.5606 88.2861 30.5288 87.8735 30.4336C87.461 30.3384 87.1119 30.2115 86.7945 30.0211C86.4772 29.8307 86.2233 29.5768 86.0329 29.2594C85.8425 28.9421 85.7156 28.5295 85.7156 28.0535H87.6196C87.5562 28.1487 87.6196 28.3391 87.7148 28.4661ZM53.5682 32.2425L57.3129 42.239H55.028L54.2663 40.0175H50.5216L49.7283 42.239H47.5068L51.2833 32.2425H53.5682ZM53.6951 38.3673L52.4257 34.6861H52.394L51.0929 38.3673H53.6951ZM64.1676 42.7785C64.0724 43.1593 63.9137 43.5084 63.6599 43.8257C63.406 44.1431 63.0252 44.4287 62.5174 44.6508C62.0096 44.873 61.375 44.9999 60.5181 44.9999C60.169 44.9999 59.7882 44.9682 59.4391 44.873C59.0583 44.7778 58.741 44.6508 58.4236 44.4604C58.1063 44.27 57.8841 44.0479 57.662 43.7305C57.4716 43.4449 57.3446 43.0958 57.3129 42.6833H59.2804C59.3756 43.0641 59.5661 43.318 59.8199 43.4449C60.1056 43.6036 60.3912 43.667 60.772 43.667C61.3432 43.667 61.724 43.5084 62.0096 43.1593C62.2635 42.8102 62.3905 42.3976 62.3905 41.8899V40.9378H62.3587C62.1366 41.3187 61.851 41.6043 61.4384 41.7947C61.0576 41.9851 60.6133 42.0803 60.2008 42.0803C59.6613 42.0803 59.1852 41.9851 58.8044 41.7947C58.4236 41.6043 58.1063 41.3504 57.8524 41.0013C57.5985 40.684 57.4081 40.2714 57.3129 39.8271C57.186 39.3828 57.1225 38.9068 57.1225 38.4308C57.1225 37.9548 57.186 37.5105 57.3129 37.0662C57.4398 36.6219 57.662 36.2411 57.9159 35.9237C58.1697 35.6064 58.4871 35.3208 58.8996 35.1304C59.2804 34.94 59.7247 34.8448 60.2325 34.8448C60.7085 34.8448 61.1211 34.94 61.4702 35.0986C61.8192 35.289 62.1366 35.5747 62.3587 35.9872H62.3905V35.0352H64.2946V41.7947C64.2946 42.0803 64.2628 42.3976 64.1676 42.7785ZM61.4702 40.3666C61.6923 40.2397 61.851 40.1127 62.0096 39.9223C62.1366 39.7319 62.2635 39.5098 62.327 39.2876C62.3905 39.0338 62.4222 38.8116 62.4222 38.526C62.4222 38.2404 62.3905 37.9548 62.327 37.6692C62.2635 37.3835 62.1683 37.1614 62.0414 36.971C61.9144 36.7806 61.724 36.5902 61.5336 36.495C61.3115 36.368 61.0576 36.3046 60.7085 36.3046C60.4229 36.3046 60.2008 36.368 59.9786 36.4632C59.7882 36.5902 59.5978 36.7171 59.4709 36.9075C59.3439 37.0979 59.2487 37.3201 59.1852 37.574C59.1218 37.8278 59.09 38.0817 59.09 38.3356C59.09 38.5895 59.1218 38.8433 59.1535 39.0972C59.217 39.3511 59.2805 39.5732 59.4074 39.7954C59.5343 39.9858 59.693 40.1762 59.9151 40.3031C60.1055 40.4301 60.3912 40.4936 60.6768 40.4936C60.9941 40.5253 61.248 40.4618 61.4702 40.3666ZM67.4998 40.4936C67.7854 40.7792 68.2297 40.9378 68.8009 40.9378C69.2134 40.9378 69.5625 40.8426 69.8481 40.6522C70.1338 40.4618 70.3242 40.2397 70.3876 40.0175H72.133C71.8474 40.8744 71.4349 41.5091 70.8319 41.8899C70.2607 42.2707 69.5625 42.4611 68.7374 42.4611C68.1662 42.4611 67.6584 42.3659 67.1824 42.1755C66.7381 41.9851 66.3256 41.7312 66.0082 41.4139C65.6909 41.0648 65.437 40.684 65.2783 40.2079C65.1197 39.7319 65.0244 39.2242 65.0244 38.6529C65.0244 38.1134 65.1197 37.6057 65.2783 37.1297C65.4687 36.6536 65.7226 36.2728 66.04 35.9237C66.3573 35.5747 66.7699 35.3208 67.2141 35.1304C67.6584 34.94 68.1662 34.8448 68.7057 34.8448C69.3087 34.8448 69.8481 34.9717 70.3242 35.1938C70.7685 35.4477 71.1493 35.7651 71.4666 36.1459C71.7522 36.5584 71.9744 37.0027 72.1013 37.5105C72.2283 38.0182 72.2917 38.5577 72.2283 39.129H67.0237C67.0237 39.7637 67.2142 40.2079 67.4998 40.4936ZM69.7529 36.6854C69.5308 36.4315 69.15 36.3046 68.674 36.3046C68.3566 36.3046 68.1027 36.368 67.8806 36.4632C67.6584 36.5584 67.4998 36.7171 67.3728 36.8758C67.2459 37.0345 67.1507 37.1931 67.1189 37.3835C67.0555 37.574 67.0237 37.7326 67.0237 37.8596H70.2607C70.1338 37.3518 69.9751 36.971 69.7529 36.6854ZM74.8622 35.0034V36.0189H74.894C75.1479 35.6064 75.4652 35.289 75.8778 35.0986C76.2903 34.9082 76.7029 34.813 77.1154 34.813C77.6549 34.813 78.0675 34.8765 78.4165 35.0352C78.7656 35.1938 79.0195 35.3843 79.2099 35.6381C79.4003 35.892 79.559 36.2094 79.6225 36.5902C79.6859 36.971 79.7494 37.3518 79.7494 37.8278V42.2707H77.7501V38.1452C77.7501 37.5422 77.6549 37.0979 77.4645 36.8123C77.2741 36.5267 76.9567 36.368 76.4807 36.368C75.9412 36.368 75.5604 36.5267 75.3065 36.844C75.0526 37.1614 74.9575 37.7009 74.9575 38.4308V42.239H72.9899V35.0034H74.8622ZM84.1923 36.3046C83.8749 36.3046 83.621 36.368 83.3989 36.5267C83.1768 36.6854 83.0181 36.8441 82.8594 37.0979C82.7325 37.3201 82.6373 37.574 82.5738 37.8596C82.5103 38.1452 82.4786 38.3991 82.4786 38.6847C82.4786 38.9386 82.5103 39.2242 82.5738 39.478C82.6373 39.7637 82.7325 39.9858 82.8594 40.2079C82.9864 40.4301 83.145 40.6205 83.3672 40.7474C83.5893 40.8744 83.8432 40.9696 84.1605 40.9696C84.6366 40.9696 85.0174 40.8426 85.2713 40.557C85.5251 40.3031 85.6838 39.9223 85.7473 39.478H87.6514C87.5244 40.4301 87.1436 41.16 86.5407 41.6677C85.9377 42.1755 85.1443 42.4294 84.1605 42.4294C83.6211 42.4294 83.1133 42.3342 82.669 42.1438C82.2247 41.9534 81.8439 41.6995 81.5266 41.3821C81.2092 41.0648 80.9553 40.6522 80.7967 40.2079C80.6062 39.7637 80.5428 39.2559 80.5428 38.7164C80.5428 38.1452 80.638 37.6374 80.7967 37.1614C80.9553 36.6854 81.2092 36.2728 81.5266 35.9237C81.8439 35.5747 82.2247 35.289 82.7007 35.0986C83.145 34.9082 83.6845 34.813 84.2557 34.813C84.7 34.813 85.1126 34.8765 85.4934 34.9717C85.8742 35.0986 86.255 35.2573 86.5724 35.4795C86.8897 35.7016 87.1436 35.9872 87.334 36.3363C87.5244 36.6854 87.6514 37.0662 87.6831 37.5422H85.7473C85.5251 36.7171 85.0174 36.3046 84.1923 36.3046ZM91.0787 44.3969C90.6979 44.6508 90.1584 44.7778 89.492 44.7778C89.3016 44.7778 89.0794 44.7778 88.889 44.746C88.6986 44.746 88.4765 44.7143 88.2861 44.6826V43.0323C88.4765 43.0641 88.6669 43.0641 88.8573 43.0958C89.0477 43.1275 89.2381 43.1275 89.4603 43.0958C89.7141 43.0641 89.9045 42.9689 90.0315 42.7785C90.1584 42.5881 90.2219 42.3976 90.2219 42.1755C90.2219 42.0168 90.1902 41.8582 90.1267 41.7312L87.5879 34.94H89.7141L91.3643 39.8906H91.3961L92.9828 34.94H95.0456L92.0308 43.0641C91.7769 43.7305 91.4595 44.1431 91.0787 44.3969Z" fill="black"/>
<path d="M15.5818 1.555L19.6756 3.58604H27.1967V8.31452H16.7877L0 0H27.1967V1.555H15.5818ZM29.1326 33.9563V0L45.9837 8.34626V14.3124V42.239L29.1326 33.9563ZM35.1622 5.42665L31.1001 3.39562V8.06064L35.1622 10.0917V5.42665ZM35.1622 13.5825L31.1001 11.5515V16.153L35.1622 18.1841V13.5825ZM35.1622 21.6114L31.1001 19.5804V24.2454L35.1622 26.2764V21.6114ZM35.1622 29.7673L31.1001 27.768V32.433L35.1622 34.4323V29.7673Z" fill="black"/>
</svg>
