<svg width="50" height="50" viewBox="0 0 50 50" fill="none" xmlns="http://www.w3.org/2000/svg">
<path d="M50 0H0V50H50V0Z" fill="#FF0000"/>
<path d="M38.5492 13.0496C38.5492 16.4996 35.7492 19.2996 32.2992 19.2996C28.8492 19.2996 26.0492 16.4996 26.0492 13.0496C26.0492 9.59961 28.8492 6.84961 32.2992 6.84961C35.7492 6.84961 38.5492 9.64961 38.5492 13.0496ZM17.6992 6.84961C14.2492 6.84961 11.4492 9.64961 11.4492 13.0996C11.4492 16.5496 14.2492 19.3496 17.6992 19.3496C21.1492 19.3496 23.9492 16.4996 23.9492 13.0496C23.9492 9.59961 21.1492 6.84961 17.6992 6.84961ZM31.8492 22.0996H18.1492V31.9496H31.8492V22.0996ZM16.1992 25.1996L11.9492 23.2496V30.7496L16.1992 28.7996V25.1996ZM28.7492 36.4496L24.9992 40.1996L21.2492 36.4496C15.9992 36.9496 11.8992 41.3496 11.8992 46.6996V49.9997H38.0492V46.6496C38.0992 41.2996 33.9992 36.8996 28.7492 36.4496Z" fill="white"/>
</svg>
