<svg width="28" height="41" viewBox="0 0 28 41" fill="none" xmlns="http://www.w3.org/2000/svg">
<path d="M27.1004 38.65V41H0.900391V38.65C0.900391 33.3 5.00039 28.9 10.2504 28.4L14.0004 32.15L17.7504 28.4C23.0004 28.9 27.1004 33.3 27.1004 38.65ZM25.4504 20.5V2.95C25.4504 1.45 24.2504 0.25 22.7504 0.25H5.20039C3.70039 0.25 2.50039 1.45 2.50039 2.95V20.5C2.50039 22 3.70039 23.2 5.20039 23.2H22.7504C24.2504 23.2 25.4504 22 25.4504 20.5ZM11.6504 5.1C13.5004 5.1 15.1004 5.3 16.5504 6.4C18.1504 7.6 19.1004 9.5 19.1004 11.7C19.1004 13.9 18.2004 15.8 16.4504 17C14.9004 18.1 13.4504 18.25 11.6004 18.25H8.85039V5.1H11.6504ZM10.9004 16.4H11.7504C12.7504 16.4 14.1004 16.3 15.2504 15.45C16.1504 14.75 17.0504 13.5 17.0504 11.7C17.0504 9.95 16.2004 8.6 15.2504 7.9C14.1004 7.05 12.7004 7 11.7504 7H10.9004V16.4Z" fill="white"/>
</svg>
