<svg width="30" height="30" viewBox="0 0 30 30" fill="none" xmlns="http://www.w3.org/2000/svg">
<path d="M26.4857 30H3.51429C1.54286 30 0 28.4571 0 26.4857V3.51429C0 1.54286 1.54286 0 3.51429 0H26.4857C28.4571 0 30 1.54286 30 3.51429V26.4857C30 28.4571 28.4571 30 26.4857 30ZM8.31429 6.34286V23.5714H11.9143C14.3143 23.5714 16.2 23.3143 18.2571 21.9429C20.5714 20.3143 21.6857 17.8286 21.6857 15C21.6857 12.0857 20.4857 9.6 18.3429 8.05714C16.4571 6.6 14.3143 6.34286 11.9143 6.34286H8.31429ZM10.9714 8.82857H12.0857C13.3714 8.82857 15.1714 8.91429 16.7143 10.0286C17.9143 10.9714 19.0286 12.6857 19.0286 15C19.0286 17.3143 17.8286 19.0286 16.7143 19.8857C15.1714 21 13.4571 21.0857 12.1714 21.0857H11.0571V8.82857H10.9714Z" fill="#FF0000"/>
</svg>
