<svg width="100" height="100" viewBox="0 0 100 100" fill="none" xmlns="http://www.w3.org/2000/svg">
<path d="M76.1998 81.3V100H23.7998V81.3C23.7998 70.6 31.9998 61.8 42.4998 60.8L49.9998 68.3L57.4998 60.8C67.9998 61.8 76.1998 70.6 76.1998 81.3ZM72.8998 49V13.9C72.8998 10.9 70.4998 8.5 67.4998 8.5H32.3998C29.3998 8.5 26.9998 10.9 26.9998 13.9V49C26.9998 52 29.3998 54.4 32.3998 54.4H67.4998C70.4998 54.4 72.8998 52 72.8998 49ZM45.2998 18.2C48.9998 18.2 52.1998 18.6 55.0998 20.8C58.2998 23.2 60.1998 27 60.1998 31.4C60.1998 35.8 58.3998 39.6 54.8998 42C51.7998 44.2 48.8998 44.5 45.1998 44.5H39.6998V18.2H45.2998ZM43.7998 40.8H45.4998C47.4998 40.8 50.1998 40.6 52.4998 38.9C54.2998 37.5 56.0998 35 56.0998 31.4C56.0998 27.9 54.3998 25.2 52.4998 23.8C50.1998 22.1 47.3998 22 45.4998 22H43.7998V40.8Z" fill="white"/>
</svg>
