<svg width="120" height="180" viewBox="0 0 120 180" fill="none" xmlns="http://www.w3.org/2000/svg">
<g clip-path="url(#clip0)">
<path d="M69.6 26.16C76.8239 26.16 82.68 20.3039 82.68 13.08C82.68 5.85611 76.8239 0 69.6 0C62.3761 0 56.52 5.85611 56.52 13.08C56.52 20.3039 62.3761 26.16 69.6 26.16Z" fill="black"/>
<path d="M39 26.16C46.2239 26.16 52.08 20.3039 52.08 13.08C52.08 5.85611 46.2239 0 39 0C31.7761 0 25.92 5.85611 25.92 13.08C25.92 20.3039 31.7761 26.16 39 26.16Z" fill="black"/>
<path d="M68.64 31.98H39.96V52.62H68.64V31.98Z" fill="black"/>
<path d="M35.82 46.1999L27 50.2199V34.4399L35.82 38.4599V46.1999Z" fill="black"/>
<path d="M22.74 52.1402C23.52 51.0602 23.7 49.6801 22.8 48.6001C22.74 48.6601 22.68 48.6601 22.68 48.6001C22.68 48.5401 22.68 48.5402 22.74 48.4802C22.74 48.4202 22.86 48.2401 22.98 48.3601C24 49.5601 23.7 51.1801 22.74 52.3201C22.26 52.9801 21.6 53.4601 20.88 54.0001C20.58 54.2401 20.28 54.4801 19.92 54.6601C19.86 54.6601 19.62 54.7201 19.5 54.9001C19.26 55.5601 19.08 56.2801 19.02 56.9402C18.78 57.9601 18.9 59.0401 18.9 60.1201C18.9 60.1801 18.66 60.3601 18.66 60.2402C18.66 58.7402 18.72 57.3001 19.14 55.8001C19.2 55.5601 19.26 55.3801 19.38 55.1402C19.32 55.2001 19.14 55.2601 19.14 55.2001C19.14 55.1401 19.14 55.0801 19.2 54.9601C19.2 54.9001 19.32 54.8401 19.32 54.8401H19.38C19.74 53.7601 20.16 52.7401 20.58 51.7201C21.24 50.2201 21.72 48.9002 21.54 47.3401C21.54 47.1002 21.54 46.9802 21.48 46.7401C21.48 46.6802 21.42 46.4402 21.36 46.4402C21.12 46.3202 20.94 46.5602 20.88 46.7401C20.76 47.0402 20.76 47.4001 20.52 47.7001C20.46 47.7601 20.22 47.8201 20.4 47.7001C20.64 47.4001 20.76 45.7801 21.54 46.2001C21.84 46.3201 21.84 46.9201 21.84 47.2201C21.9 47.9401 21.96 48.6602 21.78 49.3802C21.3 51.0002 20.4 52.5602 19.8 54.2401C19.74 54.3601 19.74 54.5401 19.68 54.6601C20.28 54.4201 20.76 54.0001 21.18 53.6402C21.72 53.2201 22.32 52.7401 22.74 52.1402ZM34.5 89.4602C34.8 89.7602 35.1 90.0602 34.92 90.4202C34.92 90.4801 34.8 90.6601 34.68 90.5401C34.56 90.4801 34.38 90.4202 34.26 90.4202C34.2 90.4202 34.32 90.1802 34.5 90.1802C34.56 90.1802 34.62 90.2401 34.8 90.2401C34.74 89.7601 33.96 89.1602 33.6 88.8602C33 88.3802 32.46 88.0202 31.8 87.6602C30.36 87.6602 28.98 87.7201 27.48 87.6002C27 87.5401 26.46 87.4802 25.98 87.3002C25.98 87.3602 25.92 87.3601 25.86 87.4202C25.74 87.5401 25.62 87.4202 25.8 87.3602L25.86 87.3002C25.62 87.2402 25.44 87.2402 25.2 87.1802C24.36 86.9402 23.46 87.0602 22.62 87.0602C22.56 87.0602 22.68 86.8201 22.74 86.8201C23.46 86.8201 24.24 86.7602 24.96 86.8802C25.26 86.9402 25.56 87.0001 25.8 87.1201C25.86 86.6401 25.32 85.9202 25.08 85.6201C24.6 84.9601 24.12 84.4202 23.64 83.7602C23.34 83.3402 22.98 82.9801 22.62 82.6201C21.9 82.0201 21.18 81.3002 20.52 80.7001C20.28 80.4602 20.04 80.2801 19.8 80.0401C18.36 78.8401 16.92 77.6402 15.54 76.4402C14.88 75.8402 14.22 75.3001 13.44 74.7602C12.72 74.2801 11.94 73.9802 11.28 73.3802C11.22 73.3202 11.4 73.1402 11.52 73.1402C12.3 73.8002 13.26 74.2201 14.04 74.8201C14.82 75.4202 15.54 76.1402 16.32 76.7402C17.28 77.5202 18.18 78.3001 19.14 79.1401C18.36 78.1801 17.64 77.1002 16.86 76.2001C15.78 74.8801 14.64 73.6202 13.56 72.2402C12.54 71.0402 11.52 69.7801 10.56 68.5201C10.08 67.8601 9.53999 67.2002 9.11999 66.6002C8.99999 66.6002 8.99999 66.6002 8.93999 66.6002C8.51999 66.6602 8.21999 66.5402 7.97999 66.1802V66.1201C8.09999 65.8801 8.27999 65.7601 8.39999 65.5201C8.27999 65.2201 8.03999 64.9201 7.91999 64.5602C7.67999 64.0801 7.49999 63.4201 7.61999 62.8201C7.73999 62.1601 8.27999 61.6801 8.21999 61.0201C7.97999 59.8201 6.65999 59.1001 6.17999 57.9001C6.17999 57.8401 6.29999 57.7802 6.29999 57.7802C5.87999 57.7202 5.33999 57.7201 4.91999 57.7201C4.85999 57.7201 4.97999 57.4802 5.03999 57.4802C6.83999 57.4802 8.63999 57.9001 10.38 58.5001C10.68 57.7801 10.86 57.0002 11.04 56.2802C11.04 55.9802 10.98 55.8001 10.98 55.5001C10.92 54.8401 10.98 54.3601 11.34 53.8201C11.34 53.8201 11.34 53.8201 11.4 53.7601C11.4 53.6401 11.4 53.4602 11.4 53.2802C11.4 52.9802 11.46 52.8001 11.46 52.5001C11.34 52.8001 11.16 53.1002 11.1 53.3401C11.1 53.4001 10.86 53.5801 10.86 53.4601C11.1 52.9801 11.28 52.4401 11.58 52.0201C11.88 50.8801 12.54 49.8601 13.26 49.0201C13.62 48.6001 13.98 48.1801 14.28 47.7001C14.4 47.4001 15.24 45.9601 14.34 46.3201C14.22 46.3801 14.34 46.2002 14.4 46.0802C14.46 46.0202 14.64 46.0201 14.7 45.9601H14.76C15.36 46.6201 14.16 47.8801 13.8 48.4201C13.08 49.3801 12.36 50.2801 11.94 51.3601C12.24 50.9401 12.54 50.5202 12.78 50.0402C13.2 49.4402 13.62 48.8402 14.1 48.2401C14.34 47.8801 14.58 47.5202 14.94 47.2802C15.06 47.1602 15.24 47.1602 15.36 47.0402C15.78 46.9202 16.2 46.7401 16.56 46.4402C16.8 46.3202 16.98 46.2002 17.22 46.0802C17.28 45.7802 17.28 45.6001 17.28 45.3001C17.28 45.2401 17.4 45.0602 17.52 45.1802C17.58 45.2402 17.64 45.2401 17.76 45.3001C17.82 45.3001 17.7 45.5401 17.52 45.5401C17.52 45.5401 17.52 45.5401 17.46 45.5401C17.46 45.6602 17.46 45.9001 17.4 46.0201C17.7 45.9001 18 45.7201 18.18 45.6001C18.9 45.2401 19.68 44.7601 20.22 44.1601C20.58 43.8001 20.7 43.3801 20.94 42.9601C20.94 42.9001 21 42.8401 21 42.7201V42.9601C20.94 43.0201 20.7 43.0201 20.88 42.9601C21 42.8401 21.18 42.6601 21.3 42.5401C21.3 42.5401 21.54 42.4201 21.42 42.5401C21.12 43.1401 20.94 43.6801 20.58 44.2201C20.28 44.5801 19.92 44.8802 19.56 45.1802C18.84 45.6602 18.12 46.0201 17.34 46.5001C17.28 46.7401 17.1 46.9801 17.04 47.2201C16.62 48.1801 16.38 49.0202 16.32 50.0402C16.2 51.8401 16.68 53.4001 17.16 55.1402C17.52 56.5202 17.88 58.0201 17.52 59.4001C17.46 59.6401 17.4 59.8201 17.28 60.0601C17.28 60.1201 17.34 60.1202 17.34 60.1802C17.58 60.6002 17.82 60.9601 18.12 61.3201C18.54 61.7401 18.96 62.1602 19.56 62.3402C19.92 62.4602 20.22 62.4601 20.52 62.7001C20.76 62.8202 20.04 63.5401 19.74 63.4201C19.02 63.0001 18.3 63.0002 17.64 62.3402C17.22 61.9802 16.86 61.5001 16.56 60.9601C16.44 61.0801 16.26 61.2001 16.08 61.2601H16.02C15.96 60.9601 15.96 61.1402 16.02 60.7802C16.02 60.7201 16.26 60.5401 16.26 60.6601C16.32 60.7801 16.5 60.9001 16.56 60.9001C16.5 60.7801 16.44 60.6002 16.32 60.4802C15.9 59.5202 16.08 58.5601 17.04 58.0201C17.64 57.6601 17.16 58.5002 16.92 58.6802C16.86 58.7402 17.16 59.7601 17.16 59.7601C17.16 59.8201 17.22 59.8801 17.28 60.0001C17.34 59.7601 17.4 59.6401 17.52 59.4001C17.64 58.8001 17.64 58.2001 17.58 57.5401C17.46 56.1601 16.86 54.9001 16.56 53.5201C16.2 52.2001 16.14 50.8801 16.32 49.5001C16.38 48.9001 16.56 48.3601 16.8 47.8201C16.92 47.5201 17.1 47.1601 17.22 46.8001C16.92 46.9201 16.62 47.1002 16.38 47.2802C15.9 47.5802 15.18 47.7001 14.7 48.0601C14.22 48.4801 13.74 49.2601 13.38 49.8001C12.78 50.5201 12.24 51.3601 11.7 52.2601C11.58 52.6201 11.46 53.0401 11.46 53.4601C11.46 53.5801 11.46 53.7602 11.46 53.8802C11.76 53.7602 12.06 53.8202 11.7 54.1802C11.4 54.4802 11.7 55.6801 11.76 56.1001C11.82 56.9401 12 57.6601 11.7 58.5601C11.64 58.6801 11.34 58.9802 11.1 59.0401C11.4 59.1001 11.58 59.2801 11.88 59.3402C12 58.9802 12.12 58.6201 12.18 58.2601C12.48 57.1801 12.66 55.9802 13.5 55.1402C13.74 54.9001 13.92 54.7801 14.22 54.6601C14.46 54.5401 15.6 54.0601 15.6 53.7001C15.6 53.6401 15.84 53.4602 15.84 53.5802C15.84 54.0602 14.76 54.5401 14.4 54.6601C12.84 55.5001 12.66 57.1802 12.24 58.7402C12.18 58.9802 12.12 59.1602 12 59.3402C12.3 59.4601 12.66 59.6401 12.96 59.7601C13.2 59.5201 13.56 59.4001 13.56 59.5201C13.56 59.6401 13.56 59.8801 13.5 60.0001C14.1 60.3001 14.58 60.6001 15.18 60.8402C20.7 64.0202 24.72 69.0602 30.06 72.4802C32.82 74.2802 35.76 75.8401 38.46 77.6401C39.96 78.6001 41.46 79.3802 43.02 80.2802C43.5 80.5802 44.04 80.9402 44.58 81.3002C44.52 81.0602 44.46 80.8802 44.34 80.5802C44.1 79.8002 44.04 79.1402 44.04 78.3602C44.04 78.3002 44.28 78.1201 44.28 78.2401C44.28 79.3801 44.58 80.4602 44.88 81.4802C45 81.5402 45.18 81.6002 45.3 81.7201C45.6 81.8401 45.9 81.9602 46.08 82.0802C45.96 81.6602 45.78 81.2402 45.66 80.7602C45.42 80.1602 45.18 79.6802 45.18 79.0802C45.18 79.0202 45.42 78.8402 45.42 78.9602C45.42 79.3802 45.54 79.7402 45.78 80.1602C45.9 80.5802 46.08 81.0002 46.2 81.4802C46.26 81.7802 46.44 82.0802 46.5 82.3201C46.62 82.7402 46.74 83.1002 47.22 82.8002C47.34 82.7402 47.22 82.9202 47.16 82.9202C46.56 83.2801 46.44 82.9202 46.32 82.5002H46.2C45.96 82.4402 45.84 82.4402 45.6 82.3802C45.54 82.3802 45.66 82.1401 45.84 82.1401C45.9 82.1401 45.96 82.1402 45.96 82.2001C45.66 81.9602 45.3 81.8401 44.94 81.7201C45 82.0802 45.18 82.3801 45.24 82.7401C45.54 83.8801 45.9 85.2001 45.54 86.4002C45.54 86.4602 45.42 86.5201 45.3 86.5201H45.18C45.18 86.4601 45.18 86.4602 45.18 86.4002C45.18 86.3402 45.42 86.1602 45.42 86.2802C45.72 85.1402 45.3 83.8801 45.06 82.7401C45 82.3801 44.82 82.0202 44.76 81.6602C44.7 81.6002 44.64 81.6001 44.52 81.5401C43.8 81.1201 43.14 80.7001 42.42 80.2201C40.74 79.2001 39.12 78.3602 37.44 77.2802C34.8 75.5402 31.92 74.1002 29.22 72.3001C26.64 70.5002 24.3 68.3402 21.96 66.2402C19.5 64.0802 16.98 62.0401 14.1 60.5401C13.86 60.4202 13.68 60.3002 13.44 60.1802C13.44 60.2402 13.44 60.2401 13.38 60.3001C14.46 60.9001 15.66 61.8002 15.9 62.0402C15.96 62.1002 15.78 62.2802 15.78 62.2802C15.48 62.2802 15.42 62.2802 15.36 61.9802V61.9201C15 61.6201 14.52 61.3202 14.16 61.0802C14.1 61.0802 13.74 60.8401 13.32 60.6001C13.02 61.0801 12.6 61.5601 12.18 61.9201C11.4 62.5801 10.5 63.3602 10.32 64.3802C10.26 64.6202 10.26 64.8002 10.26 64.9802C10.38 65.1002 10.5 65.2801 10.62 65.4601C10.98 66.0602 11.34 66.6002 11.7 67.2002C12.42 68.2802 13.2 69.3602 13.98 70.4402C14.04 70.5602 14.22 70.7402 14.28 70.8601C14.76 71.2801 15.3 71.8202 15.78 72.2402C16.8 73.2002 17.88 74.0402 18.9 75.0002C19.26 75.1202 19.56 75.3601 19.92 75.4202C19.98 75.4202 19.86 75.6601 19.68 75.6601C19.62 75.6601 19.56 75.6002 19.38 75.6002C20.16 76.3801 20.94 77.2801 21.54 78.2401C21.6 78.3001 21.42 78.4802 21.3 78.4802C20.58 77.2802 19.56 76.2602 18.54 75.2402C16.74 74.2802 15.18 72.7801 13.92 71.2201C12.36 69.7201 10.74 68.1001 9.83999 66.1201C9.77999 66.0601 9.95999 65.8802 10.08 65.8802C10.8 67.3202 11.82 68.5201 12.96 69.7201C12.36 68.9401 11.82 68.0401 11.22 67.2002C10.86 66.6002 10.5 66.0602 10.14 65.4601C10.14 65.4601 10.14 65.4601 10.14 65.4002C10.08 65.4601 10.08 65.5202 10.02 65.6402C9.89999 65.7602 9.59999 66.0602 9.35999 65.9402C9.05999 65.7002 8.93999 65.4602 8.93999 64.9802C8.81999 65.1002 8.69999 65.3401 8.57999 65.4601C8.63999 65.5801 8.81999 65.7602 8.87999 65.8802C10.68 68.6402 12.84 71.1601 15 73.6201C16.08 74.9401 17.22 76.2002 18.24 77.5802C19.02 78.6002 19.8 79.6201 20.76 80.5201C20.82 80.5802 20.88 80.6402 21 80.7602C21.66 81.3602 22.2 81.9002 22.86 82.5002C23.52 82.9802 24.18 83.5201 24.9 83.9401C26.28 84.6601 27.72 85.3201 29.1 86.0401C30.06 86.5201 30.9 87.0601 31.74 87.5401C31.86 87.5401 32.04 87.5401 32.22 87.5401C32.28 87.5401 32.16 87.7802 32.1 87.7802C32.4 87.9002 32.58 88.1402 32.88 88.2602C33.54 88.6202 34.02 89.0402 34.5 89.4602ZM10.74 62.7001C10.5 63.0002 10.32 63.3601 10.08 63.6601C10.08 63.9002 10.08 64.0201 10.08 64.2601C10.2 63.9002 10.44 63.5402 10.74 63.1802C11.4 62.4002 12.96 61.5001 13.2 60.4201C12.78 60.1801 12.48 60.1201 12.42 60.3001C12.42 60.3601 12.18 60.5401 12.18 60.4201C12.24 60.0001 12.66 60.0002 13.2 60.1802C13.2 60.1202 13.2 60.1201 13.26 60.0601C12.96 59.9401 12.66 59.7602 12.42 59.6402C11.94 60.7201 11.4 61.7402 10.74 62.7001ZM10.74 62.4601C10.86 62.1601 11.1 61.9802 11.22 61.6802C11.1 61.8002 10.92 61.9202 10.86 61.9802C10.44 62.1002 10.14 62.7602 10.08 63.4802C10.32 63.0602 10.5 62.8202 10.74 62.4601ZM10.86 58.6802C10.98 58.7402 11.16 58.8001 11.34 58.8001C11.58 58.1401 11.46 57.4802 11.4 56.8802C11.28 57.4802 11.1 57.9601 10.92 58.5601C10.86 58.6201 10.86 58.6202 10.86 58.6802ZM8.15999 64.0201C8.27999 63.3001 8.75999 62.7001 9.11999 62.1002C9.53999 61.2602 9.95999 60.3601 10.44 59.5201C10.5 59.2801 10.56 59.1001 10.74 58.8601C9.53999 58.4401 8.21999 58.0801 7.01999 57.9001C7.01999 57.9601 6.95999 57.9601 6.89999 58.0201C7.37999 59.1601 8.99999 60.0601 8.81999 61.3201C8.75999 62.1001 8.15999 62.6402 8.15999 63.4802C8.09999 63.6602 8.09999 63.9001 8.15999 64.0201ZM8.81999 65.3402C8.93999 65.1002 9.11999 64.9802 9.17999 64.7402C9.17999 64.1402 9.29999 63.6002 9.47999 63.1802C9.77999 62.2202 10.26 61.4401 11.28 61.1402C11.4 61.0802 11.52 61.1402 11.52 61.2001C11.82 60.6001 12.12 60.0601 12.3 59.4601C11.82 59.2201 11.28 59.0401 10.86 58.8601C10.56 59.5801 10.2 60.3001 9.83999 61.0201C9.59999 61.5001 9.35999 62.0401 9.05999 62.4601C8.69999 63.0602 8.39999 63.5401 8.39999 64.2601C8.39999 64.2601 8.39999 64.3201 8.33999 64.3201C8.45999 64.7401 8.57999 65.0402 8.81999 65.3402ZM9.17999 66.4802C9.05999 66.2402 8.81999 66.0001 8.69999 65.7601C8.45999 66.2402 8.57999 66.5402 9.17999 66.4802ZM31.44 87.5401C29.94 86.5801 28.32 85.8001 26.76 85.0201C25.74 84.5401 24.84 84.0602 23.88 83.4602C24.3 84.0602 24.72 84.6002 25.26 85.2001C25.68 85.6802 26.34 86.5201 26.1 87.1201C26.46 87.1801 26.82 87.2402 27.18 87.3602C28.56 87.6002 30 87.5401 31.44 87.5401ZM71.64 78.8401C71.58 78.9601 71.52 79.1401 71.4 79.3201C71.4 79.3801 71.4 79.3802 71.46 79.3802C71.52 79.3802 71.58 79.3202 71.58 79.2602C71.64 79.1402 71.7 78.9602 71.82 78.7802C71.82 78.7202 71.82 78.7201 71.76 78.7201C71.82 78.7201 71.76 78.7801 71.64 78.8401ZM71.64 174.72C71.58 174.72 71.58 174.72 71.52 174.72C71.46 174.72 71.22 174.84 71.28 174.96C72.06 175.56 72.06 176.52 72.96 177.06C73.86 177.6 74.82 177.72 75.78 177.84C75.84 177.84 76.02 177.6 76.02 177.6C75.06 177.48 74.1 177.3 73.2 176.82C72.36 176.34 72.24 175.38 71.64 174.78C71.64 174.72 71.64 174.72 71.64 174.72ZM105.96 175.02C106.2 175.02 105.6 175.8 105.24 175.8C104.76 175.8 104.16 175.74 103.56 175.68V175.74C103.56 175.74 103.56 175.8 103.5 175.8C103.5 175.86 103.38 175.92 103.38 175.92C103.08 175.98 102.6 175.8 102.3 175.68C101.52 175.56 100.8 175.62 100.02 175.74C99.72 175.8 99.36 175.86 99.06 175.98C99.3 175.92 99.54 175.92 99.78 175.92C100.38 175.86 100.92 175.86 101.52 175.86C101.76 175.86 102 175.98 102.3 176.1C102.24 176.04 102.42 175.86 102.54 175.98L102.66 176.22C102.72 176.28 102.54 176.46 102.54 176.46C102.18 176.52 101.82 176.22 101.46 176.22C100.86 176.16 100.32 176.22 99.78 176.28C98.58 176.34 97.38 176.7 96.18 177C95.58 177.12 95.1 177.3 94.5 177.42C96.3 177.18 98.1 177.06 99.9 177.06C100.92 177.06 101.82 177 102.84 177.06C103.32 177.12 104.22 177.18 104.52 177.72C104.58 177.78 104.46 177.84 104.4 177.96C104.16 178.02 103.98 178.02 103.74 178.02C103.68 178.02 103.8 177.78 103.98 177.78C104.04 177.78 104.22 177.78 104.28 177.78C103.68 177.18 102.48 177.3 101.82 177.3C100.5 177.3 99.24 177.3 97.98 177.36C96.54 177.42 95.16 177.6 93.72 177.72C92.52 178.08 91.26 178.5 90.06 178.8C89.22 179.16 88.26 179.46 87.42 179.58C84.3 180.06 81.3 180.24 78.24 179.7C78.18 179.7 78 179.7 77.94 179.64C75.48 179.76 73.02 179.88 70.62 179.88C70.56 179.88 70.68 179.64 70.74 179.64C72.84 179.64 74.94 179.58 76.98 179.4C75.78 179.16 74.46 178.98 73.32 178.62C72.6 178.38 71.28 177.9 71.22 176.94C71.22 176.88 71.28 176.82 71.28 176.7C70.98 176.4 70.8 176.1 70.32 176.22C70.26 176.22 70.38 175.98 70.44 175.98C70.8 175.98 70.92 176.04 71.22 176.34C71.28 176.4 71.34 176.46 71.46 176.58C71.7 176.34 71.94 176.28 71.94 176.46C71.94 176.76 72.06 176.94 72.24 177.12C72.36 177.18 72.54 177.24 72.66 177.24C73.5 177.54 74.4 177.96 75.3 178.08C75.3 178.02 75.42 177.96 75.42 177.96C75.9 177.96 76.38 178.2 76.86 178.26C77.34 178.26 77.88 178.32 78.36 178.38C78.96 178.44 79.56 178.38 80.16 178.44C80.76 178.5 81.36 178.56 81.96 178.68C82.8 178.74 83.76 178.74 84.6 178.8C86.46 178.56 88.26 178.32 90.06 178.02C91.38 177.6 92.64 177.18 93.9 176.58C95.04 176.1 96.06 175.74 97.38 175.56C98.88 175.32 100.32 174.96 101.82 174.9C102.24 174.9 102.66 174.9 103.14 174.9C103.08 174.6 102.9 174.3 102.84 174.06C102.78 173.76 102.72 173.58 102.6 173.28C102.18 173.16 101.94 172.56 101.88 172.14C101.82 171.78 101.82 171.42 101.82 171C101.82 170.58 101.58 170.16 101.58 169.68C101.58 169.62 101.82 169.44 101.82 169.56C101.82 169.98 101.94 170.34 102.06 170.7C102.12 171 102.06 171.36 102.06 171.66C102.12 172.02 102.18 172.62 102.48 172.86C102.42 172.62 102.36 172.38 102.24 172.14C102.24 172.08 102.48 171.9 102.48 172.02C102.54 172.38 102.72 172.74 102.78 173.1C102.84 173.1 102.84 173.1 102.9 173.1C102.96 173.1 102.9 173.22 102.84 173.22C102.9 173.46 102.96 173.64 102.96 173.82C103.02 174.18 103.2 174.54 103.26 174.9C104.34 174.84 105.12 174.96 105.96 175.02ZM80.7 179.04C81.66 178.98 82.5 178.92 83.46 178.74C83.04 178.74 82.62 178.68 82.14 178.68C81 178.62 79.92 178.44 78.78 178.38C78.12 178.32 77.46 178.26 76.86 178.14C76.56 178.14 76.38 178.08 76.08 178.02L76.02 178.08C77.46 178.56 79.08 178.92 80.7 179.04ZM86.22 178.98C85.56 178.98 84.9 178.92 84.36 178.92C83.52 179.04 82.62 179.16 81.78 179.22C83.16 179.28 84.66 179.16 86.22 178.98ZM88.62 178.38C88.56 178.38 88.56 178.38 88.5 178.38C88.44 178.38 88.5 178.26 88.56 178.14C87.48 178.26 86.46 178.44 85.38 178.56C85.44 178.56 85.5 178.56 85.62 178.56C86.1 178.62 86.64 178.62 87.12 178.62C87.72 178.68 88.14 178.56 88.62 178.38ZM92.28 177.84C92.22 177.84 92.22 177.84 92.16 177.84C91.86 177.9 91.56 177.96 91.38 178.08C91.32 178.14 91.14 178.14 91.08 178.2C91.5 178.02 91.86 177.96 92.28 177.84ZM99.96 175.68C99.9 175.68 99.9 175.68 99.84 175.68C98.34 175.98 96.72 176.04 95.28 176.46C94.32 176.76 93.48 177.12 92.64 177.48C92.7 177.48 92.76 177.48 92.94 177.42C92.94 177.42 92.94 177.42 93 177.42C94.2 177.06 95.46 176.76 96.66 176.4C97.68 176.16 98.88 175.92 99.96 175.68ZM103.44 175.74C103.44 175.68 103.44 175.68 103.38 175.62C103.26 175.62 103.08 175.62 102.9 175.62C103.08 175.68 103.32 175.74 103.44 175.74ZM58.02 157.08C57.3 157.44 56.46 157.56 55.62 157.74C54.9 157.86 54.12 158.04 53.4 158.16C52.74 158.28 52.2 158.58 51.6 158.76C51.18 158.82 50.82 158.88 50.52 159.18C50.52 159.18 50.4 159.24 50.46 159.3C50.52 159.54 50.52 159.42 50.58 159.66C50.64 159.72 50.82 159.54 50.82 159.54C50.82 159.48 50.82 159.48 50.82 159.42C50.82 159.42 50.82 159.42 50.76 159.42C50.82 159.06 51.84 159 52.08 158.94C52.74 158.7 53.4 158.52 54.12 158.34C55.26 158.1 56.58 158.04 57.66 157.56C58.5 157.2 59.1 156.54 59.76 155.88C60.48 155.16 61.5 153.78 62.64 153.84C62.7 153.84 62.76 153.78 62.88 153.72C62.94 153.78 63 153.78 63.12 153.84C63.36 154.08 63.24 154.32 63.48 154.56C63.54 154.62 63.78 154.44 63.72 154.32C63.48 154.08 63.6 153.9 63.42 153.66C63.3 153.42 63 153.36 62.76 153.24C62.34 152.88 62.28 152.52 62.28 151.92C62.28 151.86 62.04 151.98 62.04 152.04C62.04 152.52 62.1 152.88 62.46 153.24C62.58 153.36 62.76 153.48 62.88 153.54C62.1 153.48 61.44 154.02 60.84 154.56C59.82 155.46 59.1 156.54 58.02 157.08ZM71.94 160.2C72.54 160.14 72.78 160.08 73.38 160.26C73.44 160.26 73.68 160.14 73.62 160.02C72.84 159.6 71.88 159.96 71.04 160.02C69.96 160.08 68.88 160.32 67.8 160.62C66.72 160.92 65.7 161.28 64.68 161.76C63.66 162.36 62.64 162.96 61.68 163.5C60.6 164.1 59.52 164.82 58.32 165.18C57.18 165.54 56.04 165.84 54.84 166.02C53.7 166.26 52.62 166.44 51.48 166.08C50.7 165.78 49.8 165.48 48.96 165.48C48.9 165.48 48.72 165.72 48.84 165.72C49.86 165.72 50.76 166.14 51.72 166.38C52.74 166.62 53.76 166.38 54.72 166.26C56.76 165.9 58.8 165.3 60.6 164.34C62.64 163.2 64.56 161.88 66.78 161.16C67.98 160.8 69.24 160.5 70.44 160.38C70.86 160.26 71.46 160.26 71.94 160.2ZM62.58 155.04C62.34 155.16 62.22 155.28 61.98 155.34C61.74 155.4 61.56 155.46 61.38 155.7C61.26 155.82 61.44 155.82 61.5 155.7C61.62 155.46 61.98 155.58 62.22 155.4C62.46 155.34 62.64 155.1 62.88 155.04C62.94 155.04 63.12 154.8 62.94 154.8C62.82 154.8 62.76 154.86 62.58 155.04ZM8.99999 57.4201V57.1802C8.99999 57.1202 8.75999 57.2401 8.75999 57.3001V57.5401C8.81999 57.6002 8.99999 57.4801 8.99999 57.4201ZM32.82 53.5802C32.34 54.3602 31.8 55.4401 31.86 56.4601C31.86 56.5201 31.98 56.4601 31.98 56.4601C32.04 56.4001 32.04 56.3401 32.04 56.3401C32.04 55.6802 32.28 54.9001 32.52 54.4201C32.88 53.7001 33.72 52.3201 34.62 52.2001C34.68 52.2001 34.86 51.9601 34.74 51.9601C33.84 51.9601 33.24 52.8002 32.82 53.5802ZM25.2 51.4201C25.68 51.6601 26.22 52.0201 26.64 52.2601C27.06 52.5601 27.48 52.9201 27.84 53.3401C28.14 53.7001 28.44 54.0602 28.86 54.1802C28.92 54.1802 29.16 54.0602 29.1 53.9401C28.5 53.8201 28.32 53.2801 27.96 52.9201C27.6 52.5001 27.12 52.2001 26.64 51.9001C26.28 51.6601 25.98 51.4802 25.62 51.2402C25.2 51.0002 24.42 50.9401 24.18 50.5201C24.18 50.4601 23.94 50.5801 23.94 50.7601C24.18 51.2401 24.84 51.3001 25.2 51.4201ZM30.3 52.5601C29.7 53.2201 29.22 53.9402 29.16 54.7802C29.16 54.8402 29.4 54.7201 29.4 54.6601C29.46 53.8801 29.88 53.2201 30.42 52.5601C30.54 52.6801 30.72 52.8001 30.84 52.9201C30.9 52.9801 31.14 52.8002 31.08 52.6802C30.96 52.5602 30.78 52.4401 30.66 52.3201C31.14 51.8401 31.68 51.3601 32.16 51.0001C32.76 50.5801 33.36 50.2201 33.96 49.8601C34.26 49.7401 34.38 49.6202 34.44 49.4402C34.5 49.3202 34.32 49.4401 34.2 49.5001C34.08 49.8001 33.48 49.9201 33.24 50.1601C33 50.2801 32.76 50.4602 32.52 50.6402C31.92 51.0002 31.44 51.4201 30.96 51.9601C30.84 52.0801 30.66 52.2601 30.54 52.4401C29.22 51.6002 27.54 51.0001 26.4 49.8001V49.7401H26.34C26.28 49.7401 26.1 49.8602 26.1 49.9802C27.3 51.0602 28.98 51.6001 30.3 52.5601ZM34.92 52.8001C34.86 52.3201 34.8 51.8401 34.8 51.3601C34.86 50.5201 35.04 48.7801 35.94 48.3601C36.06 48.3001 35.94 48.4801 35.88 48.6001C35.4 48.8401 35.22 49.8002 35.16 50.2802C35.04 50.9402 34.92 51.6001 35.1 52.2001C35.1 52.4401 35.16 52.5601 35.16 52.8001C35.4 52.7401 35.58 52.7402 35.88 52.6802C36.3 52.6802 35.58 53.4001 35.4 53.4601C35.64 54.1201 35.88 54.6601 36.48 54.9601C36.54 54.9001 36.6 54.8401 36.6 54.9001C36.66 55.0201 36.66 54.9601 36.6 55.1402C36.6 55.2001 36.48 55.2601 36.36 55.2601C35.7 55.0201 35.4 54.5402 35.22 53.8802C35.16 53.7602 35.16 53.5801 35.1 53.4601C34.08 53.7001 33.72 55.3802 33.54 56.2802C33.18 57.4202 33.12 58.4402 33.3 59.6402C33.3 59.7001 33.24 59.8801 33.18 59.9401C33.3 60.4202 33.96 60.9601 34.26 61.3201C34.32 61.3801 34.38 61.4401 34.5 61.5601H34.56C34.68 61.8001 34.92 62.0402 35.04 62.2802C35.76 60.1202 36.9 58.0801 38.64 56.4601C38.7 56.4601 38.7 56.4001 38.7 56.4001C38.64 56.3401 38.64 56.1601 38.58 56.1001C38.28 55.6201 37.92 55.1401 37.5 54.7201C37.44 54.7201 37.44 54.7801 37.38 54.7201C37.32 54.6601 37.26 54.4801 37.14 54.4201C37.08 54.3601 37.26 54.1802 37.38 54.1802C37.98 54.6602 38.58 55.3801 38.94 56.1001C39.06 56.1001 39.18 56.1601 39.06 56.4001C39.12 56.7001 39.18 57.0001 39.3 57.2401C39.42 56.9402 39.6 56.5801 39.78 56.2201C39.54 55.8601 39.42 55.5602 39.36 55.1402H39.3C39.3 55.1402 39.3 55.1402 39.3 55.0802C39.3 55.5002 39.36 55.9201 39.36 56.4001C39.36 56.4601 39.12 56.6401 39.12 56.5201C39.12 55.8001 39.06 55.1401 39 54.4201C38.94 54.3001 38.88 54.1201 38.88 53.9401C38.88 53.8201 38.88 53.7002 38.94 53.5802C38.94 53.4602 38.94 53.3401 38.94 53.2201C38.94 53.1601 39.18 52.9801 39.18 53.1001C39.18 53.0401 39.24 52.9802 39.24 52.9802C39.36 52.7402 39.6 52.6201 39.9 52.5001C40.14 52.3801 40.32 52.2001 40.62 52.2001C40.68 52.2001 40.56 52.4401 40.38 52.4401C40.32 52.4401 39.78 52.6802 39.66 52.7401C39.36 52.9801 39.24 53.2201 39.18 53.5201C39.18 53.8201 39.18 54.0001 39.24 54.3001C39.3 54.4201 39.36 54.5401 39.36 54.6601C39.42 54.6001 39.48 54.6001 39.48 54.6001C39.48 55.0201 39.6 55.5602 39.84 55.9802C39.96 55.7402 40.2 55.5601 40.5 55.5601C40.62 55.5601 40.5 55.6801 40.44 55.8001C40.32 55.8601 40.08 56.0401 39.96 56.2201C40.2 56.5801 40.38 57.0001 40.62 57.3001C40.62 57.3601 40.68 57.3601 40.68 57.4201C40.92 57.1201 41.28 56.9402 41.76 56.9402C41.82 56.9402 41.7 57.1802 41.64 57.1802C41.28 57.1802 40.98 57.3001 40.8 57.6001C41.16 58.2601 41.58 58.9802 42 59.6402C42.84 60.8402 44.04 62.0401 44.64 63.3601C45 64.1402 45.24 65.0401 45.6 65.8201C46.02 66.6001 46.62 67.1402 47.16 67.7402C47.76 68.4002 48 69.1802 48.6 69.7802C48.84 70.0202 49.02 70.1402 49.26 70.2601C49.38 70.2001 49.62 70.0202 49.68 69.9002C49.74 69.8402 50.1 69.5401 50.28 69.6602C50.46 69.7801 50.16 70.0802 49.98 70.1402C49.86 70.2602 49.68 70.4402 49.56 70.5002C49.62 70.5602 49.62 70.7402 49.62 70.8001C49.62 70.8602 49.38 71.0401 49.38 70.9201C49.38 70.8601 49.32 70.6801 49.32 70.6201C49.26 70.6801 49.2 70.6802 49.08 70.7402C49.14 70.8002 49.14 70.8602 49.2 70.9802C49.5 71.4602 49.62 72.0001 49.98 72.4201C49.98 72.3601 50.22 72.1802 50.22 72.3001C50.22 72.5402 50.22 72.4201 50.22 72.7201C50.22 72.7801 50.1 72.9602 49.98 72.8402C49.5 72.3602 49.32 71.6402 48.96 71.0402C48.9 70.9802 48.9 70.9202 48.84 70.8001C48.6 70.8602 48.36 70.9201 48.12 70.9201C47.88 70.9201 48.18 70.5602 48.18 70.5002C48.24 70.4402 48.3 70.3801 48.42 70.2601C48.06 69.8401 47.7 69.4202 47.34 68.9402C46.26 67.6202 45.18 66.3602 44.04 65.0402C42.96 63.8402 41.94 62.6402 41.28 61.1402C40.98 60.4202 40.62 59.7602 40.32 59.0401C40.26 58.8001 40.08 58.6202 40.02 58.3802C39.66 58.9802 39.3 59.5802 38.94 60.1802C38.58 60.6602 38.28 61.2002 37.98 61.6802C37.92 62.1602 37.86 62.6402 37.74 63.0602C37.62 63.8401 37.62 64.6201 37.32 65.4601C37.44 65.7001 37.68 65.8202 37.8 66.0602C38.76 67.2001 39.48 68.3401 40.08 69.7201C40.38 70.3801 40.74 70.9201 41.16 71.4601C41.4 71.7001 41.58 71.8202 41.82 72.0602C42.12 72.3001 42.24 72.5402 42.42 72.8402C42.42 72.8402 42.42 72.9002 42.36 72.9002L42.3 72.9601C42.24 73.0201 42 73.0201 42.18 72.9601C42.42 72.7201 40.98 71.5802 40.8 71.4601C40.38 70.8601 40.08 70.3202 39.72 69.6602C39.06 68.3401 38.28 67.1402 37.32 66.0602C37.26 66.0001 37.2 65.9401 37.08 65.7601C36.96 66.0001 36.84 66.1801 36.66 66.3601C36.36 66.7201 35.7 66.7802 36.18 66.3001H36.12C36 66.6602 35.76 67.0202 35.46 67.3802C35.04 67.8602 34.5 68.2202 34.02 68.5802C33.78 68.7002 33.72 68.8801 33.42 68.8201V68.7601C33.54 68.4601 33.48 68.5202 33.66 68.3402C33.72 68.2802 33.96 68.2202 33.78 68.3402C33.48 68.7602 34.38 68.2202 34.08 68.3402C34.14 68.3402 34.2 68.2801 34.32 68.2201C34.68 67.9201 35.04 67.6201 35.34 67.2601C35.58 66.9601 35.76 66.6002 35.94 66.2402C35.82 66.1802 35.7 66.1201 35.64 65.8201C35.64 65.8201 35.64 65.8202 35.64 65.7601C35.58 65.7601 35.58 65.7601 35.58 65.7601C35.34 65.3401 35.16 64.9801 34.92 64.6201C34.86 65.2201 34.86 65.8201 34.8 66.4201C34.8 66.7801 33.96 67.2601 33.96 67.0201C33.96 65.8801 34.08 64.8001 34.32 63.7201C34.2 63.4801 34.02 63.3001 33.96 63.0002C33.9 63.3602 33.84 63.7802 33.66 64.1402C33.54 64.6202 33.36 65.1002 33.24 65.5802C33.18 65.8202 33.18 66.0002 33.12 66.2402C33.06 66.4802 33.06 66.3602 32.88 66.5402C32.94 66.4802 33.18 66.4802 33 66.5402L32.94 66.6002C32.94 66.6002 32.7 66.7201 32.82 66.6002C33.06 66.1802 33.12 65.5801 33.24 65.1601C33.36 64.7402 33.48 64.3801 33.6 63.9601C33.72 63.5401 33.84 63.0002 33.9 62.5802C33.78 62.2202 33.66 61.8601 33.54 61.4401C33.3 60.7801 33.12 60.1201 32.58 59.6402C32.46 59.7001 32.28 59.7002 32.28 59.5802C32.28 59.5202 32.28 59.3402 32.22 59.2802C31.62 58.8001 30.9 58.4402 30.18 58.1402C28.8 57.5401 27.36 57.1801 26.22 56.2201C25.56 55.7401 25.02 55.1401 24.54 54.4201C24.12 53.7001 24.06 53.0401 24.06 52.2601C24.06 52.2001 24.3 52.0201 24.3 52.1402C24.3 53.1002 24.42 53.8801 25.02 54.6601C25.44 55.3201 26.1 55.8001 26.7 56.3401C27.9 57.3602 29.52 57.6601 30.96 58.2601C31.38 58.5001 31.74 58.6802 32.1 58.9802C31.98 57.2402 32.46 55.6801 33.18 54.0601C33.66 53.8201 34.2 53.1001 34.92 52.8001ZM36.42 65.5201C36.42 65.4601 36.48 65.4002 36.48 65.2802C36.42 65.1602 36.24 64.9802 36.18 64.8601C35.94 65.3401 35.82 66.0602 36.12 66.3601C36.3 66.1201 36.36 65.8201 36.42 65.5201ZM36.84 65.7001C36.78 65.6402 36.72 65.5801 36.72 65.4601C36.66 65.8202 36.48 66.1202 36.36 66.4802C36.42 66.4802 36.42 66.4802 36.48 66.4802C36.66 66.2402 36.72 66.0602 36.84 65.7001ZM37.08 64.1402C37.02 64.2602 36.96 64.5001 36.96 64.6201C36.9 64.7401 36.9 64.9202 36.84 65.1002C36.9 65.1602 36.9 65.2202 36.96 65.3402C37.02 64.9802 37.02 64.6202 37.08 64.1402ZM37.38 61.6201C37.02 62.4601 36.78 63.3602 36.42 64.2001C36.42 64.2602 36.36 64.4402 36.3 64.5002C36.36 64.5602 36.42 64.7402 36.54 64.8001L36.6 64.8601C36.72 64.4401 36.9 64.0202 37.08 63.4802C37.08 63.0602 37.14 62.7002 37.2 62.3402C37.2 62.2202 37.26 61.9201 37.38 61.6201ZM40.5 57.9001C40.38 58.1401 40.26 58.3201 40.14 58.5601C40.26 58.9201 40.44 59.2802 40.56 59.5802C40.92 60.3602 41.22 61.0802 41.64 61.8001C42.36 63.1802 43.38 64.2602 44.4 65.4002C45.48 66.7201 46.56 67.9802 47.7 69.3001C48 69.6602 48.36 70.0202 48.66 70.4402H48.72C48.78 70.4402 48.84 70.4402 48.84 70.4402C48.54 70.1402 48.18 69.8402 48 69.6002C47.52 68.8801 47.04 68.1602 46.5 67.5602C45.84 66.9002 45.42 66.3601 45.06 65.5201C44.7 64.7401 44.58 63.9602 44.22 63.2402C43.5 61.8002 42.36 60.7201 41.46 59.4001C41.1 58.9201 40.8 58.3801 40.5 57.9001ZM38.88 58.5001H38.76C38.7 58.5601 38.7 58.6201 38.7 58.7402C38.58 59.1001 38.4 59.4001 38.28 59.7601C38.34 59.7001 38.34 59.6401 38.4 59.5201C38.64 59.2201 39.48 58.8601 39.06 59.4601C38.58 60.1201 38.34 60.9002 38.22 61.6802C38.88 60.6602 39.54 59.7602 40.08 58.6802C39.96 58.2602 39.78 57.8401 39.72 57.3001C39.72 57.2401 39.96 57.0602 39.96 57.1802C39.96 57.6002 40.08 57.9602 40.26 58.3802C40.26 58.3802 40.26 58.3201 40.32 58.3201C40.38 58.0801 40.56 57.9601 40.62 57.7201C40.5 57.4201 40.32 57.2401 40.2 56.9402C40.14 56.8201 39.96 56.5801 39.9 56.4601C39.66 56.8201 39.54 57.1801 39.48 57.4201C39.42 57.4801 39.42 57.5401 39.36 57.6601C39.36 57.9001 39.3 58.1402 39.24 58.3802C39 58.3802 38.94 58.5001 38.88 58.5001ZM35.4 63.0602C35.7 63.5401 35.88 64.0202 36.18 64.4402C36.48 63.4202 36.84 62.5201 37.26 61.5601C37.86 60.2401 38.34 59.0401 39 57.8401C39 57.6002 38.94 57.4201 38.94 57.3601C38.94 57.2401 38.88 57.0602 38.82 56.8802C37.02 58.5002 35.94 60.7201 35.4 63.0602ZM35.1 64.6802C35.34 65.0402 35.58 65.4001 35.82 65.8201C35.82 65.5201 35.88 65.2202 35.94 65.0402C35.94 64.9802 36 64.8002 36 64.7402C35.7 64.3202 35.52 63.9001 35.22 63.4201C35.28 63.9001 35.22 64.3202 35.1 64.6802ZM34.2 63.0002C34.26 63.3001 34.44 63.4802 34.56 63.7802C34.62 63.4202 34.68 63.0002 34.86 62.6402C34.74 62.4002 34.56 62.1601 34.38 61.9201C34.26 62.2801 34.26 62.6402 34.2 63.0002ZM33.24 60.6601C33.36 61.0201 33.54 61.3802 33.66 61.6802C33.78 62.0402 33.9 62.3402 33.96 62.6402C34.02 62.3402 34.02 62.0401 34.08 61.8001C33.96 61.5602 33.72 61.3801 33.6 61.1402C33.54 60.9002 33.42 60.7801 33.24 60.6601ZM49.02 67.8601C49.62 68.3401 50.22 68.8801 51.06 69.0002C51.12 69.0002 51.3 68.7601 51.3 68.7601C50.58 68.6402 49.92 68.1002 49.38 67.6802C48.9 67.3202 47.88 66.6002 47.82 65.9402C47.82 65.8802 47.58 66.0001 47.58 66.0602C47.52 66.7801 48.48 67.5001 49.02 67.8601ZM49.68 131.94C48.6 131.28 47.4 130.86 46.38 130.14C45.3 129.36 44.58 128.34 43.62 127.32C42.78 126.36 41.94 125.28 41.1 124.32C40.32 123.48 39.78 122.64 39.3 121.56C39.06 121.08 38.88 120.6 38.7 120.12C38.58 119.7 38.46 119.28 38.34 118.8C38.1 118.32 37.92 117.78 38.4 117.36C38.64 117.12 38.88 117.06 39.12 116.94C39.6 116.7 40.14 116.52 40.56 116.16C41.34 115.56 42.24 115.08 43.14 114.66C44.16 114.24 45.24 114.06 46.32 113.88C48.9 113.28 51.42 112.68 54 111.96C56.46 111.3 58.8 110.52 61.2 109.74C62.4 109.32 63.6 108.9 64.74 108.36C65.88 107.94 66.96 107.64 68.1 107.28C69.3 106.92 70.5 106.5 71.7 106.14C72.84 105.78 73.92 105.18 75.06 104.76C76.14 104.4 77.22 104.04 78.18 103.38C78.42 103.26 78.6 103.08 78.84 102.96C78.84 102.6 78.9 102.18 78.9 101.82C78.78 101.22 78.54 100.68 78.24 100.08C77.94 99.6002 77.64 99.0601 77.4 98.6401C77.34 98.6401 77.34 98.6402 77.28 98.5802C77.22 98.5802 77.22 98.5201 77.22 98.3401C76.98 97.9801 76.8 97.6801 76.56 97.3201C76.32 96.9602 76.08 96.6002 75.72 96.3002C75.24 95.9402 74.76 95.9402 74.4 95.4602C73.74 94.5002 73.32 93.4202 72.72 92.4602C72.06 91.3802 71.34 90.3602 70.62 89.4602C70.5 89.2202 70.32 89.0401 70.2 88.8002C70.14 88.8002 70.14 88.8002 70.14 88.8002C70.02 88.3801 69.48 88.1401 69.12 87.8401C68.76 87.6001 68.4 87.3601 68.04 87.1201C67.74 86.8801 67.44 86.7602 67.2 86.5201C67.08 86.5201 66.84 86.5201 66.72 86.5201C65.34 87.3601 63.9 87.9601 62.4 88.6201C58.8 90.3001 55.08 91.7402 51.24 92.8201C49.38 93.3001 47.52 93.6602 45.54 93.6602C44.82 93.6602 43.86 93.9002 43.26 93.6002C42.66 93.3602 42.42 92.5802 42.06 92.1602C40.86 90.8402 39.18 90.1202 37.62 89.4002C36.66 89.0401 35.76 88.6202 34.8 88.2602C34.38 88.0202 33.84 87.9002 33.78 87.4202C33.78 87.3601 34.02 87.1802 34.02 87.3002C34.08 88.0202 35.58 88.4402 36.18 88.6802C37.14 89.1002 38.1 89.4602 39 89.8802C40.5 90.6002 42 91.5602 42.96 93.0002C43.32 93.6002 43.8 93.6602 44.4 93.6602C44.52 93.5402 44.46 93.2401 44.4 92.9401C44.16 92.8801 44.04 92.8201 43.8 92.8201C43.74 92.8201 43.86 92.5802 43.92 92.5802C44.04 92.5802 44.16 92.5801 44.28 92.6401C44.16 92.2801 43.86 91.9202 43.68 91.6802C43.26 91.0202 42.72 90.4801 42.18 89.9401C41.04 88.9201 39.42 88.5602 37.98 88.2602C37.92 88.2602 38.04 88.0201 38.22 88.0201C39.96 88.3801 41.58 88.8002 42.9 90.0602C43.56 90.7202 44.04 91.4402 44.46 92.2201C44.52 92.2802 44.52 92.4602 44.58 92.5802C44.64 92.5802 44.64 92.5801 44.7 92.6401C45.06 92.7001 45.42 92.5802 45.72 92.5201C46.38 92.4002 47.1 92.2202 47.82 92.1602C49.14 91.9202 50.34 91.4401 51.48 90.8401C51.6 90.7201 51.84 90.5401 51.96 90.5401C54.12 89.4001 56.04 87.7802 57.96 86.2802C59.28 85.2602 60.48 84.2402 61.62 83.1002C61.56 83.1002 61.56 83.1001 61.5 83.0401C60.9 83.5201 60.36 84.0001 59.7 84.2401C59.58 84.3001 59.64 84.1201 59.76 84.1201C60.42 83.8201 60.9 83.4001 61.5 83.0401C61.08 82.8001 60.66 82.6802 60.18 82.5602C59.82 82.4402 59.34 82.0802 58.98 81.9002C58.92 81.9602 58.86 82.0202 58.74 81.9602C58.74 81.9002 58.68 81.8401 58.68 81.8401C58.62 81.7801 58.8 81.6002 58.92 81.6002C59.4 81.6002 59.94 82.0802 60.42 82.3201C60.84 82.5602 61.26 82.6801 61.8 82.9202C62.16 82.6201 62.58 82.2602 62.94 81.9602C62.94 81.9602 62.94 81.9602 63 81.9002C62.94 81.9002 62.88 81.9002 62.88 81.9002C62.88 81.9602 62.64 82.1402 62.64 81.9602V81.8401C62.64 81.7801 62.76 81.7201 62.88 81.7201C62.88 81.7201 62.88 81.7201 62.94 81.7201C63 81.4801 63.6 81.1201 63.72 81.1201C63.78 81.0602 63.84 81.0002 63.96 80.8802C65.46 79.0202 67.14 77.2802 69 75.7802C69.84 75.1202 70.68 74.4601 71.58 73.9201C72.42 73.3201 73.38 72.9602 74.34 72.5402C74.76 71.7002 75.12 70.8602 75.78 70.1402C75.84 70.0802 76.08 70.0802 75.9 70.1402C75.3 70.8002 74.88 71.5802 74.52 72.3601C74.58 72.3001 74.76 72.3002 74.82 72.2402C74.88 72.1802 74.94 72.2402 74.88 72.3001C74.82 72.3602 74.82 72.3601 74.76 72.4201C74.7 72.4801 74.46 72.5401 74.64 72.4201C74.64 72.4801 74.58 72.4802 74.52 72.5402C74.46 72.6002 74.46 72.7802 74.4 72.8402C74.04 73.6202 73.68 74.4002 73.38 75.3002C73.02 76.3202 72.24 78.1202 73.26 78.9002C73.32 78.9602 73.14 79.1401 73.02 79.1401C71.94 78.3001 72.78 76.3202 73.14 75.3002C73.44 74.3402 73.8 73.5002 74.22 72.6602C74.1 72.7201 73.92 72.7202 73.86 72.7802C73.5 72.9002 73.14 73.0802 72.78 73.2601C72.06 73.6201 71.4 74.0401 70.74 74.4601C69.6 75.2402 68.46 76.2001 67.38 77.2201C66.06 78.4202 64.98 79.7402 63.84 81.0602V81.1201L63.9 81.1802C64.56 80.7602 65.22 80.4002 65.82 79.9802C66.18 79.6202 66.54 79.3201 66.9 79.0201C67.26 78.7201 67.5 78.7801 67.38 79.0201C67.74 78.7801 68.1 78.6601 68.52 78.5401C69.12 78.3001 69.66 77.8802 70.26 77.7602C70.74 77.6402 71.7 77.4002 72.18 77.8201C72.24 77.8801 72.06 78.0602 71.94 78.0602C71.22 77.3402 69.72 78.1801 69.06 78.5401C68.58 78.8401 67.92 78.9602 67.38 79.2602C67.32 79.2602 67.26 79.3201 67.14 79.3201C67.14 79.3801 67.08 79.3801 67.02 79.4401C66.06 80.2201 65.28 81.0002 64.44 81.9002C64.5 81.9602 64.56 82.0201 64.68 82.1401C65.52 82.4401 66.42 82.8601 67.26 83.2201C67.98 83.5201 68.58 83.9402 69.3 84.3002C70.62 83.1602 71.76 81.9002 73.14 80.8201C74.52 79.7402 76.02 78.9602 77.52 78.0602C77.58 78.0002 77.64 78.0001 77.76 77.9401C76.44 76.8001 75.48 75.4202 74.22 74.1002C74.16 74.0402 74.34 73.8601 74.46 73.8601C75.66 75.0602 76.68 76.5002 78 77.7001C78.72 77.2802 79.38 76.6801 80.04 76.2001C80.46 75.9002 80.88 75.4801 81.48 75.3601C81.54 75.3601 81.54 75.4202 81.54 75.4202C81.42 75.6601 81.24 75.7802 81.12 75.9002C81 75.9602 80.88 75.9002 81.06 75.8402C81.54 75.4202 80.7 75.9002 80.58 75.9602C80.46 76.0201 80.28 76.2001 80.16 76.2602C79.74 76.5602 79.32 76.9202 78.84 77.2802C78.6 77.4002 78.42 77.6402 78.18 77.7602C78.42 78.0002 78.6 78.1202 78.9 78.3602C80.76 79.7402 82.62 81.0002 84.42 82.3802C85.38 83.1002 86.22 83.7602 87.24 84.3002C88.08 84.9002 89.04 85.4402 89.7 86.2201C90.36 87.0602 91.02 87.9002 91.74 88.6802C92.04 89.0402 92.4 89.3402 92.7 89.7001C92.94 90.0002 93.18 90.3602 93.54 90.4802C93.6 90.4202 93.78 90.3602 93.66 90.4802L93.6 90.6002C93.6 90.6602 93.48 90.7201 93.48 90.7201C92.82 90.4801 92.4 89.6401 91.98 89.2201C91.2 88.4402 90.48 87.5401 89.82 86.7001C89.16 85.8601 88.32 85.2001 87.36 84.6002C86.4 83.9402 85.5 83.4002 84.54 82.6802C82.68 81.2402 80.7 79.8602 78.78 78.4802C78.48 78.2402 78.3 78.1202 78.06 77.8802C77.64 78.1802 77.1 78.3602 76.62 78.6602C74.58 79.7402 72.96 81.0602 71.28 82.6201C70.68 83.1002 70.2 83.6401 69.6 84.1201C70.2 84.4202 70.68 84.7201 71.16 85.2001C71.22 85.2602 71.04 85.4401 71.04 85.4401C70.98 85.4401 70.98 85.4401 70.92 85.4401C70.86 85.4401 70.92 85.3802 70.92 85.3802C70.5 84.9602 69.96 84.6602 69.42 84.3602C69.12 84.6602 68.76 84.9601 68.46 85.1401C68.58 85.2601 68.82 85.4402 68.94 85.5602C69.36 85.8602 69.72 86.1601 70.14 86.5201C70.62 86.6401 71.16 86.8202 71.64 87.0002C72.84 87.4202 74.1 87.9602 75.24 88.5002C76.44 89.1002 77.64 89.7001 78.84 90.2401C79.14 90.3601 79.44 90.5401 79.8 90.6002C79.86 90.6002 80.04 90.6602 80.1 90.6602C80.22 90.3602 80.4 90.1802 80.58 90.0002H80.64C80.94 90.2402 81 90.4801 80.64 90.7201C80.52 90.8401 80.28 90.8401 80.16 90.8401C80.1 91.0801 80.1 91.3202 80.1 91.5602C79.86 93.0002 79.74 94.5001 79.62 95.9401C80.28 96.6001 80.94 97.2602 81.54 97.8602C82.32 98.5802 83.04 99.5401 84 100.14V100.08C84.3 98.8802 84.66 97.5602 85.08 96.3602C85.38 95.5202 85.56 94.5602 85.92 93.6002C85.44 93.3002 84.9 92.9402 84.42 92.5802C83.7 91.9802 83.04 91.3802 82.5 90.7802C82.14 90.4202 81.54 89.5802 81 89.4002C81 89.4602 81.06 89.6401 81.24 89.6401C81.3 89.7001 81.12 89.8802 81 89.8802C80.76 89.7602 80.76 89.6402 80.76 89.4002C80.76 89.3402 80.88 89.2802 81 89.2802C81.66 89.2802 82.08 90.0001 82.5 90.4202C83.22 91.1401 84 91.9202 84.78 92.5802C85.2 92.9402 85.62 93.2402 86.1 93.4202C86.46 92.5802 86.94 91.7402 87.66 91.2002C87.78 91.0802 87.78 91.2602 87.66 91.3201C86.94 91.9202 86.58 92.7002 86.28 93.4802C87.6 94.2002 88.92 94.8002 90.24 95.4002C90.36 95.4602 90.54 95.5201 90.66 95.6401C89.7 93.8401 89.34 91.8002 88.14 90.1802C87 88.5002 85.56 87.0602 84.42 85.5002C83.04 83.7001 81.6 81.8402 80.1 80.1002C80.04 80.0401 80.22 79.8602 80.34 79.8602C81.84 81.6002 83.28 83.4002 84.66 85.2602C85.8 86.7602 87.18 88.2001 88.32 89.7001C88.8 90.4202 89.28 91.1401 89.64 91.9202C90.06 93.0001 90.42 94.0802 90.84 95.1602C90.96 95.4002 91.08 95.6402 91.2 95.8802C92.04 96.5402 92.64 97.3801 93.06 98.5201C93.12 98.5802 93.3 98.7602 93.36 98.8201C93.72 99.1202 94.02 99.5402 94.44 99.6602C94.5 99.6002 94.56 99.6002 94.56 99.6602V99.7201C94.56 99.7802 94.44 99.9601 94.32 99.8401C93.96 99.7201 93.72 99.4202 93.36 99.1802C93.3 99.1202 93.24 99.0601 93.12 98.9401C93.36 99.5401 93.6 100.44 93.12 100.68H93.06C93.06 100.62 93 100.56 93 100.44C93 100.38 93.06 100.32 93.12 100.32C93.12 100.2 93.06 100.02 93.06 99.9602C93 99.6602 92.94 99.4802 92.82 99.1802C92.76 99.0602 92.76 98.8802 92.7 98.7602C92.58 98.6402 92.46 98.5202 92.34 98.4002C91.74 97.7402 91.26 96.9602 90.9 96.1802C90.24 95.7002 89.46 95.4001 88.74 95.0401C87.9 94.6201 87 94.2601 86.22 93.8401C86.16 94.1401 85.98 94.3201 85.92 94.6202C85.56 95.5802 85.26 96.5402 84.96 97.5602C84.66 98.5202 84.48 99.4202 84.18 100.38C84.24 100.38 84.24 100.38 84.24 100.38L84.36 100.44C84.48 100.56 84.24 100.86 83.94 101.1C83.82 101.58 83.64 102.12 83.52 102.6C83.58 102.54 83.58 102.54 83.64 102.48C83.88 102.18 84.06 102 84.3 101.7C84.72 101.04 85.14 100.38 85.62 99.6602C86.04 99.0002 86.4 98.2802 86.76 97.6202C87.12 97.0201 87.54 96.6602 87.96 96.1802C88.02 96.1202 88.26 96.1202 88.08 96.1802C87.42 96.9002 86.88 97.6202 86.34 98.4602C85.98 99.1202 85.56 99.7802 85.14 100.5C84.72 101.22 84.18 101.88 83.7 102.54C83.64 102.6 83.58 102.78 83.4 102.84V102.9H83.46C83.46 103.14 83.46 103.26 83.34 103.38C83.34 103.38 83.1 103.62 83.1 103.44C83.1 103.32 83.16 103.14 83.16 103.02C83.04 103.14 82.86 103.32 82.68 103.44C82.68 103.44 82.56 103.5 82.56 103.44V103.8C82.56 103.74 82.62 103.68 82.68 103.68C82.74 103.68 82.74 103.68 82.8 103.68C82.92 103.56 83.1 103.32 83.16 103.26C83.28 102.9 83.4 102.54 83.52 102.18C83.58 101.94 83.64 101.76 83.64 101.52C83.58 101.52 83.58 101.52 83.52 101.52C83.52 101.52 83.52 101.52 83.46 101.52C82.5 101.04 81.9 100.14 81.18 99.4202C80.58 98.8201 79.98 98.2802 79.38 97.6802C79.32 98.2802 79.32 98.7602 79.26 99.3602C79.5 99.8402 79.68 100.32 79.86 100.74C80.22 101.76 80.46 103.14 81.24 103.92C81.24 103.86 81.3 103.86 81.36 103.8C81.42 103.68 81.78 103.38 81.96 103.5C82.2 103.56 81.96 103.86 81.9 103.92C81.96 103.86 81.84 103.98 81.84 104.04C81.78 104.1 81.78 104.16 81.72 104.28C81.78 104.28 81.78 104.34 81.84 104.34C82.14 104.46 81.54 105.06 81.24 105.12C81.12 105.36 80.88 105.6 80.58 105.72C80.82 106.02 81 106.38 81.3 106.68C81.36 106.74 81.18 106.92 81.06 106.92C80.76 106.62 80.46 106.26 80.34 105.9C80.28 105.9 80.28 105.84 80.28 105.78C79.86 105 79.62 104.1 79.44 103.26C79.38 103.26 79.32 103.32 79.32 103.32C79.26 104.04 79.2 104.7 79.08 105.42C79.02 105.72 79.02 106.08 78.96 106.44C79.32 107.22 80.46 108 81.24 108.12C81.3 108.12 81.18 108.36 81 108.36C80.28 108.3 79.32 107.7 78.84 106.98C78.78 107.7 78.78 108.36 78.9 109.02C78.96 108.96 79.14 108.9 79.14 108.96C79.14 109.08 79.14 109.2 79.14 109.32C79.38 109.38 79.56 109.44 79.8 109.38C79.86 109.38 79.74 109.62 79.68 109.62C79.56 109.62 79.32 109.62 79.2 109.56C79.2 109.56 79.2 109.56 79.2 109.62C79.2 109.68 79.08 109.86 78.96 109.74C78.9 109.68 78.9 109.5 78.84 109.44C78.06 109.08 77.4 108.3 77.28 107.52C77.28 107.46 77.52 107.28 77.52 107.4C77.64 108.06 78.18 108.78 78.84 109.14C78.78 108.72 78.78 108.18 78.78 107.7C78.78 107.4 78.78 107.1 78.84 106.86C78.78 106.74 78.72 106.56 78.72 106.44C78.72 106.38 78.84 106.32 78.96 106.32C78.96 105.96 79.02 105.66 79.08 105.3C79.14 104.82 79.2 104.22 79.2 103.74C78.54 104.1 78 104.7 77.4 104.88C76.26 105.36 75.12 105.72 73.92 106.2C71.52 107.22 69.12 107.88 66.66 108.6C65.58 108.96 64.5 109.44 63.42 109.8C62.34 110.22 61.2 110.58 60.12 110.94C57.9 111.66 55.56 112.38 53.28 113.04C51.06 113.64 48.84 114.18 46.62 114.72C45.42 115.02 44.16 115.2 43.08 115.74C42.06 116.16 41.28 116.88 40.44 117.42C40.08 117.66 39.78 117.72 39.42 117.84C38.58 118.2 38.76 118.86 39.06 119.52C39.18 119.88 39.3 120.24 39.36 120.6C39.48 121.08 39.72 121.62 39.96 122.1C40.38 123.12 40.92 123.9 41.7 124.74C42.42 125.52 43.08 126.48 43.86 127.26C44.58 128.04 45.24 128.94 45.96 129.72C46.74 130.5 47.76 131.1 48.78 131.58C49.74 131.94 50.64 132.42 51.42 133.08C51.78 133.38 52.2 133.74 52.56 133.92C52.86 134.04 52.92 134.22 52.98 134.58C52.98 134.64 52.74 134.82 52.74 134.7C52.68 134.1 52.02 133.98 51.66 133.62C50.64 132.66 50.22 132.3 49.68 131.94ZM91.2 96.9602C91.5 97.4402 91.8 97.9201 92.16 98.3401C92.16 98.4001 92.22 98.4002 92.28 98.4602C92.22 98.3402 92.16 98.1602 92.04 97.9802C91.86 97.6202 91.56 97.2602 91.2 96.9602ZM80.1 91.0201C80.16 91.0201 80.16 91.0201 80.22 91.0201C80.88 90.7201 80.34 90.5401 80.16 90.9002C80.16 90.8402 80.16 90.9002 80.1 91.0201ZM66.6 83.3401C67.08 83.9401 67.56 84.5402 67.98 85.2602C68.04 85.3202 68.04 85.3202 68.1 85.3802C68.4 85.0802 68.76 84.9002 69.06 84.6002C69 84.5401 68.82 84.5402 68.76 84.4802C68.1 84.1202 67.56 83.7602 66.84 83.4602C66.78 83.4602 66.72 83.3401 66.6 83.3401ZM65.04 82.6802C65.34 82.9802 65.64 83.3401 65.88 83.5201C66.3 83.9402 66.84 84.3002 67.26 84.6602C66.9 84.1802 66.54 83.6402 66.12 83.1602V83.1002C65.76 82.9802 65.4 82.8002 65.04 82.6802ZM63.9 81.4802C63.96 81.5402 64.02 81.6002 64.2 81.7201C64.56 81.3601 64.98 80.9402 65.34 80.5802C64.8 80.8802 64.38 81.1202 63.9 81.4802ZM61.98 83.1602C61.98 83.1602 62.04 83.1601 62.04 83.2201C62.16 83.2801 62.28 83.3402 62.4 83.4602C62.76 83.1602 63.06 82.8002 63.42 82.5002C63.3 82.3801 63.12 82.2601 63 82.1401C63 82.1401 63 82.1401 62.94 82.1401C62.7 82.5001 62.34 82.8002 61.98 83.1602ZM61.74 83.1002C61.74 83.1002 61.8 83.1002 61.8 83.1602C61.92 83.0402 62.16 82.8002 62.28 82.6802C62.22 82.7402 62.16 82.7402 62.04 82.8002C62.04 82.8601 61.86 82.9202 61.74 83.1002ZM58.08 86.5201C58.56 86.2201 59.1 85.8602 59.58 85.5602C60.54 84.9602 61.38 84.3601 62.22 83.5201C62.1 83.4601 61.92 83.4002 61.8 83.2802C60.6 84.4202 59.34 85.5001 58.08 86.5201ZM52.08 90.7201C52.08 90.7802 52.08 90.7802 52.08 90.7201C52.14 90.9601 55.08 89.0401 54.84 89.3401C55.44 88.8601 55.92 88.2602 56.52 87.7802L56.46 87.8401C54.96 88.8601 53.58 89.9402 52.08 90.7201ZM66.78 86.4002C66.12 86.0401 65.46 85.6802 64.74 85.2602C64.02 84.8402 63.3 84.2402 62.52 83.8201C61.68 84.6002 60.72 85.3202 59.7 85.9802C58.74 86.5802 57.78 87.0601 56.88 87.8401C56.22 88.4401 55.56 89.0401 54.96 89.6401C53.88 90.6001 52.74 91.0202 51.42 91.5002C51.36 91.5002 51.18 91.5601 51.18 91.4401V91.3802C51.18 91.3202 51.18 91.3202 51.18 91.2602C50.88 91.3802 50.58 91.5602 50.22 91.6802C49.14 92.1002 48.12 92.4001 46.98 92.6401C46.32 92.7001 45.78 92.8801 45.12 93.0002C45 93.0602 44.76 93.0602 44.52 93.0602H44.46C44.52 93.3002 44.52 93.4801 44.4 93.7201C44.4 93.7201 44.4 93.7202 44.34 93.7802C44.64 93.7802 44.82 93.7201 45.12 93.7201C46.08 93.6601 46.92 93.6602 47.88 93.6002C49.92 93.3002 51.78 92.7602 53.7 92.1002C57.54 90.7802 61.2 89.2801 64.86 87.5401C65.34 87.3001 65.82 87.0602 66.3 86.7602C66.18 86.7602 66 86.7602 65.94 86.8201C65.52 86.8801 64.14 86.9401 63.9 87.5401C63.9 87.6001 63.66 87.7802 63.66 87.6602C63.78 87.1802 64.5 86.9402 64.98 86.8802C65.64 86.5202 66.18 86.4602 66.78 86.4002ZM66.96 86.2201C67.02 86.1601 67.08 86.1002 67.26 85.9802C66.54 85.3802 65.82 84.8402 65.1 84.1802C64.62 83.7602 64.14 83.1602 63.66 82.6802C63.36 82.9802 63.06 83.2801 62.7 83.5201C63.48 84.0001 64.26 84.6002 65.1 85.0802C65.76 85.5002 66.42 85.8601 66.96 86.2201ZM67.56 86.4002C67.62 86.4002 67.68 86.4002 67.8 86.4002C67.68 86.3402 67.56 86.1602 67.44 86.1002C67.38 86.1602 67.32 86.1601 67.32 86.2201C67.32 86.2201 67.26 86.2202 67.26 86.2802C67.32 86.2802 67.38 86.3401 67.38 86.3401C67.44 86.4001 67.5 86.4002 67.56 86.4002ZM69.3 87.6002L69.24 87.5401C68.88 87.2401 68.46 86.9402 68.1 86.5802C67.98 86.5802 67.86 86.5802 67.74 86.5802C68.04 86.7002 68.22 86.9402 68.52 87.0602C68.7 87.2402 69 87.4802 69.3 87.6002ZM79.14 102.78C79.14 102.66 79.08 102.54 79.08 102.42C79.08 102.54 79.08 102.72 79.08 102.84C79.08 102.84 79.08 102.84 79.14 102.78ZM79.5 102.96H79.44C79.68 103.74 79.86 104.52 80.22 105.24C80.28 105.18 80.34 105.12 80.52 105C80.52 104.94 80.58 104.94 80.58 104.88C80.58 104.82 80.64 104.82 80.64 104.76C79.98 104.28 79.74 103.56 79.5 102.96ZM79.08 101.7C79.14 102.06 79.32 102.42 79.38 102.78H79.44C79.44 102.72 79.44 102.72 79.38 102.66C79.26 102.3 79.2 102 79.08 101.7ZM70.44 87.1802C71.76 88.2002 73.02 89.2201 74.16 90.4202C75.72 92.1002 77.16 93.9002 78.78 95.5201C78.9 95.6401 79.14 95.8801 79.26 96.0002C79.32 94.9202 79.5 93.7802 79.62 92.7002C79.68 92.2802 79.68 91.6201 79.86 91.1401C79.56 91.1401 79.26 91.0202 79.02 90.9002C77.22 90.1802 75.54 89.2201 73.86 88.4401C72.72 87.9601 71.58 87.5402 70.44 87.1802ZM79.08 99.0002C79.08 98.8802 79.08 98.7601 79.08 98.6401C79.08 98.2801 79.14 97.9202 79.14 97.5602C79.02 97.4402 78.84 97.2602 78.66 97.0802C76.92 95.2802 75.36 93.4202 73.68 91.5602C72.54 90.3602 71.28 89.2802 70.02 88.2602C70.32 88.6202 70.5 88.9801 70.8 89.3401C71.52 90.3601 72.24 91.3801 72.9 92.3401C73.5 93.3601 73.92 94.4401 74.58 95.3401C74.94 95.8201 75.42 95.9402 75.9 96.1802C76.26 96.4202 76.5 96.8402 76.74 97.2002C76.98 97.5602 77.16 97.8602 77.4 98.1602C77.52 97.9202 77.82 97.8002 78 97.8602C78.36 98.0402 78.78 98.4602 79.08 99.0002ZM69.36 63.2402C69.3 63.2402 69.06 63.4802 69.12 63.4802C69.6 63.6002 69.96 64.2001 70.26 64.5602C70.32 64.6201 70.32 64.6202 70.38 64.6802C70.5 65.2802 70.8 65.7602 71.04 66.2402C71.4 67.0202 71.7 67.7402 72 68.6402C72.24 69.4202 72.36 70.2002 72.6 71.0402C72.72 71.7002 73.2 72.4202 73.08 73.1402C73.08 73.2002 73.32 73.0801 73.32 73.0201C73.32 72.3001 72.96 71.5801 72.84 70.9201C72.6 70.1401 72.48 69.3601 72.24 68.5201C72 67.7401 71.64 67.0202 71.4 66.2402C72.06 67.4402 72.72 68.6402 72.96 69.9601C72.96 70.0201 73.2 69.9002 73.2 69.8402C72.96 68.4602 72.24 67.2602 71.64 66.0002C71.34 65.5202 71.04 64.9802 70.8 64.5602C70.74 64.3202 70.74 64.2001 70.74 63.9601C70.74 63.9002 70.5 64.0202 70.5 64.0802C70.5 64.0802 70.5 64.0802 70.5 64.1402C70.14 63.7202 69.84 63.3002 69.36 63.2402ZM61.26 123.72C60.66 123.78 59.7 123.84 59.4 124.44C59.34 124.56 59.52 124.44 59.64 124.38C59.88 124.02 60.84 123.96 61.14 123.96C61.62 123.9 62.16 123.96 62.64 123.9C63.42 123.78 64.38 123.54 65.1 123.18C65.16 123.18 65.34 123.06 65.22 122.94C65.1 122.82 65.16 122.88 64.92 122.88C64.86 122.88 64.68 123.12 64.8 123.12C64.8 123.12 64.8 123.12 64.86 123.12C64.38 123.36 63.78 123.48 63.3 123.6C62.58 123.72 61.98 123.72 61.26 123.72ZM50.4 164.16C50.46 164.22 50.7 164.04 50.64 163.92C50.22 163.62 49.68 163.5 49.26 163.26C48.6 162.9 47.94 162.54 47.4 162.12C47.34 162.06 47.1 162.24 47.16 162.36C47.58 162.72 48.12 163.08 48.66 163.38C48.96 163.5 49.26 163.68 49.5 163.8C49.74 163.86 50.1 163.92 50.4 164.16ZM50.58 165.18C50.52 165.18 50.52 165.12 50.52 165.12C50.46 165.12 50.22 165.24 50.28 165.36C51.06 165.72 51.96 165.78 52.74 165.48C52.8 165.48 52.98 165.24 52.8 165.24C52.02 165.54 51.24 165.54 50.58 165.18ZM33.6 67.8601C33.36 67.8601 33.24 67.7402 33 67.7402C32.76 67.7402 32.58 67.8001 32.4 67.8601C32.16 67.9201 31.98 68.1002 31.8 68.2802C31.74 68.3402 31.56 68.7002 31.86 68.6402C32.1 68.5802 32.22 68.5201 32.46 68.5201C32.7 68.5801 32.82 68.6402 33.12 68.6402C33.36 68.6402 33.6 68.4001 33.72 68.2201C33.78 68.1001 33.84 67.8601 33.6 67.8601ZM87.54 103.02C86.82 103.62 86.04 104.1 85.32 104.58C84.6 105.06 83.88 105.6 83.16 106.02C82.74 106.26 82.2 106.38 81.78 106.5C81.36 106.62 80.7 107.1 80.28 106.86C80.22 106.86 79.98 106.98 80.04 107.1C80.4 107.22 80.52 107.16 80.88 107.04C81.36 106.8 81.96 106.62 82.44 106.38C83.28 106.02 84 105.42 84.84 104.94C85.8 104.28 86.7 103.62 87.6 103.02C88.26 102.54 89.04 102.18 89.64 101.52C89.76 101.4 89.58 101.4 89.52 101.52C88.92 102.06 88.2 102.48 87.54 103.02ZM69.12 117.24C67.74 117.36 66.48 117.3 65.1 117.3C65.04 117.3 64.86 117.54 64.98 117.54C66.42 117.54 67.86 117.54 69.3 117.42C69.96 117.36 70.62 117.36 71.22 117.3C71.7 117.24 72.06 117.06 72.54 116.88C72.6 116.88 72.78 116.64 72.6 116.64C72 116.88 71.52 117 70.86 117.06C70.32 117.12 69.72 117.18 69.12 117.24ZM115.02 100.2C115.02 100.26 115.02 100.26 114.96 100.32C114.96 100.56 114.6 100.74 114.48 100.92C113.46 101.52 112.44 101.94 111.3 102.12V102.18C111.3 102.66 111.3 103.14 111.3 103.56C111.36 104.16 111.54 104.76 111.54 105.36C111.54 105.96 111.42 106.68 111.48 107.22C111.6 108.36 111.36 109.44 111.06 110.52C110.82 111.36 110.46 112.26 109.92 112.98C108.78 114.42 106.92 115.38 105.3 116.22C103.14 117.42 100.74 118.08 98.88 119.76C98.04 120.54 97.32 121.44 96.48 122.28C96 122.88 95.52 123.42 95.16 124.08C94.86 124.56 94.44 125.28 94.44 125.88C94.44 125.94 94.2 126.12 94.2 126C94.2 124.98 94.98 123.84 95.58 123.06C96.24 122.1 97.02 121.26 97.8 120.48C98.46 119.76 99.18 119.1 99.96 118.62C100.8 118.02 101.76 117.66 102.6 117.3C103.8 116.82 104.88 116.16 106.08 115.5C107.1 114.9 108.12 114.36 108.96 113.58C109.98 112.62 110.4 111.48 110.7 110.22C110.82 109.56 111.12 108.78 111.12 108.12C111.12 107.64 111.06 107.28 111.06 106.74C111.18 105.54 110.82 104.34 110.82 103.14C110.76 103.38 110.76 103.62 110.76 103.86C110.76 103.92 110.52 104.1 110.52 103.98C110.58 103.38 110.64 102.9 110.82 102.3C110.82 102.24 110.82 102.18 110.82 102.06C109.68 102.36 108.42 102.48 107.28 102.48C106.86 102.48 106.44 102.48 106.08 102.48C105.66 103.26 105.3 104.04 104.94 104.88C104.16 106.74 103.2 108.48 102.3 110.28C103.44 109.44 104.52 108.48 105.48 107.34C105.96 106.74 108.12 104.1 107.16 103.38C107.1 103.32 107.28 103.14 107.4 103.14C108.24 103.8 106.98 105.54 106.56 106.14C105.54 107.7 104.1 109.08 102.6 110.22C102.54 110.28 102.36 110.34 102.3 110.46C102.06 110.88 101.88 111.3 101.58 111.78C100.38 114.06 99.18 116.4 97.86 118.56C96.54 120.66 94.86 122.4 93.18 124.08C92.34 124.92 91.62 125.82 90.72 126.66C89.82 127.5 88.86 128.34 87.84 129.18C86.88 129.96 86.04 130.68 85.02 131.4C84.06 132.12 82.98 132.72 82.02 133.26C80.94 133.92 79.86 134.7 78.72 135.36C77.58 136.02 76.44 136.5 75.24 137.1C74.88 137.22 74.52 137.46 74.22 137.58C74.28 137.82 74.34 138 74.52 138.24C75.54 137.46 76.68 136.86 77.4 136.5C81.12 134.94 86.82 134.94 88.26 130.32C88.32 130.02 89.22 129.54 89.1 129.9C88.32 132.48 86.1 134.16 83.64 135.18C81.96 135.9 80.16 136.2 78.54 136.68C77.52 136.98 76.62 137.34 75.72 137.88C75.48 138 75.12 138.3 74.76 138.54C75.36 139.2 76.14 139.74 76.8 140.22C78.18 141.18 79.62 141.9 81 142.74C83.46 144.18 85.92 145.56 87.9 147.48C89.94 149.34 91.98 151.2 94.02 153.18C96.06 155.1 97.86 157.2 99.48 159.54C100.26 160.62 101.04 161.64 101.7 162.78C101.76 162.66 101.82 162.48 102 162.36C102.3 162 103.02 161.94 102.48 162.48C102.06 162.96 102.84 164.52 103.14 164.94C103.44 165.36 103.74 165.72 104.16 166.08C104.76 166.5 105.12 166.68 105.84 166.5C106.2 166.44 105.54 167.22 105.24 167.28C105.18 167.28 105.12 167.28 105 167.28C104.58 167.58 103.98 167.7 103.56 167.76C102.24 168.06 100.92 168.12 99.6 168.18C98.22 168.24 96.78 168.18 95.4 168.24H95.34C95.64 168.72 96.66 169.26 96.9 169.44C97.38 169.8 98.4 170.22 98.46 170.94C99.18 171 100.02 170.94 100.38 170.22C100.62 169.8 100.68 169.26 100.74 168.84C100.74 168.78 100.98 168.6 100.98 168.72C100.86 169.44 100.68 170.4 100.14 170.88C99.72 171.24 99.06 171.3 98.46 171.24C98.34 171.54 97.68 171.96 97.68 171.66C97.68 171.3 97.38 171 97.02 170.7C96.72 170.58 96.36 170.34 96.06 170.22C95.46 169.92 94.92 169.74 94.26 169.62C93.6 169.56 93.06 169.38 92.46 169.26C92.34 169.26 91.86 169.2 91.5 169.14C91.44 169.14 91.44 169.14 91.44 169.14C91.5 169.2 91.32 169.38 91.2 169.38L91.14 169.32C91.14 169.32 91.14 169.26 91.2 169.26C89.82 169.68 88.38 170.04 87 170.28C86.64 170.34 86.22 170.4 85.86 170.4L85.8 170.46C86.22 170.4 86.76 170.4 87.12 170.76C87.18 170.82 87 171 86.88 171C86.52 170.64 86.04 170.64 85.5 170.7C85.44 170.76 85.26 170.82 85.2 170.94C84.78 171.24 84.42 171.42 84 171.66C83.04 172.14 82.14 172.38 81.06 172.38C80.82 172.38 80.94 172.26 81.06 172.02C80.7 172.14 80.34 172.32 80.04 172.44C79.98 172.5 79.92 172.5 79.74 172.56C79.26 172.86 78.78 173.16 78.3 173.4C77.94 173.64 77.58 173.76 77.16 173.82C77.04 173.88 76.86 173.88 76.68 173.94C76.32 174 75.96 174.06 75.6 174.06C75.36 174.06 75.18 174.12 74.94 174.12C74.28 174.18 73.56 174.18 72.84 174.18C72.78 174.18 72.9 173.94 72.96 173.94C73.2 173.94 73.44 173.94 73.68 173.94C73.38 173.88 73.2 173.88 72.9 173.82C72.06 173.76 69.78 173.34 69.72 174.78C69.72 174.84 69.48 175.02 69.48 174.9C69.54 173.04 72.3 173.52 73.44 173.7C74.16 173.76 74.82 173.94 75.54 173.82C76.02 173.76 76.62 173.7 77.1 173.52C77.1 173.52 77.1 173.52 77.16 173.52C77.88 173.28 78.54 172.8 79.2 172.44C79.32 172.38 79.5 172.32 79.68 172.2C80.1 171.96 80.52 171.78 81 171.6C81.06 171.6 81.06 171.6 81.06 171.6H81.12C81.24 171.54 81.36 171.48 81.42 171.48C81.48 171.48 81.54 171.48 81.66 171.48C82.44 171.24 83.22 171.06 84.06 170.82C84.36 170.7 84.66 170.52 84.9 170.34C81.6 170.46 78.3 169.62 75 169.62C74.94 169.62 75.06 169.38 75.12 169.38C78.48 169.38 81.9 170.22 85.26 170.1C85.56 169.86 85.74 169.68 86.04 169.5C86.04 169.44 85.98 169.2 85.8 169.08C85.74 169.08 85.74 169.14 85.68 169.14C85.26 169.38 85.08 169.44 84.66 169.5C84.3 169.56 84.96 168.78 85.26 168.72C85.32 168.72 85.5 168.66 85.56 168.66C85.5 168.6 85.44 168.54 85.44 168.54C85.14 168.18 84.84 167.82 84.6 167.46C84 166.8 83.4 166.14 82.74 165.6C81.78 164.76 80.88 163.86 79.92 162.96C80.04 163.2 80.16 163.32 80.22 163.56C80.64 164.28 81 165 81.3 165.78C81.54 166.38 83.1 169.74 81.54 169.68C81.42 169.68 81.6 169.44 81.66 169.44C82.62 169.44 81 165.72 80.82 165.24C80.34 164.16 79.74 162.72 78.72 161.88C79.02 162.9 79.38 163.98 79.5 165.06C79.62 166.02 79.62 166.92 79.5 167.82C79.5 168.12 79.44 168.42 79.26 168.6L79.02 168.96C79.02 169.32 79.68 169.38 79.98 169.56C80.04 169.62 79.86 169.8 79.74 169.8C79.5 169.68 78.9 169.56 78.72 169.32C78.66 169.08 79.02 168.72 79.02 168.54C79.32 167.7 79.26 166.62 79.14 165.72C79.08 164.64 78.78 163.62 78.48 162.54C78.42 162.24 78.24 161.88 78.18 161.58C77.82 161.28 77.4 161.1 76.98 160.98C76.92 160.98 77.04 160.74 77.22 160.74C77.34 160.74 77.52 160.8 77.64 160.86C77.16 160.38 76.62 159.84 76.14 159.36C76.26 159.66 76.5 160.02 76.62 160.32C77.1 161.46 77.34 162.72 77.4 163.92C77.46 165.06 77.34 166.14 77.76 167.22C77.82 167.22 77.88 167.22 77.88 167.28C77.88 167.4 77.88 167.52 77.94 167.64C77.94 167.64 77.94 167.7 78 167.7C78 167.7 78 167.7 78 167.76C78.06 168 77.28 168.6 77.22 168.42C76.5 167.1 76.62 165.9 76.56 164.52C76.44 162.72 75.96 161.16 75.06 159.6C74.34 158.46 73.56 157.44 72.9 156.3C72.3 155.82 71.7 155.22 71.1 154.74C70.86 154.86 70.68 155.16 70.62 155.22C70.38 155.34 70.2 155.46 69.96 155.58C69.48 155.82 68.94 156 68.46 156.24C67.38 156.72 66.3 157.26 65.22 157.68C64.08 158.1 62.76 158.16 61.62 158.52C61.02 158.64 60.48 158.88 59.88 159.12C59.46 159.24 59.16 159.48 58.74 159.48C58.68 159.48 58.8 159.24 58.98 159.24C59.46 159.3 60.36 158.88 60.84 158.64C61.26 158.52 61.8 158.34 62.22 158.22C63.36 157.92 64.5 157.8 65.7 157.44C66.78 157.02 67.86 156.48 68.94 156C69.42 155.76 69.96 155.64 70.38 155.34C70.68 155.22 70.98 154.98 71.22 154.74C71.16 154.68 71.1 154.62 70.98 154.62C69.66 153.54 68.4 152.46 66.96 151.5C66.54 151.2 66.12 151.02 65.76 150.72C64.44 150.24 63.12 149.7 61.8 149.22C61.14 148.92 60.48 148.62 59.88 148.38C60.36 148.98 60.84 149.7 61.32 150.3C61.68 150.72 62.16 151.14 62.1 151.8C62.1 151.86 61.86 152.04 61.86 151.92C61.92 151.26 61.26 150.72 60.9 150.18C60.48 149.52 60.06 148.86 59.46 148.32C59.46 148.32 59.46 148.26 59.52 148.2C58.92 147.9 58.38 147.72 57.78 147.48C56.7 147.06 55.5 146.82 54.48 146.28C53.88 145.92 53.34 145.5 52.8 144.9C51.48 144.24 50.28 143.52 49.08 142.74C48 142.02 46.5 141.06 46.2 139.74C46.2 139.68 46.44 139.5 46.44 139.62C46.56 140.58 47.4 141.18 48 141.78C48.78 142.38 49.56 142.92 50.46 143.46C51.12 143.82 51.78 144.18 52.38 144.54C52.26 144.3 52.14 144.12 52.08 143.88C51.96 143.28 52.02 142.74 51.84 142.14C51.72 141.48 51.48 140.82 51.36 140.22C51.12 139.44 50.22 137.76 50.4 136.92C50.52 136.44 51.12 136.2 51.54 135.9C51.78 135.78 51.9 135.66 52.14 135.54C52.2 135.06 52.38 134.58 52.56 134.16C52.44 134.22 52.26 134.28 52.08 134.4C51.3 134.76 50.58 135.24 49.86 135.6C49.08 135.96 48.48 136.56 47.7 136.92C47.64 136.98 47.46 136.98 47.4 137.04C46.44 137.7 46.8 137.82 47.04 138.42C47.1 138.72 47.1 139.02 47.1 139.38C47.1 139.44 46.86 139.62 46.86 139.5C46.86 139.26 46.92 139.02 46.86 138.78C46.8 138.48 46.74 138.48 46.62 138.3C46.56 138 46.56 137.82 46.68 137.58C47.04 136.98 47.82 136.8 48.36 136.44C49.74 135.48 51.3 134.88 52.68 133.92C52.74 133.8 52.92 133.68 52.98 133.56C53.1 133.44 53.22 133.56 53.04 133.62C53.04 133.62 53.04 133.62 52.98 133.68C53.22 133.56 53.46 133.32 53.7 133.08C54.42 132.48 55.26 132.12 56.1 131.58C56.88 130.98 57.6 130.44 58.38 129.78C59.4 129 60.48 128.28 61.56 127.5C61.44 127.2 61.26 127.02 60.96 126.84C60.66 126.6 60.3 126.42 60 126.18C59.88 126.12 59.76 126.06 59.7 125.94C59.1 125.88 58.62 125.64 58.02 125.58C57.96 125.58 58.08 125.34 58.14 125.34H58.2C58.5 125.4 58.8 125.46 59.04 125.58C58.68 125.28 58.32 125.1 58.02 124.74C57.72 124.44 56.88 123.54 57.66 123.24C57.78 123.18 57.66 123.36 57.6 123.48C57.54 123.48 58.08 124.32 58.2 124.44C58.5 124.86 58.92 125.16 59.34 125.46C59.46 125.58 59.7 125.7 59.82 125.82C60.48 125.88 61.14 125.82 61.74 125.7C62.52 125.46 63.3 125.22 64.02 124.98C64.14 124.92 64.02 125.1 63.96 125.22C63.66 125.28 63.54 125.46 63.24 125.52C62.58 125.64 61.92 125.94 61.32 126.12C60.96 126.18 60.54 126.24 60.18 126.24C60.42 126.36 60.54 126.48 60.78 126.6C61.2 126.9 61.44 127.2 61.74 127.62C62.22 127.26 62.76 126.9 63.24 126.48C64.8 125.16 66.36 123.84 67.68 122.22C68.52 121.2 69.42 120.3 70.26 119.28C69.84 119.52 69.42 119.64 68.94 119.7C67.74 120.06 66.48 120.3 65.28 120.36C63.96 120.42 62.64 120.24 61.38 119.88C60.72 119.64 60.06 119.46 59.52 119.1C59.22 118.98 59.04 118.86 58.74 118.74C57 119.58 55.26 120.48 53.64 121.32C52.08 122.1 50.52 123.18 48.84 123.6C48.78 123.6 48.9 123.36 48.96 123.36C50.04 123.06 51.06 122.52 52.08 121.98C53.04 121.5 53.94 120.96 54.9 120.48C56.1 119.82 57.42 119.16 58.62 118.56C58.5 118.5 58.32 118.44 58.26 118.32C58.2 118.26 58.38 118.08 58.5 118.08C58.62 118.14 58.8 118.2 58.92 118.32C59.34 118.08 59.88 117.9 60.3 117.66C61.98 116.88 63.66 116.16 65.46 115.74C66.48 115.5 67.5 115.38 68.4 115.26C68.7 115.2 68.88 115.2 69.18 115.14C69.24 115.08 69.24 115.08 69.3 115.08C69.36 115.08 69.54 115.08 69.6 115.08C69.96 115.02 70.32 115.02 70.68 115.02C70.8 115.02 71.04 114.96 71.16 114.96C71.76 114.84 72.3 114.66 72.9 114.6C72.96 114.6 72.84 114.84 72.78 114.84C72.12 114.9 71.58 115.14 70.98 115.26H70.92C70.86 115.32 70.8 115.38 70.68 115.5C70.56 115.62 70.44 115.5 70.62 115.44C70.68 115.38 70.5 115.38 70.32 115.38C70.2 115.38 70.02 115.38 69.9 115.38C69.78 115.38 69.54 115.44 69.42 115.44C68.94 115.5 68.34 115.56 67.86 115.68C66.84 115.8 65.82 116.04 64.86 116.28C62.94 116.88 61.02 117.66 59.16 118.56C59.46 118.62 59.76 118.8 59.94 118.92C60.42 119.22 60.96 119.4 61.44 119.58C62.58 119.94 63.84 120.24 65.04 120.24C66.24 120.24 67.5 120.12 68.7 119.76C69.36 119.64 70.02 119.4 70.62 119.1C71.1 118.62 71.58 118.02 72 117.54C72.84 116.52 73.74 115.38 74.58 114.36C74.46 114.3 74.22 114.06 74.16 113.94C74.1 113.88 74.04 113.82 74.04 113.7C72.96 113.4 72 112.74 71.22 111.96C71.16 111.9 71.34 111.72 71.46 111.72C72.18 112.38 72.96 112.92 73.86 113.28C73.26 112.5 73.02 111.54 73.02 110.52C73.02 110.46 73.26 110.28 73.26 110.4C73.26 110.64 73.26 110.76 73.32 111C73.38 110.94 73.44 110.94 73.44 110.94C73.44 111.54 74.1 111.96 74.46 112.26C74.88 112.62 75.54 112.62 75.96 112.98C76.44 112.38 77.04 111.84 77.52 111.3C76.5 111.18 75.78 110.1 75.72 109.08C75.72 109.02 75.96 108.84 75.96 108.96C75.96 109.98 76.68 111.06 77.7 111.18C78.48 110.4 79.38 109.68 80.34 109.08C80.64 108.96 80.94 108.72 81.12 108.6C81.18 108.54 81.18 108.54 81.24 108.48C81.54 108.12 81.9 107.82 82.26 107.52C82.86 106.92 83.64 106.2 84.48 106.14C84.54 106.14 84.42 106.38 84.36 106.38C83.34 106.44 82.44 107.52 81.78 108.24C81.72 108.3 81.66 108.36 81.66 108.48C82.86 107.7 84.12 106.92 85.38 106.2C86.34 105.72 87.3 105.18 88.26 104.7C88.92 104.34 89.46 104.1 90.18 104.1C90.18 104.1 90.24 104.1 90.18 104.16C90.24 104.16 90.3 104.1 90.42 104.1C92.1 103.38 93.78 103.26 95.58 103.14C97.68 103.14 99.6 103.02 101.7 102.66C101.82 102.66 101.94 102.6 102.06 102.6C101.46 102.48 100.98 102.3 100.5 101.94C100.26 101.82 100.98 100.98 101.28 101.22C102.06 101.82 103.14 101.88 104.1 102C104.22 102 104.4 102.06 104.52 102.06C104.58 102.06 104.64 102.06 104.76 102C104.82 102 104.88 102 104.88 102C105 101.94 105.12 101.88 105.24 101.88C105.66 101.76 106.02 101.64 106.44 101.58C106.56 101.58 106.68 101.52 106.8 101.52C106.8 101.52 106.86 101.52 106.86 101.46C106.98 101.22 107.1 100.98 107.22 100.74V100.68C107.22 100.62 107.28 100.62 107.28 100.56C107.64 99.7202 108 98.8202 108.3 97.9802C109.14 95.5202 109.44 92.9402 109.62 90.3002C109.62 89.7001 109.62 89.2201 109.62 88.6201C108.84 87.4801 107.82 86.4602 106.8 85.5002C106.44 85.1402 106.08 84.7802 105.66 84.4802C102.84 84.3602 99.96 81.7201 98.16 79.9202C97.92 79.6801 98.76 78.9602 98.94 79.2001C100.32 80.5802 102.24 82.3802 104.34 83.1602C103.98 82.8002 103.68 82.4402 103.32 82.0802C102.9 81.7802 102.36 81.4801 101.94 81.1201C100.02 79.5602 98.1 77.8802 96.12 76.4402C94.08 75.0002 92.22 73.3202 90.24 71.8802C88.32 70.4402 86.34 69.0602 84.24 67.8601C82.32 66.7201 80.28 65.7002 78.42 64.3802C76.38 63.0002 74.58 61.2601 72.66 59.7601C72.24 59.4601 71.88 59.1001 71.46 58.7402C70.38 58.5002 69.3 58.3202 68.22 58.0802C66.54 57.7202 64.98 57.6002 63.24 57.7802C62.58 57.8402 61.92 57.9002 61.38 58.1402C61.02 58.5002 60.72 58.8602 60.42 59.2802C60.3 59.4002 60.18 59.6401 60.06 59.7601C60.3 59.7001 60.42 59.7601 60.18 60.0601C60.6 59.8201 61.14 59.6402 61.62 59.5802C63.54 59.2802 65.64 59.5201 67.68 59.5201C68.1 59.5201 67.38 60.3001 67.08 60.3001C66.66 60.3001 66.24 60.3001 65.76 60.3001C65.76 60.3601 65.7 60.4202 65.64 60.5401C65.52 60.7801 65.28 60.9001 65.04 61.0201C64.62 61.3801 64.26 61.6802 63.84 62.0402C63.78 62.1002 63.72 62.1001 63.72 62.1601C62.76 62.8202 61.8 63.1802 60.78 63.6002C60.12 63.9002 59.4 64.0801 58.86 64.5602C58.56 64.8001 58.38 65.0402 58.08 65.2802C57.96 65.4002 57.6 65.6402 57.48 65.8802C57.48 65.9402 57.18 66.1202 57.24 65.9402C57.36 65.7002 57.48 65.6401 57.66 65.5201C58.02 65.2201 58.32 64.8001 58.74 64.5002C58.8 64.4402 58.86 64.4402 58.98 64.3802C58.92 64.4402 58.74 64.5002 58.68 64.5002C57.66 65.1002 56.88 65.9402 56.04 66.7802C55.32 67.5602 54.6 68.3402 53.88 69.2402C52.68 70.8002 51.36 72.1801 49.92 73.5602C48.96 74.4002 48.12 75.2402 46.98 75.6002C47.34 75.6002 47.7 75.6601 48.06 75.7201C48.54 75.4202 49.02 75.0602 49.44 74.6402C51 73.2002 52.68 71.7601 54.24 70.3201C54.96 69.6601 55.68 68.9402 56.4 68.2802C57.12 67.6202 57.96 67.0802 58.8 66.4802C59.58 65.8802 60.48 65.3402 61.26 64.7402C61.62 64.4402 61.98 64.2601 62.34 64.0201C62.64 63.9001 62.94 63.7201 63.18 63.6601C63.18 62.8202 64.26 62.4601 64.92 62.2201C65.58 62.1001 66.3 62.1001 66.96 62.1601C67.68 62.2801 68.7 62.5202 69.36 62.9402C69.42 62.9402 69.3 63.0602 69.3 63.0602C69.18 63.1801 69.18 63.1801 68.94 63.3601C68.82 63.4201 68.82 63.3002 68.94 63.2402C69.24 63.1202 68.28 62.8201 68.28 62.8201C67.98 62.7601 67.68 62.5801 67.5 62.5201C66.9 62.4001 66.3 62.2802 65.7 62.2802C64.98 62.2802 63.48 62.5802 63.48 63.4802C63.6 63.4202 63.72 63.3602 63.78 63.1802C63.84 63.1202 64.08 63.1202 63.9 63.1802C63.42 63.7802 62.52 63.9001 61.86 64.3201C61.02 64.9201 60.12 65.5202 59.34 66.1802C58.38 66.8402 57.48 67.5002 56.58 68.2802C55.8 69.0002 55.08 69.7202 54.36 70.4402C53.52 71.2202 52.62 71.9401 51.78 72.6602C51 73.3801 50.22 74.1601 49.38 74.8201C49.02 75.1201 48.72 75.3002 48.36 75.6002C48.42 75.6002 48.48 75.6601 48.66 75.6601C49.26 75.9002 49.62 76.3202 50.16 76.5002C50.16 76.4402 50.4 76.2602 50.4 76.3802C50.46 76.4402 50.46 76.5001 50.52 76.6201C50.58 76.6801 50.4 76.8602 50.28 76.8602C49.62 76.8002 49.26 76.4402 48.78 76.1402C48.54 76.0202 48.36 75.9002 48.12 75.8402C47.76 76.0802 47.46 76.2602 47.1 76.4402C47.76 77.2201 48.18 78.3002 48.6 79.2602C48.6 79.3202 48.54 79.3801 48.48 79.5002C48.42 79.5002 48.42 79.5002 48.36 79.5602C48.24 79.5602 48.36 79.5001 48.42 79.4401C48 78.4801 47.58 77.4002 46.92 76.6201C46.14 76.9801 45.24 77.1002 44.52 77.5802C44.4 77.6402 44.4 77.5202 44.52 77.4602C45.12 77.0402 45.84 76.9802 46.56 76.6802C46.62 76.6202 46.8 76.6202 46.86 76.5602C46.5 76.1401 46.02 75.7802 45.42 75.5402C44.46 75.1802 43.38 75.1202 42.42 74.8802C41.4 74.6402 40.5 74.1602 39.48 74.0402C39.42 74.0402 39.54 73.8001 39.72 73.8001C39.84 73.8001 40.02 73.8601 40.14 73.8601C39.78 73.3801 39.66 72.6601 39.3 72.1201C39.06 71.8201 38.94 71.4601 38.7 71.1602C38.46 70.9201 38.22 70.8001 38.04 70.5002C37.92 70.2002 38.7 69.5402 38.82 69.7802C38.94 70.0802 39.3 70.2002 39.54 70.5002C39.78 70.8001 39.9 71.1002 40.14 71.3402C40.5 71.9402 40.74 72.7201 41.16 73.2002C41.28 73.3202 40.92 73.6801 40.68 73.8601C41.34 74.1001 42 74.3401 42.72 74.5201C43.8 74.7601 44.94 74.8202 45.96 75.2402C46.08 75.3002 46.26 75.3602 46.38 75.4802C46.44 75.4202 46.44 75.4202 46.5 75.4202C47.82 75.3601 48.72 74.7001 49.68 73.9201C50.52 73.1401 51.42 72.4201 52.2 71.5201C53.64 70.0801 54.72 68.3402 56.16 66.8402C55.86 67.0802 55.38 67.3202 55.32 67.5602C55.26 67.8601 54.36 68.3402 54.48 67.9802C54.84 66.9002 56.22 66.3001 56.94 65.4601C57.6 64.6801 58.38 63.5402 58.8 62.5802C58.92 62.2802 59.04 62.1002 59.1 61.8001C59.1 61.6802 59.16 61.5001 59.22 61.3201C58.14 62.4601 57.06 63.7201 55.98 64.9201C54.84 66.1201 53.46 67.8001 51.78 68.2201C51.3 68.3401 51.84 67.5602 52.14 67.5002C53.94 67.0202 55.5 64.7401 56.7 63.4201C56.94 63.1201 57.18 62.8202 57.42 62.5802C57.42 62.2202 57.54 61.8601 57.72 61.4401C57.84 61.0201 57.96 60.6602 58.14 60.2402C58.5 59.2801 59.22 58.4401 59.7 57.6601C60.3 56.8801 60.84 56.1001 61.62 55.5001C63.12 54.3601 65.1 53.7001 66.9 54.6601C67.86 55.1401 68.64 55.8601 69.48 56.4601C69.9 56.8201 70.32 57.1202 70.8 57.4802C71.76 57.6002 72.6 57.8402 73.56 58.0802C74.88 58.3802 76.38 58.5601 77.46 59.1601C77.82 59.2801 77.04 59.8801 76.8 59.9401C76.68 59.9401 76.5 59.9401 76.32 59.9401C76.2 59.9401 76.2 59.8202 76.26 59.6402C75.18 59.2201 73.86 58.9801 72.78 58.8001C72.66 58.8001 72.48 58.7402 72.36 58.7402C72.42 58.8001 72.48 58.8602 72.6 58.9802C74.64 60.5402 76.56 62.3402 78.66 63.9002C80.58 65.2801 82.74 66.3601 84.78 67.5602C86.94 68.8801 89.04 70.3201 91.02 71.8201C93.12 73.3801 95.1 75.0602 97.2 76.5602C99.24 78.0602 101.1 79.8602 103.2 81.3602C103.08 81.1202 102.9 80.8801 102.72 80.7001C102.66 80.6402 102.84 80.4602 102.96 80.4602C103.32 80.7002 103.56 80.8802 103.8 81.1802C103.86 81.2402 103.68 81.4202 103.56 81.4202C103.56 81.4202 103.56 81.4202 103.5 81.3602C103.56 81.4202 103.62 81.6002 103.74 81.6602C103.8 81.7202 103.8 81.7202 103.86 81.7802C104.82 82.3802 105.78 82.8602 106.74 83.4602C106.98 83.4602 107.16 83.4602 107.46 83.4002C107.7 83.4002 107.52 83.6401 107.4 83.8201C107.88 84.1201 108.36 84.4802 108.78 84.9002C109.62 85.7402 109.98 87.0002 110.1 88.2001C110.46 88.6802 110.76 89.2201 111.06 89.7001C112.02 91.5602 112.38 93.6002 112.86 95.5802C113.22 96.9602 113.58 98.9402 114.72 99.9602C114.72 99.9602 114.72 99.9602 114.78 99.9602C114.84 99.9002 114.9 99.8402 114.9 99.9002C114.9 99.9602 114.96 100.14 115.02 100.2ZM46.44 75.5402C46.74 75.7802 46.92 75.9602 47.16 76.2001C47.52 76.0802 47.82 75.8401 48.12 75.7201C47.58 75.5401 46.98 75.5402 46.44 75.5402ZM59.82 61.2601C59.58 61.6801 59.46 62.2201 59.22 62.7001C58.74 63.5401 58.2 64.5001 57.54 65.2201C58.38 64.4401 59.34 63.8401 60.48 63.4201C60.78 63.3001 61.14 63.1801 61.44 63.0602C62.1 62.7601 62.82 62.5801 63.36 62.2201C63.48 62.1601 63.6 62.1002 63.72 61.9802C63.96 61.8602 64.14 61.6801 64.32 61.5601C64.68 61.2601 65.4 60.5402 64.98 60.4802C64.92 60.4802 65.04 60.2402 65.22 60.2402C65.58 60.3001 65.46 60.6001 65.16 60.9601C65.22 60.9001 65.28 60.8401 65.4 60.7201C65.46 60.6601 65.52 60.6601 65.64 60.6001C65.88 60.4801 66 60.2401 66.06 60.0001C64.86 60.0001 63.66 60.0001 62.46 60.0001C61.38 60.0601 60.36 60.3601 59.82 61.2601ZM67.8 56.4001C67.44 56.3401 67.08 56.2801 66.66 56.1601C65.58 56.0401 64.62 56.2202 63.66 56.5802C63.36 56.6402 63.18 56.8201 62.94 56.9402C63.54 56.8801 64.08 56.8201 64.68 56.7001C66 56.5801 67.2 56.7001 68.52 56.9402C68.52 56.5202 68.16 56.4601 67.8 56.4001ZM70.2 57.3001C69.18 56.5201 68.16 55.8002 67.08 55.0802C66 54.3602 64.92 54.0601 63.6 54.4201C62.4 54.8401 61.32 55.4401 60.42 56.4601C59.64 57.3001 58.92 58.3801 58.32 59.4601C58.02 59.9401 57.9 60.5401 57.66 61.0201C57.54 61.4401 57.36 61.8001 57.3 62.1601C58.08 61.3201 58.98 60.4802 59.76 59.6402C59.82 59.5802 59.82 59.5801 59.88 59.5201C60.12 59.2201 60.24 59.0401 60.48 58.7402C60.72 58.4402 60.9 58.0802 61.2 57.7802C61.08 57.8402 60.96 57.8401 60.84 57.9001C60.42 58.0201 60.06 58.2601 59.64 58.2601C59.28 58.3201 59.94 57.5402 60.24 57.4802C60.9 57.4202 61.56 57.0001 62.16 56.8201C62.22 56.8201 62.22 56.8201 62.28 56.8201C62.4 56.7601 62.58 56.5801 62.76 56.5201C63.78 56.0401 64.92 55.6802 66.06 55.6802C66.84 55.6802 67.92 55.7401 68.52 56.3401V56.4001C68.46 56.4601 68.46 56.6401 68.4 56.7001C68.4 56.7001 68.4 56.7601 68.34 56.7601C68.4 56.7601 68.46 56.7601 68.58 56.8201C69.24 57.1201 69.72 57.2401 70.2 57.3001ZM106.26 83.2802C105.6 82.9202 104.94 82.5602 104.4 82.2001C104.64 82.4402 104.82 82.6202 105.06 82.8602C105.12 82.9202 105.18 82.9802 105.3 83.1002C105.54 83.2201 105.9 83.2802 106.26 83.2802ZM109.74 87.6602C109.68 87.3602 109.68 87.0602 109.5 86.7001C109.14 85.6202 108.54 84.9002 107.64 84.1802C107.52 84.0602 107.28 83.8801 107.16 83.8201C107.1 83.8801 106.92 83.9401 106.92 83.9401C106.68 83.9401 106.5 84.0002 106.26 84.0002C106.56 84.3002 106.92 84.6001 107.22 84.8401C108.12 85.8001 109.02 86.7002 109.74 87.6602ZM75.12 114C75.42 113.7 75.6 113.34 75.9 113.04C75.42 112.68 74.76 112.62 74.22 112.26C73.98 112.02 73.74 111.9 73.5 111.6C73.62 112.08 73.86 112.62 74.22 113.1C74.22 113.16 74.34 113.22 74.52 113.4C74.52 113.4 74.52 113.4 74.52 113.46C74.76 113.64 75 113.88 75.12 114ZM52.68 135.42C54.54 134.1 56.22 132.48 58.2 131.22C60.78 129.66 63.6 128.4 65.76 126.24C67.32 124.68 68.7 122.88 70.02 120.96C69.72 121.02 69.42 121.08 69.6 120.66C69.6 120.6 69.84 120.42 69.84 120.54C69.78 120.9 69.96 120.9 70.26 120.78C70.62 120.18 71.04 119.7 71.46 119.22C71.58 118.98 71.76 118.8 71.94 118.56C71.64 118.8 71.34 118.92 71.1 119.04C71.1 119.04 71.1 119.1 71.04 119.1C68.64 121.68 66.42 124.44 63.66 126.6C63.24 126.96 62.82 127.26 62.34 127.56C62.34 127.62 62.4 127.62 62.4 127.68C62.46 127.74 62.28 127.92 62.16 127.92L62.1 127.86C62.1 127.86 62.1 127.86 62.1 127.8C61.02 128.58 59.94 129.3 58.86 130.08C58.14 130.68 57.48 131.22 56.76 131.76C56.04 132.24 55.26 132.6 54.6 133.14C54.18 133.44 53.82 133.8 53.4 134.1C53.34 134.16 53.28 134.16 53.16 134.16C52.86 134.46 52.74 134.94 52.68 135.42ZM52.38 136.14C52.08 136.26 51.72 136.56 51.66 136.62C51.54 136.98 51.96 137.94 52.08 138.3C52.08 138.36 52.14 138.54 52.14 138.6C52.26 137.82 52.32 136.98 52.38 136.14ZM72.84 155.76C72.12 154.62 71.28 153.66 70.08 152.88C69.3 152.4 68.4 151.86 67.56 151.5C69 152.46 70.38 153.6 71.64 154.74C71.7 154.74 71.7 154.68 71.76 154.68H71.82C71.82 154.74 71.76 154.8 71.76 154.8C72.18 155.16 72.48 155.46 72.84 155.76ZM91.8 169.02C92.1 168.9 92.52 168.72 92.88 168.66C92.04 168.6 91.14 168.54 90.3 168.6C89.94 168.66 89.64 168.84 89.46 168.96C89.16 169.32 88.44 169.38 88.98 168.84C89.04 168.78 89.1 168.72 89.1 168.72C89.04 168.72 89.04 168.72 88.98 168.72C88.02 168.78 87.24 168.96 86.4 169.32C86.46 169.44 86.52 169.56 86.52 169.68C86.88 169.44 87.18 169.26 87.6 169.08C88.08 168.96 87.54 169.74 87.24 169.8C86.94 169.86 86.58 170.1 86.28 170.4C86.64 170.4 87 170.34 87.3 170.28C88.44 170.04 89.7 169.8 90.84 169.5V169.44C90.84 169.38 90.96 169.32 90.96 169.32C91.32 169.02 91.56 169.02 91.8 169.02ZM95.46 169.74C95.1 169.44 94.74 169.14 94.62 168.78C94.5 168.9 94.26 169.08 94.14 169.02C93.84 168.96 93.54 168.9 93.3 168.72C93 168.78 92.64 168.96 92.28 169.08C92.64 169.14 93 169.2 93.3 169.32C94.02 169.5 94.74 169.56 95.46 169.74ZM106.2 102.66C105.36 102.6 104.46 102.54 103.56 102.36C103.26 102.3 102.96 102.3 102.72 102.24C101.04 102.54 99.42 102.84 97.74 102.9C95.46 102.96 93.06 102.78 90.9 103.62C89.88 104.04 88.86 104.58 87.9 105.06C87.42 105.3 86.94 105.66 86.46 105.9C86.22 106.02 85.98 106.2 85.68 106.26C85.62 106.26 85.74 106.02 85.8 106.02C86.28 105.96 86.64 105.54 87.12 105.3C87.54 105.06 87.96 104.88 88.44 104.64C89.04 104.34 89.52 104.04 90.12 103.86C89.1 103.92 88.26 104.52 87.36 105C86.34 105.6 85.26 106.08 84.24 106.68C83.4 107.28 82.5 107.76 81.66 108.24C81.42 108.6 81.3 108.9 81 109.26C80.94 109.38 80.76 109.5 80.64 109.56C80.52 109.62 80.64 109.44 80.7 109.44C80.94 109.32 81.06 108.84 81.18 108.66L81.24 108.6C80.4 109.2 79.5 109.68 78.78 110.34C78.48 110.58 78.3 110.76 78 111.06C78.06 111.06 78.12 111.06 78.12 111.06C78.18 111.06 78.06 111.3 78 111.3C77.94 111.3 77.88 111.3 77.76 111.3C76.92 112.14 76.08 113.1 75.3 114.12C75.36 114.06 75.42 114.06 75.42 114.12C75.36 114.42 75.18 114.48 75.06 114.42C75 114.54 74.82 114.66 74.76 114.78C73.62 116.22 72.36 117.66 71.16 119.04C71.46 118.92 71.76 118.68 72 118.44C72 118.44 72.06 118.44 72.06 118.38C73.02 116.94 74.16 115.26 75.66 114.84C76.14 114.72 75.6 115.5 75.3 115.56C73.86 115.98 72.72 118.38 71.82 119.52C71.7 119.76 71.46 120 71.34 120.24C71.64 120 72 119.76 72.3 119.52C73.14 118.8 74.04 118.08 74.82 117.24C75.54 116.46 76.14 115.56 76.68 114.72C77.16 113.94 77.82 113.28 78.48 112.56C79.8 111.18 81.3 109.98 82.8 108.9C83.58 108.3 84.36 107.76 85.2 107.22C85.98 106.74 87.06 106.5 87.84 105.9C87.96 105.84 88.08 105.9 87.9 105.96C87.24 106.56 86.34 106.68 85.62 107.1C84.48 107.76 83.4 108.54 82.38 109.32C80.34 110.82 78.42 112.5 76.98 114.6C76.32 115.56 75.78 116.46 74.94 117.24C74.22 118.02 73.38 118.74 72.54 119.4C72.06 119.82 71.58 120.24 71.04 120.6C70.32 121.56 69.66 122.46 68.94 123.42C67.38 125.52 65.64 127.44 63.48 128.94C61.38 130.38 58.92 131.22 57 132.84C56.04 133.62 55.14 134.4 54.12 135.12C53.64 135.48 53.1 135.78 52.68 136.14C52.68 136.38 52.62 136.56 52.62 136.8C52.56 137.64 52.5 138.6 52.5 139.44C52.56 139.68 52.62 139.92 52.74 140.22C53.1 141.36 52.98 142.74 53.46 143.76C53.58 144.06 53.76 144.24 53.88 144.48C53.88 144.48 53.88 144.48 53.88 144.54C54.18 144.9 54.48 145.14 54.84 145.38C54.78 145.26 54.78 145.08 54.72 144.96C54.42 144 54 143.1 53.88 142.08C53.76 141.24 53.46 140.22 53.46 139.26V139.2C53.46 139.14 53.7 138.96 53.7 139.08C53.7 139.74 53.82 140.4 54 140.94C54.06 141.6 54.24 142.26 54.36 142.86C54.6 143.52 54.84 144.18 55.02 144.78C55.08 145.08 55.14 145.38 55.32 145.56C55.62 145.68 55.92 145.92 56.28 146.04C56.34 145.98 56.52 145.92 56.52 145.98C56.52 146.04 56.52 146.04 56.46 146.1C56.7 146.16 56.88 146.22 57.12 146.34C57.12 146.34 57.12 146.34 57.06 146.28C56.82 145.98 56.7 145.68 56.46 145.5C56.1 144.9 55.74 144.42 55.74 143.7C55.74 143.64 55.98 143.46 55.98 143.58C55.98 144.36 56.46 145.02 56.94 145.68C57.06 145.98 57.42 146.28 57.66 146.64C58.5 146.94 59.46 147.24 60.18 147.48C62.58 148.5 64.92 149.52 67.38 150.48C69.66 151.32 72.06 152.58 73.5 154.74C74.22 155.76 74.64 156.9 75.42 157.86C75.72 158.22 75.9 158.52 76.14 158.88C76.98 159.66 77.82 160.44 78.6 161.34C78.54 161.04 78.36 160.56 78.12 160.5C78.06 160.5 78.18 160.26 78.36 160.26C78.72 160.38 78.96 161.22 79.08 161.76C80.1 162.78 81 163.68 82.02 164.64C83.34 165.84 84.6 166.92 85.68 168.3C85.74 168.42 86.04 168.66 86.28 168.96C86.7 168.72 87.24 168.48 87.6 168.36C88.26 168.24 88.8 168.12 89.46 168.06C90.06 168 90.6 168 91.2 168C91.26 168 91.44 168 91.5 167.94C92.1 167.88 92.58 167.82 93.18 167.94C93.42 168 93.6 168 93.78 168.06C94.08 168.06 94.44 168.06 94.74 168.12C94.8 168.12 94.8 168.12 94.86 168.18C95.34 168.06 95.82 167.82 96.3 167.7C97.14 167.4 98.04 167.4 98.88 167.4C98.94 167.4 98.82 167.64 98.76 167.64C97.68 167.64 96.66 167.7 95.58 168.06C95.34 168.12 95.1 168.3 94.86 168.36C94.86 168.36 94.86 168.42 94.8 168.42C94.86 168.42 94.86 168.42 94.92 168.42C95.22 168.18 95.58 168 95.58 168.3C95.58 168.3 95.58 168.36 95.58 168.42C96.24 168.36 96.9 168.36 97.5 168.36C98.88 168.36 100.14 168.36 101.52 168.24C102.12 168.18 102.66 168.18 103.32 168C103.68 167.94 104.1 167.88 104.46 167.7C104.58 167.64 104.76 167.64 104.88 167.58C104.46 167.58 104.16 167.46 103.74 167.1C103.38 166.8 103.08 166.5 102.9 166.26C102.9 166.38 102.96 166.56 103.02 166.68C103.08 166.8 103.08 166.98 103.14 167.1C103.2 167.16 103.02 167.34 102.9 167.34C102.84 167.22 102.84 167.22 102.84 167.1C102.72 166.68 102.6 166.26 102.54 165.78C102.54 165.72 102.48 165.72 102.48 165.66C102.18 165 101.82 164.22 101.88 163.5C101.76 163.26 101.64 163.08 101.52 162.84C100.74 161.52 99.72 160.26 98.76 159C97.08 156.78 95.16 154.74 93.12 152.82C92.04 151.8 90.96 150.9 89.88 149.88C88.86 148.92 87.96 148.02 86.94 147.12C84.66 145.2 81.9 143.76 79.26 142.32C78.12 141.66 76.98 141 75.96 140.16C75.54 139.86 75.18 139.5 74.82 139.08C74.22 139.56 73.74 140.16 73.74 140.76C73.74 141.12 72.9 141.6 72.9 141.36C72.9 140.34 73.62 139.5 74.46 138.72C74.34 138.48 74.22 138.3 74.16 138C73.5 138.36 72.78 138.72 72.06 139.02C70.92 139.44 69.9 140.1 68.76 140.58C67.56 141.18 66.48 141.9 65.4 142.62C64.98 142.92 64.56 143.28 64.08 143.58C63.72 143.88 63.12 144.18 62.94 144.66C62.94 144.72 62.7 144.9 62.7 144.72C62.7 144.66 62.7 144.66 62.7 144.6C62.7 144.54 62.76 144.48 62.82 144.48C63.12 144.12 63.54 143.82 63.9 143.64C65.64 142.44 67.26 141.18 69.24 140.34C69.84 140.04 70.32 139.74 70.92 139.5C71.34 139.26 71.76 139.14 72.3 139.02C72.96 138.78 73.5 138.42 74.1 138.18C74.1 138.06 74.04 137.82 74.04 137.58C74.04 137.52 74.28 137.34 74.28 137.46C74.28 137.7 74.28 137.88 74.34 138.06C74.82 137.82 75.3 137.58 75.78 137.34C76.92 136.86 78 136.26 79.08 135.66C80.16 135 81.18 134.28 82.26 133.62C83.34 132.96 84.42 132.42 85.38 131.58C86.4 130.8 87.48 129.9 88.38 129.06C89.4 128.22 90.3 127.38 91.2 126.48C91.98 125.64 92.76 124.74 93.6 123.96C95.4 122.1 96.96 120.24 98.34 117.96C99.66 115.74 100.92 113.4 102.06 111.12C100.62 112.26 99.12 113.4 97.5 114.42C95.82 115.5 94.02 116.46 92.22 117.3C88.32 119.22 84.54 121.2 80.7 123.18C76.86 125.22 73.2 127.38 69.96 130.14C68.4 131.52 66.96 132.96 65.58 134.46C64.86 135.24 64.14 136.14 63.48 137.04C63.24 137.34 61.74 139.8 61.98 139.86C62.04 139.86 61.92 140.1 61.74 140.1H61.68C61.68 140.1 61.68 140.1 61.68 140.04C61.98 139.08 62.46 138.36 63 137.52C63.6 136.68 64.2 135.78 64.86 135C66.24 133.44 67.74 131.88 69.3 130.56C72.18 128.04 75.42 125.88 78.78 124.08C82.5 122.16 86.28 120.12 90 118.26C91.86 117.3 93.72 116.46 95.64 115.38C97.44 114.36 99.12 113.16 100.74 111.84C101.16 111.54 101.52 111.18 101.94 110.88C103.02 108.78 104.04 106.68 104.94 104.64C105.6 103.74 105.9 103.14 106.2 102.66ZM106.62 101.88C106.68 101.76 106.86 101.52 106.92 101.4C106.44 101.64 105.78 101.7 105.18 101.82C105.66 101.76 106.14 101.88 106.62 101.88ZM111.18 100.68C110.46 100.74 109.74 100.8 109.08 100.92C108.42 100.98 107.7 101.16 107.04 101.22C106.98 101.46 106.8 101.58 106.74 101.82C107.16 101.82 107.7 101.88 108.12 101.82C109.14 101.82 110.16 101.7 111.12 101.52C111.12 101.46 111.12 101.4 111.12 101.4C111.18 101.22 111.18 100.98 111.18 100.68ZM111.42 101.52C111.54 101.22 111.72 100.92 111.84 100.68C111.72 100.68 111.54 100.68 111.42 100.74C111.42 101.04 111.36 101.34 111.36 101.52C111.36 101.52 111.36 101.52 111.42 101.52ZM113.22 100.98C112.86 100.68 112.5 100.62 112.08 100.68C111.96 100.98 111.78 101.28 111.66 101.46C112.14 101.34 112.68 101.22 113.22 100.98ZM114.42 100.08C113.46 99.2402 113.1 97.6801 112.86 96.5401C112.26 94.3801 111.9 92.1002 110.94 90.0602C110.7 89.5802 110.46 89.1002 110.16 88.6201C110.16 89.4002 110.16 90.1802 110.1 90.9002C109.98 93.4202 109.44 95.9402 108.6 98.2802C108.36 98.9402 108.12 99.4802 107.82 100.08C107.82 100.5 107.82 100.8 107.52 101.04C108.24 100.92 108.9 100.8 109.62 100.74C110.22 100.68 110.76 100.62 111.36 100.5C111.36 100.26 111.42 100.08 111.36 99.7802C111.36 99.7202 111.6 99.5402 111.6 99.6602C111.6 99.9602 111.6 100.26 111.6 100.5C111.72 100.5 111.9 100.5 112.02 100.44H112.08C112.08 100.38 112.14 100.32 112.14 100.14C112.14 100.08 112.38 99.9002 112.38 100.02C112.38 100.14 112.32 100.26 112.32 100.38C112.74 100.38 113.28 100.38 113.64 100.74C113.64 100.74 113.64 100.8 113.58 100.86C113.82 100.8 114 100.62 114.24 100.56C113.94 100.5 114.18 100.2 114.42 100.08ZM73.8 110.1C74.1 110.58 74.52 111.12 75 111.48C75.42 111.78 75.96 111.84 76.32 112.14C76.38 112.2 76.62 112.02 76.56 111.9C76.2 111.6 75.72 111.48 75.24 111.24C74.64 110.88 74.22 110.4 73.92 109.8C74.04 109.92 73.8 110.04 73.8 110.1Z" fill="black"/>
</g>
<defs>
<clipPath id="clip0">
<rect width="120" height="180" fill="white"/>
</clipPath>
</defs>
</svg>
