<svg width="60" height="25" viewBox="0 0 60 25" fill="none" xmlns="http://www.w3.org/2000/svg">
<path d="M30.0016 24.5C15.8016 24.5 3.90156 14.5 1.60156 12.5C3.90156 10.5 15.8016 0.5 30.0016 0.5C44.2016 0.5 56.1016 10.5 58.4016 12.5C56.1016 14.5 44.2016 24.5 30.0016 24.5Z" fill="white"/>
<path d="M30.0008 1C43.3008 1 54.6008 9.9 57.7008 12.5C54.6008 15.1 43.3008 24 30.0008 24C16.7008 24 5.40078 15.1 2.30078 12.5C5.40078 9.9 16.7008 1 30.0008 1ZM30.0008 0C13.9008 0 0.800781 12.5 0.800781 12.5C0.800781 12.5 13.9008 25 30.0008 25C46.1008 25 59.2008 12.5 59.2008 12.5C59.2008 12.5 46.1008 0 30.0008 0Z" fill="black"/>
<path d="M30 24.5C36.6274 24.5 42 19.1274 42 12.5C42 5.87258 36.6274 0.5 30 0.5C23.3726 0.5 18 5.87258 18 12.5C18 19.1274 23.3726 24.5 30 24.5Z" fill="white"/>
<path d="M30 1C36.3 1 41.5 6.2 41.5 12.5C41.5 18.8 36.3 24 30 24C23.7 24 18.5 18.8 18.5 12.5C18.5 6.2 23.7 1 30 1ZM30 0C23.1 0 17.5 5.6 17.5 12.5C17.5 19.4 23.1 25 30 25C36.9 25 42.5 19.4 42.5 12.5C42.5 5.6 36.9 0 30 0Z" fill="black"/>
<path d="M30.0016 19.4001C33.8123 19.4001 36.9016 16.3109 36.9016 12.5001C36.9016 8.68933 33.8123 5.6001 30.0016 5.6001C26.1908 5.6001 23.1016 8.68933 23.1016 12.5001C23.1016 16.3109 26.1908 19.4001 30.0016 19.4001Z" fill="black"/>
</svg>
