<svg width="15" height="15" viewBox="0 0 15 15" fill="none" xmlns="http://www.w3.org/2000/svg">
<path d="M14.4 0.600006H0.599976V14.4H14.4V0.600006Z" fill="white"/>
<path d="M13.8 1.2V13.8H1.2V1.2H13.8ZM15 0H0V15H15V0Z" fill="black"/>
<path d="M3.41997 11.28V12.66H2.33997V8.45999H4.07997C4.43997 8.45999 4.79997 8.51999 5.15997 8.81999C5.45997 9.11999 5.57997 9.47999 5.57997 9.83999C5.57997 10.2 5.51997 10.56 5.21997 10.86C4.91997 11.16 4.49997 11.22 4.19997 11.22H3.41997V11.28ZM3.41997 10.38H3.77997C3.89997 10.38 4.07997 10.38 4.25997 10.26C4.37997 10.14 4.37997 9.95999 4.37997 9.89999C4.37997 9.77999 4.37997 9.65999 4.25997 9.53999C4.13997 9.41999 3.95997 9.35999 3.77997 9.35999H3.41997V10.38Z" fill="black"/>
<path d="M6.11993 12.66V8.45999H7.55993C7.97993 8.45999 8.69993 8.51999 9.23993 9.05999C9.71993 9.53999 9.83993 10.14 9.83993 10.62C9.83993 11.16 9.71993 11.64 9.29993 12.06C8.93993 12.42 8.39993 12.72 7.67993 12.72H6.11993V12.66ZM7.19993 11.76H7.43993C7.67993 11.76 8.09993 11.76 8.33993 11.46C8.45993 11.34 8.63993 11.04 8.63993 10.62C8.63993 10.2 8.51993 9.89999 8.33993 9.71999C8.09993 9.47999 7.73993 9.47999 7.49993 9.47999H7.19993V11.76Z" fill="black"/>
<path d="M12.9 9.35999H11.58V10.08H12.78V10.98H11.58V12.66H10.5V8.45999H12.9V9.35999Z" fill="black"/>
</svg>
