<svg width="26" height="25" viewBox="0 0 26 25" fill="none" xmlns="http://www.w3.org/2000/svg">
<path d="M25.0039 12.5C25.0039 19.4 19.4039 25 12.5039 25C5.60391 25 0.00390625 19.4 0.00390625 12.5C0.00390625 5.6 5.60391 0 12.5039 0C19.4039 0 25.0039 5.6 25.0039 12.5Z" fill="black"/>
<path d="M10.2039 18.2495C9.80391 18.2495 9.85391 18.0995 9.70391 17.6995L8.50391 13.7995L15.9039 9.19946L16.7539 9.44946L16.0539 11.3995L10.2039 18.2495Z" fill="#808080"/>
<path d="M10.2063 18.25C10.5063 18.25 10.6563 18.1001 10.8063 17.9501C11.0563 17.7001 14.5563 14.3 14.5563 14.3L12.4063 13.8L10.4063 15.05L10.1562 18.15V18.25H10.2063Z" fill="#4D4D4D"/>
<path d="M10.4042 15.0496L15.4542 18.7496C16.0042 19.0496 16.4542 18.8996 16.6042 18.1996L18.6542 8.54956C18.8542 7.69956 18.3542 7.34956 17.7542 7.59956L5.70419 12.2496C4.90419 12.5996 4.90419 13.0496 5.55419 13.2496L8.65419 14.1996L15.8042 9.69956C16.1542 9.49956 16.4542 9.59956 16.2042 9.84956L10.4042 15.0496Z" fill="white"/>
</svg>
