<svg width="30" height="29" viewBox="0 0 30 29" fill="none" xmlns="http://www.w3.org/2000/svg">
<path d="M5.29969 0.699951H24.7997C27.1997 0.699951 29.0997 2.59995 29.0997 4.99995V24.4999C29.0997 26.8999 27.1997 28.7999 24.7997 28.7999H5.29969C2.89969 28.7999 0.999688 26.8999 0.999688 24.4999V5.09995C0.899688 2.69995 2.89969 0.699951 5.29969 0.699951Z" fill="#FF0000"/>
<path d="M14.7995 20.4H15.9995C15.9995 20.4 16.2995 20.4001 16.4995 20.2001C16.6995 20.0001 16.6995 19.7001 16.6995 19.7001C16.6995 19.7001 16.6995 18.2 17.3995 17.9C18.0995 17.7 18.9995 19.4001 19.9995 20.1001C20.6995 20.6001 21.2995 20.5 21.2995 20.5H23.8995C23.8995 20.5 25.1995 20.4 24.5995 19.4C24.4995 19.3 24.1995 18.6 22.6995 17.2001C21.0995 15.7001 21.2995 15.9 23.1995 13.4C24.3995 11.8 24.8995 10.9 24.6995 10.5C24.5995 10.1 23.6995 10.2001 23.6995 10.2001H20.7995C20.7995 10.2001 20.5995 10.2 20.3995 10.3C20.1995 10.4 20.0995 10.6001 20.0995 10.6001C20.0995 10.6001 19.5995 11.8 18.9995 12.9C17.6995 15.1 17.1995 15.2001 16.9995 15.1001C16.4995 14.8001 16.5995 13.8001 16.5995 13.1001C16.5995 11.0001 16.8995 10.1 15.9995 9.90005C15.6995 9.80005 15.4995 9.80005 14.5995 9.80005C13.5995 9.80005 12.6995 9.80005 12.1995 10C11.8995 10.2 11.5995 10.5 11.7995 10.5C11.9995 10.5 12.3995 10.6 12.6995 10.9C12.9995 11.3 12.9995 12.2001 12.9995 12.2001C12.9995 12.2001 13.1995 14.7 12.5995 15C12.1995 15.2 11.6995 14.8 10.4995 12.8C9.89952 11.8 9.49952 10.7001 9.49952 10.7001C9.49952 10.7001 9.39953 10.5 9.29953 10.4C9.09953 10.3 8.89953 10.2001 8.89953 10.2001H6.09953C6.09953 10.2001 5.69952 10.2 5.49952 10.4C5.39952 10.6 5.49952 10.9 5.49952 10.9C5.49952 10.9 7.69953 15.9 10.0995 18.5C12.1995 20.6 14.7995 20.4 14.7995 20.4Z" fill="black"/>
</svg>
