<svg width="25" height="25" viewBox="0 0 25 25" fill="none" xmlns="http://www.w3.org/2000/svg">
<path d="M3.82833 0H21.1749C23.3098 0 25 1.69017 25 3.82513V21.1717C25 23.3066 23.3098 24.9968 21.1749 24.9968H3.82833C1.69338 24.9968 0.00319773 23.3066 0.00319773 21.1717V3.91409C-0.0857588 1.77913 1.69338 0 3.82833 0Z" fill="black"/>
<path d="M12.2793 17.5246H13.3468C13.3468 17.5246 13.6136 17.5246 13.7916 17.3467C13.9695 17.1688 13.9695 16.9019 13.9695 16.9019C13.9695 16.9019 13.9695 15.5676 14.5922 15.3007C15.2149 15.1228 16.0155 16.635 16.905 17.2577C17.5277 17.7025 18.0615 17.6136 18.0615 17.6136H20.3743C20.3743 17.6136 21.5308 17.5246 20.997 16.635C20.9081 16.5461 20.6412 15.9234 19.3069 14.678C17.8836 13.3437 18.0615 13.5216 19.7517 11.2977C20.8191 9.87434 21.2639 9.07373 21.086 8.71791C20.997 8.36208 20.1964 8.45104 20.1964 8.45104H17.6167C17.6167 8.45104 17.4388 8.45104 17.2609 8.54C17.083 8.62895 16.994 8.80687 16.994 8.80687C16.994 8.80687 16.5492 9.87434 16.0155 10.8529C14.859 12.8099 14.4143 12.8989 14.2363 12.8099C13.7916 12.543 13.8805 11.6535 13.8805 11.0308C13.8805 9.1627 14.1474 8.36208 13.3468 8.18417C13.0799 8.09521 12.902 8.09521 12.1014 8.09521C11.2118 8.09521 10.4112 8.09521 9.96643 8.27313C9.69956 8.45104 9.43269 8.71791 9.6106 8.71791C9.78851 8.71791 10.1443 8.80687 10.4112 9.07374C10.6781 9.42956 10.6781 10.2302 10.6781 10.2302C10.6781 10.2302 10.856 12.4541 10.3223 12.721C9.96643 12.8989 9.52164 12.543 8.45416 10.7639C7.92042 9.87435 7.5646 8.89583 7.5646 8.89583C7.5646 8.89583 7.47564 8.71791 7.38669 8.62895C7.20877 8.54 7.03086 8.45104 7.03086 8.45104H4.54008C4.54008 8.45104 4.18425 8.45104 4.00633 8.62895C3.91738 8.80687 4.00633 9.07374 4.00633 9.07374C4.00633 9.07374 5.96338 13.5216 8.09834 15.8344C9.96643 17.7025 12.2793 17.5246 12.2793 17.5246Z" fill="white"/>
</svg>
