<svg width="30" height="29" viewBox="0 0 30 29" fill="none" xmlns="http://www.w3.org/2000/svg">
<path d="M5.30018 0.700195H24.8002C27.2002 0.700195 29.1002 2.60019 29.1002 5.00019V24.5002C29.1002 26.9002 27.2002 28.8002 24.8002 28.8002H5.30018C2.90018 28.8002 1.00018 26.9002 1.00018 24.5002V5.1002C0.900177 2.7002 2.90018 0.700195 5.30018 0.700195Z" fill="#FF0000"/>
<path d="M14.8 20.3998H16C16 20.3998 16.3 20.3998 16.5 20.1998C16.7 19.9998 16.7 19.6998 16.7 19.6998C16.7 19.6998 16.7 18.1998 17.4 17.8998C18.1 17.6998 19 19.3998 20 20.0998C20.7 20.5998 21.3 20.4998 21.3 20.4998H23.9C23.9 20.4998 25.2 20.3998 24.6 19.3998C24.5 19.2998 24.2 18.5998 22.7 17.1998C21.1 15.6998 21.3 15.8998 23.2 13.3998C24.4 11.7998 24.9 10.8998 24.7 10.4998C24.6 10.0998 23.7 10.1998 23.7 10.1998H20.8C20.8 10.1998 20.6 10.1998 20.4 10.2998C20.2 10.3998 20.1 10.5998 20.1 10.5998C20.1 10.5998 19.6 11.7998 19 12.8998C17.7 15.0998 17.2 15.1998 17 15.0998C16.5 14.7998 16.6 13.7998 16.6 13.0998C16.6 10.9998 16.9 10.0998 16 9.8998C15.7 9.7998 15.5 9.7998 14.6 9.7998C13.6 9.7998 12.7 9.7998 12.2 9.9998C11.9 10.1998 11.6 10.4998 11.8 10.4998C12 10.4998 12.4 10.5998 12.7 10.8998C13 11.2998 13 12.1998 13 12.1998C13 12.1998 13.2 14.6998 12.6 14.9998C12.2 15.1998 11.7 14.7998 10.5 12.7998C9.90001 11.7998 9.50001 10.6998 9.50001 10.6998C9.50001 10.6998 9.40001 10.4998 9.30001 10.3998C9.10001 10.2998 8.90002 10.1998 8.90002 10.1998H6.10002C6.10002 10.1998 5.70001 10.1998 5.50001 10.3998C5.40001 10.5998 5.50001 10.8998 5.50001 10.8998C5.50001 10.8998 7.70002 15.8998 10.1 18.4998C12.2 20.5998 14.8 20.3998 14.8 20.3998Z" fill="white"/>
</svg>
