<svg width="30" height="29" viewBox="0 0 30 29" fill="none" xmlns="http://www.w3.org/2000/svg">
<path d="M5.29969 0.700195H24.7997C27.1997 0.700195 29.0997 2.60019 29.0997 5.00019V24.5002C29.0997 26.9002 27.1997 28.8002 24.7997 28.8002H5.29969C2.89969 28.8002 0.999688 26.9002 0.999688 24.5002V5.1002C0.899688 2.7002 2.89969 0.700195 5.29969 0.700195Z" fill="#FF0000"/>
<path d="M14.7995 20.3998H15.9995C15.9995 20.3998 16.2995 20.3998 16.4995 20.1998C16.6995 19.9998 16.6995 19.6998 16.6995 19.6998C16.6995 19.6998 16.6995 18.1998 17.3995 17.8998C18.0995 17.6998 18.9995 19.3998 19.9995 20.0998C20.6995 20.5998 21.2995 20.4998 21.2995 20.4998H23.8995C23.8995 20.4998 25.1995 20.3998 24.5995 19.3998C24.4995 19.2998 24.1995 18.5998 22.6995 17.1998C21.0995 15.6998 21.2995 15.8998 23.1995 13.3998C24.3995 11.7998 24.8995 10.8998 24.6995 10.4998C24.5995 10.0998 23.6995 10.1998 23.6995 10.1998H20.7995C20.7995 10.1998 20.5995 10.1998 20.3995 10.2998C20.1995 10.3998 20.0995 10.5998 20.0995 10.5998C20.0995 10.5998 19.5995 11.7998 18.9995 12.8998C17.6995 15.0998 17.1995 15.1998 16.9995 15.0998C16.4995 14.7998 16.5995 13.7998 16.5995 13.0998C16.5995 10.9998 16.8995 10.0998 15.9995 9.8998C15.6995 9.7998 15.4995 9.7998 14.5995 9.7998C13.5995 9.7998 12.6995 9.7998 12.1995 9.9998C11.8995 10.1998 11.5995 10.4998 11.7995 10.4998C11.9995 10.4998 12.3995 10.5998 12.6995 10.8998C12.9995 11.2998 12.9995 12.1998 12.9995 12.1998C12.9995 12.1998 13.1995 14.6998 12.5995 14.9998C12.1995 15.1998 11.6995 14.7998 10.4995 12.7998C9.89952 11.7998 9.49952 10.6998 9.49952 10.6998C9.49952 10.6998 9.39953 10.4998 9.29953 10.3998C9.09953 10.2998 8.89953 10.1998 8.89953 10.1998H6.09953C6.09953 10.1998 5.69952 10.1998 5.49952 10.3998C5.39952 10.5998 5.49952 10.8998 5.49952 10.8998C5.49952 10.8998 7.69953 15.8998 10.0995 18.4998C12.1995 20.5998 14.7995 20.3998 14.7995 20.3998Z" fill="white"/>
</svg>
