<svg width="550" height="580" viewBox="0 0 550 580" fill="none" xmlns="http://www.w3.org/2000/svg">
<path d="M221.54 218.675V216.995H215.09V218.675H217.34V227H219.29V218.675H221.54ZM228.971 227H231.071L226.886 216.995H225.356L221.051 227H223.166L224.051 224.9H228.086L228.971 227ZM224.666 223.31L226.091 219.71L227.516 223.31H224.666ZM233.492 216.995V222.725C233.492 223.67 233.507 224.54 232.997 225.05C232.832 225.215 232.547 225.41 232.097 225.41C231.887 225.41 231.692 225.365 231.542 225.32V227C231.812 227.06 232.082 227.09 232.367 227.09C233.342 227.09 233.972 226.76 234.362 226.43C235.472 225.515 235.442 224.15 235.442 223.115V218.675H238.352V227H240.302V216.995H233.492ZM249.39 227H251.49L247.305 216.995H245.775L241.47 227H243.585L244.47 224.9H248.505L249.39 227ZM245.085 223.31L246.51 219.71L247.935 223.31H245.085ZM254.609 216.995H252.659V227H254.609V222.545H258.839V227H260.789V216.995H258.839V220.865H254.609V216.995ZM268.474 218.675V216.995H262.024V218.675H264.274V227H266.224V218.675H268.474ZM269.709 227H273.234C274.074 227 275.319 226.865 276.069 225.77C276.399 225.29 276.609 224.645 276.609 223.97C276.609 223.01 276.234 222.245 275.679 221.735C274.899 221.015 273.954 220.91 273.219 220.91H271.659V216.995H269.709V227ZM271.659 222.59H272.829C274.269 222.59 274.599 223.34 274.599 223.97C274.599 225.32 273.144 225.32 272.799 225.32H271.659V222.59ZM277.479 216.995V227H279.429V216.995H277.479Z" fill="#E9E8E6"/>
<path d="M390.09 311.995H388.14V322H390.09V317.74L390.315 317.515L393.87 322H396.45L391.995 316.615L396.225 311.995H393.765L390.09 316.225V311.995ZM401.906 311.77C398.756 311.77 396.566 313.96 396.566 317.005C396.566 320.05 398.756 322.225 401.906 322.225C405.056 322.225 407.246 320.05 407.246 317.005C407.246 313.96 405.056 311.77 401.906 311.77ZM401.906 320.455C399.956 320.455 398.576 319.03 398.576 317.005C398.576 314.98 399.956 313.54 401.906 313.54C403.856 313.54 405.236 314.98 405.236 317.005C405.236 319.03 403.856 320.455 401.906 320.455ZM408.533 322H410.513L411.533 315.835L414.098 322H414.758L417.443 315.835L418.343 322H420.323L418.643 311.995H417.233L414.458 318.355L411.803 311.995H410.393L408.533 322ZM422.095 311.995V322H424.045V313.675H428.065V322H430.015V311.995H422.095ZM439.1 322H441.2L437.015 311.995H435.485L431.18 322H433.295L434.18 319.9H438.215L439.1 322ZM434.795 318.31L436.22 314.71L437.645 318.31H434.795ZM444.319 311.995H442.369V322H444.319V317.545H448.549V322H450.499V311.995H448.549V315.865H444.319V311.995ZM452.784 311.995V322H454.164L459.654 315.31V322H461.604V311.995H460.224L454.734 318.655V311.995H452.784ZM463.887 311.995V322H465.267L470.757 315.31V322H472.707V311.995H471.327L465.837 318.655V311.995H463.887Z" fill="#E9E8E6"/>
<path d="M343.95 423H346.05L341.865 412.995H340.335L336.03 423H338.145L339.03 420.9H343.065L343.95 423ZM339.645 419.31L341.07 415.71L342.495 419.31H339.645ZM347.218 412.995V423H349.168V419.295H350.428C351.583 419.295 352.408 418.965 352.963 418.41C353.728 417.645 353.788 416.565 353.788 416.175C353.788 415.455 353.578 414.48 352.768 413.76C352.033 413.115 351.253 412.995 350.128 412.995H347.218ZM349.168 414.675H349.843C350.308 414.675 350.818 414.705 351.223 414.99C351.508 415.2 351.778 415.575 351.778 416.13C351.778 416.565 351.598 417.015 351.238 417.3C350.818 417.615 350.338 417.615 349.963 417.615H349.168V414.675ZM360.781 412.995H355.231V423H360.781V421.32H357.181V418.59H360.631V416.91H357.181V414.675H360.781V412.995ZM364.622 412.995H362.672V423H364.622V418.545H368.852V423H370.802V412.995H368.852V416.865H364.622V412.995ZM374.047 412.995V417.345C374.047 418.725 373.882 419.475 373.687 419.97C373.387 420.72 372.817 421.35 372.097 421.32V425.25H373.897V423H380.047V425.25H381.847V421.32H380.797V412.995H374.047ZM375.937 414.675H378.847V421.32H374.812C375.097 421.05 375.382 420.69 375.592 420.135C375.772 419.655 375.937 418.89 375.937 417.345V414.675ZM390.268 423H392.368L388.183 412.995H386.653L382.348 423H384.463L385.348 420.9H389.383L390.268 423ZM385.963 419.31L387.388 415.71L388.813 419.31H385.963Z" fill="#E9E8E6"/>
<path d="M112.876 408.995V414.725C112.876 415.67 112.891 416.54 112.381 417.05C112.216 417.215 111.931 417.41 111.481 417.41C111.271 417.41 111.076 417.365 110.926 417.32V419C111.196 419.06 111.466 419.09 111.751 419.09C112.726 419.09 113.356 418.76 113.746 418.43C114.856 417.515 114.826 416.15 114.826 415.115V410.675H117.736V419H119.686V408.995H112.876ZM126.825 408.77C123.675 408.77 121.485 410.96 121.485 414.005C121.485 417.05 123.675 419.225 126.825 419.225C129.975 419.225 132.165 417.05 132.165 414.005C132.165 410.96 129.975 408.77 126.825 408.77ZM126.825 417.455C124.875 417.455 123.495 416.03 123.495 414.005C123.495 411.98 124.875 410.54 126.825 410.54C128.775 410.54 130.155 411.98 130.155 414.005C130.155 416.03 128.775 417.455 126.825 417.455ZM135.912 408.995H133.962V419H135.912V414.74L136.137 414.515L139.692 419H142.272L137.817 413.615L142.047 408.995H139.587L135.912 413.225V408.995ZM150.308 419H152.408L148.193 408.785H146.723L142.388 419H144.503L145.388 416.9H149.423L150.308 419ZM146.003 415.31L147.443 411.71L148.853 415.31H146.003ZM153.577 419H160.837V421.25H162.637V417.32H161.437V408.995H159.487V417.32H155.527V408.995H153.577V419ZM163.933 408.995V419.195H165.283L170.803 412.25V419H172.753V408.77H171.403L165.883 415.715V408.995H163.933ZM175.036 408.995V419.195H176.386L181.906 412.25V419H183.856V408.77H182.506L176.986 415.715V408.995H175.036Z" fill="#E9E8E6"/>
<path d="M3.09 311.995H1.14V322H3.09V317.74L3.315 317.515L6.87 322H9.45L4.995 316.615L9.225 311.995H6.765L3.09 316.225V311.995ZM10.6761 311.995V322H12.0561L17.5461 315.31V322H19.4961V311.995H18.1161L12.6261 318.655V311.995H10.6761ZM23.7296 311.995H21.7796V322H23.7296V317.545H27.9596V322H29.9096V311.995H27.9596V315.865H23.7296V311.995ZM37.0547 311.77C33.9047 311.77 31.7147 313.96 31.7147 317.005C31.7147 320.05 33.9047 322.225 37.0547 322.225C40.2047 322.225 42.3947 320.05 42.3947 317.005C42.3947 313.96 40.2047 311.77 37.0547 311.77ZM37.0547 320.455C35.1047 320.455 33.7247 319.03 33.7247 317.005C33.7247 314.98 35.1047 313.54 37.0547 313.54C39.0047 313.54 40.3847 314.98 40.3847 317.005C40.3847 319.03 39.0047 320.455 37.0547 320.455ZM45.1518 311.995V316.345C45.1518 317.725 44.9868 318.475 44.7918 318.97C44.4918 319.72 43.9218 320.35 43.2018 320.32V324.25H45.0018V322H51.1518V324.25H52.9518V320.32H51.9018V311.995H45.1518ZM47.0418 313.675H49.9518V320.32H45.9168C46.2018 320.05 46.4868 319.69 46.6968 319.135C46.8768 318.655 47.0418 317.89 47.0418 316.345V313.675ZM59.7906 311.995H54.2406V322H59.7906V320.32H56.1906V317.59H59.6406V315.91H56.1906V313.675H59.7906V311.995ZM67.922 311.995H65.027C64.187 311.995 63.242 312.07 62.462 312.76C61.937 313.225 61.472 313.99 61.472 315.085C61.472 316.24 61.997 317.065 62.597 317.5C62.912 317.725 63.317 317.89 63.692 317.95L60.722 322H63.062L65.612 318.13H65.972V322H67.922V311.995ZM65.972 313.585V316.6H65.402C65.012 316.6 63.482 316.6 63.482 315.085C63.482 313.6 65.012 313.585 65.372 313.585H65.972ZM75.6074 313.675V311.995H69.1574V313.675H71.4074V322H73.3574V313.675H75.6074ZM82.3931 311.995H76.8431V322H82.3931V320.32H78.7931V317.59H82.2431V315.91H78.7931V313.675H82.3931V311.995ZM85.2445 311.995V317.725C85.2445 318.67 85.2595 319.54 84.7495 320.05C84.5845 320.215 84.2995 320.41 83.8495 320.41C83.6395 320.41 83.4445 320.365 83.2945 320.32V322C83.5645 322.06 83.8345 322.09 84.1195 322.09C85.0945 322.09 85.7245 321.76 86.1145 321.43C87.2245 320.515 87.1945 319.15 87.1945 318.115V313.675H90.1045V322H92.0545V311.995H85.2445ZM94.3334 311.995V322H95.7134L101.203 315.31V322H103.153V311.995H101.773L96.2834 318.655V311.995H94.3334Z" fill="#E9E8E6"/>
<path d="M87.2334 288.1L80.5308 287.607L81.4179 289.776L93.1476 291.944L87.2334 288.1Z" fill="#1E1E1E"/>
<path d="M24.7408 290.86L20.3052 295L31.0492 291.255L31.1477 289.283L24.7408 290.86Z" fill="#1E1E1E"/>
<path d="M46.5246 105.945L44.7503 106.241L36.1749 107.621L34.0063 108.015C34.1049 108.902 34.4006 109.592 34.7949 110.085L34.8935 110.184C35.4849 110.775 36.2734 110.972 37.3577 110.874C38.8362 110.578 39.6248 109.494 39.5262 107.818L41.2019 107.621C41.5961 109.494 42.779 110.282 44.7503 109.888C45.3418 109.691 45.8346 109.395 46.1303 109.001C46.6231 108.212 46.7217 107.227 46.5246 105.945Z" fill="black"/>
<path d="M78.9534 281.2L78.2635 281.496L80.5305 287.509L87.1347 288.001L83.9804 285.932L82.1076 279.82L78.9534 281.2ZM27.6977 282.58V288.1L24.6421 290.959L31.1476 289.381L31.5419 284.157L27.6977 282.58ZM71.4622 126.447L71.2651 129.404L75.9964 131.573L75.7993 126.94L79.5448 119.153C79.4463 118.562 78.5592 119.35 76.7849 121.617L78.5592 118.463C78.7563 117.773 78.6577 117.478 78.0663 117.675C78.362 116.788 78.2635 116.492 77.6721 116.788C77.8692 115.703 77.6721 115.309 77.1792 115.506L72.1522 121.913C71.7579 121.716 71.2651 121.618 70.8708 121.519C69.9837 119.252 69.1951 118.365 68.6037 118.759L71.4622 126.447ZM14.9824 182.237C14.9824 183.322 15.3766 184.209 16.1652 184.997C16.7566 185.49 17.348 185.884 18.038 185.983C18.4323 186.081 18.728 186.081 19.1222 186.081C19.3194 186.081 19.5165 186.081 19.7136 186.081C20.6008 185.983 21.3893 185.589 22.0793 184.997C22.5721 184.504 22.8678 184.011 23.065 183.519C23.1636 183.124 23.2621 182.73 23.2621 182.237C23.2621 181.35 22.9664 180.562 22.375 179.872C22.2764 179.773 22.1779 179.674 22.0793 179.477C21.3893 178.886 20.6008 178.492 19.7136 178.393C19.5165 178.393 19.3194 178.393 19.0237 178.393C17.8408 178.393 16.8552 178.787 16.0666 179.576C15.4752 180.167 15.0809 180.857 14.8838 181.547C15.0809 181.744 14.9824 182.04 14.9824 182.237ZM33.3161 130.686C33.5133 130.784 33.7104 130.883 34.0061 130.982C39.4274 133.741 44.4544 132.657 49.0871 127.63C46.2286 124.476 44.4544 121.125 43.5673 117.478C42.1873 118.266 40.9059 118.562 39.7231 118.365C38.5403 123.392 36.4703 127.433 33.3161 130.686ZM41.3002 100.327C39.6245 102.495 37.8503 104.861 36.2732 107.522L44.8487 106.142C43.6658 104.171 42.483 102.199 41.3002 100.327ZM47.0172 110.775C46.7215 110.085 46.4258 109.494 46.1301 108.902C45.8344 109.296 45.3415 109.592 44.7501 109.789C42.7787 110.184 41.5959 109.395 41.2016 107.522L39.526 107.719C39.6245 109.494 38.836 110.479 37.3575 110.775C36.2732 110.874 35.4847 110.676 34.8932 110.085C35.0904 111.662 35.6818 113.042 36.5689 114.225C37.1603 115.013 37.7517 115.605 38.4417 115.999C38.9345 116.295 39.4274 116.492 39.9202 116.59C40.2159 116.689 40.6102 116.689 40.9059 116.689C41.6945 116.689 42.3844 116.492 43.0744 116.196C43.863 115.802 44.6515 115.112 45.3415 114.225C46.2286 113.239 46.7215 112.056 47.0172 110.775Z" fill="#FEB992"/>
<path d="M27.5995 190.517C27.0081 190.419 26.5152 190.221 26.0224 190.123C24.3467 189.63 22.9668 189.137 21.6854 188.546C20.9954 188.25 20.404 187.954 19.9111 187.56L24.8396 281.496L27.6981 282.679L27.5995 190.517ZM42.5819 188.743L41.9905 194.756L76.7853 282.285L78.2638 281.595L78.9538 281.299L45.6376 187.264L42.5819 188.743Z" fill="#A82323"/>
<path d="M65.7453 177.605C64.4639 177.506 61.9012 178.985 58.057 181.942L59.4369 187.067C63.4783 182.04 65.6468 178.886 65.7453 177.605ZM55.2971 150.695C54.4099 151.287 53.6214 151.78 52.7343 152.075C54.8042 153.357 57.1698 154.737 59.6341 156.117C64.8582 158.975 70.9695 161.932 77.8693 164.889L77.7707 161.045C65.6468 153.652 57.1698 147.541 52.4385 142.514L55.2971 150.695ZM23.2622 183.519C23.0651 184.11 22.7694 184.603 22.2765 184.997C21.5866 185.589 20.798 185.983 19.9109 186.081C19.7137 186.081 19.5166 186.081 19.3195 186.081C18.9252 186.081 18.5309 186.081 18.2352 185.983C18.7281 186.476 19.418 186.969 20.108 187.461C20.6009 187.757 21.1923 188.151 21.8823 188.447C23.4594 187.166 23.9522 185.589 23.2622 183.519ZM28.0921 150.695L25.7264 151.977L29.4721 162.425L26.8107 166.861L20.3052 177.703L19.9109 178.295C20.798 178.393 21.5866 178.787 22.2765 179.379C22.3751 179.477 22.4737 179.576 22.5722 179.773L32.3305 163.706L28.0921 150.695ZM23.4594 138.966L20.9951 136.797L14.6867 142.021L0 154.145L14.9824 181.547C15.081 180.759 15.4753 180.167 16.1653 179.576L4.43559 154.835C12.5182 148.133 18.8266 142.81 23.4594 138.966Z" fill="#69A2AD"/>
<path d="M52.7341 152.075C51.6499 152.568 50.5656 152.864 49.4813 153.061L47.7071 160.749C49.1856 162.327 50.7627 163.904 52.2413 165.382C55.7897 163.312 58.254 160.158 59.5354 156.018C57.1697 154.835 54.9026 153.455 52.7341 152.075ZM21.685 163.509C23.2621 164.889 24.9377 166.072 26.6134 166.959L29.2748 162.524L25.5292 152.075L16.4608 156.905C17.7422 159.271 19.5165 161.439 21.685 163.509ZM44.7501 106.241L46.5243 105.945C46.7214 107.227 46.6229 108.114 46.13 108.804C46.4257 109.395 46.7214 110.085 47.0171 110.677C46.7214 111.958 46.2286 113.141 45.44 114.126C44.75 115.014 44.0601 115.605 43.1729 116.098C43.2715 116.591 43.3701 116.985 43.4687 117.478C44.3558 121.026 46.13 124.476 48.9885 127.63L50.8613 129.405L57.0711 135.516L60.0282 138.374C59.4368 135.319 58.6482 131.967 57.6625 128.419C54.9026 116.689 52.1427 107.227 49.4813 100.228C47.7071 96.5812 45.3415 94.9055 42.3844 95.0041C39.0331 95.2012 36.2731 96.9755 33.9075 100.228C26.2191 111.958 20.305 124.18 16.0666 136.896C15.4751 138.571 15.0809 140.247 14.7852 141.923L21.0936 136.699L27.9934 130.982C28.4862 130.686 28.8805 130.292 29.2748 129.897C29.7676 129.503 30.2604 129.109 30.6547 128.715C35.386 124.476 38.0474 120.238 38.5402 115.802C37.8502 115.408 37.2588 114.816 36.6674 114.028C35.7803 112.845 35.1889 111.465 34.9917 109.888L34.8932 109.789C34.4989 109.297 34.2032 108.607 34.1046 107.719L36.2731 107.325C37.9488 104.664 39.6245 102.298 41.3001 100.13C42.483 102.2 43.6658 104.171 44.7501 106.241Z" fill="#1E1E1E"/>
<path d="M50.2697 147.147L48.2983 141.331L56.9723 135.516L50.7625 129.405L38.2443 157.004L50.2697 147.147ZM41.6942 169.719C41.8913 173.366 41.0042 178.097 39.0328 184.012C40.3142 181.055 41.2999 178.492 41.8913 176.225C42.6799 173.268 42.877 170.902 42.3842 169.128L38.3429 157.004L41.6942 169.719ZM23.459 138.966L28.3874 143.303L26.5146 147.147L38.3429 157.102L30.3588 133.15C28.6831 134.53 26.416 136.501 23.459 138.966Z" fill="#9CDAE2"/>
<path d="M38.3432 157.102L42.3846 169.226C42.8774 171.001 42.6803 173.268 41.8917 176.323C43.9617 180.167 47.1159 183.913 51.2557 187.659C53.8185 185.392 56.0856 183.519 58.057 182.04C61.9012 179.083 64.4639 177.605 65.7453 177.703C61.2112 173.958 56.7756 170.015 52.34 165.579C50.7629 164.101 49.2844 162.524 47.8058 160.947L49.5801 153.258C50.6643 153.061 51.7486 152.765 52.8328 152.272C53.72 151.878 54.5085 151.385 55.3956 150.893L52.5371 142.711C57.367 147.738 65.7453 153.948 77.8693 161.242L77.1793 132.066L76.095 131.573L71.3638 129.405L70.4766 129.01L68.801 147.147L60.0284 138.473L57.0713 135.614L48.3973 141.43L50.3686 147.245L38.3432 157.102ZM28.3878 143.303L23.4594 138.966C18.8266 142.908 12.5182 148.133 4.53418 154.835L16.2638 179.576C17.0524 178.787 18.0381 178.393 19.2209 178.393C19.418 178.393 19.6152 178.393 19.9109 178.393L20.3052 177.802L14.4896 157.989L16.6581 156.905L25.7264 152.075L28.0921 150.794L32.232 163.805L22.4737 179.872C23.0651 180.562 23.3608 181.35 23.3608 182.237C23.3608 182.73 23.2622 183.124 23.1637 183.519C23.8536 185.49 23.3608 187.166 21.6851 188.447C22.9665 189.039 24.3465 189.63 26.0222 190.024C26.515 190.123 27.0078 190.32 27.5993 190.419C29.7678 190.911 32.3306 191.404 35.0905 191.7C36.569 188.94 37.949 186.279 38.9347 184.012C40.906 178.097 41.7931 173.366 41.596 169.719L38.2447 157.102L26.4164 147.147L28.3878 143.303ZM20.9951 136.797L23.4594 138.966C26.4164 136.501 28.6835 134.53 30.3592 133.249L29.2749 130.095C28.8806 130.489 28.3878 130.784 27.9935 131.179L20.9951 136.797Z" fill="#89C5CD"/>
<path d="M41.8916 176.225C41.3002 178.492 40.3145 181.054 39.0332 184.012C37.9489 186.377 36.6675 188.94 35.189 191.7C32.429 191.404 29.8663 191.01 27.6978 190.419L27.7963 282.482L31.6405 283.96L32.9219 284.453L41.9902 194.657L42.5816 188.644L45.7358 187.166L79.052 281.102L82.2062 279.623L83.6848 278.933L59.4369 186.87L58.0569 181.744C56.0855 183.223 53.917 185.096 51.2557 187.363C47.1158 183.913 44.0602 180.069 41.8916 176.225Z" fill="#CC3333"/>
<path d="M34.0059 130.982C33.8088 130.883 33.6117 130.785 33.3159 130.686C33.3159 130.686 32.3303 131.573 30.3589 133.249L38.343 157.201L50.8612 129.602L48.9884 127.828C44.4542 132.658 39.4272 133.84 34.0059 130.982Z" fill="white"/>
<path d="M30.6549 128.912C30.162 129.306 29.7677 129.7 29.2749 130.094L30.3592 133.249C32.3305 131.573 33.3162 130.784 33.3162 130.686C32.4291 130.193 31.542 129.602 30.6549 128.912Z" fill="#ECE1E1"/>
<path d="M41.0045 116.689C40.6102 116.689 40.3145 116.689 40.0188 116.591C39.526 116.492 39.0331 116.295 38.5403 115.999C38.0474 120.435 35.3861 124.673 30.6548 128.912C31.5419 129.602 32.429 130.193 33.3161 130.686C36.4703 127.433 38.5403 123.392 39.6245 118.463C40.8074 118.661 42.0888 118.365 43.4687 117.576C43.3701 117.084 43.2716 116.689 43.173 116.196C42.483 116.492 41.793 116.689 41.0045 116.689Z" fill="#E7A27B"/>
<path d="M214.427 55.6499C214.48 55.6499 214.533 55.7029 214.639 55.7029C214.586 55.7029 214.533 55.7029 214.48 55.756L214.427 55.6499ZM216.496 45.9417H217.822L221.217 59.4165C220.634 58.7268 219.997 58.1432 219.414 57.6127L216.496 45.9417Z" fill="#CACACD"/>
<path d="M210.873 45.9417H216.496L219.414 57.6127L219.838 59.4165C217.982 57.2944 216.231 56.0743 214.586 55.7029C214.533 55.7029 214.48 55.6499 214.374 55.6499C214.268 55.6499 214.162 55.5968 214.003 55.5968C213.685 55.5968 213.366 55.6499 213.048 55.7029L210.873 45.9417Z" fill="#E1E1E2"/>
<path d="M238.353 194.854L236.92 200L221.695 195.438L233.631 193.21L238.353 194.854ZM279.414 175.862L283.021 172.361L287 175.915L276.231 187.586L279.414 175.862ZM275.276 172.202L268.751 178.143L255.912 162.971L259.149 147.851L277.822 169.92L275.276 172.202ZM236.231 94.0584L260.634 91.3528L239.785 189.761L234.639 188.329L228.592 186.631L238.141 141.91L228.804 130.822L236.231 94.0584ZM237.61 122.44L241.271 126.79L247.743 96.2865L243.127 95.3846L237.61 122.44ZM235.753 10.0796C234.905 9.23077 234.639 8.32891 234.851 7.2679C235.541 5.46419 237.345 4.50928 240.316 4.40318C244.135 4.40318 247.265 2.91777 249.706 0C251.987 0.954907 254.374 3.02387 256.867 6.15384L253.631 13.1565C253.154 12.7321 252.57 12.4668 251.881 12.4668C251.191 12.4668 250.554 12.7321 250.077 13.2095C249.546 13.7401 249.281 14.3236 249.281 15.0133C249.281 15.2255 249.281 15.4377 249.334 15.6499L247.531 16.0212L246.523 8.06366C244.984 8.01061 243.286 8.70026 241.324 10.1326C240.846 10.504 240.422 10.7692 239.944 10.9814C238.459 11.565 237.08 11.2997 235.753 10.0796Z" fill="#323232"/>
<path d="M233.631 193.156L234.639 188.329L239.785 189.761L238.353 194.854L233.631 193.156ZM277.822 169.92L279.307 168.594L283.021 172.361L279.414 175.862L275.276 172.202L277.822 169.92ZM220.793 99.5225L222.119 99.8939V101.91C224.825 103.342 225.833 105.146 225.037 107.427C224.506 108.859 223.392 109.814 221.801 110.398C219.944 109.337 218.724 108.011 218.034 106.419C217.185 104.35 217.292 101.804 218.353 98.8329L220.793 99.5225ZM245.567 37.3475C244.878 37.2944 244.241 37.0822 243.658 36.7639C245.09 34.1644 245.833 31.6711 245.886 29.3899C248.167 28.2228 250.289 25.5703 252.252 21.3793L256.231 31.6711C253.048 34.748 250.289 36.6047 247.849 37.1883C246.257 44.8806 245.196 48.7002 244.666 48.5411C244.082 49.0185 244.4 45.305 245.567 37.3475ZM214.48 55.7559C214.798 55.6498 215.116 55.6498 215.435 55.6498C217.239 55.862 219.148 57.1353 221.217 59.4695C221.801 60.1591 222.437 60.9549 223.074 61.8037L226.841 63.0238L225.037 66.6313L221.111 65.252C215.063 63.7665 211.88 61.1671 211.615 57.4536C212.517 56.5517 213.472 55.9681 214.48 55.7559ZM239.891 10.9814C240.368 10.7692 240.793 10.504 241.27 10.1326C243.18 8.70024 244.931 8.01058 246.469 8.06363L247.477 16.0212L249.281 15.6498C249.228 15.4376 249.228 15.2254 249.228 15.0132C249.228 14.3236 249.493 13.687 250.024 13.2095C250.501 12.7321 251.138 12.4668 251.827 12.4668C252.517 12.4668 253.101 12.679 253.578 13.1565L253.631 13.2095C254.109 13.74 254.374 14.3236 254.374 15.0132C254.374 15.7029 254.109 16.3395 253.631 16.8169C253.631 16.87 253.578 16.87 253.578 16.923C253.101 17.4005 252.517 17.6127 251.827 17.6127C251.456 17.6127 251.085 17.5597 250.766 17.4005C250.554 21.4854 248.91 24.7745 245.78 27.2679C245.461 27.5331 245.143 27.7984 244.772 28.0106C242.225 29.1777 240.368 28.6472 239.254 26.366C238.83 25.0398 239.148 22.9708 240.262 20.053C238.83 19.5225 238.087 18.992 237.981 18.4085C240.315 16.2334 240.952 13.74 239.891 10.9814Z" fill="#FEB992"/>
<path d="M241.27 126.791L237.61 122.441L243.18 95.4379L247.796 96.3397L241.27 126.791ZM263.923 87.7455L272.305 86.5254L261.111 138.568L283.499 164.775L279.255 168.594L277.769 169.921L259.042 147.852L255.806 162.971L249.493 192.573L239.732 189.815L260.634 91.353L236.231 94.0585L236.708 91.7774L263.923 87.7455Z" fill="#191919"/>
<path d="M237.08 64.0321L235.17 63.6607L240.422 50.5573L237.08 64.0321ZM271.51 51.8305C271.51 51.7774 271.51 51.7244 271.51 51.7244C271.244 39.682 266.205 32.9976 256.284 31.6713C257.292 30.6634 258.406 29.5493 259.52 28.2761C278.99 30.7164 284.772 49.8676 276.762 85.8889L272.305 86.5785L263.923 87.7987C266.417 80.6369 268.274 74.2178 269.547 68.4353C264.613 74.1647 259.255 79.4698 253.472 84.2973L234.427 74.9074L231.138 88.2761L223.34 100.319L222.173 100L220.846 99.6289L231.297 73.3159L227.425 71.4061L223.552 69.4963L224.984 66.6316L252.995 78.1435C265.25 65.0931 271.403 56.3398 271.51 51.8305Z" fill="#A82323"/>
<path d="M227.477 71.4057L231.35 73.3155L220.846 99.5224L218.406 98.8328L217.186 98.4614C217.928 96.3925 218.671 94.3235 219.414 92.3606C222.172 84.7744 224.878 77.7718 227.477 71.4057ZM269.546 68.3818C268.273 74.1643 266.416 80.6365 263.923 87.7452L236.761 91.7771L230.024 92.785L231.138 88.2227L234.427 74.854L253.472 84.2439C259.255 79.3633 264.613 74.1113 269.546 68.3818ZM271.509 51.671C271.509 51.724 271.509 51.724 271.509 51.7771C271.456 56.2864 265.249 65.0397 252.995 78.0901L224.984 66.5781L226.788 62.9707L227.265 61.9627L251.244 68.7001L261.748 41.3261L250.554 66.7373L237.027 63.9787L240.422 50.5569L235.223 63.6073L231.085 62.7585C235.647 52.0423 239.891 43.3951 243.711 36.7638C244.294 37.0821 244.931 37.2413 245.621 37.3474C244.454 45.3049 244.135 49.0185 244.772 48.4879C245.249 48.6471 246.31 44.8805 247.955 37.1352C250.395 36.5516 253.207 34.6948 256.337 31.6179C266.204 32.9972 271.244 39.6285 271.509 51.671Z" fill="#CC3333"/>
<path d="M250.608 66.7903L261.801 41.3792L251.297 68.7532L227.319 62.0158L231.032 62.8115L235.17 63.6603L237.08 64.0317L250.608 66.7903Z" fill="#E53434"/>
<path d="M245.886 29.3897C245.886 28.647 245.886 27.9573 245.78 27.2677C248.857 24.7743 250.554 21.4852 250.767 17.4003C251.085 17.5595 251.456 17.6125 251.828 17.6125C252.517 17.6125 253.101 17.4003 253.578 16.9229L259.467 28.2226C258.353 29.4958 257.292 30.6629 256.231 31.6178L252.252 21.326C250.289 25.517 248.167 28.2226 245.886 29.3897Z" fill="#E7A27B"/>
<path d="M515.725 573.068L520.665 574.064L520.015 579.35L504.243 577.097L515.725 573.068Z" fill="#191919"/>
<path d="M521.314 568.778L520.665 574.064L515.725 573.068L516.028 568.085L521.314 568.778Z" fill="#FEB992"/>
<path d="M526.99 465.009L538.125 461.63L531.41 570.078L521.271 568.778L526.99 465.009Z" fill="#A82323"/>
<path d="M515.855 468.432L526.99 465.052L521.314 568.822L516.028 568.128L509.746 567.392L515.855 468.432Z" fill="#CC3333"/>
<path d="M533.88 573.934L538.906 574.367L538.82 579.697L522.875 579.22L533.88 573.934Z" fill="#191919"/>
<path d="M533.62 568.995L538.949 569.082L538.906 574.411L533.88 573.978L533.62 568.995Z" fill="#FEB992"/>
<path d="M532.97 465.312L543.629 460.676L549.131 569.168L538.949 569.038L532.97 465.312Z" fill="#A82323"/>
<path d="M522.269 469.905L532.927 465.269L538.906 569.038L533.577 568.951L527.251 568.865L522.269 469.905Z" fill="#CC3333"/>
<path d="M485.353 437.886C485.483 437.583 485.656 437.193 485.916 436.673C491.679 443.562 499.131 446.942 508.317 446.725C508.49 446.725 508.663 446.725 508.793 446.682C514.123 446.162 518.889 444.342 523.091 441.136C523.698 442.609 524.218 444.169 524.738 445.815C520.622 448.718 515.856 450.365 510.483 450.754C509.92 450.841 509.357 450.884 508.793 450.884C499.825 451.361 492.026 446.985 485.353 437.886Z" fill="#E7A27B"/>
<path d="M503.03 428.051C503.724 426.361 504.33 424.672 504.807 423.025C506.107 423.155 507.45 423.198 508.836 423.242C510.179 423.242 511.523 423.198 512.866 423.112C512.432 423.935 511.956 424.715 511.479 425.451C510.699 426.621 509.919 427.661 509.053 428.614C508.966 428.614 508.923 428.614 508.836 428.614C506.843 428.528 504.893 428.354 503.03 428.051Z" fill="#6FA7AF"/>
<path d="M506.193 410.114C507.06 410.114 507.926 410.07 508.793 410.027C513.299 409.81 517.805 409.204 522.354 408.164C519.452 409.68 517.112 412.843 515.292 417.609C515.205 417.869 515.075 418.172 514.989 418.432C514.989 418.476 514.945 418.476 514.945 418.519C514.296 420.165 513.559 421.639 512.822 423.025C511.479 423.112 510.136 423.155 508.793 423.155C507.45 423.155 506.107 423.068 504.764 422.938C506.15 418.432 506.627 414.1 506.193 410.114Z" fill="#89C5CD"/>
<path d="M476.081 404.438C476.99 404.784 477.9 405.131 478.81 405.478C487.866 408.727 497.008 410.287 506.236 410.157C506.67 414.143 506.193 418.432 504.807 423.025C492.978 421.985 482.666 416.613 473.871 406.864L476.081 404.438Z" fill="#FEB992"/>
<path d="M473.005 407.861L473.871 406.864C482.667 416.569 492.979 421.942 504.807 423.025C504.331 424.672 503.724 426.318 503.031 428.051C491.549 426.188 481.54 419.472 473.005 407.861Z" fill="#E7A27B"/>
<path d="M518.455 399.585L527.857 398.112L536.306 415.183C531.8 419.342 526.298 421.075 519.755 420.382L518.455 399.585Z" fill="#FEB992"/>
<path d="M524.478 392.003C525.171 392.003 525.778 392.263 526.255 392.739C526.731 393.259 526.991 393.822 526.991 394.516C526.991 395.209 526.731 395.815 526.255 396.292C525.735 396.812 525.171 397.029 524.478 397.029C524.305 397.029 524.175 397.029 524.045 396.985C523.958 397.462 523.872 397.939 523.785 398.372C522.832 402.401 520.492 404.568 516.679 404.871C512.65 404.784 511.653 402.661 513.776 398.545C511.913 397.592 511.263 396.552 511.74 395.512L515.033 390.443H520.579C520.275 392.003 520.709 393.389 521.922 394.559C521.922 394.516 521.922 394.516 521.922 394.472C521.922 393.779 522.182 393.172 522.658 392.696C523.178 392.263 523.785 392.003 524.478 392.003Z" fill="#FEB992"/>
<path d="M530.5 390.486C532.017 390.573 532.754 391.439 532.754 393.086C532.624 394.299 531.584 394.949 529.591 394.949C531.28 396.162 532.58 397.678 533.533 399.542C534.443 401.318 534.443 402.878 533.533 404.134C531.8 406.041 529.937 406.344 527.901 404.957C525.864 403.571 524.521 401.405 523.828 398.458C523.958 398.025 524.045 397.548 524.088 397.072C524.218 397.115 524.391 397.115 524.521 397.115C525.215 397.115 525.821 396.855 526.298 396.379C526.774 395.859 527.034 395.295 527.034 394.602C527.034 393.909 526.774 393.302 526.298 392.826C525.778 392.349 525.215 392.089 524.521 392.089C523.828 392.089 523.221 392.349 522.745 392.826C522.225 393.346 522.008 393.909 522.008 394.602C522.008 394.646 522.008 394.646 522.008 394.689C520.795 393.476 520.362 392.089 520.665 390.573H530.5V390.486Z" fill="#191919"/>
<path d="M515.033 389.23V384.464C515.119 381.561 517.676 380.044 522.745 380.001C522.788 380.001 522.788 380.001 522.832 380.001V389.23H515.033Z" fill="#FF7474"/>
<path d="M507.104 390.486V389.23H515.033H522.832V380.001C527.684 379.958 530.241 381.474 530.5 384.55V390.443H520.622H515.076H507.104V390.486Z" fill="#CC3333"/>
<path d="M528.464 442.782C527.294 443.909 526.038 444.949 524.781 445.859C524.305 444.212 523.741 442.652 523.135 441.179C526.298 438.753 530.154 434.81 534.703 429.264C533.923 434.853 531.844 439.359 528.464 442.782ZM549.651 446.768C549.694 449.151 549.694 451.621 549.651 454.221C549.564 456.994 549.434 459.853 549.218 462.843L543.455 463.969C545.318 431.387 541.419 412.626 531.757 407.644C534.92 408.684 537.996 410.98 540.986 414.49C546.358 421.292 549.218 432.037 549.651 446.768Z" fill="#6FA7AF"/>
<path d="M511.436 425.408C511.74 425.625 512.043 425.841 512.346 426.101C508.447 431.344 503.291 434.16 496.965 434.55C501.688 434.117 505.63 432.211 508.793 428.788C508.88 428.701 508.923 428.658 509.01 428.571C509.877 427.618 510.7 426.535 511.436 425.408Z" fill="#FFCAAD"/>
<path d="M494.149 434.593C494.192 434.593 494.279 434.593 494.322 434.593C494.539 434.593 494.755 434.593 494.929 434.593C495.622 434.593 496.315 434.55 497.008 434.507C503.334 434.117 508.49 431.3 512.39 426.058C516.939 429.567 520.492 434.593 523.135 441.136C518.932 444.342 514.123 446.205 508.837 446.682C508.663 446.682 508.49 446.682 508.36 446.725C499.175 446.942 491.722 443.562 485.96 436.673C486.35 435.893 486.913 434.853 487.65 433.553C489.903 434.16 492.112 434.507 494.149 434.593Z" fill="#FEB992"/>
<path d="M522.355 408.207C523.178 407.774 524.044 407.471 524.954 407.297C526.341 406.994 527.684 406.951 529.07 407.081C523.828 406.994 519.755 410.547 516.895 417.696C515.639 420.945 514.122 423.762 512.389 426.101C512.086 425.841 511.783 425.625 511.479 425.408C511.956 424.671 512.433 423.892 512.866 423.068C513.646 421.682 514.339 420.165 514.989 418.562C514.989 418.519 515.032 418.519 515.032 418.476C515.119 418.216 515.249 417.956 515.336 417.652C517.112 412.93 519.452 409.767 522.355 408.207Z" fill="#9AE0E9"/>
<path d="M529.027 407.08C529.937 407.167 530.804 407.384 531.714 407.644C541.376 412.626 545.275 431.43 543.412 463.969L507.667 471.075L510.483 450.754C515.856 450.365 520.622 448.718 524.738 445.815C526.038 444.905 527.251 443.865 528.421 442.739C531.8 439.316 533.88 434.81 534.617 429.221C530.067 434.767 526.211 438.709 523.048 441.136C520.405 434.593 516.852 429.567 512.303 426.058C514.036 423.718 515.553 420.902 516.809 417.652C519.712 410.547 523.785 407.037 529.027 407.08Z" fill="#89C5CD"/>
<path d="M457.754 449.541H459.833L479.201 579.133H477.121L457.754 449.541Z" fill="#1A1A23"/>
<path d="M452.251 449.541H454.288L434.92 579.133H432.884L452.251 449.541Z" fill="#1A1A23"/>
<path d="M454.894 448.935L456.93 448.631L456.843 579.697L454.807 580L454.894 448.935Z" fill="#1A1A23"/>
<path d="M439.47 405.521H441.506L452.944 423.242H450.865L439.47 405.521Z" fill="#1A1A23"/>
<path d="M442.589 402.098C442.849 403.571 442.112 404.394 440.422 404.524H425.128V402.098H442.589Z" fill="#1A1A23"/>
<path d="M445.232 404.524C445.232 404.611 445.232 404.698 445.232 404.784C445.232 405.521 444.972 406.171 444.452 406.647C443.932 407.167 443.325 407.427 442.589 407.427H425.128V404.524H440.423C442.112 404.394 442.849 403.614 442.589 402.098C443.325 402.098 443.975 402.358 444.452 402.878C444.929 403.311 445.189 403.874 445.232 404.524Z" fill="#111117"/>
<path d="M456.107 440.269C457.234 440.269 458.187 440.659 458.967 441.439C459.747 442.219 460.137 443.172 460.137 444.299V451.101C460.137 452.228 459.747 453.181 458.967 453.961C458.187 454.741 457.234 455.131 456.107 455.131C454.981 455.131 454.028 454.741 453.248 453.961C452.468 453.181 452.078 452.228 452.078 451.101V444.299C452.078 443.172 452.468 442.219 453.248 441.439C454.028 440.659 454.981 440.269 456.107 440.269Z" fill="#1F1E2C"/>
<path d="M452.511 442.825C452.511 443.042 452.555 443.259 452.598 443.475H452.511V442.825ZM459.747 443.475H459.66C459.704 443.259 459.747 443.042 459.747 442.825V443.475ZM453.551 433.423C454.244 432.73 455.111 432.384 456.108 432.384C457.104 432.384 457.971 432.73 458.664 433.423C459.357 434.117 459.704 434.983 459.704 435.98V441.786H452.468V435.98C452.511 434.983 452.858 434.117 453.551 433.423Z" fill="#272638"/>
<path d="M459.747 441.786V442.826C459.747 443.042 459.704 443.259 459.66 443.475H459.747V444.429C459.747 445.425 459.4 446.248 458.707 446.942C458.014 447.635 457.147 447.981 456.151 447.981C455.154 447.981 454.288 447.635 453.595 446.942C452.901 446.248 452.511 445.382 452.511 444.429V443.475H452.598C452.555 443.259 452.511 443.042 452.511 442.826V441.786H459.747Z" fill="#444359"/>
<path d="M429.591 415.659V427.271H421.879V415.659H429.591Z" fill="#353446"/>
<path d="M412 416.656H422.269V428.441L412 429.091V416.656Z" fill="#444359"/>
<path d="M412 416.656V413.796L422.269 414.489V416.656H412Z" fill="#55546D"/>
<path d="M432.364 415.616H437.39V427.228H432.364V415.616Z" fill="#1A1A23"/>
<path d="M428.551 417.609H432.451V427.618H428.551V417.609Z" fill="#444359"/>
<path d="M428.551 417.609V415.27H432.451V417.609H428.551Z" fill="#55546D"/>
<path d="M437.347 426.924V415.963H439.903V426.924H437.347Z" fill="#111117"/>
<path d="M439.383 415.616H443.456V427.228H439.383V415.616Z" fill="#1A1A23"/>
<path d="M462.39 448.848V450.885H449.695V448.848H462.39Z" fill="#444359"/>
<path d="M450.821 440.443L445.232 431.777H467.156L461.567 440.443H450.821Z" fill="#1F1E2C"/>
<path d="M445.232 431.777V427.618H467.156V431.777H445.232Z" fill="#444359"/>
<path d="M461.783 419.385L455.674 407.124H480.587H483.966V419.385H461.783ZM450.431 409.074V407.124H453.594L460.31 420.599H483.923V426.924H442.892V414.489H445.448H450.388V411.197V409.074H450.431Z" fill="#444359"/>
<path d="M442.935 428.268V426.924H483.966V428.268H442.935ZM446.965 409.074H450.431V411.197H445.492L446.965 409.074ZM453.767 407.124H455.674L461.783 419.385H483.966V420.599H460.353L453.637 407.124H453.767Z" fill="#333246"/>
<path d="M450.431 411.197V414.533H445.492V411.197H450.431Z" fill="#272638"/>
<path d="M455.674 407.124H453.767L457.537 399.585H476.817L480.587 407.124H455.674ZM477.424 405.694L474.954 400.755H459.357L456.887 405.694H477.424Z" fill="#646380"/>
<path d="M480.371 429.741C480.414 429.394 480.501 429.091 480.63 428.787C480.977 427.834 481.627 426.968 482.624 426.188C485.83 426.794 487.909 429.567 488.863 434.42C489.123 438.059 488.039 439.273 485.57 438.103C484.79 437.366 484.053 436.63 483.447 435.98C481.367 433.64 480.371 431.56 480.371 429.741Z" fill="#FEB992"/>
<path d="M262.347 290.858V293.925H253.567V297.469H261.66V300.325H253.567V304.398H262.559V307.466H249.918V290.858H262.347ZM271.762 307.518V305.826H271.709C271.286 306.514 270.757 307.042 270.069 307.36C269.382 307.677 268.694 307.836 268.007 307.836C267.107 307.836 266.367 307.73 265.838 307.466C265.256 307.254 264.833 306.884 264.516 306.461C264.198 306.038 263.934 305.509 263.828 304.874C263.722 304.239 263.617 303.604 263.617 302.811V295.406H266.949V302.229C266.949 303.234 267.107 303.975 267.425 304.451C267.742 304.927 268.271 305.191 269.064 305.191C269.964 305.191 270.598 304.927 271.021 304.398C271.445 303.869 271.603 302.97 271.603 301.753V295.406H274.935V307.466H271.762V307.518ZM279.643 295.459V297.681H279.696C279.854 297.31 280.066 296.94 280.33 296.623C280.595 296.305 280.912 296.041 281.229 295.829C281.547 295.618 281.917 295.406 282.34 295.301C282.71 295.195 283.134 295.089 283.557 295.089C283.768 295.089 284.033 295.142 284.297 295.195V298.262C284.138 298.21 283.98 298.21 283.715 298.157C283.504 298.157 283.292 298.104 283.081 298.104C282.499 298.104 281.97 298.21 281.547 298.421C281.124 298.633 280.806 298.897 280.542 299.267C280.277 299.638 280.119 300.008 280.013 300.484C279.907 300.96 279.854 301.436 279.854 302.018V307.466H276.522V295.406H279.643V295.459ZM284.879 299.162C284.932 298.368 285.143 297.734 285.461 297.205C285.778 296.676 286.254 296.305 286.783 295.988C287.312 295.671 287.894 295.459 288.581 295.301C289.216 295.195 289.904 295.089 290.591 295.089C291.173 295.089 291.808 295.142 292.442 295.195C293.077 295.301 293.606 295.459 294.135 295.671C294.664 295.935 295.087 296.253 295.404 296.729C295.722 297.152 295.88 297.734 295.88 298.474V304.768C295.88 305.297 295.933 305.826 295.986 306.355C296.039 306.831 296.145 307.201 296.303 307.466H292.918C292.866 307.254 292.813 307.095 292.76 306.884C292.707 306.672 292.707 306.514 292.654 306.302C292.125 306.831 291.49 307.201 290.803 307.466C290.062 307.677 289.375 307.783 288.634 307.783C288.052 307.783 287.524 307.73 287.047 307.571C286.571 307.413 286.095 307.201 285.725 306.937C285.355 306.619 285.038 306.249 284.826 305.826C284.614 305.35 284.509 304.821 284.509 304.239C284.509 303.552 284.614 302.97 284.879 302.547C285.143 302.124 285.408 301.753 285.831 301.489C286.201 301.224 286.624 301.013 287.153 300.907C287.629 300.801 288.158 300.695 288.634 300.59C289.11 300.537 289.639 300.431 290.115 300.378C290.591 300.325 291.014 300.272 291.385 300.167C291.755 300.061 292.072 299.955 292.284 299.743C292.495 299.585 292.601 299.32 292.601 298.95C292.601 298.58 292.548 298.315 292.442 298.104C292.337 297.892 292.178 297.734 291.966 297.628C291.755 297.522 291.543 297.416 291.279 297.416C291.014 297.363 290.75 297.363 290.433 297.363C289.798 297.363 289.269 297.522 288.899 297.786C288.528 298.051 288.317 298.527 288.264 299.162H284.879ZM292.548 301.648C292.39 301.753 292.231 301.859 292.019 301.965C291.808 302.018 291.596 302.071 291.332 302.124C291.067 302.176 290.856 302.229 290.591 302.229C290.327 302.282 290.062 302.282 289.798 302.335C289.533 302.388 289.322 302.441 289.057 302.547C288.793 302.6 288.581 302.705 288.423 302.864C288.264 303.023 288.105 303.181 288 303.34C287.894 303.499 287.841 303.816 287.841 304.133C287.841 304.451 287.894 304.662 288 304.874C288.105 305.085 288.264 305.244 288.423 305.35C288.634 305.456 288.846 305.561 289.057 305.614C289.322 305.667 289.586 305.667 289.851 305.667C290.485 305.667 291.014 305.561 291.385 305.35C291.755 305.138 292.019 304.874 292.178 304.557C292.337 304.239 292.442 303.922 292.495 303.657C292.548 303.34 292.548 303.076 292.548 302.917V301.648ZM300.217 304.504C300.376 304.768 300.535 304.98 300.799 305.138C301.011 305.297 301.275 305.403 301.593 305.509C301.91 305.561 302.227 305.614 302.545 305.614C302.756 305.614 303.021 305.561 303.285 305.509C303.55 305.456 303.761 305.35 303.973 305.244C304.184 305.138 304.343 304.98 304.502 304.768C304.66 304.557 304.713 304.345 304.713 304.028C304.713 303.552 304.396 303.181 303.708 302.917C303.021 302.652 302.122 302.441 300.958 302.176C300.482 302.071 300.006 301.965 299.53 301.806C299.054 301.648 298.684 301.489 298.313 301.224C297.943 300.96 297.679 300.695 297.467 300.325C297.256 299.955 297.15 299.532 297.15 299.003C297.15 298.21 297.308 297.575 297.626 297.099C297.943 296.623 298.313 296.2 298.842 295.935C299.318 295.671 299.9 295.459 300.535 295.353C301.169 295.248 301.804 295.195 302.439 295.195C303.074 295.195 303.708 295.248 304.343 295.406C304.978 295.512 305.507 295.724 305.983 296.041C306.459 296.358 306.882 296.729 307.199 297.205C307.516 297.681 307.728 298.315 307.781 299.056H304.607C304.555 298.421 304.343 297.998 303.867 297.786C303.444 297.575 302.915 297.469 302.333 297.469C302.122 297.469 301.963 297.469 301.751 297.522C301.54 297.522 301.328 297.575 301.169 297.681C301.011 297.734 300.852 297.892 300.693 297.998C300.588 298.157 300.482 298.368 300.482 298.58C300.482 298.897 300.588 299.109 300.799 299.32C301.011 299.532 301.275 299.638 301.646 299.796C302.016 299.902 302.386 300.008 302.862 300.114C303.338 300.219 303.761 300.325 304.237 300.431C304.713 300.537 305.189 300.695 305.665 300.801C306.141 300.96 306.512 301.171 306.882 301.436C307.252 301.7 307.516 302.018 307.728 302.388C307.94 302.758 308.045 303.234 308.045 303.816C308.045 304.609 307.887 305.297 307.569 305.826C307.252 306.355 306.829 306.778 306.3 307.095C305.771 307.413 305.189 307.677 304.555 307.783C303.92 307.889 303.232 307.994 302.545 307.994C301.857 307.994 301.17 307.942 300.482 307.783C299.794 307.624 299.213 307.413 298.684 307.095C298.155 306.778 297.732 306.355 297.414 305.826C297.097 305.297 296.885 304.609 296.885 303.816H300.059C300.006 303.975 300.059 304.292 300.217 304.504ZM309.156 293.608V290.858H312.488V293.608H309.156ZM312.435 295.459V307.518H309.103V295.459H312.435ZM314.022 299.162C314.075 298.368 314.287 297.734 314.604 297.205C314.921 296.676 315.397 296.305 315.926 295.988C316.455 295.671 317.037 295.459 317.725 295.301C318.359 295.195 319.047 295.089 319.734 295.089C320.316 295.089 320.951 295.142 321.586 295.195C322.22 295.301 322.749 295.459 323.278 295.671C323.807 295.935 324.23 296.253 324.548 296.729C324.865 297.152 325.024 297.734 325.024 298.474V304.768C325.024 305.297 325.076 305.826 325.129 306.355C325.182 306.831 325.288 307.201 325.447 307.466H322.062C322.009 307.254 321.956 307.095 321.903 306.884C321.85 306.672 321.85 306.514 321.797 306.302C321.268 306.831 320.634 307.201 319.946 307.466C319.205 307.677 318.518 307.783 317.777 307.783C317.196 307.783 316.667 307.73 316.191 307.571C315.715 307.413 315.239 307.201 314.868 306.937C314.498 306.619 314.181 306.249 313.969 305.826C313.758 305.35 313.652 304.821 313.652 304.239C313.652 303.552 313.758 302.97 314.022 302.547C314.287 302.124 314.551 301.753 314.974 301.489C315.344 301.224 315.768 301.013 316.296 300.907C316.772 300.801 317.301 300.695 317.777 300.59C318.253 300.537 318.782 300.431 319.258 300.378C319.734 300.325 320.158 300.272 320.528 300.167C320.898 300.061 321.215 299.955 321.427 299.743C321.638 299.585 321.744 299.32 321.744 298.95C321.744 298.58 321.691 298.315 321.586 298.104C321.48 297.892 321.321 297.734 321.11 297.628C320.898 297.522 320.686 297.416 320.422 297.416C320.158 297.363 319.893 297.363 319.576 297.363C318.941 297.363 318.412 297.522 318.042 297.786C317.672 298.051 317.46 298.527 317.407 299.162H314.022ZM321.638 301.648C321.48 301.753 321.321 301.859 321.11 301.965C320.898 302.018 320.686 302.071 320.422 302.124C320.158 302.176 319.946 302.229 319.681 302.229C319.417 302.282 319.153 302.282 318.888 302.335C318.624 302.388 318.412 302.441 318.148 302.547C317.883 302.6 317.672 302.705 317.513 302.864C317.354 303.023 317.196 303.181 317.09 303.34C316.984 303.499 316.931 303.816 316.931 304.133C316.931 304.451 316.984 304.662 317.09 304.874C317.196 305.085 317.354 305.244 317.513 305.35C317.725 305.456 317.936 305.561 318.148 305.614C318.412 305.667 318.677 305.667 318.941 305.667C319.576 305.667 320.105 305.561 320.475 305.35C320.845 305.138 321.11 304.874 321.268 304.557C321.427 304.239 321.533 303.922 321.586 303.657C321.638 303.34 321.638 303.076 321.638 302.917V301.648ZM249.918 313.865V310.798H263.564V313.865H258.592V327.459H254.942V313.865H249.918ZM261.924 319.102C261.977 318.308 262.189 317.674 262.506 317.145C262.823 316.616 263.299 316.246 263.828 315.928C264.357 315.611 264.939 315.399 265.626 315.241C266.261 315.135 266.949 315.029 267.636 315.029C268.218 315.029 268.853 315.082 269.488 315.135C270.122 315.188 270.651 315.399 271.18 315.611C271.709 315.875 272.132 316.193 272.449 316.669C272.767 317.092 272.925 317.674 272.925 318.414V324.708C272.925 325.237 272.978 325.766 273.031 326.295C273.084 326.771 273.19 327.141 273.349 327.406H269.964C269.911 327.194 269.858 327.035 269.805 326.824C269.752 326.612 269.752 326.454 269.699 326.242C269.17 326.771 268.535 327.141 267.848 327.406C267.107 327.617 266.42 327.723 265.679 327.723C265.098 327.723 264.569 327.67 264.093 327.511C263.617 327.353 263.141 327.141 262.77 326.877C262.4 326.559 262.083 326.189 261.871 325.766C261.66 325.29 261.554 324.761 261.554 324.179C261.554 323.492 261.66 322.91 261.924 322.487C262.189 322.064 262.453 321.693 262.876 321.429C263.246 321.164 263.669 320.953 264.198 320.847C264.674 320.741 265.203 320.636 265.679 320.53C266.155 320.477 266.684 320.371 267.16 320.318C267.636 320.265 268.059 320.212 268.43 320.107C268.8 320.001 269.117 319.895 269.329 319.683C269.54 319.525 269.646 319.26 269.646 318.89C269.646 318.52 269.593 318.255 269.488 318.044C269.382 317.832 269.223 317.674 269.012 317.568C268.8 317.462 268.588 317.356 268.324 317.356C268.059 317.303 267.795 317.303 267.478 317.303C266.843 317.303 266.314 317.462 265.944 317.726C265.574 317.991 265.362 318.467 265.309 319.102H261.924ZM269.54 321.588C269.382 321.693 269.223 321.799 269.012 321.905C268.8 321.958 268.588 322.011 268.324 322.064C268.059 322.116 267.848 322.169 267.583 322.169C267.319 322.222 267.055 322.222 266.79 322.275C266.526 322.328 266.314 322.381 266.05 322.487C265.785 322.54 265.574 322.645 265.415 322.804C265.256 322.963 265.098 323.121 264.992 323.28C264.886 323.439 264.833 323.756 264.833 324.073C264.833 324.391 264.886 324.602 264.992 324.814C265.098 325.026 265.256 325.184 265.415 325.29C265.626 325.396 265.838 325.502 266.05 325.554C266.314 325.607 266.579 325.607 266.843 325.607C267.478 325.607 268.007 325.502 268.377 325.29C268.747 325.078 269.012 324.814 269.17 324.497C269.329 324.179 269.435 323.862 269.488 323.597C269.54 323.28 269.54 323.016 269.54 322.857V321.588ZM277.844 310.798V327.459H274.512V310.798H277.844ZM283.134 324.549C283.61 325.026 284.35 325.29 285.302 325.29C285.99 325.29 286.571 325.131 287.047 324.814C287.524 324.497 287.841 324.126 287.947 323.756H290.856C290.38 325.184 289.692 326.242 288.687 326.877C287.735 327.511 286.571 327.829 285.196 327.829C284.244 327.829 283.398 327.67 282.605 327.353C281.864 327.035 281.177 326.612 280.648 326.083C280.119 325.502 279.696 324.867 279.431 324.073C279.167 323.28 279.008 322.434 279.008 321.482C279.008 320.583 279.167 319.736 279.431 318.943C279.748 318.15 280.172 317.515 280.701 316.933C281.229 316.351 281.917 315.928 282.658 315.611C283.398 315.293 284.244 315.135 285.143 315.135C286.148 315.135 287.047 315.346 287.841 315.717C288.581 316.14 289.216 316.669 289.745 317.303C290.221 317.991 290.591 318.731 290.803 319.578C291.014 320.424 291.12 321.323 291.014 322.275H282.34C282.393 323.333 282.658 324.073 283.134 324.549ZM286.889 318.203C286.519 317.779 285.884 317.568 285.091 317.568C284.562 317.568 284.138 317.674 283.768 317.832C283.398 317.991 283.134 318.255 282.922 318.52C282.71 318.784 282.552 319.049 282.499 319.366C282.393 319.683 282.34 319.948 282.34 320.16H287.735C287.576 319.313 287.312 318.679 286.889 318.203ZM295.457 315.399V317.092H295.51C295.933 316.404 296.462 315.875 297.15 315.558C297.837 315.241 298.525 315.082 299.213 315.082C300.112 315.082 300.799 315.188 301.381 315.452C301.963 315.717 302.386 316.034 302.703 316.457C303.021 316.88 303.285 317.409 303.391 318.044C303.497 318.679 303.603 319.313 303.603 320.107V327.511H300.27V320.688C300.27 319.683 300.112 318.943 299.794 318.467C299.477 317.991 298.948 317.726 298.155 317.726C297.256 317.726 296.621 317.991 296.198 318.52C295.775 319.049 295.616 319.948 295.616 321.164V327.511H292.284V315.452H295.457V315.399ZM312.065 315.399V317.621H309.632V323.597C309.632 324.179 309.738 324.549 309.897 324.708C310.108 324.92 310.478 324.973 311.007 324.973C311.219 324.973 311.378 324.973 311.536 324.973C311.695 324.973 311.854 324.92 312.012 324.92V327.511C311.748 327.564 311.43 327.564 311.06 327.617C310.743 327.617 310.373 327.617 310.055 327.617C309.526 327.617 309.05 327.564 308.574 327.511C308.098 327.459 307.728 327.3 307.358 327.088C306.988 326.877 306.723 326.612 306.512 326.242C306.3 325.872 306.194 325.396 306.194 324.761V317.621H304.184V315.399H306.194V311.803H309.526V315.399H312.065ZM316.191 324.444C316.349 324.708 316.508 324.92 316.772 325.078C316.984 325.237 317.248 325.343 317.566 325.449C317.883 325.502 318.201 325.554 318.518 325.554C318.729 325.554 318.994 325.502 319.258 325.449C319.523 325.396 319.734 325.29 319.946 325.184C320.158 325.078 320.316 324.92 320.475 324.708C320.634 324.497 320.686 324.285 320.686 323.968C320.686 323.492 320.369 323.121 319.681 322.857C318.994 322.593 318.095 322.381 316.931 322.116C316.455 322.011 315.979 321.905 315.503 321.746C315.027 321.588 314.657 321.429 314.287 321.164C313.916 320.9 313.652 320.636 313.44 320.265C313.229 319.895 313.123 319.472 313.123 318.943C313.123 318.15 313.282 317.515 313.599 317.039C313.916 316.563 314.287 316.14 314.815 315.875C315.291 315.611 315.873 315.399 316.508 315.294C317.143 315.188 317.777 315.135 318.412 315.135C319.047 315.135 319.681 315.188 320.316 315.346C320.951 315.452 321.48 315.664 321.956 315.981C322.432 316.298 322.855 316.669 323.172 317.145C323.49 317.621 323.701 318.255 323.754 318.996H320.581C320.528 318.361 320.316 317.938 319.84 317.726C319.417 317.515 318.888 317.409 318.306 317.409C318.095 317.409 317.936 317.409 317.725 317.462C317.513 317.462 317.301 317.515 317.143 317.621C316.984 317.674 316.825 317.832 316.667 317.938C316.561 318.097 316.455 318.308 316.455 318.52C316.455 318.837 316.561 319.049 316.772 319.26C316.984 319.472 317.248 319.578 317.619 319.736C317.989 319.842 318.359 319.948 318.835 320.054C319.311 320.16 319.734 320.265 320.21 320.371C320.686 320.477 321.162 320.636 321.638 320.741C322.114 320.9 322.485 321.112 322.855 321.376C323.225 321.64 323.49 321.958 323.701 322.328C323.913 322.698 324.019 323.174 324.019 323.756C324.019 324.549 323.86 325.237 323.543 325.766C323.225 326.295 322.802 326.718 322.273 327.035C321.744 327.353 321.162 327.617 320.528 327.723C319.893 327.829 319.205 327.935 318.518 327.935C317.83 327.935 317.143 327.882 316.455 327.723C315.768 327.564 315.186 327.353 314.657 327.035C314.128 326.718 313.705 326.295 313.387 325.766C313.07 325.237 312.859 324.549 312.859 323.756H316.032C315.926 323.915 316.032 324.232 316.191 324.444ZM259.279 330.738L265.521 347.399H261.713L260.443 343.696H254.202L252.88 347.399H249.177L255.471 330.738H259.279ZM259.491 340.946L257.375 334.81H257.323L255.154 340.946H259.491ZM276.945 348.298C276.787 348.932 276.522 349.514 276.099 350.043C275.676 350.572 275.041 351.048 274.195 351.418C273.349 351.789 272.291 352 270.863 352C270.281 352 269.646 351.947 269.064 351.789C268.43 351.63 267.901 351.418 267.372 351.101C266.843 350.784 266.473 350.413 266.102 349.884C265.785 349.408 265.574 348.827 265.521 348.139H268.8C268.959 348.774 269.276 349.197 269.699 349.408C270.175 349.673 270.651 349.779 271.286 349.779C272.238 349.779 272.873 349.514 273.349 348.932C273.772 348.351 273.983 347.663 273.983 346.817V345.23H273.93C273.56 345.865 273.084 346.341 272.397 346.658C271.762 346.975 271.021 347.134 270.334 347.134C269.435 347.134 268.641 346.975 268.007 346.658C267.372 346.341 266.843 345.918 266.42 345.336C265.997 344.807 265.679 344.119 265.521 343.379C265.309 342.638 265.203 341.845 265.203 341.052C265.203 340.258 265.309 339.518 265.521 338.777C265.732 338.037 266.102 337.402 266.526 336.873C266.949 336.344 267.478 335.868 268.165 335.551C268.8 335.234 269.54 335.075 270.387 335.075C271.18 335.075 271.868 335.234 272.449 335.498C273.031 335.815 273.56 336.291 273.93 336.979H273.983V335.392H277.157V346.658C277.157 347.134 277.104 347.663 276.945 348.298ZM272.449 344.278C272.82 344.066 273.084 343.855 273.349 343.538C273.56 343.22 273.772 342.85 273.878 342.48C273.983 342.057 274.036 341.686 274.036 341.21C274.036 340.734 273.983 340.258 273.878 339.782C273.772 339.306 273.613 338.936 273.402 338.619C273.19 338.301 272.873 337.984 272.555 337.825C272.185 337.614 271.762 337.508 271.18 337.508C270.704 337.508 270.334 337.614 269.964 337.772C269.646 337.984 269.329 338.195 269.117 338.513C268.906 338.83 268.747 339.2 268.641 339.624C268.535 340.047 268.483 340.47 268.483 340.893C268.483 341.316 268.535 341.739 268.588 342.162C268.694 342.585 268.8 342.956 269.012 343.326C269.223 343.643 269.488 343.961 269.858 344.172C270.175 344.384 270.651 344.49 271.127 344.49C271.656 344.542 272.079 344.437 272.449 344.278ZM282.499 344.49C282.975 344.966 283.715 345.23 284.667 345.23C285.355 345.23 285.937 345.071 286.413 344.754C286.889 344.437 287.206 344.066 287.312 343.696H290.221C289.745 345.124 289.057 346.182 288.052 346.817C287.1 347.451 285.937 347.769 284.562 347.769C283.61 347.769 282.763 347.61 281.97 347.293C281.229 346.975 280.542 346.552 280.013 346.023C279.484 345.442 279.061 344.807 278.796 344.014C278.532 343.22 278.373 342.374 278.373 341.422C278.373 340.523 278.532 339.676 278.796 338.883C279.114 338.09 279.537 337.455 280.066 336.873C280.595 336.291 281.282 335.868 282.023 335.551C282.763 335.234 283.61 335.075 284.509 335.075C285.514 335.075 286.413 335.286 287.206 335.657C287.947 336.08 288.581 336.609 289.11 337.243C289.586 337.931 289.957 338.671 290.168 339.518C290.38 340.364 290.485 341.263 290.38 342.215H281.705C281.705 343.273 282.023 344.014 282.499 344.49ZM286.254 338.143C285.884 337.719 285.249 337.508 284.456 337.508C283.927 337.508 283.504 337.614 283.134 337.772C282.763 337.931 282.499 338.195 282.287 338.46C282.076 338.724 281.917 338.989 281.864 339.306C281.758 339.624 281.705 339.888 281.705 340.1H287.1C286.889 339.253 286.624 338.619 286.254 338.143ZM294.77 335.339V337.032H294.823C295.246 336.344 295.775 335.815 296.462 335.498C297.15 335.181 297.837 335.022 298.525 335.022C299.424 335.022 300.112 335.128 300.693 335.392C301.275 335.657 301.698 335.974 302.016 336.397C302.333 336.82 302.598 337.349 302.703 337.984C302.809 338.619 302.915 339.253 302.915 340.047V347.451H299.583V340.576C299.583 339.571 299.424 338.83 299.107 338.354C298.789 337.878 298.26 337.614 297.467 337.614C296.568 337.614 295.933 337.878 295.51 338.407C295.087 338.936 294.928 339.835 294.928 341.052V347.399H291.649V335.339H294.77ZM310.32 337.508C309.791 337.508 309.368 337.614 308.997 337.878C308.627 338.143 308.363 338.407 308.098 338.83C307.887 339.2 307.728 339.624 307.622 340.1C307.516 340.576 307.464 340.999 307.464 341.475C307.464 341.898 307.516 342.374 307.622 342.797C307.728 343.273 307.887 343.643 308.098 344.014C308.31 344.384 308.574 344.701 308.945 344.913C309.315 345.124 309.738 345.283 310.267 345.283C311.06 345.283 311.695 345.071 312.118 344.595C312.541 344.172 312.806 343.538 312.911 342.797H316.085C315.873 344.384 315.239 345.6 314.234 346.447C313.229 347.293 311.906 347.716 310.267 347.716C309.368 347.716 308.521 347.557 307.781 347.24C307.04 346.923 306.406 346.499 305.877 345.971C305.348 345.442 304.925 344.754 304.66 344.014C304.343 343.273 304.237 342.427 304.237 341.528C304.237 340.576 304.396 339.729 304.66 338.936C304.925 338.143 305.348 337.455 305.877 336.873C306.406 336.291 307.04 335.815 307.834 335.498C308.574 335.181 309.473 335.022 310.425 335.022C311.166 335.022 311.854 335.128 312.488 335.286C313.123 335.498 313.758 335.762 314.287 336.133C314.815 336.503 315.239 336.979 315.556 337.561C315.873 338.143 316.085 338.777 316.138 339.571H312.911C312.541 338.195 311.695 337.508 310.32 337.508ZM321.797 350.995C321.162 351.418 320.263 351.63 319.153 351.63C318.835 351.63 318.465 351.63 318.148 351.577C317.83 351.577 317.46 351.524 317.143 351.471V348.721C317.46 348.774 317.777 348.774 318.095 348.827C318.412 348.88 318.729 348.88 319.1 348.827C319.523 348.774 319.84 348.615 320.052 348.298C320.263 347.98 320.369 347.663 320.369 347.293C320.369 347.028 320.316 346.764 320.21 346.552L315.979 335.234H319.523L322.273 343.485H322.326L324.971 335.234H328.409L323.384 348.774C322.961 349.884 322.432 350.572 321.797 350.995Z" fill="#FF0000"/>
<path d="M195.97 279.592L202.793 282.977H215.328V290.858H197.98L170 277H215.328V279.592H195.97ZM218.554 333.594V277L246.64 290.91V300.854V347.398L218.554 333.594ZM228.604 286.044L221.834 282.659V290.434L228.604 293.819V286.044ZM228.604 299.638L221.834 296.252V303.922L228.604 307.307V299.638ZM228.604 313.019L221.834 309.634V317.409L228.604 320.794V313.019ZM228.604 326.612L221.834 323.28V331.055L228.604 334.387V326.612Z" fill="#FF0000"/>
<path d="M435.41 293.685V286.954L440.268 286.051L439.851 292.852L435.41 293.685ZM416.118 285.496L414.661 281.124L419.727 279.112L420.837 283.345L416.118 285.496ZM425.556 134.768C424.723 134.629 423.89 134.49 422.988 134.282C422.919 134.282 422.919 134.282 422.919 134.282C422.988 134.212 422.988 134.212 422.988 134.212C423.543 133.518 424.029 132.686 424.445 131.784C425.07 130.396 425.625 128.73 426.042 126.718C429.72 129.008 432.495 129.146 434.3 127.134C434.994 130.187 435.826 132.894 436.729 135.392C433.189 135.6 429.442 135.392 425.556 134.768ZM426.319 123.387C425.695 122.831 425.278 122.068 425.139 121.027C425.07 120.611 425.07 120.194 425.07 119.709L425.417 115.684C429.72 116.169 433.883 116.239 438.047 115.753L438.325 120.403C438.325 120.611 438.325 120.819 438.325 121.027C438.186 122.484 437.631 123.456 436.659 124.011L436.59 124.081L433.814 125.26L428.679 124.983L426.597 123.525L426.319 123.387ZM432.565 118.737L431.663 119.917L434.369 122.276L434.786 121.443L432.565 118.737ZM427.915 120.888L428.054 121.721L430.622 119.986L429.997 118.806L427.915 120.888ZM462.96 154.892C464.21 154.337 465.32 153.852 466.43 153.435C469.831 158.57 471.912 163.498 472.676 168.147C473.162 172.589 471.427 175.364 467.332 176.614C461.711 177.446 455.951 177.585 449.983 176.96C446.305 176.614 442.488 175.989 438.672 175.087C438.047 175.781 437.214 176.128 436.173 176.197C435.41 177.238 434.508 178.001 433.398 178.418C431.801 178.904 430.552 178.904 429.72 178.418C428.262 175.92 427.846 173.907 428.401 172.519C428.54 172.033 428.817 171.617 429.164 171.27C429.858 170.645 430.969 170.229 432.495 170.09H433.745H433.883H436.798L437.77 169.951L449.636 167.661L455.327 166.551L453.384 161.832C454.355 159.681 457.547 157.391 462.96 154.892ZM393.564 162.04C393.842 161.277 394.05 160.514 394.258 159.75C396.201 160.097 399.116 161.069 403.071 162.595C398.769 176.336 394.883 191.464 391.413 208.05C391.066 209.854 390.719 211.728 390.303 213.532C390.719 213.949 391.066 214.296 391.413 214.712C394.397 218.043 395.091 220.888 393.495 223.248C391.968 224.081 390.441 223.664 388.845 222.137C387.596 220.958 386.694 218.945 386.208 215.961C386.139 215.475 386.069 214.92 386 214.365C386.069 212.214 386.139 210.132 386.278 208.05C387.318 190.354 389.678 175.017 393.564 162.04Z" fill="#FEB992"/>
<path d="M435.41 298.057V293.754L439.921 292.922L448.04 300L435.41 298.057ZM412.579 294.587L416.118 285.496L420.837 283.345L421.947 287.647L412.579 294.587ZM428.956 100L432.357 100.694C433.12 101.11 433.953 102.429 434.716 104.65L436.035 110.479C435.618 111.659 431.94 112.006 425.001 111.659C429.997 112.838 434.3 113.046 437.769 112.214C438.463 112.075 439.157 111.867 439.782 111.589L439.435 110.548C440.476 110.618 441.447 110.687 442.419 110.756C445.334 111.034 447.832 111.589 449.914 112.353C454.147 114.157 454.008 114.851 449.636 114.296C447.693 114.018 445.264 113.81 442.488 113.879C441.794 113.879 441.1 113.879 440.337 113.879C439.574 113.879 438.81 113.949 437.978 113.949C437.422 113.949 436.867 114.018 436.312 114.018C435.132 114.087 433.883 114.157 432.565 114.296C430.136 114.434 427.846 114.365 425.625 114.087C425.348 114.018 425.001 114.018 424.723 114.018C424.515 114.018 424.376 113.949 424.168 113.949C423.821 113.879 423.543 113.879 423.196 113.81C419.449 113.185 415.979 112.075 412.648 110.479C409.803 108.883 410.08 108.397 413.411 108.883C416.604 109.438 419.865 109.854 423.196 110.132C423.89 110.201 424.584 110.271 425.278 110.271C426.458 103.678 427.707 100.208 428.956 100ZM394.258 159.75C392.662 159.473 391.76 159.542 391.552 160.028C397.103 139.07 406.541 130.257 419.935 133.657C420.906 133.935 421.878 134.143 422.849 134.351H422.919C423.751 134.49 424.654 134.698 425.486 134.837C429.442 135.392 433.189 135.6 436.729 135.392C438.047 135.323 439.296 135.184 440.545 135.045C444.848 135.253 448.803 136.502 452.551 138.723C454.633 139.972 456.645 141.568 458.519 143.442C461.711 146.912 464.348 150.243 466.5 153.505C465.389 153.921 464.209 154.337 463.03 154.962C457.617 157.46 454.425 159.75 453.453 161.832L449.081 151.284L449.636 167.661L437.769 169.951C437.839 169.743 437.978 169.466 438.047 169.119C438.325 168.147 438.533 166.967 438.672 165.579C438.81 164.192 438.88 163.012 438.88 161.971C438.81 160.999 438.672 160.444 438.463 160.444C438.394 160.444 438.394 160.444 438.325 160.514L434.994 160.097C434.924 160.028 434.924 160.028 434.855 160.028H434.785L417.159 151.076C417.089 151.006 417.02 151.006 416.951 150.937C416.465 150.867 415.91 152.047 415.285 154.337C414.661 156.627 414.175 159.473 413.828 162.804C413.481 166.135 413.342 168.98 413.481 171.339C413.55 173.699 413.828 174.948 414.314 175.017C414.383 175.017 414.452 175.017 414.522 174.948L429.095 171.27C428.748 171.617 428.47 172.033 428.332 172.519C427.776 173.976 428.193 175.919 429.65 178.418C430.483 178.904 431.663 178.904 433.328 178.418C434.369 178.001 435.271 177.238 436.104 176.197C437.145 176.128 437.978 175.781 438.602 175.087C442.697 176.96 446.513 178.487 450.053 179.736L450.747 200.694C449.914 200.694 449.081 200.694 448.248 200.625C440.962 200.416 433.675 199.306 426.527 197.294C425.001 196.947 423.543 196.669 422.155 196.322C417.228 195.281 413.203 194.518 410.15 194.032C406.888 193.546 404.737 193.407 403.627 193.616C404.876 187.509 405.847 181.402 406.402 175.295C406.749 171.617 407.027 167.939 407.096 164.261C407.235 159.75 407.235 155.309 407.027 150.798C405.639 154.615 404.32 158.501 403.071 162.595C399.116 161.069 396.201 160.097 394.258 159.75Z" fill="#323232"/>
<path d="M450.053 179.736C452.273 180.5 454.355 181.193 456.298 181.749L458.033 200.416C455.604 200.624 453.175 200.694 450.747 200.694L450.053 179.736ZM407.027 150.867C407.235 155.378 407.235 159.819 407.096 164.33C405.639 163.706 404.32 163.15 403.071 162.665C404.39 158.57 405.708 154.684 407.027 150.867ZM455.327 166.551L449.636 167.661L449.081 151.284L453.384 161.763L455.327 166.551ZM454.008 134.767C454.078 134.767 454.078 134.767 454.078 134.767C456.506 135.531 458.797 136.711 461.017 138.376C467.055 142.887 471.843 147.675 475.452 152.81C473.231 151.978 470.178 152.186 466.43 153.435C464.279 150.173 461.642 146.842 458.45 143.373C456.576 141.499 454.563 139.903 452.482 138.654C448.734 136.433 444.779 135.184 440.545 134.906C441.031 134.837 441.517 134.767 441.933 134.629C442.28 134.559 442.627 134.49 442.974 134.42C446.86 133.726 450.538 133.796 454.008 134.767ZM432.357 100.694L433.814 100.971C435.341 101.388 436.382 102.29 436.937 103.678L439.366 110.618L439.713 111.658C439.088 111.936 438.394 112.075 437.7 112.283C434.161 113.116 429.928 112.908 424.862 111.658C431.801 112.075 435.479 111.658 435.896 110.479L434.577 104.649C433.953 102.429 433.12 101.11 432.357 100.694ZM391.552 160.097C391.76 159.611 392.662 159.542 394.258 159.819C394.05 160.583 393.772 161.346 393.564 162.11C392.315 161.207 391.621 160.583 391.552 160.097Z" fill="#19190F"/>
<path d="M425.833 200.625C424.653 200.278 423.474 199.931 422.363 199.653C418.477 198.612 415.285 197.849 412.856 197.363C411.399 197.085 410.288 196.947 409.386 196.877L410.15 194.032C413.203 194.448 417.159 195.212 422.155 196.322C423.543 196.6 425 196.947 426.527 197.294C433.675 199.237 440.961 200.347 448.248 200.625V284.525L443.46 285.427L441.725 203.817C436.381 203.539 431.107 202.429 425.833 200.625ZM423.335 202.429L426.805 204.58L427.082 208.466L415.979 238.584L424.168 277.377L420.837 278.695L410.982 239.07L423.335 202.429Z" fill="#A82323"/>
<path d="M426.805 204.511L423.335 202.36L410.982 238.931L420.837 278.557L419.796 278.973L414.73 280.986L409.733 282.998L398.63 238.168L409.456 196.947C410.358 197.016 411.538 197.155 412.925 197.432C415.354 197.849 418.477 198.612 422.433 199.723C423.543 200 424.653 200.347 425.903 200.694C431.107 202.498 436.451 203.609 441.794 203.886L443.529 285.496L440.406 286.121L435.549 287.023L432.981 287.509L427.221 208.466L426.805 204.511ZM430.83 126.579L428.678 125.052L433.814 125.33L430.83 126.579ZM428.054 121.721L427.846 120.888L429.997 118.807L430.621 119.986L428.054 121.721ZM431.662 119.917L432.565 118.737L434.785 121.444L434.369 122.276L431.662 119.917ZM425.556 114.157L425.417 115.684L425.07 119.709C425.07 120.194 425.07 120.68 425.139 121.027C425.347 121.999 425.694 122.832 426.319 123.387L426.596 123.595C426.458 124.705 426.25 125.746 426.041 126.648C425.625 128.661 425.07 130.326 424.445 131.714C423.821 131.437 423.335 130.951 422.988 130.396C422.641 129.841 422.433 129.147 422.363 128.383C416.395 126.371 416.395 123.803 422.294 120.68C419.24 117.557 419.865 115.892 424.168 115.753C423.821 115.129 423.751 114.573 424.029 114.157C424.029 114.157 424.029 114.088 424.098 114.088C424.306 114.088 424.445 114.157 424.653 114.157C424.931 114.088 425.209 114.157 425.556 114.157ZM438.047 115.753L437.908 113.949C438.741 113.879 439.504 113.879 440.268 113.879C440.337 113.949 440.476 114.018 440.545 114.088C441.655 115.059 441.655 116.586 440.615 118.737C443.113 118.876 444.362 119.709 444.362 121.027C444.362 121.86 443.946 122.832 443.113 124.081C447.068 127.065 445.611 129.771 438.741 132.269C437.839 130.326 437.145 127.62 436.52 124.15L436.59 124.081C437.561 123.525 438.116 122.485 438.255 121.097C438.255 120.888 438.255 120.68 438.255 120.472L438.047 115.753Z" fill="#CC3333"/>
<path d="M403.071 162.665C404.32 163.151 405.708 163.706 407.096 164.33C406.957 168.008 406.749 171.686 406.402 175.364C400.851 186.398 396.132 199.028 392.315 213.185C394.744 215.198 395.854 217.28 395.507 219.431C395.368 221.096 394.744 222.346 393.495 223.248C395.16 220.888 394.466 218.043 391.413 214.712C391.066 214.365 390.719 213.949 390.302 213.532C390.649 211.728 390.996 209.854 391.413 208.05C394.882 191.534 398.769 176.336 403.071 162.665ZM466.43 153.505C470.177 152.255 473.161 152.047 475.451 152.88C478.991 158.015 481.42 163.428 482.599 169.188C483.779 176.683 480.726 181.471 473.37 183.414C469.136 184.316 463.446 183.761 456.298 181.749C454.355 181.194 452.204 180.5 450.052 179.736C446.513 178.487 442.766 176.96 438.671 175.156C442.488 176.058 446.305 176.683 449.983 177.03C455.951 177.585 461.78 177.446 467.332 176.683C471.427 175.434 473.231 172.589 472.676 168.217C471.912 163.567 469.83 158.64 466.43 153.505ZM438.741 132.269C439.227 133.31 439.782 134.212 440.337 134.768C440.406 134.837 440.476 134.906 440.545 135.045C439.296 135.253 438.047 135.323 436.728 135.462C435.826 132.894 434.993 130.187 434.3 127.134C432.495 129.146 429.719 128.938 426.041 126.648C426.25 125.677 426.458 124.636 426.597 123.595L428.678 125.052L430.83 126.579L433.814 125.26L436.59 124.081C437.145 127.55 437.908 130.326 438.741 132.269ZM437.908 114.018L438.047 115.822C433.883 116.239 429.719 116.239 425.417 115.753L425.556 114.226C427.776 114.434 430.136 114.504 432.495 114.434C433.814 114.296 435.063 114.226 436.243 114.157C436.798 114.018 437.353 114.018 437.908 114.018Z" fill="#E7A27B"/>
<path d="M417.922 154.615C417.852 152.602 417.575 151.423 417.228 151.076L434.854 160.028L435.063 160.097C435.201 160.236 435.271 160.722 435.34 161.555C435.41 162.526 435.34 163.775 435.132 165.163C434.993 166.551 434.785 167.731 434.507 168.702C434.23 169.674 434.022 170.16 433.813 170.09H433.744H432.495C430.968 170.229 429.858 170.576 429.164 171.27L414.591 174.948C415.007 174.67 415.493 173.56 416.048 171.617C416.673 169.327 417.089 166.482 417.505 163.22C417.852 159.889 417.991 157.044 417.922 154.615Z" fill="#9CDAE2"/>
<path d="M417.02 151.006C417.089 151.006 417.159 151.076 417.228 151.145C417.645 151.492 417.853 152.672 417.922 154.684C417.992 157.044 417.853 159.958 417.506 163.289C417.159 166.62 416.673 169.396 416.048 171.686C415.493 173.629 415.077 174.74 414.591 175.017C414.522 175.087 414.452 175.087 414.383 175.087C413.897 175.017 413.62 173.838 413.55 171.409C413.411 169.049 413.55 166.204 413.897 162.873C414.244 159.542 414.73 156.766 415.354 154.407C415.979 152.047 416.534 150.937 417.02 151.006Z" fill="#69A2AD"/>
<path d="M438.88 161.971C438.88 162.942 438.81 164.192 438.672 165.579C438.533 166.967 438.325 168.147 438.047 169.119C437.978 169.466 437.839 169.743 437.77 169.951L436.867 170.16H433.953H433.814C434.022 170.16 434.23 169.674 434.508 168.772C434.786 167.731 434.994 166.551 435.132 165.163C435.271 163.775 435.341 162.595 435.341 161.554C435.271 160.722 435.202 160.236 435.063 160.097L438.394 160.514C438.464 160.444 438.464 160.444 438.533 160.444C438.672 160.444 438.81 160.93 438.88 161.971Z" fill="#89C5CD"/>
</svg>
