<svg width="41" height="29" viewBox="0 0 41 29" fill="none" xmlns="http://www.w3.org/2000/svg">
<path d="M26.7004 14.4C23.0004 12.4 19.5004 10.6 15.9004 8.80005V20.1001C19.7004 18.0001 23.7004 16.1 26.7004 14.4Z" fill="black"/>
<path d="M16.6007 28.8C9.00067 28.7 6.40067 28.5 4.80067 28.2001C3.70067 28 2.80067 27.5 2.10067 26.8C1.60067 26.3 1.10067 25.5 0.800667 24.3C0.500667 23.4 0.400667 22.6 0.300667 20.7001C0.100667 16.4001 0.000667214 12.8 0.300667 8.90005C0.500667 6.70005 0.700667 4.10005 2.30067 2.60005C3.10067 1.90005 4.00067 1.40005 5.00067 1.30005C6.60067 1.00005 13.3007 0.800049 20.2007 0.800049C27.1007 0.800049 33.8007 1.00005 35.4007 1.30005C36.7007 1.50005 37.8007 2.20005 38.5007 3.20005C40.0007 5.50005 40.0007 8.40005 40.2007 10.7001C40.3007 11.8001 40.3007 17.9 40.2007 19C40.0007 22.6 39.8007 23.9001 39.2007 25.2001C38.9007 26 38.6007 26.5 38.1007 27C37.3007 27.7 36.4007 28.2 35.3007 28.4C28.6007 28.8 23.0007 28.9 16.6007 28.8ZM26.7007 14.4C23.0007 12.4 19.5007 10.6 15.9007 8.70005V20C19.7007 17.9 23.7007 16.1 26.7007 14.4Z" fill="#FF0000"/>
</svg>
