<svg width="41" height="29" viewBox="0 0 41 29" fill="none" xmlns="http://www.w3.org/2000/svg">
<path d="M26.7004 14.3998C23.0004 12.3998 19.5004 10.5998 15.9004 8.7998V20.0998C19.7004 17.9998 23.7004 16.0998 26.7004 14.3998Z" fill="white"/>
<path d="M16.6002 28.7998C9.00018 28.6998 6.40018 28.4998 4.80018 28.1998C3.70018 27.9998 2.80018 27.4998 2.10018 26.7998C1.60018 26.2998 1.10018 25.4998 0.800179 24.2998C0.500179 23.3998 0.400179 22.5998 0.300179 20.6998C0.100179 16.3998 0.000178933 12.7998 0.300179 8.8998C0.500179 6.6998 0.700179 4.09981 2.30018 2.59981C3.10018 1.89981 4.00018 1.3998 5.00018 1.2998C6.60018 0.999805 13.3002 0.799805 20.2002 0.799805C27.1002 0.799805 33.8002 0.999805 35.4002 1.2998C36.7002 1.4998 37.8002 2.19981 38.5002 3.19981C40.0002 5.49981 40.0002 8.39981 40.2002 10.6998C40.3002 11.7998 40.3002 17.8998 40.2002 18.9998C40.0002 22.5998 39.8002 23.8998 39.2002 25.1998C38.9002 25.9998 38.6002 26.4998 38.1002 26.9998C37.3002 27.6998 36.4002 28.1998 35.3002 28.3998C28.6002 28.7998 23.0002 28.8998 16.6002 28.7998ZM26.7002 14.3998C23.0002 12.3998 19.5002 10.5998 15.9002 8.69981V19.9998C19.7002 17.8998 23.7002 16.0998 26.7002 14.3998Z" fill="#FF0000"/>
</svg>
