<svg width="41" height="29" viewBox="0 0 41 29" fill="none" xmlns="http://www.w3.org/2000/svg">
<path d="M26.7004 14.3998C23.0004 12.3998 19.5004 10.5998 15.9004 8.7998V20.0998C19.7004 17.9998 23.7004 16.0998 26.7004 14.3998Z" fill="white"/>
<path d="M16.6007 28.7998C9.00067 28.6998 6.40067 28.4998 4.80067 28.1998C3.70067 27.9998 2.80067 27.4998 2.10067 26.7998C1.60067 26.2998 1.10067 25.4998 0.800667 24.2998C0.500667 23.3998 0.400667 22.5998 0.300667 20.6998C0.100667 16.3998 0.000667214 12.7998 0.300667 8.8998C0.500667 6.6998 0.700667 4.09981 2.30067 2.59981C3.10067 1.89981 4.00067 1.3998 5.00067 1.2998C6.60067 0.999805 13.3007 0.799805 20.2007 0.799805C27.1007 0.799805 33.8007 0.999805 35.4007 1.2998C36.7007 1.4998 37.8007 2.19981 38.5007 3.19981C40.0007 5.49981 40.0007 8.39981 40.2007 10.6998C40.3007 11.7998 40.3007 17.8998 40.2007 18.9998C40.0007 22.5998 39.8007 23.8998 39.2007 25.1998C38.9007 25.9998 38.6007 26.4998 38.1007 26.9998C37.3007 27.6998 36.4007 28.1998 35.3007 28.3998C28.6007 28.7998 23.0007 28.8998 16.6007 28.7998ZM26.7007 14.3998C23.0007 12.3998 19.5007 10.5998 15.9007 8.69981V19.9998C19.7007 17.8998 23.7007 16.0998 26.7007 14.3998Z" fill="#FF0000"/>
</svg>
